<svg width="234" height="208" viewBox="0 0 234 208" fill="none" xmlns="http://www.w3.org/2000/svg">
<path d="M316.092 -163.34C297.283 -163.34 279.36 -157.504 264.252 -146.468C225.3 -118.009 146.566 -68.8695 56.9094 -59.5189C41.4726 -57.9045 27.2573 -50.4897 16.8995 -38.646C6.47734 -26.7238 1.10554 -11.587 1.76987 3.97834C5.05581 80.8551 19.2854 152.431 44.0656 216.729C64.7457 270.39 92.9547 319.522 127.914 362.746C192.44 442.559 262.774 481.333 290.018 494.305C306.334 502.056 325.821 502.056 342.136 494.305C369.381 481.34 439.707 442.559 504.247 362.746C539.2 319.514 567.409 270.39 588.096 216.729C612.876 152.439 627.106 80.8622 630.392 3.97834C631.042 -11.6156 625.663 -26.7452 615.241 -38.6532C604.883 -50.4897 590.682 -57.9045 575.245 -59.5189C485.582 -68.8767 406.855 -118.009 367.902 -146.468C352.787 -157.504 334.879 -163.34 316.092 -163.34ZM316.077 500.834C307.02 500.834 297.969 498.87 289.711 494.948C262.424 481.961 191.983 443.123 127.35 363.189C92.3476 319.9 64.1027 270.711 43.3942 216.979C18.5853 152.617 4.34148 80.9622 1.05553 4.00692C0.38406 -11.737 5.82015 -27.0524 16.3637 -39.1175C26.843 -51.104 41.2155 -58.5974 56.838 -60.2332C146.323 -69.5625 224.935 -118.63 263.831 -147.054C279.06 -158.176 297.133 -164.055 316.092 -164.055C335.029 -164.055 353.087 -158.176 368.317 -147.046C407.212 -118.63 485.81 -69.5696 575.281 -60.2261C590.932 -58.5903 605.297 -51.0969 615.777 -39.1246C626.32 -27.0738 631.756 -11.7727 631.099 3.9712C627.813 80.9622 613.562 152.617 588.76 216.979C568.052 270.711 539.807 319.9 504.805 363.189C440.172 443.123 369.724 481.961 342.443 494.948C334.186 498.87 325.128 500.834 316.077 500.834Z" stroke="url(#paint0_angular)" stroke-width="0.5" stroke-miterlimit="10"/>
<path d="M316.092 -150.582C298.012 -150.582 280.775 -144.974 266.245 -134.359C228.793 -106.993 153.08 -59.7398 66.8816 -50.7535C52.0377 -49.2034 38.3725 -42.0743 28.4075 -30.6807C18.3854 -19.2156 13.2136 -4.66458 13.8565 10.3007C17.0139 84.2201 30.7005 153.046 54.5236 214.865C74.4107 266.461 101.534 313.7 135.143 355.267C197.198 432.016 264.824 469.297 291.019 481.769C306.705 489.227 325.442 489.227 341.129 481.769C367.324 469.297 434.95 432.016 497.004 355.267C530.614 313.7 557.737 266.461 577.624 214.865C601.447 153.046 615.134 84.2201 618.291 10.3007C618.92 -4.69316 613.748 -19.237 603.726 -30.695C593.768 -42.0815 580.11 -49.2034 565.266 -50.7535C479.046 -59.747 403.348 -106.993 365.895 -134.359C351.38 -144.974 334.15 -150.582 316.092 -150.582ZM316.077 488.048C307.37 488.048 298.662 486.162 290.726 482.39C264.488 469.904 196.755 432.558 134.615 355.703C100.963 314.079 73.7964 266.783 53.8878 215.115C30.0362 153.225 16.3352 84.3273 13.1779 10.3365C12.5278 -4.80745 17.7568 -19.5299 27.9003 -31.1236C37.9796 -42.6458 51.7948 -49.8534 66.8173 -51.425C152.852 -60.4042 228.443 -107.586 265.845 -134.916C280.489 -145.617 297.862 -151.268 316.092 -151.268C334.3 -151.268 351.666 -145.61 366.309 -134.916C403.705 -107.593 479.289 -60.4184 565.309 -51.4393C580.353 -49.8677 594.175 -42.6601 604.247 -31.145C614.384 -19.5585 619.613 -4.84316 618.984 10.2936C615.82 84.3201 602.126 153.218 578.274 215.108C558.366 266.776 531.199 314.072 497.547 355.696C435.4 432.551 367.667 469.897 341.429 482.39C333.486 486.162 324.785 488.048 316.077 488.048Z" stroke="url(#paint1_angular)" stroke-width="0.5" stroke-miterlimit="10"/>
<path d="M316.092 -137.823C298.733 -137.823 282.189 -132.437 268.238 -122.251C232.286 -95.9775 159.602 -50.6173 76.8466 -41.9881C62.5956 -40.4951 49.4804 -33.6589 39.9154 -22.7225C30.2934 -11.7146 25.3287 2.25068 25.943 16.616C28.979 87.578 42.1085 153.654 64.9815 213.001C84.0756 262.533 110.113 307.886 142.38 347.789C201.948 421.465 266.874 457.261 292.019 469.226C307.084 476.383 325.064 476.383 340.129 469.226C365.274 457.254 430.2 421.458 489.768 347.789C522.034 307.886 548.072 262.533 567.166 213.001C590.039 153.654 603.176 87.5852 606.205 16.616C606.805 2.22211 601.84 -11.7431 592.225 -22.7368C582.667 -33.6661 569.552 -40.5023 555.308 -41.9952C472.531 -50.6244 399.862 -95.9775 363.909 -122.251C349.965 -132.437 333.429 -137.823 316.092 -137.823ZM316.077 475.262C307.72 475.262 299.362 473.455 291.74 469.833C266.553 457.846 201.527 421.994 141.872 348.21C109.563 308.25 83.4899 262.847 64.3743 213.244C41.4727 153.833 28.3218 87.6852 25.2859 16.6517C24.6644 2.11496 29.6862 -12.0217 39.4154 -23.1511C49.0875 -34.2161 62.3599 -41.138 76.7751 -42.6381C159.381 -51.253 231.95 -96.549 267.853 -122.779C281.911 -133.052 298.59 -138.48 316.092 -138.48C333.571 -138.48 350.244 -133.052 364.302 -122.779C400.197 -96.549 472.753 -51.2602 555.337 -42.6453C569.781 -41.138 583.046 -34.2233 592.718 -23.1654C602.447 -12.0432 607.469 2.08639 606.862 16.616C603.826 87.6852 590.675 153.825 567.781 213.237C548.665 262.833 522.592 308.243 490.282 348.203C430.628 421.987 365.602 457.832 340.415 469.826C332.793 473.448 324.435 475.262 316.077 475.262Z" stroke="url(#paint2_angular)" stroke-width="0.5" stroke-miterlimit="10"/>
<path d="M316.092 -125.066C299.455 -125.066 283.596 -119.909 270.238 -110.144C235.779 -84.9633 166.124 -41.496 86.8186 -33.224C73.1605 -31.7953 60.5882 -25.2377 51.4233 -14.7584C42.2012 -4.21482 37.4438 9.17896 38.0366 22.9442C40.944 90.9489 53.5306 154.268 75.4464 211.143C93.7405 258.61 118.699 302.071 149.616 340.316C206.705 410.921 268.924 445.223 293.019 456.696C307.455 463.553 324.685 463.553 339.122 456.696C363.223 445.223 425.435 410.921 482.525 340.316C513.448 302.078 538.4 258.618 556.694 211.143C578.61 154.268 591.203 90.9489 594.104 22.9442C594.682 9.15038 589.918 -4.22912 580.703 -14.7656C571.538 -25.2377 558.973 -31.7953 545.322 -33.224C466.002 -41.5031 396.361 -84.9704 361.902 -110.144C348.551 -119.901 332.707 -125.066 316.092 -125.066ZM316.077 462.475C308.07 462.475 300.055 460.739 292.754 457.267C268.617 445.78 206.298 411.421 149.13 340.716C118.171 302.421 93.1833 258.903 74.8606 211.379C52.9163 154.439 40.3154 91.056 37.408 22.9799C36.8151 9.05037 41.6226 -4.50056 50.9518 -15.1656C60.2239 -25.7663 72.9391 -32.4025 86.7543 -33.8454C165.91 -42.096 235.457 -85.5062 269.867 -110.644C283.339 -120.487 299.326 -125.688 316.099 -125.688C332.85 -125.688 348.822 -120.487 362.295 -110.644C396.697 -85.5062 466.231 -42.1032 545.372 -33.8454C559.216 -32.4025 571.924 -25.7735 581.196 -15.1799C590.518 -4.52198 595.332 9.0218 594.754 22.9442C591.846 91.0489 579.246 154.439 557.301 211.371C538.986 258.903 513.991 302.421 483.032 340.709C425.863 411.414 363.545 445.773 339.407 457.26C332.093 460.739 324.085 462.475 316.077 462.475Z" stroke="url(#paint3_angular)" stroke-width="0.5" stroke-miterlimit="10"/>
<path d="M316.092 -112.302C300.176 -112.302 285.011 -107.366 272.232 -98.0293C239.272 -73.949 172.646 -32.3676 96.7908 -24.4528C83.7256 -23.0884 71.7033 -16.8165 62.9385 -6.78725C54.1164 3.29916 49.5661 16.1072 50.1304 29.2795C52.9092 94.3269 64.9529 154.895 85.9186 209.292C103.42 254.695 127.286 296.269 156.866 332.843C211.47 400.377 270.981 433.193 294.033 444.165C307.841 450.723 324.328 450.723 338.129 444.165C361.181 433.193 420.692 400.384 475.295 332.843C504.876 296.262 528.742 254.695 546.243 209.292C567.209 154.895 579.253 94.3269 582.031 29.2795C582.582 16.0858 578.031 3.28487 569.216 -6.7944C560.451 -16.8094 548.436 -23.0812 535.371 -24.4456C459.502 -32.3604 392.883 -73.9419 359.93 -98.0221C347.144 -107.366 331.986 -112.302 316.092 -112.302ZM316.077 449.687C308.413 449.687 300.755 448.03 293.769 444.708C270.681 433.715 211.077 400.855 156.388 333.222C126.771 296.591 102.87 254.967 85.3471 209.506C64.36 155.045 52.302 94.4126 49.5232 29.2938C48.9518 15.9715 53.5521 3.01343 62.4813 -7.19442C71.3462 -17.3308 83.5113 -23.6813 96.7265 -25.0599C172.446 -32.9533 238.965 -74.4705 271.874 -98.5222C284.761 -107.937 300.055 -112.916 316.092 -112.916C332.114 -112.916 347.394 -107.937 360.28 -98.5222C393.19 -74.4776 459.702 -32.9605 535.4 -25.0599C548.643 -23.6813 560.801 -17.338 569.666 -7.20156C578.588 2.992 583.189 15.9429 582.631 29.2652C579.846 94.4126 567.795 155.038 546.808 209.499C529.285 254.967 505.383 296.591 475.767 333.215C421.085 400.848 361.473 433.707 338.386 444.701C331.4 448.023 323.735 449.687 316.077 449.687Z" stroke="url(#paint4_angular)" stroke-width="0.5" stroke-miterlimit="10"/>
<path d="M316.092 -99.5438C300.905 -99.5438 286.425 -94.8292 274.224 -85.9143C242.758 -62.927 179.168 -23.2385 106.756 -15.688C94.2835 -14.3879 82.8113 -8.3946 74.4392 1.17034C66.0172 10.7996 61.6812 23.0218 62.217 35.5941C64.8672 97.6841 76.3608 155.502 96.3765 207.427C113.078 250.766 135.865 290.447 164.095 325.364C216.22 389.833 273.024 421.149 295.033 431.622C308.213 437.886 323.949 437.886 337.129 431.622C359.13 421.149 415.941 389.826 468.059 325.364C496.29 290.447 519.077 250.766 535.778 207.427C555.794 155.502 567.288 97.6841 569.938 35.5941C570.466 23.0004 566.116 10.7781 557.701 1.16319C549.336 -8.40175 537.864 -14.3807 525.399 -15.688C452.98 -23.2456 389.39 -62.9341 357.93 -85.9143C345.729 -94.8363 331.257 -99.5438 316.092 -99.5438ZM316.077 436.9C308.763 436.9 301.448 435.315 294.783 432.15C272.746 421.657 215.849 390.29 163.645 325.736C135.372 290.776 112.563 251.038 95.8336 207.642C75.7965 155.66 64.2957 97.7841 61.6384 35.6227C61.0955 22.9004 65.4886 10.5353 74.0035 0.791747C82.4684 -8.88749 94.0763 -14.9451 106.691 -16.2594C178.968 -23.7957 242.465 -63.427 273.882 -86.3786C286.182 -95.3649 300.776 -100.115 316.092 -100.115C331.386 -100.115 345.972 -95.3649 358.273 -86.3786C389.682 -63.427 453.173 -23.8028 525.435 -16.2594C538.071 -14.9379 549.679 -8.8875 558.144 0.784596C566.659 10.5138 571.052 22.879 570.524 35.5941C567.866 97.777 556.358 155.652 536.328 207.635C519.606 251.03 496.79 290.762 468.516 325.728C416.32 390.283 359.423 421.657 337.379 432.143C330.7 435.315 323.385 436.9 316.077 436.9Z" stroke="url(#paint5_angular)" stroke-width="0.5" stroke-miterlimit="10"/>
<path d="M316.084 -86.7846C301.619 -86.7846 287.832 -82.2986 276.21 -73.8051C246.251 -51.9179 185.683 -14.1153 116.721 -6.92195C104.841 -5.67901 93.9119 0.021382 85.9471 9.1363C77.9251 18.3084 73.7962 29.952 74.3034 41.9243C76.8322 101.057 87.7758 156.118 106.834 205.571C122.742 246.853 144.444 284.641 171.332 317.893C220.978 379.29 275.074 409.121 296.033 419.093C308.584 425.058 323.571 425.058 336.122 419.093C357.08 409.121 411.177 379.29 460.823 317.893C487.711 284.641 509.412 246.853 525.32 205.571C544.379 156.118 555.329 101.057 557.851 41.9243C558.351 29.9306 554.215 18.2941 546.2 9.12916C538.235 0.0213861 527.306 -5.67901 515.434 -6.92195C446.458 -14.1153 385.904 -51.9179 355.937 -73.8051C344.315 -82.2986 330.535 -86.7846 316.084 -86.7846ZM316.077 424.115C309.112 424.115 302.148 422.608 295.797 419.586C274.81 409.593 220.621 379.719 170.91 318.236C143.987 284.941 122.257 247.096 106.327 205.764C87.2472 156.254 76.2893 101.136 73.7605 41.9386C73.2391 29.8234 77.4251 18.0441 85.5399 8.77199C93.6048 -0.442931 104.656 -6.21476 116.671 -7.47199C185.504 -14.6511 245.98 -52.3965 275.896 -74.2552C287.611 -82.8129 301.512 -87.3418 316.092 -87.3418C330.657 -87.3418 344.551 -82.8201 356.266 -74.2552C386.182 -52.3965 446.643 -14.6582 515.462 -7.47199C527.499 -6.21476 538.55 -0.450078 546.615 8.7577C554.722 18.0298 558.908 29.802 558.401 41.91C555.872 101.136 544.914 156.254 525.835 205.764C509.905 247.096 488.175 284.934 461.252 318.236C411.541 379.719 357.352 409.593 336.364 419.586C330.007 422.601 323.042 424.115 316.077 424.115Z" stroke="url(#paint6_angular)" stroke-width="0.5" stroke-miterlimit="10"/>
<path d="M316.084 -74.0267C302.341 -74.0267 289.24 -69.7621 278.203 -61.6973C249.737 -40.8958 192.197 -4.9862 126.686 1.84284C115.406 3.02149 105.02 8.43615 97.4479 17.0939C89.826 25.8088 85.9043 36.8667 86.39 48.2389C88.7902 104.421 99.1909 156.725 117.299 203.707C132.415 242.924 153.03 278.819 178.568 310.414C225.728 368.74 277.125 397.077 297.033 406.557C308.955 412.221 323.192 412.221 335.122 406.557C355.03 397.077 406.426 368.74 453.587 310.414C479.131 278.826 499.747 242.924 514.855 203.707C532.964 156.725 543.364 104.421 545.765 48.2389C546.243 36.8453 542.307 25.7874 534.692 17.0867C527.128 8.43615 516.741 3.02149 505.462 1.84284C439.936 -4.99335 382.403 -40.903 353.944 -61.6973C342.901 -69.7621 329.814 -74.0267 316.084 -74.0267ZM316.077 411.328C309.463 411.328 302.841 409.892 296.812 407.028C276.875 397.534 225.393 369.154 178.168 310.743C152.587 279.112 131.95 243.159 116.814 203.9C98.6837 156.868 88.2759 104.5 85.8757 48.2675C85.3828 36.7595 89.3545 25.5659 97.0622 16.7581C104.72 8.0004 115.228 2.52146 126.636 1.32852C192.026 -5.48624 249.473 -41.3459 277.903 -62.1116C289.033 -70.2407 302.241 -74.541 316.092 -74.541C329.928 -74.541 343.129 -70.2407 354.259 -62.1116C382.682 -41.3459 440.122 -5.49338 505.498 1.32852C516.934 2.52146 527.435 8.00041 535.092 16.751C542.793 25.5588 546.772 36.7381 546.293 48.2461C543.893 104.507 533.478 156.868 515.355 203.907C500.226 243.174 479.581 279.119 454.001 310.75C406.776 369.161 355.294 397.542 335.357 407.035C329.307 409.892 322.692 411.328 316.077 411.328Z" stroke="url(#paint7_angular)" stroke-width="0.5" stroke-miterlimit="10"/>
<path d="M316.085 -61.2694C303.062 -61.2694 290.654 -57.2334 280.196 -49.5901C253.23 -29.8887 198.719 4.13507 136.651 10.6069C125.964 11.7213 116.128 16.8574 108.949 25.0579C101.734 33.3085 98.0123 43.7878 98.4695 54.5671C100.741 107.792 110.592 157.346 127.75 201.849C142.065 239.001 161.595 273.011 185.797 302.941C230.479 358.195 279.168 385.04 298.026 394.019C309.32 399.384 322.814 399.384 334.107 394.019C352.966 385.04 401.655 358.195 446.336 302.941C470.538 273.011 490.068 239.001 504.383 201.849C521.534 157.339 531.385 107.785 533.664 54.5671C534.114 43.7735 530.392 33.3014 523.177 25.0508C516.005 16.8574 506.176 11.7285 495.49 10.6069C433.414 4.12793 378.91 -29.8887 351.944 -49.5901C341.493 -57.2263 329.093 -61.2694 316.085 -61.2694ZM316.077 398.541C309.805 398.541 303.541 397.184 297.826 394.469C278.932 385.476 230.164 358.588 185.425 303.256C161.195 273.289 141.637 239.23 127.3 202.034C110.127 157.474 100.262 107.871 97.9909 54.5957C97.5265 43.695 101.291 33.0942 108.592 24.7436C115.849 16.4502 125.8 11.257 136.615 10.1283C198.562 3.67076 252.987 -30.303 279.918 -49.9758C290.461 -57.6763 302.969 -61.748 316.099 -61.748C329.207 -61.748 341.708 -57.6763 352.251 -49.9758C379.175 -30.303 433.593 3.66361 495.533 10.1283C506.369 11.257 516.313 16.4502 523.563 24.7365C530.864 33.0799 534.628 43.6735 534.171 54.5743C531.892 107.871 522.034 157.481 504.862 202.042C490.525 239.237 470.967 273.297 446.736 303.263C401.998 358.595 353.23 385.483 334.336 394.476C328.614 397.184 322.342 398.541 316.077 398.541Z" stroke="url(#paint8_angular)" stroke-width="0.5" stroke-miterlimit="10"/>
<path d="M316.085 -48.511C303.791 -48.511 292.069 -44.6964 282.189 -37.4816C256.716 -18.8732 205.234 13.2576 146.623 19.3723C136.529 20.4295 127.236 25.2727 120.464 33.0233C113.649 40.8167 110.135 50.7173 110.57 60.8895C112.72 111.157 122.021 157.953 138.222 199.992C151.745 235.08 170.189 267.197 193.047 295.463C235.243 347.652 281.232 373.004 299.04 381.483C309.713 386.555 322.449 386.555 333.114 381.483C350.93 373.004 396.912 347.652 439.107 295.463C461.959 267.197 480.403 235.073 493.925 199.992C510.126 157.953 519.427 111.157 521.577 60.8895C522.006 50.6959 518.484 40.8024 511.677 33.0161C504.905 25.2727 495.618 20.4295 485.525 19.3723C426.899 13.2576 375.424 -18.8732 349.958 -37.4816C340.079 -44.6964 328.371 -48.511 316.085 -48.511ZM316.077 385.755C310.156 385.755 304.234 384.469 298.84 381.904C280.996 373.411 234.943 348.016 192.683 295.756C169.796 267.454 151.33 235.287 137.786 200.156C121.564 158.075 112.256 111.222 110.106 60.9038C109.663 50.6102 113.22 40.5952 120.114 32.7089C126.964 24.8727 136.365 19.9723 146.58 18.9008C205.084 12.8004 256.488 -19.2804 281.918 -37.8602C291.876 -45.1322 303.691 -48.9824 316.085 -48.9824C328.464 -48.9824 340.272 -45.1393 350.23 -37.8602C375.66 -19.2804 427.056 12.8004 485.546 18.9008C495.776 19.9652 505.176 24.8655 512.019 32.7018C518.913 40.5809 522.47 50.5888 522.042 60.8823C519.891 111.222 510.577 158.075 494.361 200.156C480.824 235.287 462.352 267.454 439.464 295.756C397.204 348.016 351.151 373.411 333.307 381.904C327.914 384.469 321.992 385.755 316.077 385.755Z" stroke="url(#paint9_angular)" stroke-width="0.5" stroke-miterlimit="10"/>
<path d="M316.084 -35.7466C304.512 -35.7466 293.483 -32.1535 284.182 -25.3673C260.209 -7.85178 211.756 22.386 156.588 28.1364C147.087 29.1293 138.344 33.6939 131.965 40.9802C125.55 48.3164 122.243 57.6313 122.65 67.2106C124.671 114.521 133.429 158.567 148.673 198.127C161.402 231.15 178.761 261.381 200.269 287.983C239.986 337.101 283.261 360.959 300.026 368.939C310.07 373.71 322.056 373.71 332.1 368.939C348.865 360.959 392.147 337.093 431.857 287.983C453.365 261.381 470.724 231.15 483.453 198.127C498.704 158.567 507.455 114.514 509.476 67.2106C509.876 57.617 506.569 48.3021 500.154 40.973C493.782 33.6868 485.039 29.1293 475.538 28.1364C420.363 22.3789 371.917 -7.85893 347.944 -25.3673C338.665 -32.1606 327.642 -35.7466 316.084 -35.7466ZM316.077 372.967C310.506 372.967 304.934 371.76 299.855 369.346C283.061 361.352 239.715 337.451 199.941 288.269C178.404 261.631 161.017 231.358 148.273 198.291C133.008 158.681 124.243 114.592 122.221 67.232C121.807 57.5385 125.15 48.1164 131.643 40.6944C138.094 33.3225 146.937 28.7079 156.552 27.7007C211.62 21.9574 259.995 -8.23753 283.932 -25.7244C293.304 -32.5749 304.427 -36.1895 316.092 -36.1895C327.742 -36.1895 338.857 -32.5678 348.23 -25.7244C372.16 -8.23753 420.535 21.9574 475.588 27.7007C485.218 28.7079 494.061 33.3153 500.504 40.6873C506.991 48.1021 510.341 57.5242 509.934 67.2106C507.912 114.585 499.147 158.681 483.882 198.291C471.138 231.358 453.758 261.631 432.214 288.269C392.44 337.458 349.094 361.352 332.3 369.346C327.221 371.76 321.649 372.967 316.077 372.967Z" stroke="url(#paint10_angular)" stroke-width="0.5" stroke-miterlimit="10"/>
<path d="M316.084 -22.988C305.234 -22.988 294.897 -19.6235 286.175 -13.2516C263.702 3.17093 218.278 31.5157 166.56 36.909C157.652 37.8376 149.452 42.1165 143.48 48.9527C137.465 55.8317 134.365 64.5609 134.751 73.5401C136.644 117.893 144.858 159.189 159.152 196.277C171.082 227.236 187.361 255.581 207.527 280.519C244.758 326.565 285.332 348.938 301.048 356.417C310.463 360.888 321.699 360.888 331.114 356.417C346.829 348.938 387.404 326.565 424.635 280.519C444.801 255.581 461.073 227.236 473.01 196.277C487.304 159.189 495.511 117.893 497.411 73.5401C497.79 64.5466 494.683 55.8174 488.675 48.9455C482.703 42.1165 474.503 37.8376 465.602 36.909C413.87 31.5086 368.452 3.16378 345.987 -13.2516C337.257 -19.6235 326.921 -22.988 316.084 -22.988ZM316.077 360.181C310.856 360.181 305.627 359.053 300.869 356.788C285.125 349.295 244.487 326.886 207.206 280.776C187.011 255.803 170.717 227.422 158.766 196.427C144.458 159.296 136.236 117.957 134.343 73.5615C133.958 64.4752 137.094 55.6388 143.173 48.6812C149.216 41.7664 157.509 37.4447 166.524 36.5018C218.149 31.1157 263.502 2.81376 285.94 -13.5874C294.726 -20.0092 305.148 -23.4023 316.092 -23.4023C327.014 -23.4023 337.436 -20.0092 346.222 -13.5874C368.66 2.80661 414.006 31.1086 465.623 36.5018C474.653 37.4447 482.939 41.7664 488.982 48.6741C495.061 55.6245 498.204 64.4537 497.826 73.5401C495.926 117.957 487.711 159.296 473.395 196.427C461.452 227.422 445.151 255.803 424.956 280.776C387.668 326.886 347.03 349.295 331.293 356.788C326.521 359.046 321.299 360.181 316.077 360.181Z" stroke="url(#paint11_angular)" stroke-width="0.5" stroke-miterlimit="10"/>
<path d="M316.084 -10.2288C305.955 -10.2288 296.305 -7.08575 288.175 -1.14248C267.203 14.18 224.807 40.6461 176.532 45.675C168.217 46.5465 160.567 50.5325 154.988 56.9115C149.373 63.3334 146.48 71.484 146.837 79.8631C148.609 121.259 156.266 159.797 169.61 194.414C180.747 223.309 195.933 249.761 214.756 273.041C249.508 316.015 287.375 336.895 302.041 343.881C310.827 348.053 321.321 348.053 330.1 343.881C344.765 336.902 382.639 316.022 417.384 273.041C436.207 249.761 451.394 223.309 462.53 194.414C475.874 159.797 483.532 121.252 485.303 79.8631C485.653 71.4697 482.76 63.3191 477.146 56.9044C471.567 50.5325 463.923 46.5394 455.608 45.6679C407.326 40.6318 364.938 14.1729 343.965 -1.14962C335.843 -7.08575 326.199 -10.2288 316.084 -10.2288ZM316.077 347.396C311.198 347.396 306.327 346.339 301.883 344.224C287.19 337.231 249.258 316.315 214.463 273.284C195.619 249.975 180.404 223.487 169.253 194.557C155.895 159.897 148.223 121.316 146.451 79.8845C146.087 71.4054 149.016 63.162 154.695 56.6687C160.338 50.2182 168.074 46.1751 176.489 45.2964C224.671 40.2747 267.003 13.8514 287.947 -1.44964C296.147 -7.44291 305.877 -10.6074 316.084 -10.6074C326.278 -10.6074 336.007 -7.44291 344.208 -1.44964C365.152 13.8514 407.477 40.2675 455.644 45.2964C464.073 46.1751 471.81 50.2111 477.446 56.6615C483.125 63.1477 486.053 71.3911 485.696 79.8703C483.925 121.323 476.253 159.904 462.895 194.564C451.744 223.494 436.536 249.982 417.692 273.291C382.889 316.329 344.965 337.238 330.271 344.231C325.828 346.339 320.949 347.396 316.077 347.396Z" stroke="url(#paint12_angular)" stroke-width="0.5" stroke-miterlimit="10"/>
<path d="M316.084 2.52709C306.684 2.52709 297.719 5.44157 290.168 10.9634C270.688 25.1929 231.321 49.7661 186.497 54.4378C178.775 55.245 171.674 58.9524 166.496 64.8743C161.281 70.8318 158.595 78.4038 158.931 86.1829C160.574 124.621 167.688 160.409 180.075 192.555C190.419 219.385 204.52 243.951 221.999 265.56C254.266 305.469 289.433 324.857 303.055 331.336C311.213 335.214 320.956 335.214 329.114 331.336C342.736 324.849 377.903 305.462 410.17 265.56C427.649 243.944 441.75 219.385 452.094 192.555C464.48 160.409 471.595 124.621 473.238 86.1829C473.567 78.3895 470.874 70.8247 465.666 64.8671C460.487 58.9453 453.387 55.245 445.672 54.4378C400.84 49.7589 361.48 25.1929 342.001 10.9634C334.429 5.44157 325.478 2.52709 316.084 2.52709ZM316.077 334.607C311.548 334.607 307.02 333.629 302.898 331.664C289.254 325.171 254.037 305.748 221.721 265.788C204.22 244.144 190.097 219.549 179.746 192.683C167.346 160.502 160.224 124.678 158.574 86.1972C158.238 78.3252 160.952 70.6675 166.231 64.6385C171.474 58.6453 178.661 54.895 186.468 54.0807C231.207 49.416 270.517 24.8786 289.961 10.6705C297.576 5.10585 306.612 2.16992 316.092 2.16992C325.557 2.16992 334.586 5.11299 342.201 10.6705C361.645 24.8786 400.947 49.4089 445.679 54.0807C453.501 54.895 460.687 58.6453 465.923 64.6314C471.195 70.6532 473.917 78.3109 473.588 86.1829C471.945 124.678 464.823 160.502 452.415 192.683C442.065 219.549 427.935 244.144 410.441 265.788C378.124 305.748 342.908 325.171 329.264 331.664C325.128 333.621 320.599 334.607 316.077 334.607Z" stroke="url(#paint13_angular)" stroke-width="0.5" stroke-miterlimit="10"/>
<path d="M316.084 15.2856C307.405 15.2856 299.133 17.9787 292.161 23.0719C274.182 36.2085 237.843 58.8886 196.469 63.2032C189.34 63.9461 182.782 67.3678 178.003 72.8396C173.189 78.34 170.71 85.3262 171.017 92.5124C172.532 127.993 179.104 161.031 190.54 190.698C200.084 215.464 213.106 238.137 229.236 258.088C259.023 294.926 291.483 312.82 304.055 318.807C311.584 322.385 320.578 322.385 328.107 318.807C340.679 312.82 373.138 294.926 402.926 258.088C419.056 238.137 432.078 215.464 441.622 190.698C453.058 161.024 459.623 127.993 461.144 92.5124C461.444 85.319 458.966 78.3328 454.151 72.8396C449.372 67.3749 442.815 63.9533 435.693 63.2104C394.311 58.8958 357.973 36.2156 340 23.079C333.021 17.9787 324.749 15.2856 316.084 15.2856ZM316.077 321.821C311.898 321.821 307.72 320.914 303.912 319.107C291.318 313.113 258.809 295.191 228.978 258.295C212.827 238.315 199.791 215.614 190.233 190.812C178.782 161.11 172.21 128.036 170.689 92.5195C170.374 85.2547 172.889 78.1828 177.753 72.6182C182.59 67.0892 189.226 63.6247 196.433 62.8746C237.729 58.5672 274.017 35.9228 291.968 22.8076C298.998 17.6715 307.341 14.957 316.084 14.957C324.821 14.957 333.157 17.6715 340.186 22.8076C358.137 35.9228 394.411 58.5672 435.707 62.8746C442.929 63.6318 449.558 67.0892 454.394 72.611C459.259 78.1757 461.773 85.2333 461.466 92.5052C459.944 128.036 453.373 161.11 441.922 190.812C432.364 215.614 419.327 238.315 403.176 258.295C373.346 295.184 340.836 313.106 328.242 319.107C324.435 320.914 320.256 321.821 316.077 321.821Z" stroke="url(#paint14_angular)" stroke-width="0.5" stroke-miterlimit="10"/>
<path d="M316.084 28.0448C308.127 28.0448 300.548 30.5164 294.154 35.181C277.675 47.2247 244.365 68.0119 206.434 71.9693C199.905 72.655 193.89 75.791 189.504 80.7985C185.097 85.8417 182.818 92.2421 183.104 98.8283C184.497 131.352 190.511 161.633 200.998 188.835C209.749 211.536 221.685 232.323 236.472 250.61C263.774 284.377 293.526 300.785 305.055 306.271C311.956 309.55 320.199 309.55 327.107 306.271C338.629 300.785 368.388 284.377 395.69 250.61C410.477 232.323 422.413 211.536 431.164 188.835C441.643 161.633 447.665 131.352 449.058 98.8283C449.336 92.235 447.058 85.8345 442.65 80.7913C438.271 75.7838 432.257 72.6479 425.728 71.9621C387.797 68.0047 354.487 47.2176 338.007 35.1739C331.607 30.5164 324.028 28.0448 316.084 28.0448ZM316.077 309.036C312.248 309.036 308.412 308.207 304.927 306.543C293.383 301.049 263.581 284.62 236.236 250.803C221.428 232.488 209.477 211.679 200.719 188.949C190.226 161.718 184.197 131.402 182.804 98.8497C182.518 92.185 184.818 85.7059 189.283 80.6056C193.719 75.5338 199.798 72.3622 206.405 71.6764C244.265 67.7261 277.525 46.9675 293.976 34.9453C300.419 30.2378 308.062 27.752 316.084 27.752C324.092 27.752 331.735 30.2378 338.179 34.9453C354.63 46.9675 387.889 67.7261 425.735 71.6764C432.357 72.3693 438.436 75.541 442.865 80.6056C447.322 85.7059 449.629 92.1778 449.351 98.8354C447.958 131.409 441.936 161.718 431.435 188.949C422.678 211.679 410.727 232.495 395.918 250.803C368.574 284.62 338.772 301.049 327.228 306.543C323.735 308.207 319.906 309.036 316.077 309.036Z" stroke="url(#paint15_angular)" stroke-width="0.5" stroke-miterlimit="10"/>
<path d="M316.077 40.802C308.841 40.802 301.948 43.045 296.14 47.2882C281.161 58.2318 250.873 77.1331 216.399 80.7262C210.463 81.3477 204.998 84.1979 201.012 88.7553C197.005 93.3414 194.933 99.1632 195.19 105.149C196.455 134.716 201.927 162.246 211.456 186.969C219.413 207.606 230.257 226.501 243.701 243.13C268.524 273.825 295.569 288.741 306.048 293.727C312.327 296.705 319.82 296.705 326.092 293.727C336.572 288.741 363.616 273.825 388.439 243.13C401.883 226.501 412.734 207.606 420.685 186.969C430.214 162.246 435.686 134.716 436.95 105.149C437.2 99.1489 435.128 93.3342 431.121 88.7553C427.135 84.205 421.677 81.3548 415.741 80.7333C381.253 77.1331 350.98 58.2389 336 47.2953C330.193 43.0522 323.306 40.802 316.077 40.802ZM316.077 296.248C312.591 296.248 309.113 295.491 305.941 293.984C295.447 288.991 268.353 274.054 243.501 243.309C230.043 226.658 219.178 207.742 211.213 187.076C201.669 162.325 196.19 134.766 194.926 105.164C194.669 99.1061 196.755 93.2199 200.812 88.5768C204.841 83.9693 210.37 81.0834 216.378 80.4548C250.794 76.8688 281.025 57.9961 295.99 47.0667C301.848 42.7879 308.798 40.5234 316.092 40.5234C323.378 40.5234 330.321 42.7879 336.179 47.0667C351.137 57.9961 381.368 76.8688 415.777 80.4548C421.799 81.0834 427.321 83.9621 431.35 88.5696C435.407 93.2056 437.5 99.0918 437.243 105.142C435.978 134.751 430.499 162.31 420.956 187.062C412.991 207.728 402.126 226.643 388.668 243.295C363.809 274.032 336.722 288.969 326.228 293.97C323.042 295.491 319.556 296.248 316.077 296.248Z" stroke="url(#paint16_angular)" stroke-width="0.5" stroke-miterlimit="10"/>
<path d="M316.077 53.5671C309.57 53.5671 303.362 55.5887 298.133 59.4032C284.647 69.2539 257.395 86.2622 226.364 89.4982C221.021 90.0553 216.099 92.6198 212.513 96.7201C208.906 100.849 207.041 106.085 207.277 111.471C208.413 138.08 213.342 162.86 221.914 185.112C229.071 203.685 238.836 220.693 250.937 235.658C273.274 263.289 297.619 276.711 307.048 281.197C312.699 283.883 319.442 283.883 325.085 281.197C334.514 276.711 358.859 263.289 381.196 235.658C393.297 220.693 403.062 203.692 410.22 185.112C418.799 162.86 423.72 138.08 424.856 111.471C425.085 106.071 423.22 100.835 419.613 96.7129C416.027 92.6126 411.112 90.0482 405.769 89.491C374.731 86.2551 347.479 69.2467 334 59.3961C328.785 55.5815 322.585 53.5671 316.077 53.5671ZM316.077 283.462C312.941 283.462 309.805 282.783 306.948 281.426C297.505 276.933 273.117 263.489 250.751 235.823C238.636 220.836 228.857 203.813 221.692 185.212C213.106 162.932 208.177 138.13 207.034 111.493C206.798 106.042 208.684 100.742 212.334 96.5701C215.963 92.4198 220.935 89.8267 226.343 89.2624C257.316 86.0336 284.525 69.0467 297.99 59.2103C303.262 55.3601 309.52 53.3242 316.077 53.3242C322.635 53.3242 328.885 55.3601 334.157 59.2103C347.622 69.0467 374.824 86.0265 405.798 89.2624C411.212 89.8267 416.191 92.4198 419.813 96.5701C423.463 100.742 425.342 106.042 425.121 111.485C423.985 138.137 419.049 162.939 410.462 185.212C403.298 203.813 393.518 220.836 381.403 235.823C359.03 263.489 334.65 276.933 325.206 281.426C322.342 282.783 319.206 283.462 316.077 283.462Z" stroke="url(#paint17_angular)" stroke-width="0.5" stroke-miterlimit="10"/>
<path d="M316.077 66.3256C310.291 66.3256 304.777 68.1186 300.126 71.5188C288.14 80.2766 263.917 95.3919 236.329 98.2707C231.579 98.7636 227.207 101.049 224.021 104.693C220.814 108.357 219.156 113.015 219.364 117.808C220.378 141.459 224.75 163.482 232.379 183.262C238.743 199.771 247.423 214.886 258.173 228.187C278.032 252.746 299.669 264.675 308.048 268.668C313.07 271.054 319.063 271.054 324.085 268.668C332.464 264.675 354.109 252.746 373.96 228.187C384.718 214.886 393.397 199.771 399.755 183.262C407.376 163.482 411.755 141.459 412.77 117.808C412.97 113.007 411.312 108.357 408.112 104.693C404.926 101.049 400.555 98.7707 395.804 98.2707C368.217 95.3919 343.994 80.2766 332.007 71.5188C327.371 68.1186 321.856 66.3256 316.077 66.3256ZM316.077 270.675C313.291 270.675 310.506 270.075 307.963 268.868C299.569 264.875 277.896 252.924 258.009 228.33C247.237 215.014 238.551 199.878 232.179 183.341C224.55 163.54 220.164 141.488 219.149 117.815C218.942 112.972 220.614 108.257 223.857 104.55C227.078 100.864 231.5 98.5564 236.308 98.0564C263.838 95.1848 288.025 80.0909 299.998 71.3474C304.684 67.9258 310.241 66.1113 316.077 66.1113C321.906 66.1113 327.457 67.9186 332.143 71.3474C344.108 80.0909 368.295 95.1848 395.819 98.0564C400.633 98.5564 405.055 100.864 408.277 104.55C411.52 108.257 413.191 112.965 412.991 117.808C411.977 141.495 407.598 163.539 399.962 183.348C393.59 199.878 384.896 215.014 374.131 228.337C354.244 252.931 332.571 264.875 324.178 268.875C321.649 270.068 318.863 270.675 316.077 270.675Z" stroke="url(#paint18_angular)" stroke-width="0.5" stroke-miterlimit="10"/>
<path d="M316.077 79.0835C311.013 79.0835 306.191 80.655 302.119 83.6267C291.633 91.2915 270.431 104.521 246.301 107.035C242.144 107.471 238.322 109.464 235.529 112.657C232.722 115.865 231.279 119.943 231.457 124.129C232.343 144.824 236.172 164.096 242.844 181.405C248.408 195.849 256.009 209.078 265.417 220.715C282.789 242.202 301.726 252.638 309.055 256.131C313.449 258.217 318.692 258.217 323.085 256.131C330.421 252.638 349.351 242.202 366.724 220.715C376.131 209.078 383.725 195.849 389.297 181.405C395.969 164.096 399.797 144.824 400.683 124.129C400.862 119.929 399.412 115.857 396.604 112.65C393.818 109.464 389.99 107.471 385.839 107.035C361.702 104.514 340.508 91.2915 330.021 83.6267C325.957 80.655 321.135 79.0835 316.077 79.0835ZM316.077 257.889C313.641 257.889 311.198 257.36 308.977 256.303C301.633 252.81 282.668 242.352 265.267 220.829C255.845 209.178 248.237 195.934 242.665 181.469C235.986 164.139 232.15 144.852 231.264 124.137C231.086 119.901 232.55 115.772 235.386 112.529C238.208 109.3 242.079 107.285 246.28 106.843C270.367 104.328 291.533 91.12 302.005 83.4695C306.105 80.4765 310.97 78.8906 316.07 78.8906C321.17 78.8906 326.028 80.4765 330.128 83.4695C340.6 91.12 361.759 104.328 385.846 106.843C390.061 107.285 393.926 109.3 396.747 112.522C399.583 115.765 401.047 119.886 400.876 124.122C399.99 144.852 396.154 164.139 389.475 181.469C383.903 195.934 376.296 209.178 366.874 220.829C349.472 242.345 330.514 252.803 323.163 256.303C320.949 257.36 318.513 257.889 316.077 257.889Z" stroke="url(#paint19_angular)" stroke-width="0.5" stroke-miterlimit="10"/>
<defs>
<radialGradient id="paint0_angular" cx="0" cy="0" r="1" gradientUnits="userSpaceOnUse" gradientTransform="translate(316.076 168.39) rotate(90) scale(332.444 315.076)">
<stop stop-color="white" stop-opacity="0"/>
<stop offset="1" stop-color="#0A0001" stop-opacity="0.48"/>
</radialGradient>
<radialGradient id="paint1_angular" cx="0" cy="0" r="1" gradientUnits="userSpaceOnUse" gradientTransform="translate(316.079 168.39) rotate(90) scale(319.658 302.955)">
<stop stop-color="white" stop-opacity="0"/>
<stop offset="1" stop-color="#0A0001" stop-opacity="0.48"/>
</radialGradient>
<radialGradient id="paint2_angular" cx="0" cy="0" r="1" gradientUnits="userSpaceOnUse" gradientTransform="translate(316.073 168.391) rotate(90) scale(306.871 290.838)">
<stop stop-color="white" stop-opacity="0"/>
<stop offset="1" stop-color="#0A0001" stop-opacity="0.48"/>
</radialGradient>
<radialGradient id="paint3_angular" cx="0" cy="0" r="1" gradientUnits="userSpaceOnUse" gradientTransform="translate(316.08 168.394) rotate(90) scale(294.081 278.721)">
<stop stop-color="white" stop-opacity="0"/>
<stop offset="1" stop-color="#0A0001" stop-opacity="0.48"/>
</radialGradient>
<radialGradient id="paint4_angular" cx="0" cy="0" r="1" gradientUnits="userSpaceOnUse" gradientTransform="translate(316.076 168.386) rotate(90) scale(281.302 266.601)">
<stop stop-color="white" stop-opacity="0"/>
<stop offset="1" stop-color="#0A0001" stop-opacity="0.48"/>
</radialGradient>
<radialGradient id="paint5_angular" cx="0" cy="0" r="1" gradientUnits="userSpaceOnUse" gradientTransform="translate(316.08 168.393) rotate(90) scale(268.508 254.486)">
<stop stop-color="white" stop-opacity="0"/>
<stop offset="1" stop-color="#0A0001" stop-opacity="0.48"/>
</radialGradient>
<radialGradient id="paint6_angular" cx="0" cy="0" r="1" gradientUnits="userSpaceOnUse" gradientTransform="translate(316.08 168.387) rotate(90) scale(255.728 242.363)">
<stop stop-color="white" stop-opacity="0"/>
<stop offset="1" stop-color="#0A0001" stop-opacity="0.48"/>
</radialGradient>
<radialGradient id="paint7_angular" cx="0" cy="0" r="1" gradientUnits="userSpaceOnUse" gradientTransform="translate(316.083 168.394) rotate(90) scale(242.935 230.249)">
<stop stop-color="white" stop-opacity="0"/>
<stop offset="1" stop-color="#0A0001" stop-opacity="0.48"/>
</radialGradient>
<radialGradient id="paint8_angular" cx="0" cy="0" r="1" gradientUnits="userSpaceOnUse" gradientTransform="translate(316.08 168.396) rotate(90) scale(230.144 218.128)">
<stop stop-color="white" stop-opacity="0"/>
<stop offset="1" stop-color="#0A0001" stop-opacity="0.48"/>
</radialGradient>
<radialGradient id="paint9_angular" cx="0" cy="0" r="1" gradientUnits="userSpaceOnUse" gradientTransform="translate(316.073 168.386) rotate(90) scale(217.369 206.004)">
<stop stop-color="white" stop-opacity="0"/>
<stop offset="1" stop-color="#0A0001" stop-opacity="0.48"/>
</radialGradient>
<radialGradient id="paint10_angular" cx="0" cy="0" r="1" gradientUnits="userSpaceOnUse" gradientTransform="translate(316.077 168.389) rotate(90) scale(204.578 193.89)">
<stop stop-color="white" stop-opacity="0"/>
<stop offset="1" stop-color="#0A0001" stop-opacity="0.48"/>
</radialGradient>
<radialGradient id="paint11_angular" cx="0" cy="0" r="1" gradientUnits="userSpaceOnUse" gradientTransform="translate(316.084 168.389) rotate(90) scale(191.792 181.772)">
<stop stop-color="white" stop-opacity="0"/>
<stop offset="1" stop-color="#0A0001" stop-opacity="0.48"/>
</radialGradient>
<radialGradient id="paint12_angular" cx="0" cy="0" r="1" gradientUnits="userSpaceOnUse" gradientTransform="translate(316.073 168.394) rotate(90) scale(179.002 169.652)">
<stop stop-color="white" stop-opacity="0"/>
<stop offset="1" stop-color="#0A0001" stop-opacity="0.48"/>
</radialGradient>
<radialGradient id="paint13_angular" cx="0" cy="0" r="1" gradientUnits="userSpaceOnUse" gradientTransform="translate(316.08 168.389) rotate(90) scale(166.219 157.535)">
<stop stop-color="white" stop-opacity="0"/>
<stop offset="1" stop-color="#0A0001" stop-opacity="0.48"/>
</radialGradient>
<radialGradient id="paint14_angular" cx="0" cy="0" r="1" gradientUnits="userSpaceOnUse" gradientTransform="translate(316.077 168.389) rotate(90) scale(153.432 145.414)">
<stop stop-color="white" stop-opacity="0"/>
<stop offset="1" stop-color="#0A0001" stop-opacity="0.48"/>
</radialGradient>
<radialGradient id="paint15_angular" cx="0" cy="0" r="1" gradientUnits="userSpaceOnUse" gradientTransform="translate(316.077 168.394) rotate(90) scale(140.642 133.297)">
<stop stop-color="white" stop-opacity="0"/>
<stop offset="1" stop-color="#0A0001" stop-opacity="0.48"/>
</radialGradient>
<radialGradient id="paint16_angular" cx="0" cy="0" r="1" gradientUnits="userSpaceOnUse" gradientTransform="translate(316.084 168.386) rotate(90) scale(127.862 121.18)">
<stop stop-color="white" stop-opacity="0"/>
<stop offset="1" stop-color="#0A0001" stop-opacity="0.48"/>
</radialGradient>
<radialGradient id="paint17_angular" cx="0" cy="0" r="1" gradientUnits="userSpaceOnUse" gradientTransform="translate(316.076 168.393) rotate(90) scale(115.069 109.062)">
<stop stop-color="white" stop-opacity="0"/>
<stop offset="1" stop-color="#0A0001" stop-opacity="0.48"/>
</radialGradient>
<radialGradient id="paint18_angular" cx="0" cy="0" r="1" gradientUnits="userSpaceOnUse" gradientTransform="translate(316.07 168.393) rotate(90) scale(102.282 96.9376)">
<stop stop-color="white" stop-opacity="0"/>
<stop offset="1" stop-color="#0A0001" stop-opacity="0.48"/>
</radialGradient>
<radialGradient id="paint19_angular" cx="0" cy="0" r="1" gradientUnits="userSpaceOnUse" gradientTransform="translate(316.07 168.39) rotate(90) scale(89.499 84.8199)">
<stop stop-color="white" stop-opacity="0"/>
<stop offset="1" stop-color="#0A0001" stop-opacity="0.48"/>
</radialGradient>
</defs>
</svg>
