<?xml version="1.0" encoding="UTF-8" standalone="no"?>
<svg
   xmlns:dc="http://purl.org/dc/elements/1.1/"
   xmlns:cc="http://creativecommons.org/ns#"
   xmlns:rdf="http://www.w3.org/1999/02/22-rdf-syntax-ns#"
   xmlns:svg="http://www.w3.org/2000/svg"
   xmlns="http://www.w3.org/2000/svg"
   xmlns:sodipodi="http://sodipodi.sourceforge.net/DTD/sodipodi-0.dtd"
   width="234"
   height="208"
   viewBox="0 0 234 208"
   fill="none"
   version="1.1"
   id="svg144"
   sodipodi:docname="cardunderlay.svg">
  <metadata
     id="metadata148">
    <rdf:RDF>
      <cc:Work
         rdf:about="">
        <dc:format>image/svg+xml</dc:format>
        <dc:type
           rdf:resource="http://purl.org/dc/dcmitype/StillImage" />
      </cc:Work>
    </rdf:RDF>
  </metadata>
  <sodipodi:namedview
     pagecolor="#ffffff"
     bordercolor="#666666"
     borderopacity="1"
     objecttolerance="10"
     gridtolerance="10"
     guidetolerance="10"
     id="namedview146"
     showgrid="false" />
  <path
     d="m 230.00592,5.0118041 c -12.74577,0 -24.89114,3.9547195 -35.12898,11.4331809 C 168.48143,35.730001 115.12796,69.028988 54.372894,75.365351 43.912271,76.459339 34.279393,81.483912 27.26051,89.509702 20.198006,97.588695 16.557854,107.84603 17.008032,118.39374 c 2.226685,52.09493 11.869263,100.59779 28.661362,144.16881 14.013707,36.36296 33.129304,69.65687 56.819186,98.94728 43.72553,54.08465 91.38681,80.35954 109.84851,89.14992 11.05641,5.2524 24.26162,5.2524 35.31735,0 18.46235,-8.78564 66.11822,-35.06527 109.85324,-89.14992 23.68562,-29.29583 42.80123,-62.58432 56.81961,-98.94728 16.79198,-43.5656 26.43482,-92.06907 28.66155,-144.16881 0.44047,-10.5671 -3.20457,-20.819551 -10.26695,-28.888914 C 425.70288,81.483912 416.07967,76.459339 405.61892,75.365351 344.85949,69.024112 291.51076,35.730001 265.11456,16.444985 254.87201,8.9665236 242.73678,5.0118041 230.00592,5.0118041 Z m -0.01,450.0722659 c -6.1374,0 -12.27075,-1.33089 -17.86671,-3.98861 C 193.63838,442.29493 145.9046,415.97667 102.10655,361.81002 78.387307,332.47557 59.247385,299.14303 45.214429,262.73197 28.40287,219.11756 18.750662,170.56125 16.523966,118.41311 16.068945,107.74438 19.752671,97.366017 26.897424,89.190201 33.998645,81.067645 43.738053,75.989802 54.32451,74.881307 114.96329,68.559384 168.23409,35.30918 194.59166,16.047878 204.91148,8.5111478 217.15851,4.5272896 230.00592,4.5272896 c 12.83252,0 25.06937,3.9838582 35.38987,11.5260084 26.35689,19.255882 79.61821,52.501276 140.24752,58.832819 10.60577,1.108494 20.3401,6.186337 27.44179,14.299275 7.14439,8.16613 10.82804,18.534798 10.38284,29.203518 -2.22674,52.17234 -11.88381,100.72865 -28.69069,144.34306 -14.03261,36.41106 -33.17261,69.7436 -56.89144,99.07805 -43.79805,54.16665 -91.53658,80.48491 -110.02333,89.28544 -5.5953,2.65772 -11.73338,3.98861 -17.86672,3.98861 z"
     stroke-miterlimit="10"
     id="path2"
     style="opacity:0.30100002;stroke:url(#paint0_angular);stroke-width:0.33882108;stroke-miterlimit:10" />
  <path
     d="m 230.00592,13.657161 c -12.25176,0 -23.93228,3.800218 -33.77843,10.993385 C 170.84843,43.194908 119.54213,75.215658 61.130467,81.305152 51.071625,82.355566 41.81152,87.18655 35.058812,94.907334 c -6.791395,7.769236 -10.296027,17.629606 -9.860366,27.770706 2.139582,50.0909 11.414195,96.73023 27.557729,138.62139 13.476326,34.96363 31.856218,66.97476 54.631085,95.1423 42.05107,52.00837 87.8773,77.27154 105.62814,85.72309 10.6295,5.05386 23.32649,5.05386 33.95665,0 17.75084,-8.45155 63.57706,-33.71472 105.62747,-85.72309 22.77555,-28.16754 41.15523,-60.17867 54.63151,-95.1423 16.14346,-41.89116 25.41836,-88.53049 27.55767,-138.62139 0.42623,-10.16046 -3.07853,-20.01598 -9.86986,-27.780403 C 418.17088,87.181663 408.91564,82.355566 398.85672,81.305152 340.43043,75.210782 289.13426,43.194908 263.75453,24.650546 253.91856,17.457379 242.24279,13.657161 230.00592,13.657161 Z m -0.01,432.762579 c -5.90023,0 -11.80114,-1.27804 -17.17891,-3.8341 C 195.03688,434.1246 149.13814,408.81738 107.02946,356.73719 84.225463,328.53101 65.816234,296.48125 52.325335,261.46884 36.162485,219.52957 26.878109,172.84158 24.73859,122.70231 24.298054,112.44013 27.841453,102.46359 34.715108,94.607205 41.545267,86.799273 50.907026,81.915096 61.086893,80.85012 119.38763,74.765436 170.61126,42.793058 195.95644,24.273099 c 9.9234,-7.251447 21.69607,-11.0808 34.04948,-11.0808 12.33851,0 24.10645,3.834096 34.02916,11.0808 25.34111,18.515216 76.56001,50.482707 134.85079,56.567324 10.19444,1.064988 19.56081,5.949164 26.38602,13.752276 6.86926,7.851501 10.41266,17.823221 9.98642,28.080531 -2.14406,50.16348 -11.4237,96.8516 -27.58682,138.79087 -13.49049,35.0124 -31.9,67.06217 -54.70401,95.26835 -42.11343,52.08019 -88.01216,77.38741 -105.79213,85.85319 -5.38252,2.55606 -11.27868,3.8341 -17.17959,3.8341 z"
     stroke-miterlimit="10"
     id="path4"
     style="opacity:0.30100002;stroke:url(#paint1_angular);stroke-width:0.33882108;stroke-miterlimit:10" />
  <path
     d="m 230.00592,22.303192 c -11.76318,0 -22.97409,3.649781 -32.42789,10.552249 -24.36259,17.804028 -73.61632,48.542012 -129.694855,54.389522 -9.65707,1.011717 -18.544484,5.644214 -25.026128,13.055187 -6.520266,7.45941 -9.884558,16.92286 -9.46828,26.65741 2.057322,48.08684 10.954419,92.86271 26.454123,133.07874 12.938956,33.56498 30.582983,64.29808 52.44846,91.33803 40.36578,49.92596 84.36238,74.18284 101.40169,82.29083 10.20868,4.84988 22.39269,4.84988 32.60137,0 17.03931,-8.11274 61.0359,-32.36961 101.40169,-82.29083 21.8648,-27.03995 39.50924,-57.77305 52.44814,-91.33803 15.49972,-40.21603 24.40189,-84.98703 26.45447,-133.07874 0.4066,-9.75391 -2.95791,-19.21731 -9.47343,-26.66711 C 410.64838,92.884301 401.7611,88.251804 392.10877,87.240142 336.01559,81.392643 286.772,50.659469 262.40874,32.855441 252.9597,25.952973 241.75421,22.303192 230.00592,22.303192 Z m -0.01,415.452208 c -5.66306,0 -11.32679,-1.2245 -16.49178,-3.67892 C 196.4362,425.9536 152.37185,401.65877 111.94711,351.65962 90.053173,324.58104 72.38495,293.81405 59.431432,260.20097 43.912337,219.94157 35.000743,175.11704 32.943488,126.98175 32.522334,117.13104 35.925312,107.55145 42.518231,100.0097 49.07245,92.511596 58.066382,87.821019 67.834725,86.804493 123.81195,80.966669 172.98775,50.272203 197.31713,32.497642 c 9.52631,-6.961413 20.82871,-10.639652 32.68879,-10.639652 11.84452,0 23.14284,3.678239 32.66913,10.639652 24.32396,17.774561 73.49097,48.464151 129.45337,54.301975 9.78786,1.021402 18.77678,5.707092 25.33093,13.200403 6.59279,7.53687 9.99591,17.11166 9.58458,26.95754 -2.05733,48.15948 -10.969,92.97859 -26.48293,133.23866 -12.95381,33.60834 -30.62197,64.38007 -52.5166,91.45865 -40.42405,49.99915 -84.48841,74.28923 -101.55618,82.41687 -5.16499,2.45442 -10.82872,3.68366 -16.49246,3.68366 z"
     stroke-miterlimit="10"
     id="path6"
     style="opacity:0.30100002;stroke:url(#paint2_angular);stroke-width:0.33882108;stroke-miterlimit:10" />
  <path
     d="m 230.00592,30.947878 c -11.27393,0 -22.02066,3.494602 -31.0726,10.111779 -23.35088,17.063498 -70.55202,46.518768 -124.292695,52.124229 -9.255308,0.968143 -17.774816,5.41185 -23.985334,12.513064 -6.249293,7.14477 -9.473098,16.22095 -9.071392,25.54886 1.970173,46.08285 10.499387,88.99054 25.350437,127.53144 12.396855,32.16564 29.309767,61.61664 50.260444,87.53306 38.6859,47.84492 80.84811,71.0894 97.17591,78.86399 9.78245,4.64659 21.45822,4.64659 31.24133,0 16.33186,-7.77459 58.48933,-31.01907 97.17591,-78.86399 20.95473,-25.91168 37.86326,-55.362 50.26005,-87.53306 14.8512,-38.5409 23.38475,-81.44859 25.35059,-127.53144 0.39168,-9.34727 -2.83662,-18.41379 -9.08109,-25.55374 C 403.1069,98.595736 394.59232,94.152029 385.34183,93.183886 331.59126,87.573616 284.39958,58.118345 261.04871,41.059657 252.00151,34.447901 241.26495,30.947878 230.00592,30.947878 Z m -0.01,398.142522 c -5.42588,0 -10.85718,-1.17639 -15.80465,-3.52917 -16.35643,-7.78407 -58.5864,-31.06717 -97.32583,-78.97986 C 95.886323,320.63106 78.953611,291.14143 66.537374,258.93717 51.667008,220.35222 43.128109,177.40124 41.157935,131.27 40.756152,121.83077 44.013924,112.64809 50.335779,105.42102 56.618939,98.237537 65.235291,93.74056 74.597052,92.762798 128.23628,87.171844 175.36424,57.755271 198.6819,40.72083 c 9.12921,-6.670025 19.96268,-10.19445 31.32876,-10.19445 11.35119,0 22.17449,3.524425 31.30436,10.19445 23.31225,17.034441 70.43142,46.446127 124.06069,52.041968 9.38128,0.977762 17.99275,5.469852 24.27586,12.648522 6.31698,7.22225 9.57915,16.40009 9.18746,25.83449 -1.97057,46.15062 -10.50886,89.10641 -25.37973,127.68594 -12.411,32.20968 -29.34868,61.69931 -50.3278,87.64488 -38.74012,47.91269 -80.96943,71.19578 -97.32634,78.97986 -4.95628,2.35752 -10.38283,3.53391 -15.8094,3.53391 z"
     stroke-miterlimit="10"
     id="path8"
     style="opacity:0.30100002;stroke:url(#paint3_angular);stroke-width:0.33882108;stroke-miterlimit:10" />
  <path
     d="m 230.00592,39.597297 c -10.78534,0 -21.06179,3.344842 -29.72139,9.671787 -22.33509,16.317817 -67.48365,44.495135 -118.886332,49.858534 -8.853525,0.924572 -17.00034,5.174682 -22.939729,11.970912 -5.978221,6.83497 -9.061698,15.51425 -8.679308,24.44035 1.883037,44.07886 10.044347,85.12236 24.251587,121.98405 11.859675,30.76699 28.032272,58.93928 48.076942,83.72336 37.00195,45.76388 77.32911,68.00139 92.95013,75.43648 9.35688,4.44397 20.52917,4.44397 29.8813,0 15.62101,-7.43509 55.94818,-29.66785 92.94946,-75.43648 20.04533,-24.78882 36.21794,-52.95637 48.07736,-83.72336 14.20745,-36.86169 22.36897,-77.90519 24.25145,-121.98405 0.37338,-8.94061 -2.71056,-17.61506 -8.68398,-24.44519 -5.93954,-6.78658 -14.0814,-11.03662 -22.9348,-11.961196 C 327.18659,93.769095 282.04274,65.591722 259.7124,49.27396 251.04807,42.942139 240.77637,39.597297 230.00592,39.597297 Z m -0.01,380.827413 c -5.19345,0 -10.38283,-1.12286 -15.11684,-3.37398 -15.64558,-7.44932 -56.03576,-29.71664 -93.09531,-75.54762 -20.06974,-24.8227 -36.266057,-53.02888 -48.1403,-83.83517 -14.221734,-36.90506 -22.392741,-77.99213 -24.275767,-122.11938 -0.38721,-9.02774 2.730144,-17.80868 8.780951,-24.72594 6.007221,-6.86884 14.250802,-11.172205 23.205982,-12.106404 51.310714,-5.348893 96.386784,-33.482704 118.687294,-49.781139 8.73279,-6.37987 19.09665,-9.753847 29.96399,-9.753847 10.85719,0 21.21156,3.373977 29.94365,9.753847 22.30121,16.293626 67.37254,44.427358 118.6687,49.781139 8.97401,0.934199 17.21279,5.232694 23.22008,12.101574 6.04593,6.90757 9.16376,15.68365 8.78563,24.7114 -1.88723,44.14662 -10.05349,85.22895 -24.27517,122.13401 -11.87433,30.81103 -28.07132,59.01721 -48.14038,83.83517 -37.05482,45.83098 -77.45043,68.09762 -93.09515,75.54762 -4.734,2.25112 -9.92814,3.37872 -15.11752,3.37872 z"
     stroke-miterlimit="10"
     id="path10"
     style="opacity:0.30100002;stroke:url(#paint4_angular);stroke-width:0.33882108;stroke-miterlimit:10" />
  <path
     d="m 230.00592,48.242794 c -10.29135,0 -20.1036,3.194817 -28.37153,9.235928 -21.32268,15.577162 -64.41394,42.471756 -113.483357,47.588298 -8.45188,0.881 -16.225924,4.94231 -21.899216,11.4239 -5.707103,6.5252 -8.645342,14.80748 -8.282268,23.327 1.79589,42.0748 9.584428,81.25464 23.147902,116.44121 11.317632,29.36833 26.759059,56.25785 45.888909,79.91907 35.32208,43.68692 73.81486,64.90795 88.7291,72.0049 8.93132,4.24475 19.5947,4.24475 28.52603,0 14.9088,-7.09695 53.40632,-28.32272 88.72368,-72.0049 19.13051,-23.66122 34.57194,-50.55074 45.88924,-79.91907 13.56369,-35.18657 21.35251,-74.36641 23.14826,-116.44121 0.35779,-8.53403 -2.58995,-16.81637 -8.29231,-23.33184 -5.66847,-6.48159 -13.44238,-10.53318 -21.88919,-11.41906 C 322.767,99.945669 279.67574,73.051063 258.35711,57.478722 c -8.2679,-6.045931 -18.07474,-9.235928 -28.35119,-9.235928 z m -0.01,363.516906 c -4.95628,0 -9.91323,-1.07407 -14.42971,-3.2188 C 200.633,401.4304 162.07719,380.1748 126.70158,336.43029 107.54244,312.73992 92.086103,285.81177 80.749567,256.40483 67.171576,221.17962 59.378162,181.96048 57.577463,139.8373 c -0.367884,-8.62117 2.609052,-17.00028 8.379112,-23.60292 5.73617,-6.55905 13.602171,-10.66394 22.150418,-11.55457 48.977927,-5.106912 92.006167,-31.962754 113.295647,-47.515724 8.33501,-6.089494 18.22452,-9.308358 28.60328,-9.308358 10.36386,0 20.24795,3.218864 28.58363,9.308358 21.28406,15.55297 64.30823,42.404002 113.27601,47.515724 8.56268,0.8955 16.42876,4.99552 22.165,11.54972 5.77012,6.59291 8.74701,14.9721 8.38921,23.58839 -1.80118,42.13775 -9.59948,81.35628 -23.17265,116.58215 -11.33154,29.40628 -26.79262,56.33037 -45.95227,80.0248 -35.37021,43.74519 -73.92601,65.00553 -88.86395,72.11128 -4.52598,2.14948 -9.48293,3.22355 -14.43514,3.22355 z"
     stroke-miterlimit="10"
     id="path12"
     style="opacity:0.30100002;stroke:url(#paint5_angular);stroke-width:0.33882108;stroke-miterlimit:10" />
  <path
     d="m 230.0005,56.888971 c -9.80208,0 -19.14474,3.039903 -27.0203,8.795452 -20.30149,14.83169 -61.34491,40.448317 -108.076467,45.322847 -8.05039,0.84225 -15.456393,4.70508 -20.853681,10.88173 -5.436041,6.21539 -8.233962,14.10559 -7.890259,22.21852 1.713618,40.07082 9.129464,77.38246 22.0441,110.8939 10.77992,27.97442 25.486107,53.58116 43.706557,76.11412 33.64222,41.6052 70.29994,61.81993 84.50265,68.57739 8.50509,4.04213 18.66091,4.04213 27.166,0 14.20202,-6.75746 50.86043,-26.97219 84.50264,-68.57739 18.22046,-22.53296 32.92597,-48.1397 43.70589,-76.11412 12.91518,-33.51144 20.33537,-70.82308 22.04438,-110.8939 0.33882,-8.12743 -2.46391,-16.01281 -7.89521,-22.22336 -5.39742,-6.17181 -12.80337,-10.03464 -20.84834,-10.87689 -46.74104,-4.87453 -87.77498,-30.491157 -108.08188,-45.322847 -7.87556,-5.755549 -17.21347,-8.795452 -27.00608,-8.795452 z m -0.004,346.207079 c -4.71978,0 -9.43888,-1.02122 -13.74258,-3.06905 -14.22169,-6.77168 -50.94244,-27.01555 -84.6287,-68.67903 C 113.38076,308.78588 98.655603,283.14051 87.860763,255.13221 74.931498,221.58215 67.505967,184.23186 65.792338,144.11722 c -0.353322,-8.20977 2.483297,-16.19192 7.982216,-22.4751 5.46512,-6.24442 12.953869,-10.15564 21.095739,-11.00759 46.644127,-4.86486 87.625217,-30.442738 107.897557,-45.255113 7.93859,-5.799055 17.3585,-8.868027 27.23851,-8.868027 9.86986,0 19.28503,3.064095 27.22361,8.868027 20.27234,14.812375 61.24325,40.385443 107.8779,45.255113 8.15678,0.85195 15.64541,4.75833 21.11059,10.99791 5.49364,6.28316 8.33026,14.2605 7.98669,22.4654 -1.71375,40.13402 -9.13936,77.48431 -22.06809,111.03437 -10.79484,28.0083 -25.52,53.64893 -43.76417,76.21576 -33.68626,41.66348 -70.40701,61.90735 -84.62936,68.67903 -4.30777,2.04309 -9.02755,3.06905 -13.74733,3.06905 z"
     stroke-miterlimit="10"
     id="path14"
     style="opacity:0.30100002;stroke:url(#paint6_angular);stroke-width:0.33882108;stroke-miterlimit:10" />
  <path
     d="m 230.0005,65.534253 c -9.31283,0 -18.19062,2.889878 -25.66976,8.35492 -19.28977,14.095978 -58.28129,38.429827 -102.67431,43.057467 -7.643797,0.79871 -14.681787,4.4679 -19.812952,10.33476 -5.164913,5.90558 -7.822427,13.39889 -7.493297,21.10517 1.626482,38.07136 8.674432,73.51475 20.945232,105.35173 10.243227,26.57509 24.212837,50.89905 41.518447,72.30915 31.9576,39.52416 66.78638,58.7265 80.27689,65.15055 8.07885,3.83817 17.72644,3.83817 25.81071,0 13.4905,-6.42405 48.31859,-25.62639 80.27687,-65.15055 17.30969,-21.40535 31.27997,-45.73406 41.51778,-72.30915 12.27142,-31.83698 19.31889,-67.28037 20.94592,-105.35173 0.32391,-7.72079 -2.34329,-15.21408 -7.50354,-21.11004 -5.12568,-5.86199 -12.16435,-9.53118 -19.80748,-10.32989 -44.40317,-4.63249 -83.38996,-28.966376 -102.67497,-43.057467 -7.4832,-5.465042 -16.35151,-8.35492 -25.65554,-8.35492 z m -0.004,328.896787 c -4.48193,0 -8.96926,-0.9731 -13.05477,-2.91386 C 203.43157,385.08364 168.54519,365.85216 136.54354,326.2704 119.2085,304.8359 105.22398,280.47263 94.967203,253.86908 82.68135,221.99822 75.62859,186.51145 74.002109,148.40595 c -0.334007,-7.79831 2.357384,-15.38357 7.580444,-21.3521 5.18924,-5.93458 12.30991,-9.64734 20.040437,-10.45573 44.31102,-4.61797 83.23953,-28.917974 102.50489,-42.989694 7.54217,-5.508617 16.49246,-8.422686 25.87848,-8.422686 9.37586,0 18.32142,2.914069 25.86358,8.422686 19.26062,14.07172 58.18438,38.366884 102.48591,42.989694 7.74951,0.80839 14.86544,4.52115 20.05414,10.45092 5.21852,5.96853 7.91486,13.5441 7.59028,21.3424 -1.62635,38.12476 -8.68399,73.60678 -20.96491,105.48238 -10.25204,26.60899 -24.24196,50.96682 -41.57604,72.40132 -32.00165,39.58176 -66.88803,58.81392 -80.39817,65.24678 -4.09974,1.93602 -8.58235,2.90912 -13.06495,2.90912 z"
     stroke-miterlimit="10"
     id="path16"
     style="opacity:0.30100002;stroke:url(#paint7_angular);stroke-width:0.33882108;stroke-miterlimit:10" />
  <path
     d="m 230.00118,74.179139 c -8.82493,0 -17.23312,2.734965 -24.3199,7.914384 -18.27331,13.350503 -55.21225,36.406427 -97.27214,40.792007 -7.24196,0.75518 -13.907247,4.2356 -18.772037,9.79262 -4.88917,5.59095 -7.411158,12.69216 -7.101343,19.99667 1.539268,36.06744 8.214703,69.64731 19.84169,99.80442 9.70044,25.17575 22.93481,48.22237 39.33509,68.5042 30.2784,37.44243 63.27213,55.63374 76.05111,61.71829 7.65328,3.63555 16.79738,3.63555 24.45,0 12.77965,-6.08455 45.77337,-24.27586 76.0511,-61.71829 16.40029,-20.28183 29.63465,-43.32845 39.33509,-68.5042 11.62224,-30.16185 18.29769,-63.74172 19.84204,-99.80442 0.30494,-7.3142 -2.21725,-14.41053 -7.10643,-20.00148 -4.86006,-5.55221 -11.5206,-9.02776 -18.76188,-9.78781 -42.06531,-4.39041 -78.99952,-27.441504 -97.27282,-40.792007 -7.08204,-5.174609 -15.4848,-7.914384 -24.29957,-7.914384 z m -0.006,311.586881 c -4.25017,0 -8.49492,-0.91956 -12.36765,-2.75935 -12.80338,-6.09404 -45.85063,-24.31448 -76.16767,-61.80977 -16.41911,-20.30691 -29.67245,-43.38673 -39.3878,-68.59229 -11.637147,-30.19574 -18.32207,-63.80883 -19.861071,-99.91041 -0.314691,-7.38677 2.236294,-14.57032 7.183744,-20.22904 4.91765,-5.61995 11.660867,-9.13909 18.989567,-9.90395 41.97788,-4.37589 78.85856,-27.397931 97.10815,-40.729052 7.14439,-5.218183 15.62033,-7.97734 24.51776,-7.97734 8.88254,0 17.35375,2.759157 24.49813,7.97734 18.24483,13.331121 55.12076,36.348312 97.09392,40.729052 7.34292,0.76486 14.0814,4.284 18.9943,9.89914 4.94747,5.65384 7.49812,12.83251 7.18844,20.21935 -1.54436,36.11608 -8.22455,69.73391 -19.86102,99.93033 -9.71535,25.2049 -22.96868,48.28538 -39.38863,68.59161 -30.31635,37.49529 -63.3636,55.71573 -76.16697,61.80977 -3.87747,1.83505 -8.12764,2.75461 -12.37307,2.75461 z"
     stroke-miterlimit="10"
     id="path18"
     style="opacity:0.30100002;stroke:url(#paint8_angular);stroke-width:0.33882108;stroke-miterlimit:10" />
  <path
     d="m 230.00118,82.82477 c -8.33093,0 -16.27425,2.584928 -22.96935,7.473981 -17.2616,12.609839 -52.14796,34.383019 -91.86524,38.526599 -6.84012,0.71639 -13.13746,3.99836 -17.726447,9.25048 -4.61812,5.28114 -6.99936,11.9902 -6.70459,18.88331 1.45693,34.06339 7.75969,65.77432 18.738157,94.26172 9.16377,23.77711 21.6622,45.54094 37.15173,64.69517 28.59378,35.36547 59.75788,52.54505 71.82534,58.29077 7.23247,3.43701 15.86292,3.43701 23.08997,0 12.07287,-5.74572 43.23221,-22.9253 71.82532,-58.29077 15.48549,-19.15423 27.98392,-40.92281 37.14699,-64.69517 10.97848,-28.4874 17.28123,-60.19833 18.73816,-94.26172 0.29071,-6.90761 -2.09595,-13.61186 -6.70866,-18.88818 -4.589,-5.24725 -10.88225,-8.52922 -17.7217,-9.24561 -39.72744,-4.14358 -74.60907,-25.91676 -91.8659,-38.526599 -6.69443,-4.889053 -14.62826,-7.473981 -22.95378,-7.473981 z m -0.006,294.27692 c -4.01232,0 -8.02532,-0.87145 -11.68052,-2.6096 -12.09185,-5.75521 -43.29931,-22.96393 -71.93646,-58.37751 -15.50919,-19.17863 -28.02252,-40.97635 -37.20052,-64.78259 -10.992707,-28.51585 -17.300197,-60.26542 -18.757127,-94.36316 -0.3002,-6.97538 2.11018,-13.76196 6.78184,-19.10605 4.641847,-5.31014 11.012367,-8.63085 17.934467,-9.35695 39.64477,-4.13389 74.47829,-25.87318 91.71075,-38.463635 6.74795,-4.927806 14.75429,-7.53687 23.15299,-7.53687 8.38853,0 16.39013,2.604244 23.13809,7.53687 17.23244,12.590455 52.06053,34.329745 91.69582,38.463635 6.93228,0.72129 13.30212,4.04194 17.93922,9.35215 4.67167,5.3392 7.08204,12.12098 6.79201,19.09629 -1.45761,34.1123 -7.76917,65.86187 -18.75781,94.37772 -9.17325,23.80624 -21.69065,45.60396 -37.20052,64.78259 -28.63716,35.41358 -59.84461,52.6223 -71.93645,58.37751 -3.65453,1.73815 -7.66753,2.6096 -11.67578,2.6096 z"
     stroke-miterlimit="10"
     id="path20"
     style="opacity:0.30100002;stroke:url(#paint9_angular);stroke-width:0.33882108;stroke-miterlimit:10" />
  <path
     d="m 230.0005,91.474466 c -7.84167,0 -15.31539,2.434836 -21.61813,7.033445 -16.24513,11.869259 -49.07892,32.359639 -86.46307,36.256359 -6.43829,0.67282 -12.36291,3.76599 -16.6856,8.7035 -4.34707,4.97131 -6.588027,11.28348 -6.312217,17.77481 1.369507,32.05952 7.304287,61.90695 17.634267,88.71448 8.62572,22.37778 20.38889,42.86357 34.96362,60.89021 26.91392,33.28442 56.23888,49.45161 67.59956,54.85919 6.80624,3.23303 14.92845,3.23303 21.73469,0 11.36067,-5.40758 40.69038,-21.58019 67.59955,-54.85919 14.57472,-18.02664 26.33792,-38.51243 34.96362,-60.89021 10.33472,-26.80753 16.26476,-56.6597 17.63428,-88.71448 0.27106,-6.50102 -1.96991,-12.81318 -6.31698,-17.7797 -4.31793,-4.93744 -10.24256,-8.02579 -16.68084,-8.69861 -37.3889,-3.90153 -70.21795,-24.39195 -86.46306,-36.256359 -6.28785,-4.603419 -13.7575,-7.033445 -21.58969,-7.033445 z m -0.004,276.961544 c -3.77514,0 -7.55097,-0.81792 -10.99271,-2.45374 -11.38062,-5.41708 -40.75371,-21.6134 -67.70624,-54.94119 -14.59438,-18.05104 -26.37653,-38.5653 -35.01242,-60.9729 -10.3442,-26.8414 -16.28373,-56.71796 -17.653917,-88.81109 -0.28055,-6.56873 1.984807,-12.95354 6.384737,-17.983 4.37147,-4.9955 10.36386,-8.12256 16.8794,-8.80508 37.31637,-3.89189 70.09732,-24.35324 86.31804,-36.203082 6.35087,-4.642183 13.88828,-7.091591 21.79297,-7.091591 7.89454,0 15.42653,2.454217 21.77807,7.091591 16.21598,11.849842 48.99691,32.311192 86.30315,36.203082 6.52568,0.68252 12.51808,3.8047 16.88412,8.80027 4.39587,5.02458 6.66597,11.4094 6.39017,17.9733 -1.37019,32.1029 -7.30973,61.9842 -17.65393,88.8256 -8.63587,22.4076 -20.41329,42.92186 -35.01242,60.9729 -26.95254,33.33253 -56.32561,49.52411 -67.70592,54.94119 -3.44176,1.63582 -7.21757,2.45374 -10.9934,2.45374 z"
     stroke-miterlimit="10"
     id="path22"
     style="opacity:0.30100002;stroke:url(#paint10_angular);stroke-width:0.33882108;stroke-miterlimit:10" />
  <path
     d="m 230.0005,100.12023 c -7.35241,0 -14.3572,2.27992 -20.2676,6.5978 -15.22865,11.12858 -46.00987,30.33619 -81.05615,33.99091 -6.03644,0.62926 -11.5931,3.52883 -15.63999,8.16133 -4.07602,4.66149 -6.17671,10.57677 -5.91514,16.66145 1.28278,30.05539 6.84893,58.03931 16.53515,83.17169 8.08427,20.97913 19.1156,40.1869 32.78093,57.08594 25.22929,31.2027 52.72396,46.36359 63.37378,51.43168 6.38,3.02973 13.99398,3.02973 20.37399,0 10.64915,-5.06809 38.14448,-20.22898 63.37377,-51.43168 13.66533,-16.89904 24.69192,-36.10681 32.78094,-57.08594 9.68621,-25.13238 15.24762,-53.1163 16.53514,-83.17169 0.25682,-6.09437 -1.8486,-12.00964 -5.91988,-16.66633 -4.04688,-4.62762 -9.60355,-7.52719 -15.63524,-8.15645 -35.05578,-3.65953 -65.83293,-22.86717 -81.05616,-33.99091 -5.91581,-4.31788 -12.91992,-6.5978 -20.26354,-6.5978 z m -0.004,259.65144 c -3.53797,0 -7.08136,-0.76438 -10.30558,-2.29924 -10.6688,-5.07757 -38.20682,-20.26285 -63.47001,-51.50893 -13.68497,-16.92276 -24.72646,-36.15492 -32.82496,-57.15843 -9.69571,-25.16153 -15.2673,-53.17458 -16.55006,-83.25884 -0.2609,-6.15726 1.86418,-12.14518 5.98357,-16.85995 4.09501,-4.68575 9.71469,-7.61432 15.82363,-8.25327 34.98326,-3.64985 65.71637,-22.82844 80.92131,-33.94254 5.95376,-4.35168 13.01615,-6.650987 20.43226,-6.650987 7.40122,0 14.4636,2.299307 20.41736,6.650987 15.20494,11.10926 45.9333,30.28788 80.91115,33.94254 6.1191,0.63895 11.73405,3.56752 15.82904,8.24846 4.11939,4.70989 6.24922,10.69293 5.99308,16.85025 -1.28753,30.09877 -6.85436,58.11182 -16.55549,83.27335 -8.09307,21.00351 -19.13932,40.23567 -32.8243,57.15843 -25.26792,31.24608 -52.80594,46.43136 -63.46999,51.50893 -3.23372,1.53012 -6.77236,2.29924 -10.31101,2.29924 z"
     stroke-miterlimit="10"
     id="path24"
     style="opacity:0.30100002;stroke:url(#paint11_angular);stroke-width:0.33882108;stroke-miterlimit:10" />
  <path
     d="m 230.0005,108.7664 c -6.86383,0 -13.40308,2.12986 -18.91231,6.15727 -14.21152,10.38315 -42.94083,28.3177 -75.65401,31.72549 -5.63459,0.59057 -10.81854,3.29165 -14.59911,7.61433 -3.80496,4.35175 -5.76538,9.87494 -5.52346,15.55296 1.20077,28.05161 6.3895,54.16658 15.43195,77.62452 7.54688,19.58047 17.83756,37.50546 30.59281,53.28097 23.54942,29.12099 49.20971,43.27016 59.148,48.00416 5.95378,2.82713 13.06495,2.82713 19.01397,0 9.93761,-4.72926 35.60263,-18.87843 59.14731,-48.00416 12.75527,-15.77551 23.04662,-33.7005 30.59284,-53.28097 9.04245,-23.45794 14.23183,-49.57766 15.43194,-77.62452 0.23717,-5.68772 -1.72324,-11.21091 -5.52752,-15.55777 -3.78057,-4.31787 -8.96047,-7.02377 -14.59507,-7.61433 -32.71791,-3.41268 -61.4418,-21.34234 -75.654,-31.72553 -5.5038,-4.02256 -12.03899,-6.15242 -18.89334,-6.15242 z m -0.004,242.34161 c -3.30621,0 -6.607,-0.71626 -9.61845,-2.14947 -9.9566,-4.73875 -35.66093,-18.91232 -59.23948,-48.07194 -12.76949,-15.79516 -23.07982,-33.74455 -30.63619,-53.34873 -9.05195,-23.48707 -14.25083,-49.63118 -15.45161,-77.70691 -0.24666,-5.7458 1.73816,-11.33187 5.5865,-15.732 3.82393,-4.37114 9.06616,-7.11091 14.76851,-7.70636 32.65015,-3.40291 61.3361,-21.30845 75.52865,-31.67708 5.55666,-4.06129 12.15013,-6.20568 19.06681,-6.20568 6.90789,0 13.50067,2.14439 19.05801,6.20568 14.19254,10.36863 42.87374,28.26929 75.51373,31.67708 5.71184,0.59545 10.95476,3.33041 14.77395,7.70147 3.84834,4.39532 5.83247,9.9814 5.59056,15.72727 -1.20011,28.09009 -6.39898,54.2342 -15.45093,77.72127 -7.55638,19.6042 -17.86197,37.55358 -30.63145,53.34873 -23.58399,29.16437 -49.28288,43.33319 -59.24015,48.07194 -3.01077,1.42847 -6.31698,2.14473 -9.61846,2.14473 z"
     stroke-miterlimit="10"
     id="path26"
     style="opacity:0.30100002;stroke:url(#paint12_angular);stroke-width:0.33882108;stroke-miterlimit:10" />
  <path
     d="m 230.0005,117.41032 c -6.36983,0 -12.44489,1.97497 -17.56177,5.7168 -13.20047,9.6425 -39.87721,26.29434 -70.25185,29.46008 -5.23275,0.54699 -10.04468,3.05929 -13.55351,7.07221 -3.5339,4.03706 -5.35404,9.16816 -5.12636,14.4396 1.11338,26.04728 5.93412,50.29875 14.32806,72.08222 7.00953,18.18114 16.56496,34.82809 28.40947,49.47127 21.86548,27.04401 45.69612,40.18214 54.92697,44.57259 5.5282,2.62789 12.13047,2.62789 17.65867,0 9.23084,-4.39587 33.06148,-17.53332 54.92696,-44.57259 11.8445,-14.64792 21.39994,-31.29013 28.40947,-49.47127 8.39328,-21.78347 13.2147,-46.03494 14.32807,-72.08222 0.22294,-5.28112 -1.60195,-10.40735 -5.13111,-14.44448 -3.50951,-4.01285 -8.32077,-6.52034 -13.54877,-7.06733 -30.38006,-3.17062 -57.05205,-19.81758 -70.25184,-29.46008 -5.13111,-3.74183 -11.19668,-5.7168 -17.56246,-5.7168 z m -0.004,225.03134 c -3.06904,0 -6.1374,-0.66274 -8.93064,-1.99431 -9.24575,-4.39993 -33.11028,-17.56177 -55.00897,-44.64035 -11.85941,-14.66689 -21.42975,-31.3335 -28.44403,-49.53902 -8.40274,-21.80721 -13.22891,-46.08306 -14.34702,-72.15927 -0.22769,-5.3344 1.61143,-10.52358 5.1887,-14.60909 3.55287,-4.06124 8.42308,-6.6026 13.71344,-7.1544 30.31703,-3.161 56.95513,-19.78858 70.13122,-29.41659 5.16025,-3.77084 11.28342,-5.76034 17.70746,-5.76034 6.41389,0 12.53232,1.99434 17.69257,5.76034 13.17607,9.62801 39.80876,26.25077 70.12105,29.41659 5.30051,0.5518 10.17005,3.09316 13.71819,7.14959 3.57253,4.08063 5.41707,9.26981 5.19412,14.6042 -1.11337,26.08591 -5.93953,50.36176 -14.34771,72.16897 -7.0136,18.20552 -16.58869,34.87213 -28.44336,49.53902 -21.89936,27.07858 -45.7632,40.24042 -55.00895,44.64035 -2.80273,1.32615 -5.87176,1.99431 -8.93607,1.99431 z"
     stroke-miterlimit="10"
     id="path28"
     style="opacity:0.30100002;stroke:url(#paint13_angular);stroke-width:0.33882108;stroke-miterlimit:10" />
  <path
     d="m 230.0005,126.05603 c -5.88125,0 -11.4867,1.82495 -16.21122,5.27631 -12.18334,8.90192 -36.80818,24.27091 -64.84494,27.19466 -4.83092,0.50343 -9.2749,2.82211 -12.51335,6.53003 -3.26215,3.72731 -4.94203,8.46145 -4.734,13.33112 1.02664,24.04315 5.48008,46.43109 13.2296,66.5347 6.46742,16.78249 15.29168,32.14667 26.22204,45.6663 20.18493,24.96299 42.18121,37.08871 50.70051,41.14576 5.10197,2.4246 11.19669,2.4246 16.29865,0 8.51932,-4.05705 30.51491,-16.18277 50.70052,-41.14576 10.93036,-13.51963 19.75462,-28.88381 26.22204,-45.6663 7.7495,-20.10835 12.19823,-42.49155 13.22892,-66.5347 0.20329,-4.87454 -1.4759,-9.6087 -4.73875,-13.33112 -3.23845,-3.70311 -7.68175,-6.02173 -12.50792,-6.52514 -28.04218,-2.92376 -52.66634,-18.29282 -64.84561,-27.19474 -4.72926,-3.45617 -10.33472,-5.28112 -16.20649,-5.28112 z m -0.004,207.72129 c -2.83187,0 -5.66305,-0.61462 -8.24352,-1.83912 -8.53422,-4.06179 -30.5637,-16.20649 -50.77844,-41.20877 -10.9446,-13.5393 -19.77834,-28.92245 -26.25525,-45.72933 -7.75968,-20.12732 -12.21313,-42.53965 -13.24383,-66.60714 -0.21344,-4.92293 1.49082,-9.71515 4.78686,-13.48595 3.27775,-3.74669 7.77459,-6.09437 12.65835,-6.60268 27.98392,-2.91887 52.57419,-18.26368 64.73856,-27.15108 4.76382,-3.48044 10.41739,-5.3199 16.34201,-5.3199 5.92056,0 11.56939,1.83946 16.33254,5.3199 12.16435,8.8874 36.74514,24.23221 64.72905,27.15108 4.89393,0.51312 9.38602,2.85599 12.66309,6.5978 3.29674,3.77087 5.00033,8.5534 4.79229,13.48115 -1.03136,24.07717 -5.48416,46.4895 -13.24384,66.61682 -6.4769,16.80688 -15.31132,32.19003 -26.25591,45.72933 -20.21407,24.99754 -42.24422,37.14223 -50.77845,41.20877 -2.57977,1.2245 -5.41165,1.83912 -8.24351,1.83912 z"
     stroke-miterlimit="10"
     id="path30"
     style="opacity:0.30100002;stroke:url(#paint14_angular);stroke-width:0.33882108;stroke-miterlimit:10" />
  <path
     d="m 230.0005,134.70219 c -5.39199,0 -10.52784,1.67486 -14.86069,4.83579 -11.16687,8.16132 -33.73913,22.24761 -59.44278,24.9293 -4.42432,0.46466 -8.50033,2.58975 -11.47247,5.98304 -2.98637,3.41748 -4.53072,7.75466 -4.33691,12.21775 0.94395,22.03943 5.01929,42.55911 12.12572,60.99233 5.93005,15.38316 14.01839,29.46931 24.03868,41.86135 18.50098,22.88194 38.66221,34.00069 46.47474,37.71824 4.67641,2.22199 10.26221,2.22199 14.94336,0 7.8078,-3.71755 27.97374,-14.8363 46.47473,-37.71824 10.0203,-12.39204 18.10864,-26.47819 24.03868,-41.86135 7.10101,-18.43322 11.18177,-38.9529 12.12573,-60.99233 0.18838,-4.4679 -1.35529,-8.80514 -4.34233,-12.22263 -2.9674,-3.39329 -7.04274,-5.51831 -11.46707,-5.98304 -25.70364,-2.68169 -48.27589,-16.76791 -59.44344,-24.92923 -4.33691,-3.15612 -9.47276,-4.83098 -14.85595,-4.83098 z m -0.004,190.41147 c -2.59469,0 -5.19413,-0.56176 -7.55571,-1.68936 -7.8227,-3.72296 -28.01781,-14.85595 -46.54793,-37.77177 -10.03451,-12.41102 -18.13302,-26.51207 -24.06781,-41.91488 -7.1105,-18.45287 -11.196,-38.99626 -12.13996,-61.05507 -0.1938,-4.51628 1.36477,-8.9068 4.39045,-12.36298 3.00601,-3.43686 7.1254,-5.58607 11.60258,-6.0508 25.65554,-2.67689 48.19391,-16.74379 59.34182,-24.89054 4.36604,-3.19 9.54526,-4.87448 14.9813,-4.87448 5.42657,0 10.60579,1.68448 14.97251,4.87448 11.14789,8.14675 33.68559,22.21365 59.33163,24.89054 4.48734,0.46954 8.60673,2.61882 11.60801,6.0508 3.02025,3.45618 4.58357,7.84182 4.39518,12.35328 -0.94395,22.07325 -5.0247,42.6119 -12.14063,61.06477 -5.93411,15.40281 -14.03261,29.50861 -24.06782,41.91488 -18.52944,22.91582 -38.72453,34.04881 -46.54724,37.77177 -2.367,1.1276 -4.96169,1.68936 -7.55638,1.68936 z"
     stroke-miterlimit="10"
     id="path32"
     style="opacity:0.30100002;stroke:url(#paint15_angular);stroke-width:0.33882108;stroke-miterlimit:10" />
  <path
     d="m 229.99576,143.34701 c -4.90342,0 -9.5744,1.51995 -13.51015,4.39532 -10.1504,7.41585 -30.67484,20.22416 -54.03587,22.659 -4.02249,0.42115 -7.72579,2.35257 -10.42688,5.44086 -2.71532,3.10773 -4.11939,7.05282 -3.94524,11.10905 0.85723,20.03585 4.56528,38.69134 11.02254,55.44469 5.392,13.98449 12.74034,26.78854 21.85057,38.05705 16.8211,20.80023 35.14795,30.90794 42.24896,34.28666 4.25491,2.01803 9.33249,2.01803 13.58265,0 7.1017,-3.37872 25.42785,-13.48643 42.24896,-34.28666 9.11022,-11.26851 16.46332,-24.07256 21.85125,-38.05705 6.45725,-16.75335 10.16531,-35.40884 11.02185,-55.44469 0.1694,-4.06591 -1.23467,-8.0062 -3.94998,-11.10905 -2.70108,-3.08348 -6.39965,-5.0149 -10.42213,-5.43605 -23.37052,-2.43965 -43.88478,-15.24315 -54.03587,-22.659 -3.93506,-2.8753 -8.60198,-4.40013 -13.50066,-4.40013 z m 0,173.10096 c -2.36226,0 -4.7191,-0.51296 -6.86858,-1.53418 -7.11117,-3.38346 -25.47122,-13.5054 -42.31198,-34.33951 -9.11971,-11.28341 -16.48229,-24.1017 -21.87971,-38.10584 -6.46742,-16.77232 -10.18022,-35.44746 -11.03676,-55.50703 -0.17415,-4.10509 1.23941,-8.09382 3.9886,-11.24018 2.73022,-3.12224 6.4769,-5.07784 10.54818,-5.50382 23.32173,-2.43002 43.80755,-15.21895 53.94846,-22.62518 3.96963,-2.8995 8.67924,-4.43401 13.62195,-4.43401 4.9373,0 9.64218,1.53451 13.6118,4.43401 10.13617,7.40623 30.62198,20.19516 53.93896,22.62518 4.08076,0.42598 7.82271,2.3767 10.55292,5.49893 2.74919,3.14156 4.1675,7.13029 3.99335,11.23016 -0.85721,20.0643 -4.57002,38.73944 -11.03676,55.51245 -5.39742,14.00414 -12.76001,26.82175 -21.87971,38.10585 -16.8455,20.82868 -35.20079,30.95062 -42.31197,34.33951 -2.15897,1.0307 -4.52123,1.54366 -6.87875,1.54366 z"
     stroke-miterlimit="10"
     id="path34"
     style="opacity:0.30100002;stroke:url(#paint16_angular);stroke-width:0.33882108;stroke-miterlimit:10" />
  <path
     d="m 229.99576,151.99718 c -4.40942,0 -8.61622,1.36992 -12.1596,3.95479 -9.13869,6.67525 -27.60581,18.20078 -48.63371,20.39363 -3.62065,0.37752 -6.95601,2.11534 -9.38603,4.89387 -2.44426,2.79792 -3.70805,6.34604 -3.54813,9.99583 0.7698,18.03138 4.1099,34.82335 9.91865,49.90224 4.84989,12.58585 11.46705,24.11119 19.6672,34.25211 15.1365,18.72392 31.6337,27.81924 38.02319,30.85914 3.82935,1.82015 8.3987,1.82015 12.22263,0 6.38949,-3.0399 22.88669,-12.13522 38.02318,-30.85914 8.20015,-10.14092 14.81732,-21.66152 19.66788,-34.25211 5.8135,-15.07889 9.14818,-31.87086 9.91798,-49.90224 0.15518,-3.65927 -1.10863,-7.2074 -3.55288,-10.00071 -2.43003,-2.77854 -5.76064,-4.51628 -9.38128,-4.89386 -21.03266,-2.19279 -39.49975,-13.71839 -48.63369,-20.39358 -3.53392,-2.58493 -7.73529,-3.94997 -12.14539,-3.94997 z m 0,155.78647 c -2.12509,0 -4.25016,-0.46012 -6.18619,-1.37968 -6.39898,-3.04465 -22.92533,-12.15487 -38.08147,-30.90252 -8.20963,-10.15582 -14.83629,-21.69132 -19.6916,-34.29614 -5.81823,-15.09787 -9.15833,-31.90475 -9.93287,-49.9551 -0.15993,-3.69383 1.1181,-7.28533 3.5915,-10.11239 2.45916,-2.81241 5.82839,-4.5696 9.49308,-4.95201 20.98862,-2.18796 39.42659,-13.699 48.55103,-20.36456 3.57253,-2.60906 7.81322,-3.98868 12.25652,-3.98868 4.44398,0 8.67924,1.37962 12.25177,3.98868 9.12446,6.66556 27.55768,18.17179 48.54696,20.36456 3.66875,0.38241 7.04274,2.1396 9.49716,4.95201 2.47339,2.82706 3.74668,6.41856 3.59692,10.10696 -0.7698,18.06052 -4.11464,34.8674 -9.93355,49.96053 -4.85463,12.60482 -11.48197,24.14032 -19.69161,34.29614 -15.16089,18.74765 -31.68181,27.85787 -38.08146,30.90252 -1.94076,0.91956 -4.06585,1.37968 -6.18619,1.37968 z"
     stroke-miterlimit="10"
     id="path36"
     style="opacity:0.30100002;stroke:url(#paint17_angular);stroke-width:0.33882108;stroke-miterlimit:10" />
  <path
     d="m 229.99576,160.64287 c -3.92083,0 -7.65735,1.21501 -10.80907,3.51914 -8.12221,5.93466 -24.53676,16.17741 -43.23154,18.12821 -3.2188,0.33401 -6.18145,1.8827 -8.34042,4.35202 -2.1732,2.48289 -3.29674,5.63934 -3.15578,8.88728 0.68712,16.02691 3.64978,30.95063 8.81951,44.35439 4.31252,11.18719 10.19445,21.42975 17.4791,30.44306 13.4573,16.64222 28.11945,24.72582 33.79741,27.43164 3.40313,1.61685 7.46423,1.61685 10.86736,0 5.67795,-2.70582 20.34552,-10.78942 33.79739,-27.43164 7.29008,-9.01331 13.17133,-19.25587 17.47978,-30.44306 5.16431,-13.40376 8.1317,-28.32748 8.81951,-44.35439 0.13553,-3.25336 -0.988,-6.40439 -3.15645,-8.88728 -2.15898,-2.46932 -5.12094,-4.0132 -8.34043,-4.35202 -18.69411,-1.9508 -35.10863,-12.19355 -43.23153,-18.12821 -3.14154,-2.30413 -6.87874,-3.51914 -10.79484,-3.51914 z m 0,138.47577 c -1.8879,0 -3.77514,-0.40659 -5.49839,-1.2245 -5.68812,-2.70582 -20.37467,-10.80433 -33.85094,-27.47025 -7.29956,-9.02349 -13.18556,-19.28028 -17.5035,-30.48646 -5.16973,-13.41799 -8.14187,-28.36135 -8.82968,-44.40317 -0.14026,-3.28182 0.99275,-6.4769 3.19034,-8.98892 2.18269,-2.49779 5.17922,-4.06152 8.43733,-4.40034 18.65549,-1.94592 35.04563,-12.17418 43.15903,-18.09914 3.17544,-2.31862 6.94109,-3.54821 10.89581,-3.54821 3.94998,0 7.71156,1.22471 10.887,3.54821 8.10799,5.92496 24.49812,16.15322 43.14954,18.09914 3.26217,0.33882 6.25871,1.90255 8.44206,4.40034 2.1976,2.51202 3.32994,5.70236 3.19441,8.98418 -0.68713,16.0513 -3.65452,30.98925 -8.829,44.41267 -4.31793,11.20142 -10.20936,21.45821 -17.50417,30.48644 -13.47627,16.66592 -28.16281,24.75969 -33.85026,27.47025 -1.71375,0.80843 -3.60167,1.21976 -5.48958,1.21976 z"
     stroke-miterlimit="10"
     id="path38"
     style="opacity:0.30100002;stroke:url(#paint18_angular);stroke-width:0.33882108;stroke-miterlimit:10" />
  <path
     d="m 229.99576,169.28817 c -3.43158,0 -6.69917,1.06491 -9.45853,3.07865 -7.10575,5.194 -21.47314,14.15887 -37.82463,15.86246 -2.81696,0.29545 -5.40691,1.646 -7.29957,3.8097 -1.90214,2.17387 -2.87998,4.93731 -2.75935,7.77391 0.60039,14.02381 3.19508,27.08332 7.7163,38.81263 3.77041,9.78787 8.92116,18.75239 15.29642,26.63812 11.77201,14.56049 24.60452,21.63237 29.57096,23.99937 2.97756,1.41356 6.53044,1.41356 9.50732,0 4.97118,-2.367 17.79894,-9.43888 29.57163,-23.99937 6.37457,-7.88573 11.52059,-16.85025 15.2964,-26.63812 4.52124,-11.72931 7.11525,-24.78882 7.71565,-38.81263 0.12129,-2.84609 -0.8613,-5.60546 -2.76411,-7.77865 -1.88791,-2.15896 -4.48192,-3.50951 -7.29481,-3.80496 -16.35626,-1.70834 -30.7182,-10.66846 -37.82464,-15.86246 -2.75394,-2.01374 -6.02153,-3.07865 -9.44904,-3.07865 z m 0,121.16613 c -1.65073,0 -3.30621,-0.35847 -4.81126,-1.07474 -4.9766,-2.367 -17.82809,-9.45378 -29.61975,-24.03867 -6.38474,-7.89521 -11.54024,-16.86991 -15.31607,-26.67199 -4.52596,-11.74354 -7.1254,-24.81323 -7.72579,-38.85058 -0.12061,-2.8705 0.87145,-5.66848 2.79324,-7.86607 1.91231,-2.18811 4.53546,-3.55356 7.38224,-3.85308 16.32236,-1.70427 30.66534,-10.65457 37.76161,-15.83886 2.77834,-2.02819 6.07507,-3.10286 9.53104,-3.10286 3.45598,0 6.74796,1.07467 9.52629,3.10286 7.09627,5.18429 21.4345,14.13459 37.75687,15.83886 2.85625,0.29952 5.47535,1.66497 7.38698,3.84833 1.92179,2.1976 2.91385,4.99016 2.79797,7.86065 -0.60039,14.04752 -3.19982,27.11721 -7.72579,38.86075 -3.77583,9.80208 -8.93064,18.77678 -15.31539,26.67199 -11.79233,14.58014 -24.63906,21.66692 -29.62042,24.03867 -1.50029,0.71627 -3.15103,1.07474 -4.80177,1.07474 z"
     stroke-miterlimit="10"
     id="path40"
     style="opacity:0.30100002;stroke:url(#paint19_angular);stroke-width:0.33882108;stroke-miterlimit:10" />
  <defs
     id="defs142">
    <radialGradient
       id="paint0_angular"
       cx="0"
       cy="0"
       r="1"
       gradientUnits="userSpaceOnUse"
       gradientTransform="matrix(0,225.27805,-213.50877,0,229.99508,229.80601)">
      <stop
         stop-color="white"
         stop-opacity="0"
         id="stop42" />
      <stop
         offset="1"
         stop-color="#0A0001"
         stop-opacity="0.48"
         id="stop44" />
    </radialGradient>
    <radialGradient
       id="paint1_angular"
       cx="0"
       cy="0"
       r="1"
       gradientUnits="userSpaceOnUse"
       gradientTransform="matrix(0,216.61373,-205.29507,0,229.99711,229.80601)">
      <stop
         stop-color="white"
         stop-opacity="0"
         id="stop47" />
      <stop
         offset="1"
         stop-color="#0A0001"
         stop-opacity="0.48"
         id="stop49" />
    </radialGradient>
    <radialGradient
       id="paint2_angular"
       cx="0"
       cy="0"
       r="1"
       gradientUnits="userSpaceOnUse"
       gradientTransform="matrix(0,207.94872,-197.08408,0,229.99305,229.80669)">
      <stop
         stop-color="white"
         stop-opacity="0"
         id="stop52" />
      <stop
         offset="1"
         stop-color="#0A0001"
         stop-opacity="0.48"
         id="stop54" />
    </radialGradient>
    <radialGradient
       id="paint3_angular"
       cx="0"
       cy="0"
       r="1"
       gradientUnits="userSpaceOnUse"
       gradientTransform="matrix(0,199.28167,-188.87309,0,229.99779,229.80873)">
      <stop
         stop-color="white"
         stop-opacity="0"
         id="stop57" />
      <stop
         offset="1"
         stop-color="#0A0001"
         stop-opacity="0.48"
         id="stop59" />
    </radialGradient>
    <radialGradient
       id="paint4_angular"
       cx="0"
       cy="0"
       r="1"
       gradientUnits="userSpaceOnUse"
       gradientTransform="matrix(0,190.62209,-180.66007,0,229.99508,229.8033)">
      <stop
         stop-color="white"
         stop-opacity="0"
         id="stop62" />
      <stop
         offset="1"
         stop-color="#0A0001"
         stop-opacity="0.48"
         id="stop64" />
    </radialGradient>
    <radialGradient
       id="paint5_angular"
       cx="0"
       cy="0"
       r="1"
       gradientUnits="userSpaceOnUse"
       gradientTransform="matrix(0,181.95233,-172.45043,0,229.99779,229.80805)">
      <stop
         stop-color="white"
         stop-opacity="0"
         id="stop67" />
      <stop
         offset="1"
         stop-color="#0A0001"
         stop-opacity="0.48"
         id="stop69" />
    </radialGradient>
    <radialGradient
       id="paint6_angular"
       cx="0"
       cy="0"
       r="1"
       gradientUnits="userSpaceOnUse"
       gradientTransform="matrix(0,173.29206,-164.23537,0,229.99779,229.80397)">
      <stop
         stop-color="white"
         stop-opacity="0"
         id="stop72" />
      <stop
         offset="1"
         stop-color="#0A0001"
         stop-opacity="0.48"
         id="stop74" />
    </radialGradient>
    <radialGradient
       id="paint7_angular"
       cx="0"
       cy="0"
       r="1"
       gradientUnits="userSpaceOnUse"
       gradientTransform="matrix(0,164.62298,-156.02643,0,229.99982,229.80873)">
      <stop
         stop-color="white"
         stop-opacity="0"
         id="stop77" />
      <stop
         offset="1"
         stop-color="#0A0001"
         stop-opacity="0.48"
         id="stop79" />
    </radialGradient>
    <radialGradient
       id="paint8_angular"
       cx="0"
       cy="0"
       r="1"
       gradientUnits="userSpaceOnUse"
       gradientTransform="matrix(0,155.95527,-147.81272,0,229.99779,229.81008)">
      <stop
         stop-color="white"
         stop-opacity="0"
         id="stop82" />
      <stop
         offset="1"
         stop-color="#0A0001"
         stop-opacity="0.48"
         id="stop84" />
    </radialGradient>
    <radialGradient
       id="paint9_angular"
       cx="0"
       cy="0"
       r="1"
       gradientUnits="userSpaceOnUse"
       gradientTransform="matrix(0,147.29839,-139.59699,0,229.99305,229.8033)">
      <stop
         stop-color="white"
         stop-opacity="0"
         id="stop87" />
      <stop
         offset="1"
         stop-color="#0A0001"
         stop-opacity="0.48"
         id="stop89" />
    </radialGradient>
    <radialGradient
       id="paint10_angular"
       cx="0"
       cy="0"
       r="1"
       gradientUnits="userSpaceOnUse"
       gradientTransform="matrix(0,138.63067,-131.38803,0,229.99576,229.80533)">
      <stop
         stop-color="white"
         stop-opacity="0"
         id="stop92" />
      <stop
         offset="1"
         stop-color="#0A0001"
         stop-opacity="0.48"
         id="stop94" />
    </radialGradient>
    <radialGradient
       id="paint11_angular"
       cx="0"
       cy="0"
       r="1"
       gradientUnits="userSpaceOnUse"
       gradientTransform="matrix(0,129.96634,-123.17636,0,230.00051,229.80533)">
      <stop
         stop-color="white"
         stop-opacity="0"
         id="stop97" />
      <stop
         offset="1"
         stop-color="#0A0001"
         stop-opacity="0.48"
         id="stop99" />
    </radialGradient>
    <radialGradient
       id="paint12_angular"
       cx="0"
       cy="0"
       r="1"
       gradientUnits="userSpaceOnUse"
       gradientTransform="matrix(0,121.2993,-114.96334,0,229.99305,229.80873)">
      <stop
         stop-color="white"
         stop-opacity="0"
         id="stop102" />
      <stop
         offset="1"
         stop-color="#0A0001"
         stop-opacity="0.48"
         id="stop104" />
    </radialGradient>
    <radialGradient
       id="paint13_angular"
       cx="0"
       cy="0"
       r="1"
       gradientUnits="userSpaceOnUse"
       gradientTransform="matrix(0,112.63699,-106.75235,0,229.99779,229.80533)">
      <stop
         stop-color="white"
         stop-opacity="0"
         id="stop107" />
      <stop
         offset="1"
         stop-color="#0A0001"
         stop-opacity="0.48"
         id="stop109" />
    </radialGradient>
    <radialGradient
       id="paint14_angular"
       cx="0"
       cy="0"
       r="1"
       gradientUnits="userSpaceOnUse"
       gradientTransform="matrix(0,103.97199,-98.538652,0,229.99576,229.80533)">
      <stop
         stop-color="white"
         stop-opacity="0"
         id="stop112" />
      <stop
         offset="1"
         stop-color="#0A0001"
         stop-opacity="0.48"
         id="stop114" />
    </radialGradient>
    <radialGradient
       id="paint15_angular"
       cx="0"
       cy="0"
       r="1"
       gradientUnits="userSpaceOnUse"
       gradientTransform="matrix(0,95.304943,-90.327662,0,229.99576,229.80873)">
      <stop
         stop-color="white"
         stop-opacity="0"
         id="stop117" />
      <stop
         offset="1"
         stop-color="#0A0001"
         stop-opacity="0.48"
         id="stop119" />
    </radialGradient>
    <radialGradient
       id="paint16_angular"
       cx="0"
       cy="0"
       r="1"
       gradientUnits="userSpaceOnUse"
       gradientTransform="matrix(0,86.644678,-82.116673,0,230.00051,229.8033)">
      <stop
         stop-color="white"
         stop-opacity="0"
         id="stop122" />
      <stop
         offset="1"
         stop-color="#0A0001"
         stop-opacity="0.48"
         id="stop124" />
    </radialGradient>
    <radialGradient
       id="paint17_angular"
       cx="0"
       cy="0"
       r="1"
       gradientUnits="userSpaceOnUse"
       gradientTransform="matrix(0,77.975602,-73.905006,0,229.99508,229.80805)">
      <stop
         stop-color="white"
         stop-opacity="0"
         id="stop127" />
      <stop
         offset="1"
         stop-color="#0A0001"
         stop-opacity="0.48"
         id="stop129" />
    </radialGradient>
    <radialGradient
       id="paint18_angular"
       cx="0"
       cy="0"
       r="1"
       gradientUnits="userSpaceOnUse"
       gradientTransform="matrix(0,69.310592,-65.689002,0,229.99102,229.80805)">
      <stop
         stop-color="white"
         stop-opacity="0"
         id="stop132" />
      <stop
         offset="1"
         stop-color="#0A0001"
         stop-opacity="0.48"
         id="stop134" />
    </radialGradient>
    <radialGradient
       id="paint19_angular"
       cx="0"
       cy="0"
       r="1"
       gradientUnits="userSpaceOnUse"
       gradientTransform="matrix(0,60.648292,-57.477537,0,229.99102,229.80601)">
      <stop
         stop-color="white"
         stop-opacity="0"
         id="stop137" />
      <stop
         offset="1"
         stop-color="#0A0001"
         stop-opacity="0.48"
         id="stop139" />
    </radialGradient>
  </defs>
</svg>
