<svg width="24" height="24" viewBox="0 0 24 24" fill="none" xmlns="http://www.w3.org/2000/svg">
<g clip-path="url(#clip0)">
<g clip-path="url(#clip1)">
<path d="M23.9972 11.9887C24.1385 18.2945 18.8726 24.0045 11.9967 24C5.13221 23.9932 -0.0727154 18.2854 0.000768486 11.966C0.077644 5.29898 5.3504 -0.00452711 12.0465 2.89982e-06C18.677 0.00453291 23.9972 5.34089 23.9972 11.9887ZM10.2444 22.1031C10.3077 22.0895 10.3699 22.0759 10.4332 22.0634C10.3473 18.4904 10.0161 14.906 10.9261 11.4247C10.769 11.2877 10.6966 11.1903 10.6005 11.1461C10.1054 10.9173 9.61133 10.6852 9.1026 10.487C8.20949 10.1393 7.86468 9.54134 8.02521 8.46886C8.22192 8.56399 8.39828 8.65685 8.58143 8.73613C9.184 8.99774 9.77639 9.29219 10.3959 9.50283C11.2178 9.78256 11.3783 9.99547 11.2506 10.8732C11.1635 11.47 11.0527 12.0657 11.0075 12.667C10.9657 13.2163 11.4846 13.9672 11.9018 14.0566C12.2635 14.1348 12.822 13.667 12.9984 13.0702C13.0696 12.8301 13.0379 12.5504 13.0119 12.2922C12.9532 11.692 12.8582 11.0963 12.7994 10.496C12.7485 9.98301 13.0187 9.71348 13.4947 9.54473C14.1662 9.30804 14.8163 9.00906 15.4742 8.73499C15.654 8.66025 15.8315 8.57644 16.0327 8.48584C16.1254 9.69649 15.8179 10.1529 14.7914 10.5334C14.2363 10.7395 13.7072 11.0147 13.0945 11.2922C14.0091 14.9117 13.662 18.5051 13.7151 22.1042C13.9808 21.8018 14.1662 21.4836 14.3301 21.1552C14.4726 20.8686 14.5868 20.5685 14.719 20.2763C15.3476 18.8856 16.0022 17.5062 16.5923 16.0997C16.7754 15.6614 16.8546 15.1506 16.8602 14.6716C16.8862 12.3126 16.884 9.95357 16.8648 7.59456C16.8602 7.03171 16.8467 6.44055 16.676 5.91506C16.3707 4.97509 16.0971 3.96376 15.533 3.18347C14.5178 1.77916 12.9667 1.39525 11.2947 1.61382C9.95953 1.78822 8.77927 2.39411 8.17331 3.60929C7.53683 4.88562 7.13323 6.27633 7.1434 7.74745C7.15923 10.0691 7.14001 12.3896 7.15697 14.7112C7.15923 15.0815 7.19993 15.4813 7.34464 15.8143C8.18235 17.7497 9.05286 19.6704 9.91997 21.5934C10.0014 21.7746 10.1348 21.9343 10.2444 22.1031Z" fill="#0A0001"/>
</g>
</g>
<defs>
<clipPath id="clip0">
<rect width="24" height="23.9846" fill="white"/>
</clipPath>
<clipPath id="clip1">
<rect width="24" height="23.9846" fill="white"/>
</clipPath>
</defs>
</svg>
