<svg width="24" height="24" viewBox="0 0 24 24" fill="none" xmlns="http://www.w3.org/2000/svg">
<path d="M12.0001 3C7.21828 3 3.3058 6.75344 3.02748 11.4668L2.03041 10.4697C1.9605 10.3977 1.87686 10.3405 1.78443 10.3014C1.692 10.2623 1.59267 10.2422 1.49232 10.2422C1.34306 10.2422 1.19721 10.2868 1.07342 10.3702C0.949628 10.4536 0.853535 10.572 0.797433 10.7103C0.74133 10.8486 0.72777 11.0006 0.758487 11.1466C0.789204 11.2927 0.862802 11.4263 0.969863 11.5303L3.21986 13.7803C3.36052 13.9209 3.55126 13.9999 3.75014 13.9999C3.94901 13.9999 4.13975 13.9209 4.28041 13.7803L6.53041 11.5303C6.60239 11.4612 6.65985 11.3784 6.69944 11.2868C6.73903 11.1952 6.75994 11.0966 6.76096 10.9968C6.76197 10.8971 6.74306 10.7981 6.70535 10.7057C6.66763 10.6133 6.61186 10.5294 6.5413 10.4588C6.47074 10.3883 6.38682 10.3325 6.29443 10.2948C6.20205 10.2571 6.10307 10.2382 6.00329 10.2392C5.90351 10.2402 5.80494 10.2611 5.71334 10.3007C5.62175 10.3403 5.53897 10.3977 5.46986 10.4697L4.53041 11.4092C4.83115 7.53643 8.04839 4.5 12.0001 4.5C14.5381 4.5 16.7673 5.75839 18.1261 7.68262C18.1829 7.7631 18.255 7.83161 18.3383 7.88423C18.4216 7.93685 18.5144 7.97255 18.6115 7.98928C18.7086 8.00602 18.808 8.00347 18.9041 7.98178C19.0002 7.96009 19.0911 7.91969 19.1716 7.86287C19.2521 7.80605 19.3206 7.73394 19.3732 7.65065C19.4258 7.56736 19.4615 7.47452 19.4782 7.37743C19.4949 7.28035 19.4923 7.18092 19.4706 7.08483C19.4489 6.98873 19.4085 6.89786 19.3517 6.81738C17.7235 4.51161 15.0352 3 12.0001 3ZM20.2394 10C20.0442 10.0029 19.8579 10.0817 19.7199 10.2197L17.4699 12.4697C17.3979 12.5388 17.3404 12.6216 17.3008 12.7132C17.2612 12.8048 17.2403 12.9034 17.2393 13.0032C17.2383 13.1029 17.2572 13.2019 17.2949 13.2943C17.3326 13.3867 17.3884 13.4706 17.459 13.5412C17.5295 13.6117 17.6135 13.6675 17.7058 13.7052C17.7982 13.7429 17.8972 13.7618 17.997 13.7608C18.0968 13.7598 18.1953 13.7389 18.2869 13.6993C18.3785 13.6597 18.4613 13.6023 18.5304 13.5303L19.4699 12.5908C19.1691 16.4636 15.9519 19.5 12.0001 19.5C9.46216 19.5 7.23295 18.2416 5.87416 16.3174C5.81735 16.2369 5.74525 16.1684 5.66196 16.1158C5.57868 16.0632 5.48584 16.0275 5.38876 16.0107C5.29168 15.994 5.19225 15.9965 5.09616 16.0182C5.00006 16.0399 4.90918 16.0803 4.8287 16.1371C4.74822 16.1939 4.67972 16.2661 4.62711 16.3494C4.5745 16.4326 4.53881 16.5255 4.52209 16.6226C4.50536 16.7197 4.50792 16.8191 4.52963 16.9152C4.55133 17.0113 4.59175 17.1021 4.64857 17.1826C6.27679 19.4884 8.96512 21 12.0001 21C16.782 21 20.6945 17.2466 20.9728 12.5332L21.9699 13.5303C22.039 13.6023 22.1217 13.6597 22.2133 13.6993C22.3049 13.7389 22.4035 13.7598 22.5033 13.7608C22.6031 13.7618 22.7021 13.7429 22.7944 13.7052C22.8868 13.6675 22.9707 13.6117 23.0413 13.5412C23.1119 13.4706 23.1676 13.3867 23.2053 13.2943C23.2431 13.2019 23.262 13.1029 23.261 13.0032C23.2599 12.9034 23.239 12.8048 23.1994 12.7132C23.1599 12.6216 23.1024 12.5388 23.0304 12.4697L20.7804 10.2197C20.7095 10.1488 20.6251 10.0928 20.5322 10.0551C20.4392 10.0173 20.3397 9.99859 20.2394 10Z" fill="white"/>
</svg>
