<svg width="24" height="24" viewBox="0 0 24 24" fill="none" xmlns="http://www.w3.org/2000/svg">
<path d="M13.4912 2.00003C13.3204 2.002 13.1554 2.06221 13.0234 2.17071C12.8915 2.27921 12.8005 2.4295 12.7656 2.59671L11.6338 8.02835C9.25313 8.0957 7.11243 8.8022 5.47754 9.95023C5.03729 9.69139 4.55008 9.50003 4 9.50003C2.35207 9.50003 1 10.8521 1 12.5C1 13.6002 1.61907 14.5344 2.50781 15.0537C2.52868 17.0408 3.66261 18.8058 5.37695 20.0303C7.10722 21.2662 9.439 22 12 22C14.561 22 16.8928 21.2662 18.623 20.0303C20.3374 18.8058 21.4713 17.0408 21.4922 15.0537C22.3809 14.5344 23 13.6002 23 12.5C23 10.8521 21.6479 9.50003 20 9.50003C19.4499 9.50003 18.9627 9.69139 18.5225 9.95023C17.0714 8.9313 15.2195 8.27405 13.1543 8.0889L14.084 3.62503L17.0635 4.19241C17.2608 4.94263 17.9387 5.50003 18.75 5.50003C19.715 5.50003 20.5 4.71503 20.5 3.75003C20.5 2.78503 19.715 2.00003 18.75 2.00003C18.1718 2.00003 17.6616 2.28522 17.3428 2.71878L13.6406 2.0137C13.5914 2.00416 13.5413 1.99958 13.4912 2.00003ZM12 9.50003C14.4302 9.50003 16.5908 10.2665 18.0371 11.417C18.1758 11.5274 18.349 11.5851 18.5262 11.5799C18.7033 11.5747 18.8729 11.507 19.0049 11.3887C19.2776 11.1447 19.6173 11 20 11C20.8371 11 21.5 11.663 21.5 12.5C21.5 13.1636 21.0742 13.7085 20.4805 13.9112C20.3219 13.9653 20.186 14.071 20.0945 14.2113C20.003 14.3517 19.9612 14.5187 19.9756 14.6856C19.9883 14.8314 20 14.9345 20 15C20 16.4423 19.1876 17.7835 17.751 18.8096C16.3144 19.8357 14.2715 20.5 12 20.5C9.7285 20.5 7.68563 19.8357 6.24902 18.8096C4.81242 17.7835 4 16.4423 4 15C4 14.9345 4.01169 14.8314 4.02441 14.6856C4.03884 14.5187 3.99696 14.3517 3.90546 14.2113C3.81395 14.071 3.67809 13.9653 3.51953 13.9112C2.92585 13.7085 2.5 13.1636 2.5 12.5C2.5 11.663 3.16293 11 4 11C4.38266 11 4.72239 11.1447 4.99512 11.3887C5.12709 11.507 5.29668 11.5747 5.47382 11.5799C5.65097 11.5851 5.82423 11.5274 5.96289 11.417C7.40919 10.2665 9.56984 9.50003 12 9.50003ZM8.25 11.5C7.5625 11.5 6.95191 11.7848 6.56445 12.2207C6.177 12.6566 6 13.2084 6 13.75C6 14.2917 6.177 14.8434 6.56445 15.2793C6.95191 15.7152 7.5625 16 8.25 16C8.9375 16 9.54809 15.7152 9.93555 15.2793C10.323 14.8434 10.5 14.2917 10.5 13.75C10.5 13.2084 10.323 12.6566 9.93555 12.2207C9.54809 11.7848 8.9375 11.5 8.25 11.5ZM15.75 11.5C15.0625 11.5 14.4519 11.7848 14.0645 12.2207C13.677 12.6566 13.5 13.2084 13.5 13.75C13.5 14.2917 13.677 14.8434 14.0645 15.2793C14.4519 15.7152 15.0625 16 15.75 16C16.4375 16 17.0481 15.7152 17.4355 15.2793C17.823 14.8434 18 14.2917 18 13.75C18 13.2084 17.823 12.6566 17.4355 12.2207C17.0481 11.7848 16.4375 11.5 15.75 11.5ZM8.25 13C8.5625 13 8.70191 13.0902 8.81445 13.2168C8.927 13.3434 9 13.5417 9 13.75C9 13.9584 8.927 14.1566 8.81445 14.2832C8.70191 14.4098 8.5625 14.5 8.25 14.5C7.9375 14.5 7.79809 14.4098 7.68555 14.2832C7.573 14.1566 7.5 13.9584 7.5 13.75C7.5 13.5417 7.573 13.3434 7.68555 13.2168C7.79809 13.0902 7.9375 13 8.25 13ZM15.75 13C16.0625 13 16.2019 13.0902 16.3145 13.2168C16.427 13.3434 16.5 13.5417 16.5 13.75C16.5 13.9584 16.427 14.1566 16.3145 14.2832C16.2019 14.4098 16.0625 14.5 15.75 14.5C15.4375 14.5 15.2981 14.4098 15.1855 14.2832C15.073 14.1566 15 13.9584 15 13.75C15 13.5417 15.073 13.3434 15.1855 13.2168C15.2981 13.0902 15.4375 13 15.75 13ZM15.2432 16.9893C15.0451 16.994 14.8569 17.0768 14.7197 17.2198C14.7197 17.2198 14.5884 17.3648 14.1494 17.5713C13.7104 17.7778 13.0139 17.9991 12 17.9991C10.9861 17.9991 10.2896 17.7778 9.85059 17.5713C9.41159 17.3648 9.28027 17.2198 9.28027 17.2198C9.21036 17.1478 9.12672 17.0905 9.03429 17.0514C8.94187 17.0124 8.84254 16.9922 8.74219 16.9922C8.59293 16.9923 8.44707 17.0368 8.32328 17.1202C8.19949 17.2036 8.1034 17.3221 8.0473 17.4604C7.99119 17.5987 7.97763 17.7506 8.00835 17.8967C8.03907 18.0427 8.11267 18.1763 8.21973 18.2803C8.21973 18.2803 8.58841 18.6355 9.21191 18.9287C9.83542 19.222 10.7639 19.4991 12 19.4991C13.2361 19.4991 14.1646 19.222 14.7881 18.9287C15.4116 18.6355 15.7803 18.2803 15.7803 18.2803C15.8893 18.1756 15.9642 18.0404 15.9951 17.8925C16.026 17.7445 16.0115 17.5906 15.9534 17.451C15.8953 17.3115 15.7965 17.1927 15.6697 17.1103C15.543 17.0279 15.3943 16.9857 15.2432 16.9893Z" fill="white"/>
</svg>
