<svg width="24" height="24" viewBox="0 0 24 24" fill="none" xmlns="http://www.w3.org/2000/svg">
<path d="M2.93555 4.00291C2.44305 4.00291 2 4.39894 2 4.93944V16.6211C2 17.0081 2.21271 17.3648 2.55371 17.5488L7.84473 20.4082C7.96523 20.4732 8.09184 20.5029 8.21484 20.5029C8.62484 20.5029 8.99902 20.1742 8.99902 19.7187V14.8857L20.7139 20.4111C21.2765 20.6915 21.9961 20.2433 21.9961 19.6172V7.74217H21.9746C21.9686 7.08521 21.5822 6.44255 20.915 6.20018L20.9922 6.23338L16.7412 4.12694L16.7363 4.12401C16.4491 3.98697 16.1287 3.96897 15.8379 4.05174C15.5471 4.13451 15.2854 4.31838 15.1133 4.58592L11.2627 10.4785L8.83301 6.8535V6.85252C8.83276 6.85214 8.83228 6.85193 8.83203 6.85155L8.79492 6.79588L8.78809 6.80076C8.68475 6.66029 8.55259 6.53989 8.3877 6.46385L3.32715 4.08983C3.19765 4.03033 3.06505 4.00291 2.93555 4.00291ZM16.2656 5.56444L20.3633 7.59569L20.4033 7.61034C20.4764 7.63688 20.507 7.68541 20.498 7.74217H20.4961V7.7578C20.4904 7.77737 20.4812 7.79743 20.4658 7.81834L20.4619 7.8242L14.8223 15.791L12.1689 11.831L16.2656 5.56444ZM3.5 5.82713L7.49902 7.70311V18.5166L3.5 16.3545V5.82713ZM8.99902 9.7949L12.3623 14.8144L8.99902 13.2275V9.7949ZM20.4961 10.3711V18.6504L16.1025 16.5781L20.4961 10.3711Z" fill="white"/>
</svg>
