<svg width="264" height="264" viewBox="0 0 264 264" fill="none" xmlns="http://www.w3.org/2000/svg">
<path d="M264 132C264 150.2 260.32 167.54 253.66 183.31C249.09 194.13 243.11 204.22 235.97 213.34C231.3 219.3 226.13 224.85 220.52 229.92C218.2 232.02 215.81 234.03 213.35 235.97C190.93 253.52 162.69 264 132 264C101.32 264 73.08 253.53 50.66 235.97C48.2 234.04 45.8 232.03 43.49 229.93C37.88 224.86 32.71 219.31 28.03 213.35C20.89 204.23 14.92 194.14 10.35 183.31C3.69 167.54 0 150.2 0 132C0 59.1 59.1 0 132 0C204.9 0 264 59.1 264 132Z" fill="#25212D"/>
<path d="M253.66 183.31C249.09 194.13 243.11 204.22 235.97 213.34C231.3 219.3 226.13 224.85 220.52 229.92L132 141.41L43.4901 229.93C37.8801 224.86 32.7101 219.31 28.0301 213.35C20.8901 204.23 14.9201 194.14 10.3501 183.31L132 61.66L253.66 183.31Z" fill="#0A0001"/>
<path d="M194.704 171.603C189.09 166 180.584 165.082 174.004 168.809L161.111 155.944C165.529 150.159 168.16 142.934 168.16 135.097C168.16 117.633 155.129 103.215 138.249 100.972V82.8114C145.542 80.7986 150.903 74.1328 150.903 66.2195C150.903 56.7067 143.18 49 133.647 49C124.114 49 116.391 56.7067 116.391 66.2195C116.391 74.1404 121.752 80.8063 129.045 82.8114V100.972C112.165 103.222 99.1342 117.633 99.1342 135.097C99.1342 142.789 101.665 149.891 105.929 155.615L93.0829 168.097C86.3568 163.437 77.0537 164.08 71.0561 170.064C64.3146 176.791 64.3146 187.689 71.0561 194.416C77.7976 201.143 88.719 201.143 95.4605 194.416C100.676 189.212 101.834 181.513 98.9808 175.184L112.356 162.189C118.224 166.781 125.609 169.536 133.647 169.536C141.539 169.536 148.802 166.888 154.615 162.442L167.5 175.299C163.765 181.865 164.693 190.353 170.3 195.955C177.041 202.682 187.962 202.682 194.704 195.955C201.445 189.228 201.445 178.322 194.704 171.603Z" stroke="#D4630D" stroke-width="4" stroke-miterlimit="10"/>
</svg>
