<svg width="72" height="72" viewBox="0 0 72 72" fill="none" xmlns="http://www.w3.org/2000/svg">
<path d="M72 36C72 40.9636 70.9964 45.6927 69.18 49.9936C67.9336 52.9445 66.3027 55.6964 64.3555 58.1836C63.0818 59.8091 61.6718 61.3227 60.1418 62.7055C59.5091 63.2782 58.8573 63.8264 58.1864 64.3555C52.0718 69.1418 44.37 72 36 72C27.6327 72 19.9309 69.1445 13.8164 64.3555C13.1455 63.8291 12.4909 63.2809 11.8609 62.7082C10.3309 61.3255 8.92091 59.8118 7.64455 58.1864C5.69727 55.6991 4.06909 52.9473 2.82273 49.9936C1.00636 45.6927 0 40.9636 0 36C0 16.1182 16.1182 0 36 0C55.8818 0 72 16.1182 72 36Z" fill="#25212D"/>
<path d="M69.18 49.9937C67.9337 52.9446 66.3028 55.6964 64.3555 58.1837C63.0818 59.8091 61.6718 61.3228 60.1418 62.7055L36 38.5664L11.8609 62.7082C10.3309 61.3255 8.92094 59.8119 7.64457 58.1864C5.6973 55.6991 4.06912 52.9473 2.82275 49.9937L36 16.8164L69.18 49.9937Z" fill="#0A0001"/>
<g clip-path="url(#clip0)">
<path d="M53.1011 46.8007C51.5699 45.2729 49.2503 45.0224 47.4556 46.0389L43.9395 42.5303C45.1443 40.9524 45.8617 38.982 45.8617 36.8447C45.8617 32.0817 42.308 28.1494 37.7042 27.5379V22.5849C39.6934 22.036 41.1555 20.218 41.1555 18.0599C41.1555 15.4655 39.0491 13.3636 36.4492 13.3636C33.8492 13.3636 31.7429 15.4655 31.7429 18.0599C31.7429 20.2201 33.205 22.0381 35.1942 22.5849V27.5379C30.5904 28.1515 27.0366 32.0817 27.0366 36.8447C27.0366 38.9424 27.7268 40.8793 28.8898 42.4405L25.3863 45.8448C23.5518 44.5737 21.0146 44.749 19.3789 46.3812C17.5404 48.2158 17.5404 51.188 19.3789 53.0227C21.2175 54.8573 24.1961 54.8573 26.0347 53.0227C27.457 51.6034 27.7729 49.5036 26.9948 47.7775L30.6427 44.2334C32.2428 45.4858 34.2571 46.2372 36.4492 46.2372C38.6015 46.2372 40.5823 45.515 42.1678 44.3023L45.6819 47.8088C44.6632 49.5997 44.9163 51.9144 46.4453 53.4422C48.2839 55.2769 51.2625 55.2769 53.1011 53.4422C54.9396 51.6076 54.9396 48.6333 53.1011 46.8007Z" stroke="#D4630D" stroke-miterlimit="10"/>
</g>
<defs>
<clipPath id="clip0">
<rect width="38.3702" height="43.6364" fill="white" transform="translate(16.9092 12)"/>
</clipPath>
</defs>
</svg>
