<svg width="264" height="264" viewBox="0 0 264 264" fill="none" xmlns="http://www.w3.org/2000/svg">
<path d="M264 132C264 150.2 260.32 167.54 253.66 183.31C249.09 194.13 243.11 204.22 235.97 213.34C231.3 219.3 226.13 224.85 220.52 229.92C218.2 232.02 215.81 234.03 213.35 235.97C190.93 253.52 162.69 264 132 264C101.32 264 73.08 253.53 50.66 235.97C48.2 234.04 45.8 232.03 43.49 229.93C37.88 224.86 32.71 219.31 28.03 213.35C20.89 204.23 14.92 194.14 10.35 183.31C3.69 167.54 0 150.2 0 132C0 59.1 59.1 0 132 0C204.9 0 264 59.1 264 132Z" fill="#25212D"/>
<path d="M253.66 183.31C249.09 194.13 243.11 204.22 235.97 213.34C231.3 219.3 226.13 224.85 220.52 229.92L132 141.41L43.4901 229.93C37.8801 224.86 32.7101 219.31 28.0301 213.35C20.8901 204.23 14.9201 194.14 10.3501 183.31L132 61.66L253.66 183.31Z" fill="#0A0001"/>
<path d="M166.279 121.033H142.055V96.8088C142.055 91.9419 138.113 88 133.246 88H128.842C123.975 88 120.033 91.9419 120.033 96.8088V121.033H95.8088C90.9419 121.033 87 124.975 87 129.842V134.246C87 139.113 90.9419 143.055 95.8088 143.055H120.033V167.279C120.033 172.146 123.975 176.088 128.842 176.088H133.246C138.113 176.088 142.055 172.146 142.055 167.279V143.055H166.279C171.146 143.055 175.088 139.113 175.088 134.246V129.842C175.088 124.975 171.146 121.033 166.279 121.033Z" stroke="#D4630D" stroke-width="4" stroke-miterlimit="10"/>
<path d="M200.639 74.5164H188.527V62.4044C188.527 59.971 186.556 58 184.123 58H181.921C179.487 58 177.516 59.971 177.516 62.4044V74.5164H165.404C162.971 74.5164 161 76.4874 161 78.9208V81.123C161 83.5564 162.971 85.5274 165.404 85.5274H177.516V97.6394C177.516 100.073 179.487 102.044 181.921 102.044H184.123C186.556 102.044 188.527 100.073 188.527 97.6394V85.5274H200.639C203.073 85.5274 205.044 83.5564 205.044 81.123V78.9208C205.044 76.4874 203.073 74.5164 200.639 74.5164Z" stroke="#B70000" stroke-width="2" stroke-miterlimit="10"/>
<path d="M192.639 178.516H180.527V166.404C180.527 163.971 178.556 162 176.123 162H173.921C171.487 162 169.516 163.971 169.516 166.404V178.516H157.404C154.971 178.516 153 180.487 153 182.921V185.123C153 187.556 154.971 189.527 157.404 189.527H169.516V201.639C169.516 204.073 171.487 206.044 173.921 206.044H176.123C178.556 206.044 180.527 204.073 180.527 201.639V189.527H192.639C195.073 189.527 197.044 187.556 197.044 185.123V182.921C197.044 180.487 195.073 178.516 192.639 178.516Z" stroke="#B70000" stroke-width="2" stroke-miterlimit="10"/>
<path d="M96.6394 82.5164H84.5274V70.4044C84.5274 67.971 82.5564 66 80.123 66H77.9208C75.4874 66 73.5164 67.971 73.5164 70.4044V82.5164H61.4044C58.971 82.5164 57 84.4874 57 86.9208V89.123C57 91.5564 58.971 93.5274 61.4044 93.5274H73.5164V105.639C73.5164 108.073 75.4874 110.044 77.9208 110.044H80.123C82.5564 110.044 84.5274 108.073 84.5274 105.639V93.5274H96.6394C99.0728 93.5274 101.044 91.5564 101.044 89.123V86.9208C101.044 84.4874 99.0728 82.5164 96.6394 82.5164Z" stroke="#B70000" stroke-width="2" stroke-miterlimit="10"/>
<path d="M104.639 170.516H92.5274V158.404C92.5274 155.971 90.5564 154 88.123 154H85.9208C83.4874 154 81.5164 155.971 81.5164 158.404V170.516H69.4044C66.971 170.516 65 172.487 65 174.921V177.123C65 179.556 66.971 181.527 69.4044 181.527H81.5164V193.639C81.5164 196.073 83.4874 198.044 85.9208 198.044H88.123C90.5564 198.044 92.5274 196.073 92.5274 193.639V181.527H104.639C107.073 181.527 109.044 179.556 109.044 177.123V174.921C109.044 172.487 107.073 170.516 104.639 170.516Z" stroke="#B70000" stroke-width="2" stroke-miterlimit="10"/>
</svg>
