<svg width="72" height="72" viewBox="0 0 72 72" fill="none" xmlns="http://www.w3.org/2000/svg">
<path d="M72 36C72 40.9636 70.9964 45.6927 69.18 49.9936C67.9336 52.9445 66.3027 55.6964 64.3555 58.1836C63.0818 59.8091 61.6718 61.3227 60.1418 62.7055C59.5091 63.2782 58.8573 63.8264 58.1864 64.3555C52.0718 69.1418 44.37 72 36 72C27.6327 72 19.9309 69.1445 13.8164 64.3555C13.1455 63.8291 12.4909 63.2809 11.8609 62.7082C10.3309 61.3255 8.92091 59.8118 7.64455 58.1864C5.69727 55.6991 4.06909 52.9473 2.82273 49.9936C1.00636 45.6927 0 40.9636 0 36C0 16.1182 16.1182 0 36 0C55.8818 0 72 16.1182 72 36Z" fill="#25212D"/>
<path d="M69.18 49.9937C67.9337 52.9446 66.3027 55.6964 64.3555 58.1837C63.0818 59.8091 61.6718 61.3228 60.1418 62.7055L36 38.5664L11.8609 62.7082C10.3309 61.3255 8.92094 59.8119 7.64457 58.1864C5.6973 55.6991 4.06912 52.9473 2.82275 49.9937L36 16.8164L69.18 49.9937Z" fill="#0A0001"/>
<path d="M45.3488 33.009H38.7422V26.4024C38.7422 25.0751 37.6672 24 36.3398 24H35.1386C33.8113 24 32.7362 25.0751 32.7362 26.4024V33.009H26.1297C24.8024 33.009 23.7273 34.084 23.7273 35.4113V36.6125C23.7273 37.9399 24.8024 39.0149 26.1297 39.0149H32.7362V45.6215C32.7362 46.9488 33.8113 48.0239 35.1386 48.0239H36.3398C37.6672 48.0239 38.7422 46.9488 38.7422 45.6215V39.0149H45.3488C46.6761 39.0149 47.7512 37.9399 47.7512 36.6125V35.4113C47.7512 34.084 46.6761 33.009 45.3488 33.009Z" stroke="#D4630D" stroke-width="2" stroke-miterlimit="10"/>
<path d="M54.7199 20.3227H51.4166V17.0194C51.4166 16.3558 50.8791 15.8182 50.2154 15.8182H49.6149C48.9512 15.8182 48.4137 16.3558 48.4137 17.0194V20.3227H45.1104C44.4467 20.3227 43.9092 20.8602 43.9092 21.5239V22.1245C43.9092 22.7882 44.4467 23.3257 45.1104 23.3257H48.4137V26.629C48.4137 27.2926 48.9512 27.8302 49.6149 27.8302H50.2154C50.8791 27.8302 51.4166 27.2926 51.4166 26.629V23.3257H54.7199C55.3836 23.3257 55.9211 22.7882 55.9211 22.1245V21.5239C55.9211 20.8602 55.3836 20.3227 54.7199 20.3227Z" stroke="#B70000" stroke-miterlimit="10"/>
<path d="M52.5381 48.6862H49.2348V45.383C49.2348 44.7193 48.6972 44.1818 48.0336 44.1818H47.433C46.7693 44.1818 46.2318 44.7193 46.2318 45.383V48.6862H42.9285C42.2648 48.6862 41.7273 49.2238 41.7273 49.8874V50.488C41.7273 51.1517 42.2648 51.6892 42.9285 51.6892H46.2318V54.9925C46.2318 55.6562 46.7693 56.1937 47.433 56.1937H48.0336C48.6972 56.1937 49.2348 55.6562 49.2348 54.9925V51.6892H52.5381C53.2017 51.6892 53.7392 51.1517 53.7392 50.488V49.8874C53.7392 49.2238 53.2017 48.6862 52.5381 48.6862Z" stroke="#B70000" stroke-miterlimit="10"/>
<path d="M26.3564 22.5045H23.0531V19.2012C23.0531 18.5375 22.5156 18 21.8519 18H21.2513C20.5877 18 20.0501 18.5375 20.0501 19.2012V22.5045H16.7468C16.0832 22.5045 15.5457 23.042 15.5457 23.7057V24.3063C15.5457 24.9699 16.0832 25.5075 16.7468 25.5075H20.0501V28.8107C20.0501 29.4744 20.5877 30.0119 21.2513 30.0119H21.8519C22.5156 30.0119 23.0531 29.4744 23.0531 28.8107V25.5075H26.3564C27.0201 25.5075 27.5576 24.9699 27.5576 24.3063V23.7057C27.5576 23.042 27.0201 22.5045 26.3564 22.5045Z" stroke="#B70000" stroke-miterlimit="10"/>
<path d="M28.538 46.5045H25.2348V43.2012C25.2348 42.5375 24.6972 42 24.0336 42H23.433C22.7693 42 22.2318 42.5375 22.2318 43.2012V46.5045H18.9285C18.2648 46.5045 17.7273 47.042 17.7273 47.7057V48.3063C17.7273 48.9699 18.2648 49.5075 18.9285 49.5075H22.2318V52.8107C22.2318 53.4744 22.7693 54.0119 23.433 54.0119H24.0336C24.6972 54.0119 25.2348 53.4744 25.2348 52.8107V49.5075H28.538C29.2017 49.5075 29.7392 48.9699 29.7392 48.3063V47.7057C29.7392 47.042 29.2017 46.5045 28.538 46.5045Z" stroke="#B70000" stroke-miterlimit="10"/>
</svg>
