<svg width="264" height="264" viewBox="0 0 264 264" fill="none" xmlns="http://www.w3.org/2000/svg">
<path d="M264 132C264 150.2 260.32 167.54 253.66 183.31C249.09 194.13 243.11 204.22 235.97 213.34C231.3 219.3 226.13 224.85 220.52 229.92C218.2 232.02 215.81 234.03 213.35 235.97C190.93 253.52 162.69 264 132 264C101.32 264 73.08 253.53 50.66 235.97C48.2 234.04 45.8 232.03 43.49 229.93C37.88 224.86 32.71 219.31 28.03 213.35C20.89 204.23 14.92 194.14 10.35 183.31C3.69 167.54 0 150.2 0 132C0 59.1 59.1 0 132 0C204.9 0 264 59.1 264 132Z" fill="#25212D"/>
<path d="M253.66 183.31C249.09 194.13 243.11 204.22 235.97 213.34C231.3 219.3 226.13 224.85 220.52 229.92L132 141.41L43.4901 229.93C37.8801 224.86 32.7101 219.31 28.0301 213.35C20.8901 204.23 14.9201 194.14 10.3501 183.31L132 61.66L253.66 183.31Z" fill="#0A0001"/>
<path d="M204 75C204 87.42 193.93 97.5 181.5 97.5C181.18 97.5 180.86 97.49 180.54 97.48C177.83 86.95 169.55 78.67 159.02 75.96C159.01 75.64 159 75.32 159 75C159 62.57 169.08 52.5 181.5 52.5C193.93 52.5 204 62.57 204 75Z" stroke="#D4630D" stroke-width="2" stroke-miterlimit="10"/>
<path d="M181.5 105C181.5 121.56 168.07 135 151.5 135C150.62 135 149.75 134.96 148.9 134.88C144.38 122.19 134.31 112.12 121.62 107.6C121.54 106.74 121.5 105.88 121.5 105C121.5 88.43 134.93 75 151.5 75C154.1 75 156.62 75.33 159.02 75.96C169.55 78.67 177.83 86.95 180.54 97.48C181.17 99.88 181.5 102.4 181.5 105Z" stroke="#B70000" stroke-width="3" stroke-miterlimit="10"/>
<path d="M151.5 150C151.5 174.85 131.36 195 106.5 195C81.65 195 61.5 174.85 61.5 150C61.5 125.14 81.65 105 106.5 105C111.8 105 116.89 105.92 121.62 107.6C134.31 112.12 144.38 122.19 148.9 134.88C150.58 139.61 151.5 144.7 151.5 150Z" stroke="#D4630D" stroke-width="4" stroke-miterlimit="10"/>
</svg>
