<svg width="72" height="72" viewBox="0 0 72 72" fill="none" xmlns="http://www.w3.org/2000/svg">
<path d="M72 36C72 40.9636 70.9964 45.6927 69.18 49.9936C67.9336 52.9445 66.3027 55.6964 64.3555 58.1836C63.0818 59.8091 61.6718 61.3227 60.1418 62.7055C59.5091 63.2782 58.8573 63.8264 58.1864 64.3555C52.0718 69.1418 44.37 72 36 72C27.6327 72 19.9309 69.1445 13.8164 64.3555C13.1455 63.8291 12.4909 63.2809 11.8609 62.7082C10.3309 61.3255 8.92091 59.8118 7.64455 58.1864C5.69727 55.6991 4.06909 52.9473 2.82273 49.9936C1.00636 45.6927 0 40.9636 0 36C0 16.1182 16.1182 0 36 0C55.8818 0 72 16.1182 72 36Z" fill="#25212D"/>
<path d="M69.18 49.9937C67.9337 52.9446 66.3027 55.6964 64.3555 58.1837C63.0818 59.8091 61.6718 61.3228 60.1418 62.7055L36 38.5664L11.8609 62.7082C10.3309 61.3255 8.92094 59.8119 7.64457 58.1864C5.6973 55.6991 4.06912 52.9473 2.82275 49.9937L36 16.8164L69.18 49.9937Z" fill="#0A0001"/>
<path d="M55.6365 20.4546C55.6365 23.8419 52.8901 26.591 49.5001 26.591C49.4129 26.591 49.3256 26.5882 49.2383 26.5855C48.4992 23.7137 46.241 21.4555 43.3692 20.7164C43.3665 20.6291 43.3638 20.5419 43.3638 20.4546C43.3638 17.0646 46.1129 14.3182 49.5001 14.3182C52.8901 14.3182 55.6365 17.0646 55.6365 20.4546Z" stroke="#D4630D" stroke-miterlimit="10"/>
<path d="M49.5001 28.6364C49.5001 33.1528 45.8374 36.8182 41.3183 36.8182C41.0783 36.8182 40.841 36.8073 40.6092 36.7855C39.3765 33.3246 36.6301 30.5782 33.1692 29.3455C33.1474 29.111 33.1365 28.8764 33.1365 28.6364C33.1365 24.1173 36.7992 20.4546 41.3183 20.4546C42.0274 20.4546 42.7147 20.5446 43.3692 20.7164C46.241 21.4555 48.4992 23.7137 49.2383 26.5855C49.4101 27.24 49.5001 27.9273 49.5001 28.6364Z" stroke="#B70000" stroke-miterlimit="10"/>
<path d="M41.3182 40.9091C41.3182 47.6864 35.8254 53.1818 29.0454 53.1818C22.2682 53.1818 16.7727 47.6864 16.7727 40.9091C16.7727 34.1291 22.2682 28.6364 29.0454 28.6364C30.4909 28.6364 31.8791 28.8873 33.1691 29.3454C36.63 30.5782 39.3763 33.3245 40.6091 36.7854C41.0673 38.0754 41.3182 39.4636 41.3182 40.9091Z" stroke="#D4630D" stroke-width="2" stroke-miterlimit="10"/>
</svg>
