<svg width="120" height="120" viewBox="0 0 120 120" fill="none" xmlns="http://www.w3.org/2000/svg">
<path d="M119.987 59.9434C120.693 91.4722 94.3634 120.023 59.9841 120C25.6612 119.966 -0.363579 91.4269 0.00384245 59.8301C0.388222 26.4949 26.7522 -0.0226356 60.2328 1.44991e-05C93.3855 0.0226645 119.987 26.7044 119.987 59.9434ZM51.2225 110.515C51.539 110.447 51.8499 110.379 52.1665 110.317C51.7369 92.4519 50.0806 74.53 54.631 57.1234C53.8453 56.4383 53.4835 55.9513 53.003 55.7305C50.5272 54.5866 48.057 53.4258 45.5133 52.4349C41.0477 50.6965 39.3236 47.7067 40.1263 42.3443C41.1099 42.8199 41.9917 43.2843 42.9074 43.6806C45.9203 44.9887 48.8823 46.4609 51.9799 47.5142C56.0894 48.9128 56.8921 49.9774 56.2533 54.3658C55.8181 57.3499 55.2641 60.3284 55.038 63.3352C54.8288 66.0815 57.4234 69.8358 59.5092 70.2831C61.3181 70.6738 64.1105 68.3352 64.9923 65.3511C65.3484 64.1506 65.1901 62.752 65.0601 61.4609C64.7662 58.4598 64.2914 55.4813 63.9974 52.4802C63.7431 49.9151 65.0941 48.5674 67.4738 47.7237C70.8315 46.5402 74.0818 45.0453 77.3716 43.675C78.2704 43.3012 79.1578 42.8822 80.164 42.4292C80.6275 48.4824 79.09 50.7644 73.9574 52.667C71.1819 53.6976 68.5365 55.0736 65.4728 56.4609C70.0458 74.5583 68.3104 92.5255 68.5761 110.521C69.9044 109.009 70.8315 107.418 71.6511 105.776C72.3634 104.343 72.9343 102.843 73.5956 101.382C76.7385 94.4281 80.0114 87.5311 82.9621 80.4983C83.8778 78.3069 84.2735 75.7531 84.3017 73.3579C84.4318 61.5629 84.4204 49.7678 84.3243 37.9728C84.3017 35.1586 84.2339 32.2027 83.3804 29.5753C81.8541 24.8754 80.4862 19.8188 77.6655 15.9173C72.5895 8.89582 64.834 6.97623 56.4738 8.0691C49.798 8.94112 43.8966 11.9706 40.8668 18.0464C37.6844 24.4281 35.6664 31.3817 35.7173 38.7373C35.7964 50.3454 35.7003 61.9479 35.7851 73.5561C35.7964 75.4077 35.9999 77.4066 36.7234 79.0713C40.912 88.7486 45.2646 98.3522 49.6002 107.967C50.0071 108.873 50.6742 109.672 51.2225 110.515Z" fill="white"/>
</svg>
