<?xml version="1.0" encoding="UTF-8" standalone="no"?>
<svg
   xmlns:dc="http://purl.org/dc/elements/1.1/"
   xmlns:cc="http://creativecommons.org/ns#"
   xmlns:rdf="http://www.w3.org/1999/02/22-rdf-syntax-ns#"
   xmlns:svg="http://www.w3.org/2000/svg"
   xmlns="http://www.w3.org/2000/svg"
   xmlns:sodipodi="http://sodipodi.sourceforge.net/DTD/sodipodi-0.dtd"
   xmlns:inkscape="http://www.inkscape.org/namespaces/inkscape"
   width="40"
   height="40"
   viewBox="0 0 40 40"
   fill="none"
   version="1.1"
   id="svg4"
   sodipodi:docname="spartan_blue_small.svg"
   inkscape:version="0.92.4 (5da689c313, 2019-01-14)">
  <metadata
     id="metadata10">
    <rdf:RDF>
      <cc:Work
         rdf:about="">
        <dc:format>image/svg+xml</dc:format>
        <dc:type
           rdf:resource="http://purl.org/dc/dcmitype/StillImage" />
      </cc:Work>
    </rdf:RDF>
  </metadata>
  <defs
     id="defs8" />
  <sodipodi:namedview
     pagecolor="#ffffff"
     bordercolor="#666666"
     borderopacity="1"
     objecttolerance="10"
     gridtolerance="10"
     guidetolerance="10"
     inkscape:pageopacity="0"
     inkscape:pageshadow="2"
     inkscape:window-width="1082"
     inkscape:window-height="941"
     id="namedview6"
     showgrid="false"
     inkscape:zoom="5.9"
     inkscape:cx="16.440678"
     inkscape:cy="21.016949"
     inkscape:window-x="1314"
     inkscape:window-y="612"
     inkscape:window-maximized="0"
     inkscape:current-layer="svg4" />
  <circle
     style="fill:#0a0001;fill-opacity:1;stroke-width:0.99610394"
     id="path816"
     cx="20"
     cy="20"
     r="19.5" />
  <g
     inkscape:groupmode="layer"
     id="layer1"
     inkscape:label="Layer 1" />
  <g
     inkscape:groupmode="layer"
     id="layer2"
     inkscape:label="Layer 2" />
  <path
     d="M 39.995367,19.981096 C 40.230966,30.490637 31.454317,40.007381 19.994583,39.999881 8.5536801,39.988581 -0.12119196,30.475536 0.00128054,19.943396 0.12940604,8.8317032 8.9173382,-0.0074298 20.077484,1.1920088e-4 31.128319,0.0076192 39.995367,8.9015432 39.995367,19.981096 Z M 17.074101,36.838299 c 0.105495,-0.0226 0.209099,-0.0453 0.314598,-0.066 -0.143199,-5.955061 -0.695296,-11.929028 0.821496,-17.731194 -0.261899,-0.228299 -0.382499,-0.390698 -0.542598,-0.464297 -0.825295,-0.381299 -1.64869,-0.768196 -2.496585,-1.098494 -1.488491,-0.579497 -2.063188,-1.576091 -1.795689,-3.363481 0.327898,0.158499 0.621796,0.313298 0.927094,0.445397 1.004294,0.435998 1.991589,0.926796 3.024082,1.277893 1.369892,0.466197 1.637391,0.820995 1.424493,2.283787 -0.1451,0.994694 -0.329699,1.987588 -0.405099,2.989783 -0.0697,0.915495 0.795096,2.166887 1.490392,2.315987 0.602996,0.130198 1.533791,-0.649297 1.827689,-1.643992 0.118699,-0.400197 0.0659,-0.866394 0.0226,-1.296692 -0.098,-1.000393 -0.256199,-1.993188 -0.354198,-2.993583 -0.08479,-0.854994 0.365497,-1.304291 1.158793,-1.58549 1.119193,-0.394498 2.202587,-0.892795 3.299181,-1.349592 0.299598,-0.124599 0.595396,-0.264199 0.930794,-0.415197 0.154499,2.017688 -0.357997,2.778383 -2.068788,3.412579 -0.925194,0.343498 -1.80699,0.802196 -2.828183,1.264593 1.524291,6.032465 0.945794,12.021431 1.034394,18.019896 0.442797,-0.503997 0.751795,-1.034294 1.024994,-1.58169 0.237399,-0.477598 0.427697,-0.977694 0.648196,-1.464692 1.047594,-2.317886 2.138587,-4.616873 3.122081,-6.961059 0.305299,-0.730495 0.437198,-1.581792 0.446598,-2.380188 0.0433,-3.931577 0.0395,-7.863254 0.0075,-11.794931 -0.0075,-0.938094 -0.0301,-1.923387 -0.314599,-2.7991418 -0.508798,-1.56662 -0.964795,-3.252151 -1.904988,-4.552634 -1.691991,-2.340495 -4.277176,-2.980352 -7.06386,-2.616064 -2.225286,0.290668 -4.192375,1.300482 -5.20227,3.325761 -1.060793,2.127207 -1.733489,4.4450938 -1.716489,6.8968768 0.0263,3.869378 -0.0057,7.736856 0.0226,11.606232 0.0038,0.617198 0.07161,1.283495 0.312698,1.838391 1.396192,3.225782 2.847084,6.426963 4.292276,9.631945 0.135599,0.301898 0.357997,0.568096 0.540797,0.849294 z"
     id="path2"
     style="fill:#1a68ff;fill-opacity:1;stroke-width:0.99999416"
     inkscape:connector-curvature="0" />
</svg>
