<svg width="56" height="56" viewBox="0 0 56 56" fill="none" xmlns="http://www.w3.org/2000/svg">
<path d="M55.9939 27.9736C56.3236 42.687 44.0363 56.0106 27.9926 56C11.9752 55.9841 -0.16967 42.6659 0.00179314 27.9207C0.18117 12.3643 12.4843 -0.0105633 28.1086 6.76625e-06C43.5799 0.0105768 55.9939 12.4621 55.9939 27.9736ZM23.9038 51.5738C24.0515 51.5421 24.1966 51.5104 24.3443 51.4813C24.1439 43.1442 23.371 34.7807 25.4945 26.6576C25.1278 26.3379 24.959 26.1106 24.7348 26.0075C23.5794 25.4738 22.4266 24.932 21.2395 24.4696C19.1556 23.6584 18.351 22.2631 18.7256 19.7607C19.1846 19.9826 19.5961 20.1993 20.0235 20.3843C21.4295 20.9947 22.8117 21.6818 24.2573 22.1733C26.175 22.826 26.5496 23.3228 26.2515 25.3707C26.0484 26.7633 25.7899 28.1533 25.6844 29.5564C25.5868 30.838 26.7976 32.59 27.771 32.7988C28.6151 32.9811 29.9182 31.8898 30.3297 30.4972C30.4959 29.937 30.4221 29.2843 30.3614 28.6818C30.2242 27.2812 30.0026 25.8913 29.8655 24.4908C29.7468 23.2937 30.3772 22.6648 31.4878 22.271C33.0547 21.7188 34.5715 21.0211 36.1067 20.3817C36.5262 20.2072 36.9403 20.0117 37.4099 19.8003C37.6262 22.6251 36.9087 23.6901 34.5135 24.578C33.2182 25.0589 31.9837 25.701 30.554 26.3484C32.688 34.7939 31.8782 43.1786 32.0022 51.5764C32.6221 50.8709 33.0547 50.1283 33.4372 49.362C33.7696 48.6935 34.036 47.9932 34.3446 47.3114C35.8113 44.0664 37.3386 40.8479 38.7156 37.5659C39.143 36.5432 39.3276 35.3515 39.3408 34.2337C39.4015 28.7293 39.3962 23.225 39.3514 17.7207C39.3408 16.4073 39.3092 15.0279 38.9108 13.8018C38.1986 11.6085 37.5602 9.24878 36.2439 7.42809C33.8751 4.15138 30.2559 3.25557 26.3544 3.76558C23.2391 4.17252 20.4851 5.58626 19.0712 8.42167C17.586 11.3998 16.6443 14.6448 16.6681 18.0774C16.705 23.4945 16.6601 28.909 16.6997 34.3262C16.705 35.1903 16.7999 36.1231 17.1376 36.9C19.0923 41.416 21.1235 45.8977 23.1467 50.3847C23.3367 50.8075 23.6479 51.1801 23.9038 51.5738Z" fill="#FB2715"/>
</svg>
