<svg width="40" height="40" viewBox="0 0 40 40" fill="none" xmlns="http://www.w3.org/2000/svg">
<path d="M39.9956 19.9811C40.2312 30.4907 31.4545 40.0075 19.9947 40C8.55373 39.9887 -0.121193 30.4756 0.00128082 19.9434C0.129407 8.83164 8.91739 -0.00754518 20.0776 4.83304e-06C31.1285 0.00755485 39.9956 8.90148 39.9956 19.9811ZM17.0742 36.8384C17.1797 36.8158 17.2833 36.7931 17.3888 36.7724C17.2456 30.8173 16.6935 24.8433 18.2103 19.0411C17.9484 18.8128 17.8278 18.6504 17.6677 18.5768C16.8424 18.1955 16.019 17.8086 15.1711 17.4783C13.6826 16.8988 13.1079 15.9022 13.3754 14.1148C13.7033 14.2733 13.9972 14.4281 14.3025 14.5602C15.3068 14.9962 16.2941 15.487 17.3266 15.8381C18.6965 16.3043 18.964 16.6591 18.7511 18.1219C18.606 19.1166 18.4214 20.1095 18.346 21.1117C18.2763 22.0272 19.1411 23.2786 19.8364 23.4277C20.4394 23.5579 21.3702 22.7784 21.6641 21.7837C21.7828 21.3835 21.73 20.9173 21.6867 20.487C21.5887 19.4866 21.4305 18.4938 21.3325 17.4934C21.2477 16.6384 21.698 16.1891 22.4913 15.9079C23.6105 15.5134 24.6939 15.0151 25.7905 14.5583C26.0901 14.4337 26.3859 14.2941 26.7213 14.1431C26.8758 16.1608 26.3633 16.9215 24.6525 17.5557C23.7273 17.8992 22.8455 18.3579 21.8243 18.8203C23.3486 24.8528 22.7701 30.8418 22.8587 36.8403C23.3015 36.3363 23.6105 35.806 23.8837 35.2586C24.1211 34.781 24.3114 34.2809 24.5319 33.7939C25.5795 31.476 26.6705 29.177 27.654 26.8328C27.9593 26.1023 28.0912 25.251 28.1006 24.4526C28.1439 20.521 28.1401 16.5893 28.1081 12.6576C28.1006 11.7195 28.078 10.7342 27.7935 9.85844C27.2847 8.29181 26.8287 6.60627 25.8885 5.30578C24.1965 2.96527 21.6113 2.32541 18.8246 2.6897C16.5993 2.98037 14.6322 3.99019 13.6223 6.01548C12.5615 8.1427 11.8888 10.4606 11.9058 12.9124C11.9321 16.7818 11.9001 20.6493 11.9284 24.5187C11.9321 25.1359 12 25.8022 12.2411 26.3571C13.6373 29.5829 15.0882 32.7841 16.5334 35.9891C16.669 36.291 16.8914 36.5572 17.0742 36.8384Z" fill="#FB2715"/>
</svg>
