<?xml version="1.0" encoding="UTF-8" standalone="no"?>
<svg
   xmlns:dc="http://purl.org/dc/elements/1.1/"
   xmlns:cc="http://creativecommons.org/ns#"
   xmlns:rdf="http://www.w3.org/1999/02/22-rdf-syntax-ns#"
   xmlns:svg="http://www.w3.org/2000/svg"
   xmlns="http://www.w3.org/2000/svg"
   xmlns:sodipodi="http://sodipodi.sourceforge.net/DTD/sodipodi-0.dtd"
   xmlns:inkscape="http://www.inkscape.org/namespaces/inkscape"
   width="40"
   height="40"
   viewBox="0 0 40 40"
   fill="none"
   version="1.1"
   id="svg4"
   sodipodi:docname="spartan_blue_small.svg"
   inkscape:version="0.92.4 (5da689c313, 2019-01-14)">
  <metadata
     id="metadata10">
    <rdf:RDF>
      <cc:Work
         rdf:about="">
        <dc:format>image/svg+xml</dc:format>
        <dc:type
           rdf:resource="http://purl.org/dc/dcmitype/StillImage" />
      </cc:Work>
    </rdf:RDF>
  </metadata>
  <defs
     id="defs8" />
  <sodipodi:namedview
     pagecolor="#ffffff"
     bordercolor="#666666"
     borderopacity="1"
     objecttolerance="10"
     gridtolerance="10"
     guidetolerance="10"
     inkscape:pageopacity="0"
     inkscape:pageshadow="2"
     inkscape:window-width="1080"
     inkscape:window-height="1836"
     id="namedview6"
     showgrid="false"
     inkscape:zoom="5.9"
     inkscape:cx="20.084746"
     inkscape:cy="32.372881"
     inkscape:window-x="-8"
     inkscape:window-y="-8"
     inkscape:window-maximized="1"
     inkscape:current-layer="svg4" />
  <g
     inkscape:groupmode="layer"
     id="layer1"
     inkscape:label="Layer 1">
    <ellipse
       style="fill:#000000;fill-opacity:1;stroke-width:1.01731634"
       id="path812"
       cx="20"
       cy="20"
       rx="20"
       ry="19.830507" />
  </g>
  <g
     inkscape:groupmode="layer"
     id="layer2"
     inkscape:label="Layer 2" />
  <path
     d="m 38.131298,19.982859 c 0.213635,9.529789 -7.74481,18.159334 -18.13621,18.152533 C 9.6207636,38.125146 1.7546067,29.498955 1.8656623,19.948674 1.9818432,9.8728677 9.9505199,1.8577627 20.07026,1.8646087 c 10.020621,0.0068 18.061038,8.071588 18.061038,18.1182503 z m -20.78443,15.28569 c 0.09566,-0.02049 0.189605,-0.04108 0.285269,-0.05985 -0.129849,-5.3999 -0.630477,-10.816944 0.744912,-16.078203 -0.237483,-0.207016 -0.34684,-0.354275 -0.492014,-0.421013 -0.748357,-0.345752 -1.494991,-0.696581 -2.263841,-0.996087 -1.349726,-0.525473 -1.870847,-1.42916 -1.628286,-3.04992 0.29733,0.143723 0.563829,0.284091 0.840666,0.403875 0.910669,0.395352 1.805923,0.840395 2.742162,1.158761 1.242184,0.422736 1.484745,0.744458 1.291694,2.070881 -0.131573,0.901964 -0.298962,1.802295 -0.367333,2.71106 -0.0632,0.830148 0.720973,1.964879 1.35145,2.100079 0.546782,0.118061 1.390803,-0.588766 1.657303,-1.49073 0.107633,-0.362889 0.05976,-0.785625 0.02049,-1.175808 -0.08886,-0.907132 -0.232315,-1.807373 -0.321178,-2.714506 -0.07689,-0.775288 0.331424,-1.182699 1.050765,-1.437683 1.014856,-0.357721 1.99725,-0.809564 2.991614,-1.223776 0.271668,-0.112984 0.539891,-0.239569 0.844021,-0.376491 0.140096,1.829589 -0.324623,2.519369 -1.875925,3.094442 -0.838943,0.311475 -1.638533,0.727411 -2.564526,1.146701 1.382189,5.470088 0.857623,10.900733 0.937963,16.339991 0.401517,-0.457012 0.681709,-0.937872 0.929439,-1.434237 0.215267,-0.433074 0.387825,-0.886549 0.587768,-1.328146 0.949932,-2.101801 1.939217,-4.186465 2.831025,-6.312114 0.276837,-0.662395 0.39644,-1.43433 0.404964,-2.158295 0.03926,-3.565056 0.03582,-7.130202 0.0068,-10.695349 -0.0068,-0.85064 -0.02729,-1.744079 -0.28527,-2.538192 -0.461365,-1.4205723 -0.874852,-2.9489693 -1.727396,-4.1282143 -1.534255,-2.122303 -3.878436,-2.702509 -6.405331,-2.372182 -2.017834,0.263571 -3.801541,1.179245 -4.717288,3.015717 -0.961901,1.928898 -1.571885,4.0307003 -1.55647,6.2539163 0.02385,3.508655 -0.0052,7.015587 0.02049,10.524241 0.0034,0.559659 0.06493,1.163841 0.283547,1.667007 1.266032,2.925058 2.581664,5.827809 3.892128,8.734006 0.122958,0.273754 0.324623,0.515136 0.490381,0.770119 z"
     id="path2"
     style="fill:#1a68ff;fill-opacity:1;stroke-width:0.90676969"
     inkscape:connector-curvature="0" />
</svg>
