<svg width="155.67" height="48" version="1.1" viewBox="0 0 155.67 48" xmlns="http://www.w3.org/2000/svg">
 <path d="m9.6512 15.288-2.3256 2.3173-2.3256-2.3173 2.3256-2.3173zm5.6734-5.6532 3.9868 3.998 2.3257-2.3173-3.9868-3.998-2.3257-2.3173-2.3256 2.3173-4.0123 3.998 2.3256 2.3173zm7.9992 3.3359-2.3257 2.3173 2.3257 2.3173 2.3256-2.3173zm-7.9992 7.945-3.9867-3.9725-2.3512 2.3173 6.3124 6.2898 2.3256-2.3173 4.0124-3.9725-2.3257-2.3173zm0-3.3104 2.3257-2.3173-2.3257-2.3173-2.3256 2.3173zm24.611 0.2292v-0.0255c0-1.5024-0.8178-2.2664-2.1212-2.7757 0.8178-0.45832 1.4823-1.1713 1.4823-2.4446v-0.02547c0-1.7825-1.4312-2.9284-3.7313-2.9284h-5.2646v11.281h5.3924c2.5557 0 4.2424-1.0186 4.2424-3.0812zm-3.1179-4.8129c0 0.84034-0.69 1.1968-1.7889 1.1968h-2.3001v-2.3937h2.4534c1.0478 0 1.6356 0.40744 1.6356 1.1714zm0.6389 4.5073c0 0.8403-0.6645 1.2223-1.7634 1.2223h-2.9645v-2.4701h2.8879c1.2778 0 1.84 0.4584 1.84 1.2223zm7.6925 3.3868v-11.281h-2.479v11.281zm13.392 0v-11.281h-2.4534v6.9519l-5.3157-6.9519h-2.3001v11.281h2.4534v-7.1556l5.4946 7.1811h2.1212zm13.8 0-4.8557-11.357h-2.3001l-4.8557 11.357h2.5301l1.0478-2.521h4.779l1.0478 2.521zm-4.5235-4.711h-3.0156l1.5078-3.6669zm16.382 4.711v-11.281h-2.4534v6.9519l-5.3157-6.9519h-2.3001v11.281h2.4534v-7.1556l5.4946 7.1811h2.1212zm12.88-1.808-1.5845-1.6043c-0.8945 0.8149-1.6867 1.3242-2.9645 1.3242-1.9423 0-3.2712-1.6043-3.2712-3.5396v-0.0255c0-1.9353 1.38-3.5141 3.2712-3.5141 1.1244 0 2.0189 0.48383 2.8878 1.2732l1.5845-1.8335c-1.0478-1.044-2.3256-1.7316-4.4723-1.7316-3.4757 0-5.9035 2.6229-5.9035 5.8314v0.0255c0 3.234 2.4789 5.8059 5.8012 5.8059 2.1723 0 3.4757-0.7639 4.6513-2.0117zm10.606 1.808v-2.2154h-6.1333v-2.3683h5.3413v-2.2154h-5.3413v-2.2918h6.0573v-2.2154h-8.5362v11.281h8.6122z" fill="#f0b90b"/>
 <g>
  <path d="m43.417 40.012-1.8973-1.9281c-1.441 1.3497-2.7619 2.1932-4.8273 2.1932-3.2183 0-5.5479-2.6994-5.5479-6.0255 0-3.326 2.3296-5.9773 5.5479-5.9773 1.9213 0 3.3623 0.8436 4.7072 2.0969l1.8973-2.1933c-1.6091-1.5425-3.4824-2.6271-6.5805-2.6271-5.0916 0-8.67 3.9286-8.67 8.749 0 4.8687 3.6505 8.7009 8.5499 8.7009 3.1462 0 5.0675-1.1569 6.8207-2.9887z"/>
  <path d="m62.888 34.251c0-4.7722-3.6025-8.7008-8.7661-8.7008-5.1635 0-8.8141 3.9768-8.8141 8.749s3.6025 8.7009 8.7661 8.7009 8.8141-3.9769 8.8141-8.7491zm-3.0981 0.0482c0 3.302-2.3296 5.9773-5.668 5.9773-3.3383 0-5.7159-2.7235-5.7159-6.0255 0-3.3019 2.3296-5.9773 5.6679-5.9773s5.716 2.7236 5.716 6.0255z"/>
  <path d="m78.202 37.505-9.0063-11.665h-2.7379v16.872h2.906v-12.003l9.2705 12.003h2.4737v-16.872h-2.906z"/>
  <path d="m97.176 37.505-9.0063-11.665h-2.7379v16.872h2.906v-12.003l9.2705 12.003h2.4737v-16.872h-2.906z"/>
  <path d="m116.87 25.84h-12.464v16.872h12.584v-2.6513h-9.63v-4.5312h8.43v-2.6512h-8.43v-4.3866h9.51z"/>
  <path d="m135.12 40.012-1.897-1.9281c-1.441 1.3497-2.762 2.1932-4.828 2.1932-3.218 0-5.547-2.6994-5.547-6.0255 0-3.326 2.329-5.9773 5.547-5.9773 1.922 0 3.363 0.8436 4.708 2.0969l1.897-2.1933c-1.609-1.5425-3.482-2.6271-6.581-2.6271-5.091 0-8.67 3.9286-8.67 8.749 0 4.8687 3.651 8.7009 8.55 8.7009 3.147 0 5.068-1.1569 6.821-2.9887z"/>
  <path d="m145.34 28.587h5.332v-2.7477h-13.642v2.7477h5.332v14.124h2.978z"/>
 </g>
</svg>
