<svg width="146" height="38" viewBox="0 0 146 38" fill="none" xmlns="http://www.w3.org/2000/svg">
<path d="M4.65125 10.2878L2.32562 12.6051L0 10.2878L2.32562 7.97049L4.65125 10.2878ZM10.3247 4.6346L14.3115 8.63258L16.6372 6.31528L12.6504 2.3173L10.3247 0L7.99912 2.3173L3.98678 6.31528L6.31241 8.63258L10.3247 4.6346ZM18.3239 7.97049L15.9982 10.2878L18.3239 12.6051L20.6495 10.2878L18.3239 7.97049ZM10.3247 15.9155L6.33796 11.943L3.98678 14.2603L7.97357 18.2328L10.2992 20.5501L12.6248 18.2328L16.6372 14.2603L14.3115 11.943L10.3247 15.9155ZM10.3247 12.6051L12.6504 10.2878L10.3247 7.97049L7.99912 10.2878L10.3247 12.6051ZM34.9355 12.8343V12.8088C34.9355 11.3064 34.1177 10.5424 32.8143 10.0331C33.6321 9.57478 34.2966 8.86176 34.2966 7.58852V7.56305C34.2966 5.78052 32.8654 4.6346 30.5653 4.6346H25.3007V15.9155H30.6931C33.2488 15.9155 34.9355 14.8969 34.9355 12.8343ZM31.8176 8.02142C31.8176 8.86176 31.1276 9.21827 30.0287 9.21827H27.7286V6.82457H30.182C31.2298 6.82457 31.8176 7.23201 31.8176 7.99596V8.02142ZM32.4565 12.5287C32.4565 13.369 31.792 13.751 30.6931 13.751H27.7286V11.2809H30.6165C31.8943 11.2809 32.4565 11.7393 32.4565 12.5032V12.5287ZM40.149 15.9155V4.6346H37.67V15.9155H40.149ZM53.5405 15.9155V4.6346H51.0871V11.5865L45.7714 4.6346H43.4713V15.9155H45.9247V8.7599L51.4193 15.941H53.5405V15.9155ZM67.3409 15.9155L62.4852 4.5582H60.1851L55.3294 15.9155H57.8595L58.9073 13.3945H63.6863L64.7341 15.9155H67.3409ZM62.8174 11.2045H59.8018L61.3096 7.53759L62.8174 11.2045ZM79.199 15.9155V4.6346H76.7456V11.5865L71.4299 4.6346H69.1298V15.9155H71.5832V8.7599L77.0778 15.941H79.199V15.9155ZM92.0794 14.1075L90.4949 12.5032C89.6004 13.3181 88.8082 13.8274 87.5304 13.8274C85.5881 13.8274 84.2592 12.2231 84.2592 10.2878V10.2623C84.2592 8.327 85.6392 6.74818 87.5304 6.74818C88.6548 6.74818 89.5493 7.23201 90.4182 8.02142L92.0027 6.18795C90.9549 5.1439 89.6771 4.45635 87.5304 4.45635C84.0547 4.45635 81.6269 7.07922 81.6269 10.2878V10.3133C81.6269 13.5473 84.1058 16.1192 87.4281 16.1192C89.6004 16.1192 90.9038 15.3553 92.0794 14.1075ZM102.685 15.9155V13.7001H96.5517V11.3318H101.893V9.11641H96.5517V6.82457H102.609V4.60913H94.0728V15.8901H102.685V15.9155Z" fill="#F0B90B"/>
<path d="M38.4169 35.0115L36.5196 33.0834C35.0786 34.4331 33.7577 35.2766 31.6923 35.2766C28.474 35.2766 26.1444 32.5772 26.1444 29.2511C26.1444 25.9251 28.474 23.2738 31.6923 23.2738C33.6136 23.2738 35.0546 24.1174 36.3995 25.3707L38.2968 23.1774C36.6877 21.6349 34.8144 20.5503 31.7163 20.5503C26.6247 20.5503 23.0463 24.4789 23.0463 29.2993C23.0463 34.168 26.6968 38.0002 31.5962 38.0002C34.7424 38.0002 36.6637 36.8433 38.4169 35.0115Z" fill="#1E2026"/>
<path d="M57.8884 29.2511C57.8884 24.4789 54.2859 20.5503 49.1223 20.5503C43.9588 20.5503 40.3082 24.5271 40.3082 29.2993C40.3082 34.0715 43.9107 38.0002 49.0743 38.0002C54.2379 38.0002 57.8884 34.0233 57.8884 29.2511ZM54.7903 29.2993C54.7903 32.6013 52.4607 35.2766 49.1223 35.2766C45.784 35.2766 43.4064 32.5531 43.4064 29.2511C43.4064 25.9492 45.736 23.2738 49.0743 23.2738C52.4126 23.2738 54.7903 25.9974 54.7903 29.2993Z" fill="#1E2026"/>
<path d="M73.2017 32.5049L64.1954 20.8395H61.4575V37.711H64.3635V25.7081L73.634 37.711H76.1077V20.8395H73.2017V32.5049Z" fill="#1E2026"/>
<path d="M92.1758 32.5049L83.1695 20.8395H80.4316V37.711H83.3376V25.7081L92.6081 37.711H95.0818V20.8395H92.1758V32.5049Z" fill="#1E2026"/>
<path d="M111.87 20.8395H99.4057V37.711H111.99V35.0597H102.36V30.5285H110.79V27.8773H102.36V23.4907H111.87V20.8395Z" fill="#1E2026"/>
<path d="M130.121 35.0115L128.224 33.0834C126.783 34.4331 125.462 35.2766 123.396 35.2766C120.178 35.2766 117.849 32.5772 117.849 29.2511C117.849 25.9251 120.178 23.2738 123.396 23.2738C125.318 23.2738 126.759 24.1174 128.104 25.3707L130.001 23.1774C128.392 21.6349 126.519 20.5503 123.42 20.5503C118.329 20.5503 114.75 24.4789 114.75 29.2993C114.75 34.168 118.401 38.0002 123.3 38.0002C126.447 38.0002 128.368 36.8433 130.121 35.0115Z" fill="#1E2026"/>
<path d="M140.335 23.5872H145.667V20.8395H132.025V23.5872H137.357V37.711H140.335V23.5872Z" fill="#1E2026"/>
</svg>
