<?xml version="1.0" encoding="UTF-8" standalone="no"?>
<svg
   width="128.871"
   height="128.871"
   viewBox="0 0 128.871 128.871"
   version="1.1"
   id="svg24"
   style="fill:none">
  <path
     d="m 42.906501,27.135799 -12.516,-7.2096 34.045,-19.7262001 34.145,19.7262001 -12.516,7.2096 -21.629,-12.4165 z m 64.585999,12.4165 v 14.5193 l 12.517,-7.2096 v -14.5193 l -12.517,-7.3097 -12.515999,7.2096 z m -55.573999,-7.2096 12.517,7.2096 12.517,-7.2096 -12.517,-7.3097 z m 46.662,12.4165 -12.516,-7.2095 -21.629,12.4165 -21.529,-12.4165 -12.516,7.2095 v 14.5194 l 21.528,12.4165 v 24.833 l 12.517,7.209901 12.517,-7.209901 v -24.833 l 21.628,-12.4165 z M 107.4925,89.318499 85.964501,101.735 v 14.519 L 120.1095,96.528099 v -39.3523 l -12.617,7.3097 z m -21.527999,2.1028 12.516,-7.2096 v -14.6194 l -12.516,7.2096 z m -34.046,15.520701 v 14.519 l 12.517,7.21 12.517,-7.21 v -14.519 l -12.517,7.21 z M 8.7615011,46.861999 l 12.5169999,7.2096 v -14.5193 l 12.516,-7.2096 -12.416,-7.3097 -12.5169999,7.2096 v 14.6194 z m 12.6169999,17.6235 -12.5169999,-7.2096 v 39.3523 L 43.006501,116.354 v -14.519 l -21.628,-12.516501 z m 21.528,12.4165 -12.516,-7.2096 v 14.5193 l 12.516,7.2096 z"
     id="path22"
     style="fill:#f0b90b" />
  <circle
     style="stroke-width:1.30843413"
     id="path815"
     cx="105"
     cy="105"
     r="24" />
</svg>
