<svg width="218px" height="256px" version="1.1" viewBox="0 0 218 256" xmlns="http://www.w3.org/2000/svg" xmlns:xlink="http://www.w3.org/1999/xlink">
 <title>build-icons/Stable Copy 3</title>
 <desc>Created with Sketch.</desc>
 <defs>
  <linearGradient id="linearGradient-1" y1="50.706%" y2="50.706%">
   <stop stop-color="#f50" offset="0"/>
   <stop stop-color="#f50" offset=".40988"/>
   <stop stop-color="#FF2000" offset=".58198"/>
   <stop stop-color="#FF2000" offset="1"/>
  </linearGradient>
  <linearGradient id="linearGradient-2" x1="2.1484%" y1="50.706%" y2="50.706%">
   <stop stop-color="#FF452A" offset="0"/>
   <stop stop-color="#FF2000" offset="1"/>
  </linearGradient>
  <path id="path-3" d="m170.27 25.336-22.304-25.336h-39.168-39.168l-22.304 25.336s-19.584-5.4468-28.832 3.8128c0 0 26.112-2.3601 35.088 12.255 0 0 24.208 4.6298 27.472 4.6298s10.336-2.7234 16.864-4.9021c6.528-2.1787 10.88-2.1945 10.88-2.1945s4.352 0.015796 10.88 2.1945 13.6 4.9021 16.864 4.9021 27.472-4.6298 27.472-4.6298c8.976-14.615 35.088-12.255 35.088-12.255-9.248-9.2596-28.832-3.8128-28.832-3.8128"/>
 </defs>
 <g id="starting-collection" fill="none" fill-rule="evenodd">
  <g id="Build-Icons" transform="translate(-70 -350)">
   <g id="build-icons/Stable" transform="translate(50 350)">
    <g id="Logo" transform="translate(20.114)">
     <path id="Head" d="m209.98 61.285 5.984-14.706s-7.616-8.1702-16.864-17.43c-9.248-9.2596-28.832-3.8128-28.832-3.8128l-22.304-25.336h-39.168-39.168l-22.304 25.336s-19.584-5.4468-28.832 3.8128c-9.248 9.2596-16.864 17.43-16.864 17.43l5.984 14.706-7.616 21.787s22.399 84.946 25.024 95.319c5.168 20.426 8.704 28.323 23.392 38.672s41.344 28.323 45.696 31.047 9.792 7.3625 14.688 7.3625 10.336-4.639 14.688-7.3625 31.008-20.698 45.696-31.047 18.224-18.247 23.392-38.672c2.6243-10.373 25.024-95.319 25.024-95.319l-7.616-21.787z" fill="url(#linearGradient-1)"/>
     <path id="Face" d="m164.02 41.404s28.688 34.723 28.688 42.145-3.6089 9.3799-7.2374 13.238c-3.6285 3.858-19.476 20.707-21.511 22.871-2.0351 2.164-6.2718 5.4446-3.7797 11.35s6.1684 13.419 2.0803 21.04c-4.0887 7.6212-11.093 12.708-15.581 11.867-4.488-0.84153-15.028-6.3564-18.904-8.8756s-16.161-12.663-16.161-16.545c0-3.8809 12.699-10.849 15.044-12.433 2.3468-1.5828 13.047-7.711 13.267-10.116 0.21869-2.4059 0.13546-3.1112-3.0225-9.0548-3.1579-5.9441-8.8449-13.876-7.8983-19.153 0.94656-5.2769 10.118-8.021 16.664-10.496 6.5443-2.4745 19.146-7.1484 20.72-7.875 1.5749-0.72715 1.168-1.4194-3.6013-1.8721-4.7682-0.45263-18.301-2.2512-24.402-0.54849-6.101 1.7027-16.524 4.2932-17.368 5.6669s-1.589 1.42-0.72189 6.1587c0.86659 4.7387 5.3307 27.477 5.7637 31.516 0.43357 4.0388 1.2811 6.7088-3.0682 7.7045-4.3498 0.99568-11.672 2.7245-14.188 2.7245s-9.8382-1.7288-14.188-2.7245c-4.3498-0.99568-3.5023-3.6657-3.0687-7.7045 0.43357-4.0388 4.8971-26.777 5.7642-31.516 0.86659-4.7387 0.12186-4.785-0.72189-6.1587-0.84429-1.3737-11.268-3.9642-17.369-5.6669-6.101-1.7027-19.633 0.095864-24.402 0.54849s-5.1756 1.1449-3.6013 1.8721c1.5743 0.7266 14.176 5.4005 20.72 7.875 6.5449 2.475 15.717 5.2191 16.664 10.496 0.94656 5.2774-4.741 13.209-7.8983 19.153-3.1579 5.9436-3.2417 6.6489-3.0225 9.0548 0.21869 2.4053 10.92 8.5335 13.266 10.116 2.3463 1.5834 15.044 8.552 15.044 12.433 0 3.8814-12.284 14.026-16.16 16.545s-14.416 8.034-18.904 8.8756c-4.488 0.84099-11.492-4.2458-15.581-11.867-4.0882-7.6212-0.41181-15.135 2.0797-21.04 2.4921-5.9049-1.7441-9.1855-3.7797-11.35-2.0346-2.1635-17.882-19.013-21.511-22.871-3.6285-3.858-7.2368-5.8166-7.2368-13.238s28.688-42.145 28.688-42.145 24.208 4.6298 27.472 4.6298 10.336-2.7234 16.864-4.9021c6.528-2.1787 10.88-2.1945 10.88-2.1945s4.352 0.015796 10.88 2.1945 13.6 4.9021 16.864 4.9021 27.472-4.6298 27.472-4.6298zm-21.507 132.82c1.7756 1.1133 0.69251 3.212-0.9248 4.3569-1.6179 1.1449-23.357 18-25.466 19.862-2.1102 1.8634-5.2104 4.9403-7.3184 4.9403s-5.2088-3.0769-7.3184-4.9403c-2.1102-1.8628-23.848-18.717-25.466-19.862-1.6179-1.1449-2.7004-3.2436-0.9248-4.3569 1.7762-1.1128 7.332-3.9217 14.999-7.8941 7.6655-3.9718 17.22-7.3488 18.711-7.3488s11.045 3.377 18.711 7.3488c7.666 3.9724 13.222 6.7813 14.998 7.8941z" fill="#fff"/>
     <mask fill="white">
      <use xlink:href="#path-3"/>
     </mask>
     <use id="Top-Head" fill="url(#linearGradient-2)" xlink:href="#path-3"/>
    </g>
   </g>
  </g>
 </g>
</svg>
