<svg viewBox="0 0 663.679 108.804" fill-rule="evenodd" clip-rule="evenodd" stroke-linejoin="round" stroke-miterlimit="2" class="prefix__mdc-top-app-bar__logotext" width="390.399" height="64.003" xmlns="http://www.w3.org/2000/svg"><defs><linearGradient id="prefix__a" x1="0" y1="0" x2="1" y2="0" gradientUnits="userSpaceOnUse" gradientTransform="matrix(0 -141.487 160.148 0 5074.5 13987)"><stop offset="0" stop-color="#6f17ba"/><stop offset="1" stop-color="#b038fa"/></linearGradient><linearGradient id="prefix__b" x1="0" y1="0" x2="1" y2="0" gradientUnits="userSpaceOnUse" gradientTransform="matrix(0 -332.592 917.287 0 4856.64 13927.6)"><stop offset="0" stop-color="#c41baf"/><stop offset="1" stop-color="#f52586"/></linearGradient><linearGradient id="prefix__c" x1="0" y1="0" x2="1" y2="0" gradientUnits="userSpaceOnUse" gradientTransform="matrix(0 -332.592 917.287 0 4856.64 13927.6)"><stop offset="0" stop-color="#3054b6"/><stop offset="1" stop-color="#00a4fc"/></linearGradient></defs><path d="M226.735 81.686c-3.708 0-7.06-.856-9.984-2.639a18.972 18.972 0 01-6.989-7.06c-1.783-2.924-2.638-6.275-2.71-9.984V28.7c0-.927.285-1.711.856-2.282.5-.499 1.284-.784 2.21-.784.928 0 1.641.285 2.211.784.5.57.785 1.355.785 2.282v20.396c1.569-2.14 3.637-3.85 6.133-5.206 2.496-1.283 5.349-1.925 8.415-1.925 3.637 0 6.846.856 9.699 2.567 2.852 1.783 5.134 4.136 6.775 7.132 1.569 2.995 2.424 6.347 2.424 10.126 0 3.78-.855 7.203-2.567 10.198-1.783 2.995-4.136 5.349-7.06 7.06-2.995 1.783-6.418 2.639-10.198 2.639zm0-5.42c2.639 0 5.063-.642 7.203-1.925 2.068-1.284 3.78-2.996 4.992-5.206 1.212-2.14 1.783-4.564 1.783-7.346 0-2.71-.57-5.134-1.783-7.345-1.213-2.21-2.924-3.922-4.992-5.206-2.14-1.212-4.564-1.854-7.203-1.854-2.567 0-4.92.642-6.989 1.854-2.14 1.284-3.78 2.995-4.992 5.206-1.212 2.21-1.783 4.635-1.783 7.345 0 2.782.57 5.206 1.783 7.346 1.213 2.21 2.853 3.922 4.992 5.206 2.068 1.283 4.422 1.925 6.989 1.925zm47.602 5.491c-3.351 0-6.347-.713-8.985-2.14-2.639-1.354-4.778-3.422-6.276-6.132-1.497-2.71-2.282-6.062-2.282-9.984V45.316c0-.856.285-1.57.856-2.14.57-.57 1.283-.856 2.14-.856.855 0 1.568.286 2.139.856.57.57.855 1.284.855 2.14V63.5c0 2.924.571 5.277 1.64 7.06 1.07 1.854 2.568 3.21 4.422 4.136 1.854.927 3.922 1.427 6.276 1.427 2.21 0 4.279-.428 6.062-1.355 1.782-.856 3.209-2.069 4.278-3.566 1.07-1.498 1.57-3.21 1.57-5.135h4.064c-.071 2.995-.855 5.705-2.353 7.987-1.498 2.354-3.494 4.28-5.99 5.634-2.497 1.355-5.35 2.068-8.416 2.068zm15.69-.428c-.928 0-1.64-.285-2.14-.855-.57-.5-.856-1.284-.856-2.211V45.316c0-.927.286-1.64.856-2.211.5-.5 1.212-.785 2.14-.785.927 0 1.64.286 2.21.785.57.57.856 1.284.856 2.21v32.948c0 .927-.285 1.711-.856 2.21-.57.571-1.283.856-2.21.856zm35.434.357c-3.708 0-7.06-.856-9.984-2.639a18.972 18.972 0 01-6.989-7.06c-1.783-2.924-2.639-6.275-2.71-9.984V28.7c0-.927.285-1.711.856-2.282.5-.499 1.284-.784 2.21-.784.928 0 1.64.285 2.211.784.5.57.785 1.355.785 2.282v20.396c1.569-2.14 3.637-3.85 6.133-5.206 2.496-1.283 5.349-1.925 8.415-1.925 3.637 0 6.846.856 9.699 2.567 2.852 1.783 5.134 4.136 6.775 7.132 1.569 2.995 2.424 6.347 2.424 10.126 0 3.78-.855 7.203-2.567 10.198-1.783 2.995-4.136 5.349-7.06 7.06-2.995 1.783-6.418 2.639-10.198 2.639zm0-5.42c2.639 0 5.063-.642 7.203-1.925 2.068-1.284 3.78-2.996 4.992-5.206 1.212-2.14 1.783-4.564 1.783-7.346 0-2.71-.57-5.134-1.783-7.345-1.213-2.21-2.924-3.922-4.992-5.206-2.14-1.212-4.564-1.854-7.203-1.854-2.567 0-4.92.642-6.989 1.854-2.14 1.284-3.78 2.995-4.992 5.206-1.212 2.21-1.783 4.635-1.783 7.345 0 2.782.57 5.206 1.783 7.346 1.212 2.21 2.853 3.922 4.992 5.206 2.068 1.283 4.422 1.925 6.989 1.925zm50.41 5.42c-3.708 0-7.06-.856-9.984-2.639a18.972 18.972 0 01-6.989-7.06c-1.782-2.924-2.638-6.275-2.71-9.984V28.7c0-.927.286-1.711.856-2.282.5-.499 1.284-.784 2.211-.784.927 0 1.64.285 2.21.784.5.57.785 1.355.785 2.282v20.396c1.57-2.14 3.637-3.85 6.133-5.206 2.496-1.283 5.349-1.925 8.415-1.925 3.637 0 6.847.856 9.7 2.567 2.852 1.783 5.134 4.136 6.774 7.132 1.569 2.995 2.425 6.347 2.425 10.126 0 3.78-.856 7.203-2.568 10.198-1.782 2.995-4.136 5.349-7.06 7.06-2.995 1.783-6.418 2.639-10.198 2.639zm0-5.42c2.639 0 5.064-.642 7.203-1.925 2.068-1.284 3.78-2.996 4.992-5.206 1.212-2.14 1.783-4.564 1.783-7.346 0-2.71-.57-5.134-1.783-7.345-1.212-2.21-2.924-3.922-4.992-5.206-2.14-1.212-4.564-1.854-7.203-1.854-2.567 0-4.92.642-6.988 1.854-2.14 1.284-3.78 2.995-4.992 5.206-1.213 2.21-1.783 4.635-1.783 7.345 0 2.782.57 5.206 1.783 7.346 1.212 2.21 2.852 3.922 4.992 5.206 2.068 1.283 4.421 1.925 6.988 1.925zM415.3 81.33c-1.997 0-3.78-.57-5.277-1.64-1.498-1.07-2.71-2.496-3.566-4.421-.855-1.926-1.283-4.065-1.283-6.561V28.628c0-.927.285-1.64.855-2.21.5-.5 1.213-.785 2.14-.785.856 0 1.569.285 2.14.784.498.57.784 1.284.784 2.211v40.079c0 1.925.428 3.566 1.212 4.778.785 1.284 1.783 1.925 2.995 1.925h1.783c.785 0 1.355.286 1.854.785.5.57.713 1.283.713 2.14 0 .926-.356 1.64-.998 2.139-.713.57-1.64.855-2.71.855zm27.162.357c-3.922 0-7.345-.856-10.34-2.567-2.996-1.64-5.349-3.994-7.06-6.99-1.712-2.994-2.568-6.417-2.568-10.268 0-3.923.785-7.346 2.425-10.341 1.64-2.924 3.85-5.277 6.703-6.989 2.782-1.711 6.062-2.567 9.77-2.567 3.638 0 6.775.784 9.485 2.425 2.639 1.711 4.707 3.922 6.205 6.846 1.426 2.924 2.14 6.204 2.14 9.912 0 .785-.286 1.427-.785 1.926-.5.5-1.213.784-1.997.784h-29.81v-4.92h30.166l-3.066 2.14c.071-2.64-.428-4.993-1.426-7.061-.999-2.068-2.425-3.708-4.28-4.92-1.853-1.213-4.064-1.784-6.632-1.784-2.71 0-5.063.642-7.06 1.855-2.068 1.212-3.565 2.995-4.635 5.134-1.07 2.282-1.64 4.778-1.64 7.56 0 2.78.641 5.277 1.854 7.488a12.713 12.713 0 005.134 5.134c2.14 1.213 4.636 1.854 7.417 1.854 1.64 0 3.28-.285 4.992-.855 1.64-.57 2.995-1.284 3.994-2.14.57-.428 1.212-.642 1.997-.713.713 0 1.283.214 1.782.642.714.642 1.07 1.284 1.142 1.997 0 .713-.357 1.355-.999 1.854-1.569 1.355-3.566 2.425-5.99 3.28-2.425.856-4.707 1.284-6.918 1.284zm78.188-.357c-.928 0-1.64-.285-2.211-.855-.57-.5-.856-1.213-.856-2.14V57.867c0-3.28-.856-5.848-2.496-7.63-1.64-1.783-3.85-2.71-6.49-2.71-2.78 0-5.063.927-6.846 2.852-1.783 1.925-2.71 4.421-2.71 7.488h-5.206c.072-3.21.713-5.99 2.068-8.415a14.874 14.874 0 015.563-5.563c2.353-1.355 4.992-1.996 7.987-1.996 2.781 0 5.206.641 7.346 1.925 2.139 1.284 3.85 3.138 5.063 5.491 1.212 2.425 1.783 5.278 1.783 8.558v20.467c0 .927-.285 1.64-.856 2.14-.57.57-1.284.855-2.14.855zm-49.207 0c-.927 0-1.712-.285-2.211-.855-.57-.5-.856-1.213-.856-2.14V45.387c0-.927.285-1.64.856-2.21.5-.571 1.284-.857 2.21-.857.928 0 1.64.286 2.211.856.5.57.785 1.284.785 2.211v32.947c0 .927-.285 1.64-.785 2.14-.57.57-1.283.855-2.21.855zm24.603 0c-.856 0-1.569-.285-2.14-.855-.57-.5-.855-1.213-.855-2.14V57.867c0-3.28-.856-5.848-2.496-7.63-1.712-1.783-3.851-2.71-6.49-2.71-2.781 0-5.134.927-6.917 2.78-1.783 1.855-2.71 4.28-2.71 7.275H470.3c.07-3.067.784-5.848 1.996-8.201 1.213-2.354 2.924-4.137 5.135-5.492 2.21-1.355 4.707-1.996 7.488-1.996 2.781 0 5.206.641 7.345 1.925 2.14 1.284 3.78 3.138 4.992 5.491 1.213 2.425 1.783 5.278 1.783 8.558v20.467c0 .927-.285 1.64-.784 2.14-.57.57-1.284.855-2.21.855zm56.757.357c-3.637 0-6.846-.856-9.698-2.639-2.853-1.711-5.135-4.065-6.775-7.06-1.64-2.995-2.496-6.347-2.496-10.126 0-3.78.856-7.203 2.638-10.198 1.712-2.996 4.065-5.349 7.06-7.132 2.996-1.711 6.348-2.567 10.127-2.567 3.709 0 7.06.856 10.056 2.567a20.487 20.487 0 017.06 7.132c1.711 2.995 2.567 6.418 2.638 10.198l-2.424 1.212c0 3.494-.785 6.704-2.354 9.485-1.64 2.781-3.78 4.992-6.49 6.632-2.78 1.64-5.847 2.496-9.342 2.496zm.856-5.42c2.639 0 4.992-.642 7.132-1.925a13.642 13.642 0 004.92-5.135c1.213-2.21 1.783-4.635 1.783-7.345 0-2.782-.57-5.206-1.783-7.417-1.212-2.14-2.924-3.851-4.92-5.135-2.14-1.283-4.493-1.925-7.132-1.925-2.638 0-4.992.642-7.06 1.925-2.14 1.284-3.85 2.995-5.063 5.135-1.213 2.21-1.854 4.635-1.854 7.417 0 2.71.641 5.134 1.854 7.345a12.99 12.99 0 005.063 5.135c2.068 1.283 4.422 1.925 7.06 1.925zm16.688 5.063c-.856 0-1.57-.285-2.14-.855-.641-.5-.927-1.213-.927-2.14V66.567l1.355-6.204 4.778 1.498v16.473c0 .927-.285 1.64-.855 2.14-.571.57-1.284.855-2.211.855zm16.892 16.688c-.927 0-1.711-.285-2.21-.784-.57-.57-.856-1.355-.856-2.282V61.647c.071-3.709.927-7.06 2.71-10.056 1.711-2.924 4.065-5.277 6.989-7.06 2.924-1.711 6.275-2.567 9.984-2.567 3.78 0 7.202.856 10.198 2.567a20.487 20.487 0 017.06 7.132c1.711 2.995 2.567 6.418 2.567 10.198 0 3.78-.856 7.131-2.425 10.126-1.64 2.995-3.922 5.349-6.774 7.06-2.853 1.783-6.062 2.639-9.7 2.639-3.066 0-5.918-.642-8.414-1.997-2.496-1.283-4.564-2.995-6.133-5.134V94.95c0 .927-.286 1.711-.856 2.282-.57.499-1.284.784-2.14.784zm16.617-21.75c2.638 0 5.063-.643 7.202-1.926a13.298 13.298 0 004.992-5.135c1.213-2.21 1.783-4.635 1.783-7.345 0-2.782-.57-5.206-1.783-7.417-1.212-2.14-2.923-3.851-4.992-5.135-2.139-1.283-4.564-1.925-7.202-1.925-2.568 0-4.921.642-6.99 1.925-2.139 1.284-3.779 2.995-4.991 5.135-1.212 2.21-1.783 4.635-1.783 7.417 0 2.71.57 5.134 1.783 7.345 1.212 2.21 2.852 3.922 4.92 5.135 2.069 1.283 4.422 1.925 7.06 1.925zm44.491 5.419c-2.924 0-5.776-.5-8.558-1.498-2.781-.927-5.063-2.353-6.703-4.136-.57-.642-.785-1.355-.713-2.14.07-.784.499-1.497 1.14-1.996.785-.57 1.498-.785 2.354-.713a2.996 2.996 0 011.925.998c1.07 1.213 2.496 2.211 4.35 2.924 1.855.785 3.923 1.141 6.134 1.141 3.28 0 5.705-.57 7.274-1.711 1.497-1.07 2.282-2.496 2.353-4.137 0-1.64-.784-2.995-2.282-4.065-1.569-1.07-4.207-1.925-7.916-2.567-4.778-.784-8.272-2.14-10.483-4.065-2.282-1.925-3.352-4.207-3.352-6.846 0-2.425.642-4.421 1.997-6.062 1.355-1.64 3.066-2.852 5.277-3.637 2.14-.784 4.493-1.212 6.989-1.212 3.21 0 5.92.5 8.273 1.569 2.353 1.07 4.207 2.567 5.633 4.35.5.642.785 1.355.713 2.068-.07.785-.499 1.355-1.212 1.783-.642.428-1.355.57-2.14.428-.855-.143-1.568-.5-2.139-1.141a12.051 12.051 0 00-4.065-2.853c-1.497-.57-3.28-.856-5.206-.856-2.496 0-4.492.5-5.99 1.427-1.498.998-2.282 2.282-2.282 3.78 0 1.07.285 1.925.856 2.71.499.784 1.497 1.426 2.924 1.996 1.355.642 3.351 1.141 5.99 1.64 3.566.642 6.418 1.498 8.486 2.568 2.069 1.14 3.495 2.424 4.422 3.922.856 1.498 1.284 3.138 1.284 4.92 0 2.211-.642 4.208-1.855 5.849-1.283 1.711-3.066 3.066-5.348 4.064-2.282.999-4.992 1.498-8.13 1.498z" fill-rule="nonzero" fill="currentColor"/><path d="M5074.5 13845.5s62.5 34.4 62.5 79c0 34.5-28.01 62.5-62.5 62.5-34.49 0-62.5-28-62.5-62.5 0-44.6 62.5-79 62.5-79z" fill="url(#prefix__a)" transform="scale(-.35446) rotate(45 19609.32 639.819)"/><path d="M4796.35 13671.2c0-43 60.29-76.2 60.29-76.2s60.3 33.2 60.3 76.2v196.1c0 33.3-27.02 60.3-60.3 60.3s-60.29-27-60.29-60.3z" fill="url(#prefix__b)" transform="scale(.36742) rotate(-30 -22882.733 15646.409)"/><path d="M4796.35 13671.2c0-43 60.29-76.2 60.29-76.2s60.3 33.2 60.3 76.2v196.1c0 33.3-27.02 60.3-60.3 60.3s-60.29-27-60.29-60.3z" fill="url(#prefix__c)" transform="scale(.36742) rotate(-30 -22787.37 15290.516)"/></svg>