<svg width="1280" height="300" viewBox="0 0 1280 300" fill="none" xmlns="http://www.w3.org/2000/svg">
<path d="M17.0736 84.8431V215.156L0 225.019V74.9805L17.0736 84.8431Z" fill="white"/>
<path d="M259.815 74.9809L242.741 84.8436L129.884 19.7253V0L259.815 74.9809Z" fill="white"/>
<path d="M259.815 225.019L129.884 300V280.275L242.741 215.156L259.815 225.019Z" fill="white"/>
<g opacity="0.3">
<path opacity="0.3" d="M129.884 280.275V300L0 225.019L17.0736 215.156L129.884 280.275Z" fill="white"/>
</g>
<g opacity="0.3">
<path opacity="0.3" d="M259.815 74.9805V225.019L242.741 215.156V84.8431L259.815 74.9805Z" fill="white"/>
</g>
<g opacity="0.3">
<path opacity="0.3" d="M129.884 0V19.7253L17.0736 84.8436L0 74.9809L129.884 0Z" fill="white"/>
</g>
<path fill-rule="evenodd" clip-rule="evenodd" d="M129.855 82.8789L174.59 96.3852C175.235 96.6623 175.756 97.167 176.053 97.8032C176.35 98.4394 176.403 99.1627 176.202 99.8353C176 100.508 175.559 101.083 174.961 101.451C174.363 101.819 173.65 101.955 172.959 101.832L129.855 88.8118L86.8752 101.832C86.1826 101.959 85.4672 101.827 84.8661 101.46C84.2649 101.093 83.8202 100.517 83.6171 99.8427C83.414 99.1684 83.4667 98.4428 83.7651 97.8048C84.0636 97.1669 84.5868 96.6614 85.2346 96.3852L129.855 82.8789Z" fill="white"/>
<path fill-rule="evenodd" clip-rule="evenodd" d="M194.372 104.33C194.269 103.724 193.977 103.165 193.538 102.734C193.099 102.303 192.536 102.021 191.928 101.928C191.32 101.835 190.698 101.936 190.151 102.217C189.603 102.497 189.158 102.943 188.878 103.49L162.953 154.044H96.8618L70.9652 103.49C70.695 102.976 70.28 102.552 69.7715 102.27C69.263 101.989 68.6832 101.863 68.1037 101.907C67.4543 101.959 66.8405 102.225 66.3587 102.663C65.877 103.102 65.5547 103.688 65.4425 104.33C63.0897 120.69 63.945 137.352 67.9607 153.386C74.3227 178.681 90.3758 208.012 128.615 226.659L129.865 227.26L131.104 226.659C169.315 208.012 185.473 178.681 191.778 153.414C195.826 137.377 196.707 120.704 194.372 104.33ZM73.4834 152.022C70.4467 139.672 69.2986 126.934 70.0782 114.24L92.6077 158.164L123.13 217.35C92.3884 199.599 79.0347 174.198 73.4834 152.022ZM129.865 217.922L99.8092 159.738H160.025L129.865 217.922ZM186.284 152.022C180.694 174.17 167.303 199.57 136.58 217.331L167.226 158.193L189.746 114.316C190.499 126.988 189.332 139.7 186.284 152.022Z" fill="white"/>
<path fill-rule="evenodd" clip-rule="evenodd" d="M349.256 161.665C350.987 163.447 353.065 164.855 355.362 165.8C357.659 166.745 360.126 167.208 362.61 167.159H456.524V154.445H362.619C360.984 154.464 359.404 153.849 358.213 152.728C357.093 151.534 356.472 149.958 356.477 148.321V72.9205C356.463 72.1322 356.61 71.3494 356.908 70.6197C357.206 69.8899 357.65 69.2286 358.213 68.6759C358.778 68.0739 359.461 67.5941 360.218 67.266C360.976 66.9379 361.793 66.7685 362.619 66.7683H456.534V54.0823H362.619C360.141 54.0697 357.685 54.5482 355.392 55.4902C353.1 56.4322 351.017 57.819 349.264 59.5706C347.51 61.3221 346.121 63.4037 345.177 65.6951C344.233 67.9864 343.752 70.4422 343.762 72.9205V148.321C343.719 150.804 344.185 153.269 345.13 155.566C346.074 157.862 347.479 159.941 349.256 161.675V161.665ZM529.292 54.0823V167.169H632.497V154.445H542.026V117.064H614.737V104.216H542.026V66.8255H632.497V54.0823H529.292ZM705.141 167.169V54.2253H799.399C804.383 54.2823 809.146 56.2874 812.67 59.8115C816.194 63.3357 818.199 68.0991 818.256 73.0827V106.219C818.282 108.699 817.809 111.16 816.866 113.454C815.922 115.748 814.526 117.829 812.762 119.573C811.027 121.349 808.948 122.752 806.652 123.697C804.356 124.641 801.891 125.108 799.409 125.067H782.106L817.608 167.035V167.169H800.792L765.5 125.086L717.903 124.924V167.169H705.141ZM723.998 112.209H799.399C800.185 112.225 800.966 112.079 801.693 111.781C802.42 111.482 803.077 111.037 803.625 110.473C804.191 109.923 804.638 109.263 804.936 108.532C805.235 107.802 805.379 107.017 805.361 106.228V73.0827C805.379 72.2937 805.235 71.5093 804.936 70.7789C804.638 70.0484 804.191 69.3877 803.625 68.8381C803.101 68.2324 802.452 67.7479 801.722 67.4185C800.992 67.0891 800.2 66.9225 799.399 66.9304H723.998C723.173 66.9345 722.357 67.1057 721.6 67.4335C720.843 67.7614 720.16 68.2392 719.592 68.8381C719.032 69.3917 718.591 70.0536 718.296 70.7834C718.001 71.5133 717.857 72.2956 717.875 73.0827V106.219C717.853 107.006 717.995 107.79 718.29 108.52C718.586 109.251 719.029 109.912 719.592 110.463C720.786 111.583 722.362 112.204 723.998 112.199V112.209ZM935.578 66.7969V167.169H948.312V66.7969H998.426V54.0823H885.34V66.7969H935.578ZM1065.6 54.0823H1078.48V167.169H1065.6V54.0823ZM1156.05 54.0823V167.169H1168.92V117.064H1205.36L1247.48 167.169H1263.97V167.026L1216.54 110.635L1263.81 54.2349V54.0918H1247.48L1205.37 104.216H1168.93V54.0823H1156.05Z" fill="white"/>
<path d="M1078.73 167.417H1065.38V53.8439H1078.73V167.417ZM1065.85 166.94H1078.25V54.3209H1065.85V166.94ZM1264.25 167.398H1247.42L1247.34 167.312L1205.3 117.303H1169.17V167.398H1155.82V53.8916H1169.17V103.997H1205.26L1247.37 53.8916H1264.04V54.359L1263.98 54.4258L1216.84 110.702L1264.2 166.978L1264.25 167.398ZM1247.63 166.921H1263.62L1216.27 110.645L1216.4 110.492L1263.46 54.3399H1247.63L1205.51 104.426H1168.7V54.3209H1156.3V166.921H1168.7V116.826H1205.51L1205.58 116.911L1247.63 166.921ZM948.607 167.398H935.387V67.0164H885.149V53.8439H998.722V67.0164H948.607V167.398ZM935.864 166.921H948.13V66.5586H998.245V54.3209H885.578V66.5586H935.816L935.864 166.921ZM817.894 167.398H800.725L800.649 167.312L765.357 125.343L718.104 125.2V167.446H704.903V53.987H799.399C804.443 54.0367 809.267 56.0625 812.833 59.6294C816.4 63.1962 818.426 68.0196 818.476 73.0637V106.219C818.498 108.73 818.018 111.221 817.063 113.544C816.108 115.867 814.697 117.975 812.915 119.744C811.158 121.542 809.054 122.962 806.73 123.92C804.406 124.878 801.912 125.352 799.399 125.315H782.621L817.846 166.931L817.894 167.398ZM800.954 166.921H817.264L781.639 124.838H799.447C801.881 124.862 804.295 124.393 806.544 123.461C808.793 122.528 810.83 121.15 812.533 119.411C814.271 117.684 815.647 115.628 816.579 113.363C817.511 111.097 817.981 108.669 817.961 106.219V73.0828C817.916 68.1619 815.943 63.4549 812.465 59.9734C808.987 56.4919 804.282 54.5137 799.361 54.4639H705.38V166.921H717.636V124.676L765.586 124.838L765.652 124.924L800.954 166.921ZM632.783 167.398H529.054V53.8916H632.736V67.0164H542.264V103.93H614.975V117.283H542.264V154.187H632.736L632.783 167.398ZM529.578 166.921H632.259V154.683H541.788V116.826H614.498V104.426H541.788V66.5586H632.259V54.3209H529.531L529.578 166.921ZM456.82 167.398H362.619C360.104 167.44 357.606 166.969 355.278 166.013C352.951 165.057 350.844 163.636 349.084 161.837C347.29 160.078 345.872 157.974 344.916 155.65C343.96 153.327 343.486 150.833 343.524 148.321V72.9206C343.512 70.4123 343.998 67.9265 344.952 65.6069C345.907 63.2873 347.312 61.1797 349.086 59.406C350.859 57.6323 352.967 56.2276 355.286 55.2729C357.606 54.3183 360.092 53.8326 362.6 53.8439H456.753V67.0164H362.619C361.827 67.0143 361.043 67.1739 360.315 67.4856C359.587 67.7972 358.93 68.2542 358.384 68.8287C357.843 69.3579 357.416 69.9922 357.129 70.6926C356.842 71.393 356.701 72.1447 356.715 72.9016V148.302C356.692 149.083 356.83 149.86 357.119 150.585C357.408 151.311 357.842 151.969 358.395 152.521C358.949 153.072 359.609 153.504 360.335 153.791C361.061 154.077 361.839 154.212 362.619 154.187H456.753L456.82 167.398ZM349.475 161.503C351.19 163.256 353.244 164.64 355.513 165.572C357.781 166.504 360.215 166.963 362.667 166.921H456.343V154.683H362.619C360.924 154.699 359.287 154.06 358.05 152.9C356.885 151.66 356.237 150.023 356.238 148.321V72.9206C356.223 72.1013 356.376 71.2875 356.688 70.5296C357 69.7717 357.463 69.0857 358.05 68.5139C358.642 67.9019 359.353 67.417 360.138 67.089C360.924 66.7609 361.768 66.5967 362.619 66.6063H456.295V54.3209H362.619C360.173 54.3095 357.748 54.7827 355.485 55.7132C353.222 56.6437 351.166 58.013 349.435 59.7421C347.704 61.4713 346.333 63.5261 345.4 65.7879C344.467 68.0498 343.992 70.474 344 72.9206V148.321C343.964 150.772 344.426 153.204 345.359 155.47C346.292 157.736 347.676 159.789 349.428 161.503H349.475ZM799.447 112.438H723.998C722.305 112.437 720.675 111.793 719.439 110.635C718.852 110.062 718.389 109.374 718.079 108.614C717.769 107.855 717.618 107.039 717.636 106.219V73.0828C717.619 72.2648 717.769 71.4519 718.078 70.6941C718.386 69.9363 718.846 69.2495 719.43 68.6761C720.019 68.0581 720.728 67.5661 721.514 67.23C722.299 66.8939 723.144 66.7206 723.998 66.7207H799.399C800.23 66.7078 801.054 66.8761 801.813 67.2137C802.573 67.5514 803.249 68.0504 803.796 68.6761C804.384 69.2466 804.848 69.9326 805.158 70.691C805.469 71.4493 805.619 72.2637 805.599 73.0828V106.219C805.605 107.036 805.449 107.846 805.14 108.602C804.831 109.358 804.375 110.045 803.798 110.624C803.222 111.202 802.536 111.661 801.781 111.972C801.025 112.283 800.216 112.442 799.399 112.438H799.447ZM724.046 67.1976C723.255 67.1994 722.472 67.3608 721.744 67.6722C721.016 67.9836 720.359 68.4386 719.811 69.0099C719.273 69.5407 718.85 70.1758 718.566 70.8761C718.282 71.5764 718.144 72.3273 718.161 73.0828V106.219C718.144 106.975 718.281 107.726 718.565 108.426C718.849 109.126 719.273 109.761 719.811 110.292C720.958 111.368 722.473 111.966 724.046 111.961H799.447C800.201 111.973 800.949 111.831 801.646 111.544C802.343 111.257 802.974 110.831 803.501 110.292C804.048 109.767 804.479 109.134 804.767 108.432C805.054 107.731 805.191 106.977 805.17 106.219V73.0828C805.189 72.3253 805.051 71.572 804.763 70.8709C804.476 70.1697 804.046 69.536 803.501 69.0099C802.996 68.4328 802.372 67.9719 801.672 67.6591C800.973 67.3462 800.213 67.1888 799.447 67.1976H724.046Z" fill="white"/>
<path d="M381.314 238.048H377.098V236.588C377.089 236.055 376.873 235.546 376.495 235.169C376.118 234.792 375.61 234.576 375.076 234.566H350.134C349.6 234.576 349.092 234.792 348.715 235.169C348.337 235.546 348.121 236.055 348.111 236.588V244.953C348.121 245.482 348.339 245.986 348.718 246.355C349.096 246.725 349.605 246.93 350.134 246.928H375.076C375.896 246.926 376.708 247.087 377.465 247.4C378.222 247.713 378.911 248.173 379.49 248.752C380.07 249.332 380.529 250.02 380.842 250.777C381.155 251.535 381.316 252.346 381.314 253.166V261.531C381.321 262.352 381.164 263.166 380.853 263.926C380.541 264.685 380.082 265.376 379.501 265.956C378.921 266.537 378.231 266.996 377.471 267.307C376.711 267.618 375.897 267.775 375.076 267.769H350.134C349.313 267.775 348.499 267.618 347.74 267.307C346.981 266.996 346.292 266.536 345.712 265.956C345.132 265.375 344.674 264.685 344.363 263.925C344.053 263.165 343.897 262.351 343.905 261.531V260.072H348.111V261.531C348.121 262.064 348.337 262.573 348.715 262.95C349.092 263.327 349.6 263.543 350.134 263.553H375.076C375.61 263.543 376.118 263.327 376.495 262.95C376.873 262.573 377.089 262.064 377.098 261.531V253.166C377.086 252.638 376.867 252.136 376.49 251.767C376.112 251.398 375.604 251.191 375.076 251.191H350.134C349.314 251.194 348.502 251.034 347.745 250.722C346.987 250.409 346.299 249.949 345.72 249.369C345.141 248.789 344.683 248.101 344.371 247.343C344.06 246.585 343.901 245.773 343.905 244.953V236.588C343.899 235.768 344.055 234.956 344.366 234.197C344.677 233.439 345.136 232.749 345.715 232.17C346.295 231.59 346.984 231.132 347.743 230.821C348.501 230.51 349.314 230.353 350.134 230.36H375.076C375.897 230.352 376.711 230.508 377.47 230.818C378.23 231.128 378.92 231.587 379.501 232.166C380.082 232.746 380.541 233.436 380.852 234.195C381.164 234.954 381.321 235.768 381.314 236.588V238.048Z" fill="white"/>
<path d="M375.076 268.028H350.133C349.278 268.037 348.429 267.875 347.637 267.552C346.845 267.229 346.125 266.75 345.52 266.145C344.915 265.541 344.437 264.821 344.114 264.029C343.791 263.237 343.629 262.388 343.638 261.532V259.816H348.407V261.532C348.421 261.996 348.612 262.436 348.94 262.764C349.268 263.092 349.708 263.283 350.172 263.297H375.114C375.578 263.283 376.018 263.092 376.346 262.764C376.674 262.436 376.865 261.996 376.879 261.532V253.167C376.864 252.708 376.672 252.273 376.343 251.953C376.014 251.633 375.573 251.453 375.114 251.45H350.133C348.411 251.448 346.761 250.763 345.543 249.545C344.325 248.328 343.64 246.677 343.638 244.955V236.59C343.629 235.734 343.791 234.886 344.114 234.093C344.437 233.301 344.915 232.582 345.52 231.977C346.125 231.372 346.845 230.894 347.637 230.57C348.429 230.247 349.278 230.085 350.133 230.094H375.076C375.932 230.085 376.78 230.247 377.572 230.57C378.365 230.894 379.084 231.372 379.689 231.977C380.294 232.582 380.772 233.301 381.096 234.093C381.419 234.886 381.581 235.734 381.572 236.59V238.307H376.803V236.59C376.788 236.126 376.598 235.686 376.27 235.358C375.942 235.03 375.501 234.839 375.038 234.825H350.133C349.67 234.839 349.229 235.03 348.902 235.358C348.574 235.686 348.383 236.126 348.369 236.59V244.955C348.381 245.415 348.573 245.851 348.902 246.172C349.232 246.493 349.674 246.672 350.133 246.672H375.076C376.799 246.672 378.451 247.356 379.669 248.574C380.887 249.792 381.572 251.445 381.572 253.167V261.532C381.581 262.388 381.419 263.237 381.096 264.029C380.772 264.821 380.294 265.541 379.689 266.145C379.084 266.75 378.365 267.229 377.572 267.552C376.78 267.875 375.932 268.037 375.076 268.028ZM344.201 260.34V261.532C344.192 262.319 344.34 263.1 344.637 263.828C344.934 264.556 345.373 265.218 345.93 265.775C346.486 266.331 347.148 266.77 347.876 267.067C348.605 267.364 349.385 267.512 350.172 267.503H375.114C375.901 267.512 376.681 267.364 377.41 267.067C378.138 266.77 378.8 266.331 379.356 265.775C379.913 265.218 380.352 264.556 380.649 263.828C380.946 263.1 381.094 262.319 381.085 261.532V253.167C381.083 251.585 380.453 250.067 379.334 248.948C378.214 247.829 376.697 247.199 375.114 247.196H350.133C349.535 247.194 348.961 246.959 348.534 246.54C348.107 246.122 347.859 245.553 347.844 244.955V236.59C347.852 235.985 348.095 235.407 348.523 234.979C348.951 234.552 349.529 234.308 350.133 234.301H375.076C375.681 234.308 376.259 234.552 376.687 234.979C377.114 235.407 377.358 235.985 377.365 236.59V237.753H381.047V236.561C381.056 235.774 380.908 234.994 380.611 234.266C380.314 233.537 379.874 232.875 379.318 232.319C378.762 231.763 378.1 231.323 377.372 231.026C376.643 230.729 375.863 230.581 375.076 230.59H350.133C349.347 230.581 348.566 230.729 347.838 231.026C347.109 231.323 346.448 231.763 345.891 232.319C345.335 232.875 344.896 233.537 344.599 234.266C344.302 234.994 344.153 235.774 344.162 236.561V244.926C344.162 246.51 344.791 248.029 345.911 249.148C347.031 250.268 348.55 250.897 350.133 250.897H375.076C375.674 250.9 376.248 251.135 376.676 251.553C377.103 251.972 377.35 252.541 377.365 253.139V261.504C377.358 262.109 377.114 262.687 376.687 263.114C376.259 263.542 375.681 263.786 375.076 263.793H350.133C349.529 263.786 348.951 263.542 348.523 263.114C348.095 262.687 347.852 262.109 347.844 261.504V260.312L344.201 260.34Z" fill="white"/>
<path d="M375.076 267.903H350.133C349.294 267.911 348.463 267.751 347.686 267.434C346.91 267.116 346.204 266.647 345.611 266.054C345.018 265.461 344.549 264.755 344.231 263.979C343.914 263.202 343.754 262.37 343.762 261.532V259.939H348.245V261.532C348.245 262.037 348.446 262.523 348.803 262.88C349.161 263.238 349.646 263.439 350.152 263.439H375.095C375.601 263.439 376.086 263.238 376.444 262.88C376.802 262.523 377.003 262.037 377.003 261.532V253.166C376.986 252.672 376.777 252.204 376.421 251.86C376.065 251.517 375.59 251.325 375.095 251.326H350.133C348.444 251.323 346.825 250.651 345.631 249.456C344.436 248.262 343.764 246.643 343.762 244.954V236.589C343.754 235.75 343.914 234.918 344.231 234.141C344.549 233.365 345.018 232.66 345.611 232.066C346.204 231.473 346.91 231.004 347.686 230.687C348.463 230.369 349.294 230.21 350.133 230.217H375.076C375.915 230.208 376.748 230.367 377.525 230.684C378.302 231.001 379.008 231.47 379.601 232.063C380.195 232.657 380.664 233.363 380.981 234.14C381.298 234.917 381.457 235.75 381.448 236.589V238.182H376.965V236.589C376.965 236.083 376.764 235.598 376.406 235.24C376.048 234.882 375.563 234.681 375.057 234.681H350.133C349.627 234.681 349.142 234.882 348.784 235.24C348.427 235.598 348.226 236.083 348.226 236.589V244.954C348.243 245.448 348.452 245.916 348.807 246.26C349.163 246.603 349.639 246.795 350.133 246.795H375.076C376.765 246.797 378.384 247.469 379.579 248.664C380.773 249.858 381.445 251.477 381.448 253.166V261.532C381.457 262.371 381.298 263.203 380.981 263.98C380.664 264.757 380.195 265.463 379.601 266.057C379.008 266.65 378.302 267.119 377.525 267.436C376.748 267.753 375.915 267.912 375.076 267.903ZM344.038 260.215V261.532C344.029 262.334 344.181 263.131 344.484 263.875C344.787 264.618 345.236 265.294 345.804 265.861C346.371 266.429 347.047 266.878 347.79 267.181C348.534 267.484 349.33 267.635 350.133 267.627H375.076C375.879 267.637 376.677 267.486 377.421 267.183C378.165 266.881 378.841 266.432 379.409 265.864C379.977 265.296 380.425 264.62 380.728 263.876C381.031 263.132 381.181 262.335 381.171 261.532V253.166C381.169 251.551 380.526 250.002 379.383 248.859C378.241 247.717 376.692 247.074 375.076 247.071H350.133C349.569 247.069 349.028 246.846 348.625 246.451C348.222 246.055 347.99 245.518 347.978 244.954V236.589C347.983 236.018 348.211 235.471 348.614 235.067C349.017 234.662 349.562 234.431 350.133 234.424H375.076C375.648 234.431 376.194 234.661 376.599 235.066C377.003 235.47 377.234 236.017 377.241 236.589V237.915H381.171V236.589C381.18 235.786 381.029 234.989 380.725 234.246C380.422 233.502 379.974 232.827 379.406 232.259C378.838 231.691 378.163 231.243 377.419 230.939C376.676 230.636 375.879 230.485 375.076 230.494H350.133C349.331 230.486 348.535 230.639 347.792 230.942C347.049 231.246 346.374 231.694 345.806 232.262C345.239 232.829 344.79 233.504 344.487 234.247C344.183 234.99 344.031 235.786 344.038 236.589V244.954C344.038 246.571 344.68 248.123 345.823 249.267C346.966 250.412 348.516 251.056 350.133 251.058H375.076C375.641 251.058 376.183 251.278 376.587 251.672C376.992 252.066 377.226 252.602 377.241 253.166V261.532C377.234 262.103 377.003 262.65 376.599 263.054C376.194 263.459 375.648 263.689 375.076 263.697H350.133C349.562 263.689 349.017 263.458 348.614 263.054C348.211 262.649 347.983 262.103 347.978 261.532V260.215H344.038Z" fill="white"/>
<path d="M375.076 268.161H350.134C349.256 268.177 348.384 268.018 347.57 267.691C346.755 267.364 346.015 266.877 345.392 266.259C344.769 265.641 344.277 264.904 343.945 264.092C343.612 263.279 343.446 262.409 343.457 261.531V259.691H348.464V261.541C348.469 261.97 348.641 262.381 348.944 262.686C349.247 262.99 349.657 263.165 350.086 263.172H375.029C375.459 263.165 375.87 262.99 376.174 262.686C376.478 262.382 376.652 261.971 376.66 261.541V253.176C376.647 252.752 376.47 252.351 376.165 252.057C375.86 251.762 375.452 251.599 375.029 251.602H350.134C348.363 251.602 346.665 250.899 345.412 249.646C344.16 248.394 343.457 246.696 343.457 244.925V236.56C343.446 235.683 343.612 234.812 343.945 234C344.277 233.188 344.769 232.451 345.392 231.832C346.015 231.214 346.755 230.727 347.57 230.401C348.384 230.074 349.256 229.914 350.134 229.931H375.076C375.953 229.916 376.825 230.076 377.638 230.403C378.452 230.73 379.192 231.217 379.815 231.835C380.437 232.453 380.93 233.19 381.262 234.001C381.595 234.813 381.762 235.683 381.753 236.56V238.468H376.746V236.56C376.738 236.131 376.564 235.721 376.259 235.418C375.955 235.116 375.544 234.943 375.115 234.938H350.134C349.705 234.943 349.296 235.116 348.992 235.419C348.689 235.722 348.517 236.132 348.512 236.56V244.925C348.524 245.347 348.701 245.747 349.004 246.041C349.306 246.335 349.712 246.499 350.134 246.499H375.076C376.847 246.499 378.545 247.202 379.798 248.455C381.05 249.707 381.753 251.405 381.753 253.176V261.541C381.761 262.417 381.593 263.286 381.26 264.097C380.926 264.907 380.434 265.642 379.811 266.259C379.189 266.876 378.449 267.363 377.636 267.689C376.823 268.016 375.953 268.176 375.076 268.161ZM344.296 260.473V261.531C344.288 262.3 344.434 263.063 344.725 263.774C345.016 264.486 345.445 265.133 345.989 265.676C346.532 266.22 347.179 266.649 347.891 266.94C348.602 267.231 349.365 267.377 350.134 267.369H375.076C375.845 267.377 376.608 267.231 377.319 266.94C378.031 266.649 378.678 266.22 379.221 265.676C379.765 265.133 380.194 264.486 380.485 263.774C380.776 263.063 380.921 262.3 380.914 261.531V253.166C380.911 251.619 380.295 250.136 379.201 249.041C378.107 247.947 376.624 247.331 375.076 247.329H350.134C349.5 247.327 348.892 247.077 348.44 246.633C347.987 246.19 347.726 245.587 347.711 244.954V236.589C347.721 235.949 347.979 235.339 348.431 234.886C348.884 234.434 349.494 234.176 350.134 234.166H375.076C375.716 234.176 376.326 234.434 376.779 234.886C377.231 235.339 377.489 235.949 377.499 236.589V237.647H380.914V236.589C380.928 235.819 380.787 235.054 380.498 234.339C380.21 233.625 379.78 232.977 379.235 232.432C378.69 231.888 378.041 231.46 377.326 231.173C376.612 230.885 375.846 230.745 375.076 230.761H350.134C349.364 230.745 348.598 230.885 347.884 231.173C347.169 231.46 346.52 231.888 345.975 232.432C345.43 232.977 345 233.625 344.712 234.339C344.423 235.054 344.282 235.819 344.296 236.589V244.954C344.299 246.501 344.914 247.985 346.009 249.079C347.103 250.173 348.586 250.789 350.134 250.791H375.076C375.71 250.794 376.318 251.043 376.77 251.487C377.223 251.93 377.484 252.533 377.499 253.166V261.531C377.492 262.172 377.234 262.784 376.781 263.236C376.329 263.689 375.717 263.947 375.076 263.954H350.134C349.493 263.947 348.881 263.689 348.429 263.236C347.976 262.784 347.718 262.172 347.711 261.531V260.473H344.296Z" fill="white"/>
<path d="M428.91 234.566H398.979V246.966H423.035V251.229H398.979V263.629H428.91V267.845H394.754V230.359H428.891L428.91 234.566Z" fill="white"/>
<path d="M429.168 268.026H394.515V230.121H429.168V234.89H399.246V246.737H423.302V251.506H399.246V263.353H429.168V268.026ZM395.04 267.502H428.644V263.82H398.722V250.924H422.777V247.195H398.722V234.299H428.644V230.617H395.04V267.502Z" fill="white"/>
<path d="M429.092 267.903H394.639V230.217H429.092V234.7H399.122V246.794H423.178V251.325H399.122V263.42H429.092V267.903ZM394.964 267.626H428.825V263.696H398.846V251.106H422.902V247.119H398.846V234.423H428.777V230.493H394.916L394.964 267.626Z" fill="white"/>
<path d="M429.311 268.16H394.372V229.959H429.311V234.967H399.38V246.527H423.436V251.592H399.38V263.162H429.311V268.16ZM395.174 267.368H428.51V263.954H398.569V250.791H422.634V247.29H398.569V234.127H428.501V230.722H395.174V267.368Z" fill="white"/>
<path d="M448.502 234.566C447.969 234.576 447.461 234.792 447.083 235.169C446.706 235.546 446.49 236.055 446.48 236.588V261.531C446.49 262.064 446.706 262.573 447.083 262.95C447.461 263.327 447.969 263.543 448.502 263.553H479.578V267.769H448.502C447.682 267.775 446.868 267.618 446.109 267.307C445.35 266.996 444.66 266.536 444.081 265.955C443.501 265.375 443.043 264.685 442.732 263.925C442.422 263.165 442.266 262.351 442.274 261.531V236.588C442.268 235.768 442.424 234.956 442.735 234.197C443.046 233.439 443.504 232.749 444.084 232.17C444.664 231.59 445.353 231.132 446.111 230.821C446.87 230.51 447.683 230.353 448.502 230.36H479.578V234.566H448.502Z" fill="white"/>
<path d="M479.836 268.028H448.503C447.647 268.037 446.798 267.875 446.006 267.552C445.214 267.229 444.495 266.75 443.89 266.145C443.285 265.541 442.806 264.821 442.483 264.029C442.16 263.237 441.998 262.388 442.007 261.532V236.59C441.998 235.734 442.16 234.886 442.483 234.093C442.806 233.301 443.285 232.582 443.89 231.977C444.495 231.372 445.214 230.894 446.006 230.57C446.798 230.247 447.647 230.085 448.503 230.094H479.836V234.863H448.503C448.039 234.878 447.599 235.068 447.271 235.396C446.943 235.724 446.752 236.164 446.738 236.628V261.571C446.752 262.034 446.943 262.475 447.271 262.802C447.599 263.13 448.039 263.321 448.503 263.335H479.836V268.028ZM448.503 230.619C447.716 230.61 446.936 230.758 446.207 231.055C445.479 231.352 444.817 231.791 444.26 232.348C443.704 232.904 443.265 233.566 442.968 234.294C442.671 235.023 442.523 235.803 442.532 236.59V261.532C442.523 262.319 442.671 263.1 442.968 263.828C443.265 264.556 443.704 265.218 444.26 265.775C444.817 266.331 445.479 266.77 446.207 267.067C446.936 267.364 447.716 267.512 448.503 267.503H479.311V263.822H448.503C447.898 263.814 447.32 263.571 446.892 263.143C446.464 262.715 446.221 262.137 446.213 261.532V236.59C446.221 235.985 446.464 235.407 446.892 234.979C447.32 234.552 447.898 234.308 448.503 234.301H479.311V230.619H448.503Z" fill="white"/>
<path d="M479.712 267.903H448.502C447.664 267.911 446.832 267.751 446.055 267.434C445.279 267.116 444.573 266.647 443.98 266.054C443.387 265.461 442.918 264.755 442.6 263.979C442.283 263.202 442.123 262.37 442.131 261.531V236.589C442.123 235.75 442.283 234.918 442.6 234.141C442.918 233.365 443.387 232.659 443.98 232.066C444.573 231.473 445.279 231.004 446.055 230.686C446.832 230.369 447.664 230.209 448.502 230.217H479.712V234.7H448.502C447.997 234.7 447.511 234.901 447.154 235.259C446.796 235.617 446.595 236.102 446.595 236.608V261.551C446.595 262.056 446.796 262.542 447.154 262.899C447.511 263.257 447.997 263.458 448.502 263.458H479.712V267.903ZM448.502 230.494C447.7 230.486 446.904 230.638 446.161 230.942C445.418 231.246 444.743 231.694 444.176 232.262C443.608 232.829 443.16 233.504 442.856 234.247C442.552 234.99 442.4 235.786 442.408 236.589V261.531C442.399 262.334 442.55 263.131 442.853 263.874C443.156 264.618 443.605 265.293 444.173 265.861C444.741 266.429 445.416 266.878 446.16 267.181C446.903 267.484 447.7 267.635 448.502 267.626H479.435V263.697H448.502C447.931 263.689 447.386 263.458 446.983 263.054C446.58 262.649 446.352 262.103 446.347 261.531V236.589C446.352 236.018 446.58 235.471 446.983 235.066C447.386 234.662 447.931 234.431 448.502 234.423H479.435V230.494H448.502Z" fill="white"/>
<path d="M479.969 268.159H448.493C447.615 268.176 446.744 268.016 445.929 267.69C445.115 267.363 444.374 266.876 443.751 266.258C443.129 265.639 442.636 264.902 442.304 264.09C441.971 263.278 441.806 262.408 441.816 261.53V236.587C441.806 235.71 441.971 234.839 442.304 234.027C442.636 233.215 443.129 232.478 443.751 231.86C444.374 231.241 445.115 230.755 445.929 230.428C446.744 230.101 447.615 229.942 448.493 229.958H479.969V234.966H448.493C448.064 234.971 447.655 235.143 447.352 235.446C447.049 235.749 446.876 236.159 446.871 236.587V261.53C446.876 261.96 447.048 262.37 447.351 262.675C447.654 262.979 448.063 263.154 448.493 263.161H479.969V268.159ZM448.493 230.759C447.723 230.744 446.957 230.884 446.243 231.171C445.528 231.458 444.879 231.887 444.334 232.431C443.789 232.975 443.359 233.624 443.071 234.338C442.782 235.052 442.641 235.817 442.655 236.587V261.53C442.648 262.299 442.793 263.061 443.084 263.773C443.375 264.485 443.804 265.131 444.348 265.675C444.892 266.218 445.538 266.648 446.25 266.939C446.961 267.229 447.724 267.375 448.493 267.368H479.168V263.953H448.502C447.862 263.945 447.25 263.688 446.797 263.235C446.345 262.782 446.087 262.17 446.079 261.53V236.587C446.089 235.948 446.348 235.337 446.8 234.885C447.252 234.433 447.863 234.174 448.502 234.165H479.178V230.759H448.493Z" fill="white"/>
<path d="M525.877 230.359H530.084V261.531C530.09 262.352 529.933 263.166 529.622 263.925C529.311 264.685 528.851 265.375 528.271 265.956C527.69 266.536 527 266.996 526.241 267.307C525.481 267.618 524.667 267.775 523.846 267.769H498.913C498.092 267.775 497.278 267.618 496.518 267.307C495.758 266.996 495.068 266.536 494.487 265.956C493.907 265.375 493.448 264.685 493.136 263.925C492.825 263.166 492.668 262.352 492.675 261.531V230.359H496.881V261.531C496.891 262.066 497.108 262.576 497.487 262.953C497.867 263.33 498.378 263.545 498.913 263.553H523.846C524.381 263.545 524.892 263.33 525.271 262.953C525.65 262.576 525.868 262.066 525.877 261.531V230.359Z" fill="white"/>
<path d="M523.846 268.026H498.913C498.056 268.037 497.207 267.876 496.414 267.553C495.62 267.23 494.9 266.752 494.294 266.147C493.688 265.542 493.209 264.822 492.885 264.029C492.561 263.237 492.399 262.387 492.408 261.531V230.121H497.177V261.598C497.189 262.062 497.379 262.504 497.707 262.832C498.035 263.16 498.477 263.35 498.941 263.362H523.875C524.339 263.35 524.781 263.16 525.109 262.832C525.437 262.504 525.627 262.062 525.639 261.598V230.121H530.408V261.598C530.408 262.453 530.238 263.3 529.907 264.089C529.575 264.878 529.09 265.593 528.478 266.191C527.867 266.79 527.143 267.261 526.347 267.576C525.552 267.891 524.701 268.044 523.846 268.026ZM492.942 230.617V261.531C492.933 262.317 493.081 263.098 493.378 263.826C493.675 264.555 494.114 265.217 494.671 265.773C495.227 266.329 495.889 266.769 496.617 267.066C497.346 267.362 498.126 267.511 498.913 267.502H523.846C524.633 267.511 525.413 267.362 526.141 267.066C526.87 266.769 527.532 266.329 528.088 265.773C528.644 265.217 529.084 264.555 529.381 263.826C529.678 263.098 529.826 262.317 529.817 261.531V230.617H526.135V261.531C526.128 262.136 525.884 262.714 525.456 263.141C525.029 263.569 524.451 263.813 523.846 263.82H498.913C498.307 263.813 497.728 263.569 497.299 263.142C496.87 262.715 496.624 262.137 496.614 261.531V230.617H492.942Z" fill="white"/>
<path d="M523.846 267.903H498.912C498.073 267.912 497.241 267.753 496.464 267.436C495.687 267.119 494.981 266.65 494.387 266.056C493.794 265.463 493.325 264.757 493.008 263.98C492.691 263.203 492.532 262.37 492.541 261.531V230.217H497.014V261.531C497.014 262.037 497.215 262.522 497.573 262.88C497.931 263.238 498.416 263.439 498.922 263.439H523.855C524.361 263.439 524.846 263.238 525.204 262.88C525.562 262.522 525.763 262.037 525.763 261.531V230.217H530.198V261.531C530.207 262.369 530.049 263.2 529.733 263.976C529.417 264.751 528.95 265.456 528.359 266.05C527.767 266.643 527.064 267.112 526.289 267.43C525.514 267.749 524.683 267.909 523.846 267.903ZM492.808 230.493V261.531C492.799 262.335 492.951 263.132 493.255 263.876C493.558 264.621 494.008 265.296 494.577 265.864C495.145 266.432 495.822 266.881 496.567 267.183C497.311 267.486 498.109 267.636 498.912 267.626H523.846C524.649 267.636 525.447 267.486 526.192 267.183C526.936 266.881 527.613 266.432 528.182 265.864C528.75 265.296 529.2 264.621 529.504 263.876C529.807 263.132 529.959 262.335 529.95 261.531V230.493H526.011V261.531C526.003 262.103 525.773 262.65 525.369 263.054C524.964 263.458 524.418 263.689 523.846 263.696H498.912C498.341 263.689 497.794 263.458 497.39 263.054C496.985 262.65 496.755 262.103 496.747 261.531V230.493H492.808Z" fill="white"/>
<path d="M523.846 268.16H498.913C498.036 268.175 497.164 268.015 496.35 267.688C495.537 267.361 494.797 266.874 494.174 266.256C493.552 265.638 493.059 264.901 492.726 264.09C492.393 263.278 492.227 262.408 492.236 261.531V229.959H497.243V261.531C497.255 261.96 497.431 262.368 497.734 262.671C498.038 262.974 498.446 263.15 498.874 263.162H523.808C524.238 263.155 524.648 262.98 524.953 262.676C525.257 262.372 525.431 261.961 525.439 261.531V229.959H530.446V261.531C530.455 262.402 530.291 263.265 529.963 264.072C529.634 264.878 529.149 265.611 528.535 266.228C527.92 266.845 527.189 267.334 526.384 267.665C525.579 267.997 524.716 268.165 523.846 268.16ZM493.075 230.76V261.531C493.066 262.3 493.211 263.063 493.501 263.775C493.791 264.488 494.221 265.135 494.765 265.679C495.309 266.222 495.956 266.652 496.668 266.942C497.38 267.232 498.143 267.377 498.913 267.368H523.846C524.614 267.376 525.377 267.23 526.089 266.94C526.8 266.649 527.447 266.219 527.991 265.676C528.534 265.132 528.964 264.486 529.254 263.774C529.545 263.062 529.691 262.3 529.683 261.531V230.76H526.269V261.531C526.261 262.171 526.003 262.783 525.551 263.236C525.098 263.689 524.486 263.946 523.846 263.954H498.913C498.271 263.946 497.658 263.689 497.204 263.236C496.75 262.784 496.49 262.172 496.48 261.531V230.76H493.075Z" fill="white"/>
<path d="M580.952 247.606C580.956 248.425 580.797 249.237 580.486 249.995C580.174 250.753 579.716 251.442 579.137 252.022C578.558 252.602 577.87 253.061 577.112 253.374C576.355 253.687 575.543 253.846 574.723 253.844H569L580.752 267.77H575.191L563.497 253.844H549.781C549.103 253.813 548.428 253.743 547.758 253.634V267.77H543.552V230.408H574.733C575.552 230.406 576.364 230.565 577.122 230.878C577.879 231.191 578.567 231.65 579.146 232.23C579.725 232.81 580.184 233.499 580.495 234.257C580.807 235.015 580.965 235.827 580.961 236.646L580.952 247.606ZM574.723 249.58C574.983 249.58 575.239 249.529 575.479 249.43C575.718 249.331 575.936 249.185 576.119 249.002C576.303 248.819 576.448 248.601 576.547 248.361C576.647 248.122 576.698 247.865 576.698 247.606V236.646C576.7 236.117 576.495 235.607 576.126 235.227C575.757 234.847 575.253 234.627 574.723 234.615H549.781C549.246 234.625 548.736 234.842 548.358 235.221C547.981 235.6 547.766 236.111 547.758 236.646V247.606C547.771 248.134 547.989 248.636 548.367 249.005C548.745 249.374 549.252 249.58 549.781 249.58H574.723Z" fill="white"/>
<path d="M581.314 268.026H575.029L563.335 254.101H549.781C549.189 254.081 548.6 254.024 548.016 253.929V268.026H543.247V230.121H574.723C576.445 230.124 578.096 230.809 579.314 232.026C580.531 233.244 581.216 234.895 581.219 236.617V247.576C581.216 249.298 580.531 250.949 579.314 252.167C578.096 253.384 576.445 254.069 574.723 254.072H569.573L581.314 268.026ZM575.315 267.502H580.189L568.438 253.576H574.723C576.306 253.573 577.823 252.943 578.943 251.824C580.062 250.705 580.692 249.188 580.694 247.605V236.645C580.694 235.062 580.065 233.543 578.946 232.423C577.826 231.303 576.307 230.674 574.723 230.674H543.81V267.502H547.491V253.337L548.054 253.404C548.625 253.498 549.202 253.555 549.781 253.576H563.583L575.315 267.502ZM574.723 249.846H549.781C549.182 249.844 548.609 249.609 548.181 249.19C547.754 248.772 547.506 248.203 547.491 247.605V236.645C547.499 236.04 547.742 235.463 548.17 235.035C548.598 234.607 549.176 234.364 549.781 234.356H574.723C575.321 234.371 575.888 234.619 576.305 235.047C576.722 235.474 576.956 236.048 576.955 236.645V247.605C576.955 248.198 576.721 248.766 576.302 249.187C575.884 249.607 575.316 249.844 574.723 249.846ZM549.781 234.89C549.316 234.902 548.875 235.092 548.546 235.42C548.218 235.749 548.028 236.191 548.016 236.655V247.614C548.031 248.072 548.223 248.507 548.553 248.825C548.882 249.144 549.322 249.322 549.781 249.322H574.723C575.176 249.322 575.61 249.142 575.931 248.822C576.251 248.502 576.431 248.067 576.431 247.614V236.645C576.433 236.186 576.256 235.745 575.937 235.415C575.618 235.085 575.182 234.893 574.723 234.881L549.781 234.89Z" fill="white"/>
<path d="M581.047 267.904H575.124V267.856L563.43 253.969H549.781C549.183 253.944 548.588 253.887 547.997 253.797H547.892V267.914H543.409V230.275H574.723C576.412 230.278 578.032 230.95 579.226 232.144C580.42 233.339 581.092 234.958 581.095 236.647V247.607C581.092 249.296 580.42 250.915 579.226 252.109C578.032 253.304 576.412 253.976 574.723 253.978H569.306L581.047 267.904ZM575.257 267.628H580.456L568.714 253.702H574.723C576.339 253.699 577.888 253.056 579.03 251.914C580.173 250.771 580.816 249.222 580.818 247.607V236.647C580.818 235.03 580.177 233.478 579.034 232.334C577.891 231.189 576.341 230.545 574.723 230.542H543.686V267.628H547.625V253.482L548.035 253.53C548.613 253.624 549.196 253.681 549.781 253.702H563.583L575.257 267.628ZM574.723 249.715H549.781C549.217 249.715 548.676 249.494 548.273 249.1C547.87 248.706 547.637 248.17 547.625 247.607V236.647C547.63 236.076 547.858 235.53 548.261 235.125C548.664 234.72 549.21 234.489 549.781 234.482H574.723C575.288 234.497 575.824 234.731 576.217 235.136C576.611 235.54 576.832 236.083 576.831 236.647V247.607C576.831 247.883 576.777 248.157 576.671 248.413C576.565 248.669 576.41 248.901 576.214 249.097C576.018 249.293 575.786 249.448 575.53 249.554C575.274 249.66 575 249.715 574.723 249.715ZM549.781 234.758C549.275 234.758 548.789 234.959 548.432 235.317C548.074 235.675 547.873 236.16 547.873 236.666V247.626C547.89 248.12 548.099 248.588 548.455 248.932C548.811 249.275 549.286 249.467 549.781 249.467H574.723C575.211 249.464 575.678 249.269 576.022 248.925C576.367 248.58 576.562 248.113 576.564 247.626V236.647C576.565 236.152 576.373 235.677 576.029 235.321C575.686 234.965 575.218 234.757 574.723 234.739L549.781 234.758Z" fill="white"/>
<path d="M581.61 268.161H575.028L563.344 254.235H549.781C549.238 254.222 548.696 254.174 548.159 254.092V268.161H543.151V230.008H574.723C576.494 230.008 578.192 230.711 579.445 231.963C580.697 233.216 581.4 234.914 581.4 236.685V247.644C581.388 249.407 580.679 251.093 579.428 252.335C578.177 253.576 576.486 254.273 574.723 254.273H569.868L581.61 268.161ZM575.372 267.369H579.893L568.151 253.444H574.723C576.271 253.441 577.754 252.825 578.848 251.731C579.942 250.637 580.558 249.153 580.561 247.606V236.646C580.558 235.099 579.942 233.616 578.848 232.522C577.754 231.427 576.271 230.812 574.723 230.809H543.943V267.369H547.367V253.176L548.073 253.272C548.642 253.361 549.215 253.418 549.79 253.444H563.697L563.773 253.539L575.372 267.369ZM574.723 249.981H549.781C549.147 249.979 548.539 249.729 548.087 249.286C547.634 248.842 547.373 248.24 547.358 247.606V236.646C547.368 236.007 547.626 235.396 548.078 234.944C548.53 234.492 549.141 234.234 549.781 234.224H574.723C575.357 234.239 575.959 234.5 576.403 234.953C576.847 235.405 577.096 236.013 577.098 236.646V247.606C577.096 248.235 576.845 248.838 576.4 249.283C575.955 249.728 575.352 249.979 574.723 249.981ZM549.781 235.015C549.351 235.023 548.942 235.197 548.639 235.502C548.336 235.806 548.164 236.217 548.159 236.646V247.606C548.171 248.028 548.348 248.428 548.65 248.722C548.953 249.016 549.359 249.18 549.781 249.18H574.723C575.141 249.18 575.541 249.014 575.836 248.719C576.131 248.424 576.297 248.023 576.297 247.606V236.646C576.3 236.223 576.137 235.815 575.842 235.51C575.548 235.206 575.147 235.028 574.723 235.015H549.781Z" fill="white"/>
<path d="M594.315 230.359H598.522V267.769H594.315V230.359Z" fill="white"/>
<path d="M598.789 268.026H594.02V230.121H598.789V268.026ZM594.582 267.502H598.264V230.617H594.582V267.502Z" fill="white"/>
<path d="M598.665 267.903H594.182V230.217H598.665V267.903ZM594.458 267.626H598.388V230.493H594.458V267.626Z" fill="white"/>
<path d="M598.922 268.16H593.915V229.959H598.922V268.16ZM594.716 267.368H598.13V230.76H594.716V267.368Z" fill="white"/>
<path d="M649.027 230.359V234.566H632.459V267.769H628.243V234.566H611.618V230.359H649.027Z" fill="white"/>
<path d="M632.716 268.027H627.947V234.824H611.36V230.055H649.294V234.824H632.716V268.027ZM628.51 267.502H632.192V234.299H648.769V230.617H611.885V234.299H628.51V267.502Z" fill="white"/>
<path d="M632.592 267.903H628.11V234.7H611.484V230.217H649.17V234.7H632.592V267.903ZM628.386 267.626H632.316V234.423H648.894V230.493H611.761V234.423H628.386V267.626Z" fill="white"/>
<path d="M632.85 268.16H627.852V234.967H611.217V229.959H649.428V234.967H632.85V268.16ZM628.644 267.368H632.058V234.165H648.636V230.76H612.018V234.165H628.644V267.368Z" fill="white"/>
<path d="M697.301 230.359L680.132 253.681V267.769H675.925V253.681C670.365 246.05 664.394 237.99 658.756 230.359H663.592L678.043 248.644C682.554 242.826 687.81 236.178 692.35 230.359H697.301Z" fill="white"/>
<path d="M680.37 268.028H675.601V253.768C670.097 246.214 664.241 238.325 658.585 230.695L658.136 230.094H663.621L678.043 248.245C681.562 243.715 685.464 238.764 689.231 233.938L692.264 230.122H697.844L697.539 230.542L680.37 253.797V268.028ZM676.164 267.503H679.846V253.596L679.893 253.529L696.786 230.637H692.493L689.632 234.3C685.817 239.174 681.82 244.23 678.243 248.827L678.043 249.094L663.42 230.637H659.233C664.851 238.268 670.679 246.051 676.116 253.529L676.173 253.596L676.164 267.503Z" fill="white"/>
<path d="M680.246 267.904H675.763V253.73C670.25 246.157 664.374 238.24 658.699 230.59L658.432 230.218H663.602V230.275L677.995 248.398C681.534 243.839 685.464 238.86 689.269 234.005L692.264 230.189H697.539L697.377 230.409L680.208 253.701L680.246 267.904ZM676.03 267.627H679.95V253.644L696.986 230.533H692.388L689.489 234.205C685.673 239.089 681.677 244.135 678.109 248.732L678.005 248.866L677.89 248.732L663.44 230.495H658.966C664.632 238.125 670.498 246.042 676.001 253.606L676.03 267.627Z" fill="white"/>
<path d="M680.504 268.161H675.496V253.853C670.174 246.538 664.641 239.079 658.489 230.78L657.907 229.998H663.735L663.821 230.103L678.033 248.035C681.181 243.981 684.653 239.575 688.01 235.311L692.188 229.998H698.073L680.484 253.844L680.504 268.161ZM676.297 267.369H679.712V253.548V253.481L696.471 230.761H692.512L689.651 234.367C685.463 239.689 681.715 244.449 678.272 248.894L677.957 249.294L677.642 248.894L663.268 230.771H659.452C664.746 237.896 670.698 245.927 676.183 253.462V253.529V253.653L676.297 267.369Z" fill="white"/>
<path d="M732.411 230.303H736.618V263.553H769.811V267.769H732.411V230.303Z" fill="white"/>
<path d="M770.059 268.027H732.125V230.045H736.894V263.296H770.097L770.059 268.027ZM732.65 267.502H769.535V263.82H736.332V230.57H732.65V267.502Z" fill="white"/>
<path d="M769.935 267.904H732.249V230.17H736.732V263.421H769.935V267.904ZM732.526 267.627H769.658V263.697H736.455V230.437H732.526V267.627Z" fill="white"/>
<path d="M770.193 268.161H731.991V229.902H736.99V263.163H770.193V268.161ZM732.783 267.369H769.401V263.954H736.226V230.704H732.812L732.783 267.369Z" fill="white"/>
<path d="M814.851 234.566H784.92V246.966H808.975V251.229H784.92V263.629H814.851V267.845H780.713V230.359H814.851V234.566Z" fill="white"/>
<path d="M815.109 268.026H780.446V230.121H815.109V234.89H785.187V246.737H809.243V251.506H785.187V263.353H815.109V268.026ZM780.971 267.502H814.584V263.82H784.662V250.924H808.718V247.195H784.662V234.299H814.584V230.617H780.971V267.502Z" fill="white"/>
<path d="M814.985 267.903H780.58V230.217H814.985V234.7H785.053V246.794H809.119V251.325H785.053V263.42H814.985V267.903ZM780.847 267.626H814.708V263.696H784.786V251.106H808.842V247.119H784.786V234.423H814.708V230.493H780.847V267.626Z" fill="white"/>
<path d="M815.252 268.16H780.313V229.959H815.252V234.967H785.321V246.527H809.376V251.592H785.321V263.162H815.252V268.16ZM781.114 267.368H814.498V263.954H784.519V250.791H808.575V247.29H784.519V234.127H814.441V230.722H781.057L781.114 267.368Z" fill="white"/>
<path d="M859.481 230.36C860.301 230.352 861.115 230.508 861.875 230.818C862.635 231.128 863.325 231.587 863.906 232.166C864.486 232.746 864.946 233.436 865.257 234.195C865.568 234.954 865.725 235.768 865.719 236.588V267.769H861.513V254.101H832.564V267.769H828.357V236.588C828.351 235.768 828.508 234.954 828.819 234.195C829.131 233.436 829.59 232.746 830.171 232.166C830.751 231.587 831.442 231.128 832.201 230.818C832.961 230.508 833.775 230.352 834.595 230.36H859.481ZM861.513 249.894V236.54C861.503 236.006 861.285 235.496 860.906 235.118C860.527 234.741 860.016 234.526 859.481 234.518H834.548C834.013 234.526 833.502 234.741 833.123 235.118C832.743 235.496 832.526 236.006 832.516 236.54V249.894H861.513Z" fill="white"/>
<path d="M865.948 268.027H861.179V254.368H832.783V268.027H828.014V236.551C828.005 235.694 828.167 234.845 828.491 234.052C828.815 233.259 829.294 232.539 829.9 231.934C830.506 231.329 831.227 230.851 832.02 230.529C832.813 230.206 833.663 230.045 834.519 230.055H859.452C860.309 230.045 861.158 230.206 861.952 230.529C862.745 230.851 863.466 231.329 864.072 231.934C864.678 232.539 865.157 233.259 865.48 234.052C865.804 234.845 865.967 235.694 865.958 236.551L865.948 268.027ZM861.732 267.503H865.423V236.589C865.431 235.802 865.282 235.021 864.984 234.293C864.686 233.564 864.245 232.902 863.688 232.346C863.131 231.79 862.469 231.351 861.74 231.054C861.011 230.757 860.23 230.609 859.443 230.618H834.548C833.761 230.609 832.981 230.757 832.252 231.054C831.524 231.351 830.862 231.791 830.306 232.347C829.75 232.903 829.31 233.565 829.013 234.293C828.716 235.022 828.568 235.802 828.577 236.589V267.503H832.259V253.844H861.77L861.732 267.503ZM861.732 250.152H832.259V236.589C832.266 235.984 832.51 235.406 832.937 234.978C833.365 234.551 833.943 234.307 834.548 234.3H859.481C860.086 234.307 860.664 234.551 861.092 234.978C861.519 235.406 861.763 235.984 861.77 236.589L861.732 250.152ZM832.745 249.628H861.208V236.589C861.195 236.125 861.006 235.683 860.677 235.355C860.349 235.026 859.907 234.836 859.443 234.824H834.548C834.084 234.836 833.642 235.026 833.313 235.355C832.985 235.683 832.795 236.125 832.783 236.589L832.745 249.628Z" fill="white"/>
<path d="M865.862 267.903H861.379V254.235H832.659V267.903H828.176V236.589C828.167 235.75 828.326 234.917 828.643 234.14C828.96 233.363 829.429 232.657 830.023 232.063C830.616 231.47 831.322 231.001 832.099 230.684C832.876 230.367 833.709 230.208 834.548 230.217H859.481C860.321 230.208 861.154 230.367 861.931 230.684C862.709 231.001 863.416 231.47 864.01 232.063C864.604 232.656 865.074 233.362 865.392 234.139C865.71 234.916 865.87 235.749 865.862 236.589V267.903ZM861.646 267.627H865.586V236.589C865.593 235.785 865.441 234.989 865.136 234.245C864.832 233.501 864.383 232.826 863.814 232.258C863.246 231.691 862.57 231.242 861.826 230.939C861.082 230.636 860.285 230.485 859.481 230.494H834.548C833.745 230.485 832.948 230.636 832.204 230.939C831.46 231.242 830.783 231.691 830.215 232.258C829.646 232.826 829.197 233.501 828.893 234.245C828.589 234.989 828.436 235.785 828.443 236.589V267.627H832.383V253.968H861.646V267.627ZM861.646 250.028H832.383V236.589C832.39 236.017 832.621 235.47 833.025 235.066C833.43 234.661 833.976 234.431 834.548 234.424H859.481C860.053 234.431 860.6 234.661 861.004 235.066C861.408 235.47 861.639 236.017 861.646 236.589V250.028ZM832.659 249.761H861.379V236.589C861.379 236.083 861.178 235.598 860.821 235.24C860.463 234.882 859.978 234.681 859.472 234.681H834.548C834.042 234.681 833.557 234.882 833.199 235.24C832.841 235.598 832.64 236.083 832.64 236.589L832.659 249.761Z" fill="white"/>
<path d="M866.12 268.161H861.112V254.502H832.917V268.161H827.909V236.589C827.9 235.712 828.067 234.842 828.4 234.031C828.733 233.219 829.225 232.482 829.847 231.864C830.47 231.246 831.21 230.76 832.024 230.432C832.838 230.105 833.709 229.945 834.586 229.96H859.519C860.396 229.945 861.267 230.105 862.081 230.432C862.895 230.76 863.635 231.246 864.258 231.864C864.88 232.482 865.372 233.219 865.705 234.031C866.038 234.842 866.205 235.712 866.196 236.589L866.12 268.161ZM861.913 267.369H865.318V236.589C865.333 235.819 865.191 235.054 864.903 234.34C864.615 233.626 864.185 232.977 863.64 232.433C863.095 231.889 862.446 231.46 861.731 231.173C861.016 230.886 860.251 230.746 859.481 230.761H834.548C833.778 230.746 833.012 230.886 832.298 231.173C831.583 231.46 830.934 231.889 830.389 232.433C829.844 232.977 829.414 233.626 829.126 234.34C828.837 235.054 828.696 235.819 828.71 236.589V267.369H832.125V253.701H861.913V267.369ZM861.913 250.296H832.125V236.589C832.135 235.95 832.393 235.339 832.845 234.887C833.298 234.435 833.908 234.176 834.548 234.166H859.481C860.121 234.176 860.733 234.434 861.187 234.886C861.64 235.338 861.901 235.949 861.913 236.589V250.296ZM832.917 249.495H861.112V236.589C861.105 236.16 860.93 235.75 860.626 235.447C860.321 235.145 859.91 234.973 859.481 234.968H834.548C834.118 234.973 833.708 235.145 833.403 235.447C833.099 235.75 832.924 236.16 832.917 236.589V249.495Z" fill="white"/>
<path d="M910.721 230.36C911.542 230.352 912.355 230.508 913.115 230.818C913.875 231.128 914.565 231.587 915.146 232.166C915.726 232.746 916.186 233.436 916.497 234.195C916.809 234.954 916.966 235.768 916.959 236.588V261.531C916.966 262.352 916.809 263.166 916.497 263.926C916.186 264.685 915.727 265.376 915.146 265.956C914.566 266.537 913.875 266.996 913.116 267.307C912.356 267.618 911.542 267.775 910.721 267.769H879.55V230.36H910.721ZM912.753 236.588C912.743 236.053 912.525 235.543 912.146 235.166C911.767 234.788 911.256 234.573 910.721 234.566H885.788C885.253 234.573 884.742 234.788 884.363 235.166C883.984 235.543 883.766 236.053 883.756 236.588V261.531C883.766 262.066 883.984 262.576 884.363 262.953C884.742 263.331 885.253 263.546 885.788 263.553H910.721C911.256 263.546 911.767 263.331 912.146 262.953C912.525 262.576 912.743 262.066 912.753 261.531V236.588Z" fill="white"/>
<path d="M910.721 268.027H879.245V230.122H910.721C911.577 230.111 912.427 230.272 913.22 230.595C914.014 230.918 914.734 231.396 915.34 232.001C915.946 232.606 916.425 233.326 916.749 234.119C917.073 234.911 917.235 235.761 917.226 236.617V261.56C917.231 262.414 917.066 263.26 916.741 264.05C916.415 264.839 915.936 265.556 915.33 266.158C914.724 266.76 914.005 267.235 913.214 267.556C912.422 267.877 911.575 268.037 910.721 268.027ZM879.807 267.502H910.721C911.508 267.511 912.289 267.363 913.018 267.066C913.747 266.769 914.41 266.33 914.967 265.774C915.524 265.218 915.964 264.556 916.262 263.828C916.56 263.099 916.709 262.318 916.702 261.531V236.589C916.709 235.801 916.56 235.021 916.262 234.292C915.964 233.564 915.524 232.902 914.967 232.346C914.41 231.79 913.747 231.35 913.018 231.054C912.289 230.757 911.508 230.609 910.721 230.618H879.807V267.502ZM910.721 263.821H885.788C885.183 263.813 884.605 263.57 884.177 263.142C883.75 262.714 883.506 262.136 883.499 261.531V236.589C883.506 235.984 883.75 235.406 884.177 234.978C884.605 234.55 885.183 234.307 885.788 234.299H910.721C911.326 234.307 911.904 234.55 912.332 234.978C912.759 235.406 913.003 235.984 913.01 236.589V261.531C913.003 262.136 912.759 262.714 912.332 263.142C911.904 263.57 911.326 263.813 910.721 263.821ZM885.788 234.824C885.324 234.836 884.882 235.026 884.554 235.354C884.225 235.683 884.035 236.124 884.023 236.589V261.531C884.035 261.996 884.225 262.437 884.554 262.766C884.882 263.094 885.324 263.284 885.788 263.296H910.721C911.185 263.284 911.627 263.094 911.956 262.766C912.284 262.437 912.474 261.996 912.486 261.531V236.589C912.474 236.124 912.284 235.683 911.956 235.354C911.627 235.026 911.185 234.836 910.721 234.824H885.788Z" fill="white"/>
<path d="M910.721 267.903H879.416V230.217H910.721C911.56 230.208 912.393 230.367 913.17 230.684C913.947 231.001 914.653 231.47 915.246 232.063C915.84 232.657 916.309 233.363 916.626 234.14C916.943 234.917 917.102 235.75 917.093 236.589V261.532C917.102 262.371 916.943 263.203 916.626 263.98C916.309 264.757 915.84 265.463 915.246 266.057C914.653 266.65 913.947 267.119 913.17 267.436C912.393 267.753 911.56 267.912 910.721 267.903ZM879.683 267.627H910.721C911.525 267.637 912.322 267.486 913.067 267.184C913.812 266.881 914.488 266.433 915.057 265.865C915.626 265.297 916.075 264.621 916.379 263.877C916.683 263.133 916.835 262.335 916.826 261.532V236.589C916.833 235.785 916.681 234.989 916.376 234.245C916.072 233.501 915.623 232.826 915.054 232.258C914.486 231.691 913.81 231.242 913.065 230.939C912.321 230.636 911.524 230.485 910.721 230.494H879.683V267.627ZM910.721 263.697H885.788C885.216 263.689 884.67 263.459 884.265 263.054C883.861 262.65 883.63 262.103 883.623 261.532V236.589C883.63 236.017 883.861 235.47 884.265 235.066C884.67 234.661 885.216 234.431 885.788 234.424H910.721C911.293 234.431 911.839 234.661 912.244 235.066C912.648 235.47 912.879 236.017 912.886 236.589V261.532C912.879 262.103 912.648 262.65 912.244 263.054C911.839 263.459 911.293 263.689 910.721 263.697ZM885.788 234.7C885.282 234.7 884.797 234.901 884.439 235.259C884.081 235.617 883.88 236.102 883.88 236.608V261.551C883.88 262.057 884.081 262.542 884.439 262.9C884.797 263.257 885.282 263.458 885.788 263.458H910.721C911.227 263.458 911.712 263.257 912.07 262.9C912.428 262.542 912.629 262.057 912.629 261.551V236.589C912.629 236.083 912.428 235.598 912.07 235.24C911.712 234.882 911.227 234.681 910.721 234.681L885.788 234.7Z" fill="white"/>
<path d="M910.721 268.161H879.149V229.96H910.721C911.598 229.945 912.469 230.105 913.283 230.432C914.097 230.76 914.837 231.246 915.46 231.864C916.082 232.482 916.574 233.219 916.907 234.031C917.24 234.842 917.407 235.712 917.398 236.589V261.532C917.407 262.409 917.24 263.279 916.907 264.091C916.574 264.902 916.082 265.639 915.46 266.257C914.837 266.875 914.097 267.362 913.283 267.689C912.469 268.016 911.598 268.176 910.721 268.161ZM879.95 267.369H910.721C911.49 267.377 912.252 267.231 912.964 266.941C913.676 266.65 914.322 266.22 914.866 265.677C915.409 265.133 915.839 264.487 916.13 263.775C916.42 263.063 916.566 262.301 916.559 261.532V236.589C916.573 235.819 916.431 235.054 916.143 234.34C915.855 233.626 915.425 232.977 914.88 232.433C914.335 231.889 913.686 231.46 912.971 231.173C912.256 230.886 911.491 230.746 910.721 230.761H879.95V267.369ZM910.721 263.955H885.788C885.147 263.947 884.534 263.69 884.079 263.237C883.625 262.785 883.365 262.173 883.356 261.532V236.589C883.368 235.949 883.628 235.338 884.082 234.886C884.536 234.434 885.147 234.176 885.788 234.166H910.721C911.361 234.176 911.973 234.434 912.427 234.886C912.881 235.338 913.141 235.949 913.153 236.589V261.532C913.143 262.173 912.884 262.785 912.429 263.237C911.975 263.69 911.362 263.947 910.721 263.955ZM885.788 234.968C885.358 234.973 884.948 235.145 884.643 235.447C884.339 235.75 884.164 236.16 884.157 236.589V261.532C884.164 261.962 884.338 262.373 884.643 262.677C884.947 262.981 885.358 263.156 885.788 263.163H910.721C911.151 263.156 911.562 262.981 911.866 262.677C912.171 262.373 912.345 261.962 912.352 261.532V236.589C912.345 236.16 912.17 235.75 911.866 235.447C911.561 235.145 911.15 234.973 910.721 234.968H885.788Z" fill="white"/>
<path d="M964.813 234.566H934.891V246.966H958.947V251.229H934.891V263.629H964.813V267.845H930.685V230.359H964.813V234.566Z" fill="white"/>
<path d="M965.08 268.026H930.418V230.121H965.08V234.89H935.149V246.737H959.204V251.506H935.149V263.353H965.08V268.026ZM930.942 267.502H964.555V263.82H934.624V250.924H958.68V247.195H934.624V234.299H964.555V230.617H930.942V267.502Z" fill="white"/>
<path d="M964.956 267.903H930.542V230.217H964.956V234.7H935.025V246.794H959.081V251.325H935.025V263.42H964.956V267.903ZM930.818 267.626H964.68V263.696H934.758V251.106H958.813V247.119H934.758V234.423H964.68V230.493H930.809L930.818 267.626Z" fill="white"/>
<path d="M965.214 268.16H930.284V229.959H965.214V234.967H935.292V246.527H959.348V251.592H935.292V263.162H965.214V268.16ZM931.076 267.368H964.46V263.954H934.529V250.791H958.584V247.29H934.529V234.127H964.46V230.722H931.076V267.368Z" fill="white"/>
<path d="M1015.54 247.606C1015.54 248.426 1015.38 249.238 1015.07 249.996C1014.76 250.754 1014.3 251.443 1013.72 252.022C1013.14 252.602 1012.45 253.062 1011.69 253.374C1010.93 253.687 1010.12 253.846 1009.3 253.844H1003.58L1015.32 267.77H1009.76L998.064 253.844H984.347C983.67 253.813 982.995 253.743 982.325 253.634V267.77H978.119V230.408H1009.29C1010.11 230.406 1010.92 230.565 1011.68 230.878C1012.44 231.191 1013.13 231.65 1013.71 232.23C1014.29 232.809 1014.75 233.498 1015.06 234.256C1015.37 235.014 1015.53 235.826 1015.53 236.646L1015.54 247.606ZM1009.3 249.58C1009.82 249.58 1010.33 249.372 1010.7 249.002C1011.07 248.632 1011.27 248.13 1011.27 247.606V236.646C1011.28 236.117 1011.07 235.607 1010.7 235.227C1010.33 234.847 1009.83 234.627 1009.3 234.615H984.357C983.822 234.625 983.312 234.842 982.935 235.221C982.557 235.6 982.342 236.111 982.335 236.646V247.606C982.347 248.134 982.566 248.636 982.944 249.005C983.322 249.374 983.829 249.58 984.357 249.58H1009.3Z" fill="white"/>
<path d="M1015.89 268.026H1009.64L997.959 254.101H984.357C983.769 254.082 983.183 254.024 982.602 253.929V268.026H977.833V230.121H1009.31C1011.03 230.121 1012.68 230.805 1013.9 232.024C1015.12 233.242 1015.81 234.894 1015.81 236.617V247.576C1015.81 249.299 1015.12 250.951 1013.9 252.169C1012.68 253.388 1011.03 254.072 1009.31 254.072H1004.16L1015.89 268.026ZM1009.89 267.502H1014.75L1003 253.576H1009.28C1010.86 253.573 1012.38 252.943 1013.5 251.824C1014.62 250.705 1015.25 249.188 1015.25 247.605V236.645C1015.25 235.062 1014.62 233.543 1013.5 232.423C1012.38 231.303 1010.86 230.674 1009.28 230.674H978.367V267.502H982.058V253.337L982.593 253.404C983.171 253.494 983.754 253.551 984.338 253.576H998.178L1009.89 267.502ZM1009.3 249.846H984.357C983.76 249.844 983.187 249.608 982.761 249.19C982.335 248.771 982.09 248.202 982.078 247.605V236.645C982.082 236.041 982.324 235.463 982.75 235.035C983.176 234.607 983.753 234.364 984.357 234.356H1009.3C1009.9 234.371 1010.47 234.618 1010.89 235.046C1011.3 235.473 1011.54 236.047 1011.54 236.645V247.605C1011.54 248.199 1011.3 248.767 1010.88 249.187C1010.46 249.607 1009.89 249.844 1009.3 249.846ZM984.357 234.89C983.894 234.902 983.453 235.093 983.126 235.421C982.799 235.75 982.612 236.192 982.602 236.655V247.614C982.615 248.072 982.805 248.506 983.133 248.825C983.461 249.144 983.9 249.322 984.357 249.322H1009.3C1009.75 249.322 1010.19 249.142 1010.51 248.822C1010.83 248.502 1011.01 248.067 1011.01 247.614V236.645C1011.01 236.186 1010.83 235.745 1010.51 235.415C1010.19 235.085 1009.76 234.893 1009.3 234.881L984.357 234.89Z" fill="white"/>
<path d="M1015.62 267.904H1009.7V267.856L998.016 253.969H984.357C983.757 253.944 983.158 253.887 982.564 253.797H982.468V267.914H977.985V230.275H1009.3C1010.99 230.278 1012.61 230.95 1013.8 232.144C1015 233.339 1015.67 234.958 1015.67 236.647V247.607C1015.67 249.296 1015 250.915 1013.8 252.109C1012.61 253.304 1010.99 253.976 1009.3 253.978H1003.88L1015.62 267.904ZM1009.83 267.628H1015.03L1003.3 253.702H1009.31C1010.93 253.702 1012.48 253.059 1013.62 251.916C1014.76 250.773 1015.4 249.223 1015.4 247.607V236.647C1015.4 235.03 1014.76 233.478 1013.62 232.334C1012.48 231.189 1010.93 230.545 1009.31 230.542H978.272V267.628H982.211V253.482L982.602 253.53C983.187 253.619 983.776 253.676 984.367 253.702H998.149L1009.83 267.628ZM1009.3 249.715H984.357C983.793 249.715 983.252 249.494 982.849 249.1C982.446 248.706 982.214 248.17 982.201 247.607V236.647C982.206 236.076 982.435 235.53 982.838 235.125C983.241 234.72 983.786 234.489 984.357 234.482H1009.3C1009.86 234.497 1010.4 234.731 1010.79 235.136C1011.19 235.54 1011.41 236.083 1011.41 236.647V247.607C1011.41 247.883 1011.35 248.157 1011.25 248.413C1011.14 248.669 1010.99 248.901 1010.79 249.097C1010.59 249.293 1010.36 249.448 1010.11 249.554C1009.85 249.66 1009.58 249.715 1009.3 249.715ZM984.357 234.758C983.851 234.758 983.366 234.959 983.008 235.317C982.65 235.675 982.449 236.16 982.449 236.666V247.626C982.467 248.12 982.675 248.588 983.031 248.932C983.387 249.275 983.862 249.467 984.357 249.467H1009.3C1009.79 249.464 1010.25 249.269 1010.6 248.925C1010.94 248.58 1011.14 248.113 1011.14 247.626V236.647C1011.14 236.152 1010.95 235.677 1010.61 235.321C1010.26 234.965 1009.79 234.757 1009.3 234.739L984.357 234.758Z" fill="white"/>
<path d="M1016.19 268.161H1009.59L997.892 254.235H984.357C983.814 254.218 983.273 254.17 982.735 254.092V268.161H977.728V230.008H1009.3C1011.07 230.008 1012.77 230.711 1014.02 231.963C1015.27 233.216 1015.98 234.914 1015.98 236.685V247.644C1015.96 249.407 1015.26 251.093 1014 252.335C1012.75 253.576 1011.06 254.273 1009.3 254.273H1004.44L1016.19 268.161ZM1009.96 267.369H1014.47L1002.73 253.444H1009.3C1010.85 253.441 1012.33 252.825 1013.42 251.731C1014.52 250.637 1015.13 249.153 1015.14 247.606V236.646C1015.13 235.099 1014.52 233.616 1013.42 232.522C1012.33 231.427 1010.85 230.812 1009.3 230.809H978.5V267.369H981.906V253.186L982.602 253.272C983.174 253.359 983.75 253.416 984.328 253.444H998.235L998.312 253.539L1009.96 267.369ZM1009.3 249.981H984.357C983.723 249.979 983.116 249.729 982.663 249.286C982.211 248.842 981.949 248.24 981.934 247.606V236.646C981.944 236.007 982.202 235.396 982.655 234.944C983.107 234.492 983.718 234.234 984.357 234.224H1009.3C1009.93 234.239 1010.54 234.5 1010.98 234.953C1011.42 235.405 1011.67 236.013 1011.67 236.646V247.606C1011.67 248.235 1011.42 248.838 1010.98 249.283C1010.53 249.728 1009.93 249.979 1009.3 249.981ZM984.357 235.015C983.929 235.028 983.522 235.204 983.22 235.507C982.919 235.811 982.745 236.219 982.735 236.646V247.606C982.748 248.028 982.924 248.428 983.227 248.722C983.53 249.016 983.935 249.18 984.357 249.18H1009.3C1009.72 249.18 1010.12 249.014 1010.41 248.719C1010.71 248.424 1010.87 248.023 1010.87 247.606V236.646C1010.88 236.223 1010.71 235.815 1010.42 235.51C1010.12 235.206 1009.72 235.028 1009.3 235.015H984.357Z" fill="white"/>
<path d="M1064.35 248.177C1064.99 248.766 1065.5 249.48 1065.86 250.276C1066.22 251.071 1066.41 251.931 1066.42 252.803V261.531C1066.43 262.351 1066.27 263.164 1065.96 263.923C1065.65 264.682 1065.19 265.372 1064.62 265.953C1064.04 266.533 1063.35 266.992 1062.59 267.304C1061.83 267.616 1061.02 267.774 1060.2 267.769H1029.02V230.36H1058.58C1059.4 230.353 1060.22 230.51 1060.98 230.821C1061.73 231.132 1062.42 231.59 1063 232.17C1063.58 232.749 1064.04 233.439 1064.35 234.197C1064.66 234.956 1064.82 235.768 1064.81 236.588V244.543C1064.81 245.499 1064.57 246.44 1064.14 247.29L1064.35 248.177ZM1035.25 234.566C1034.72 234.576 1034.21 234.792 1033.83 235.168C1033.45 235.545 1033.23 236.054 1033.22 236.588V244.543C1033.23 245.077 1033.45 245.586 1033.83 245.963C1034.21 246.34 1034.72 246.555 1035.25 246.565H1058.58C1059.11 246.553 1059.61 246.334 1059.98 245.956C1060.35 245.578 1060.56 245.071 1060.56 244.543V236.588C1060.56 236.06 1060.35 235.553 1059.98 235.175C1059.61 234.797 1059.11 234.578 1058.58 234.566H1035.25ZM1062.22 252.803C1062.21 252.268 1062 251.757 1061.62 251.378C1061.24 250.999 1060.73 250.781 1060.2 250.772H1035.25C1034.72 250.781 1034.21 250.999 1033.83 251.378C1033.45 251.756 1033.23 252.268 1033.22 252.803V261.531C1033.23 262.065 1033.45 262.574 1033.83 262.951C1034.21 263.327 1034.72 263.543 1035.25 263.553H1060.2C1060.73 263.543 1061.24 263.327 1061.62 262.95C1061.99 262.573 1062.21 262.064 1062.22 261.531V252.803Z" fill="white"/>
<path d="M1060.18 268.027H1028.7V230.121H1058.53C1059.38 230.113 1060.23 230.274 1061.02 230.598C1061.82 230.921 1062.54 231.399 1063.14 232.004C1063.74 232.609 1064.22 233.329 1064.55 234.121C1064.87 234.913 1065.03 235.762 1065.02 236.617V244.572C1065.01 245.539 1064.79 246.492 1064.36 247.357L1064.53 248.073C1065.18 248.685 1065.7 249.424 1066.07 250.243C1066.43 251.062 1066.62 251.946 1066.63 252.842V261.569C1066.64 262.418 1066.47 263.26 1066.15 264.045C1065.83 264.83 1065.35 265.544 1064.75 266.144C1064.15 266.744 1063.44 267.22 1062.65 267.543C1061.87 267.866 1061.03 268.031 1060.18 268.027ZM1029.26 267.502H1060.18C1060.96 267.511 1061.74 267.363 1062.47 267.066C1063.2 266.769 1063.86 266.33 1064.42 265.773C1064.98 265.217 1065.42 264.555 1065.71 263.827C1066.01 263.098 1066.16 262.318 1066.15 261.531V252.804C1066.14 251.967 1065.95 251.143 1065.61 250.38C1065.27 249.617 1064.77 248.933 1064.15 248.368L1064.09 248.321L1063.84 247.262V247.176C1064.26 246.361 1064.48 245.46 1064.49 244.543V236.588C1064.5 235.802 1064.35 235.021 1064.05 234.293C1063.76 233.564 1063.32 232.903 1062.76 232.346C1062.2 231.79 1061.54 231.351 1060.81 231.054C1060.08 230.757 1059.3 230.608 1058.52 230.617H1029.22L1029.26 267.502ZM1060.18 263.82H1035.23C1034.63 263.813 1034.05 263.569 1033.62 263.142C1033.2 262.714 1032.95 262.136 1032.95 261.531V252.804C1032.95 252.199 1033.2 251.621 1033.62 251.193C1034.05 250.765 1034.63 250.522 1035.23 250.514H1060.18C1060.78 250.522 1061.36 250.766 1061.78 251.194C1062.21 251.622 1062.45 252.2 1062.46 252.804V261.531C1062.45 262.135 1062.21 262.713 1061.78 263.141C1061.36 263.569 1060.78 263.813 1060.18 263.82ZM1035.23 251.039C1034.77 251.049 1034.33 251.238 1034 251.567C1033.67 251.895 1033.48 252.339 1033.47 252.804V261.531C1033.48 261.995 1033.67 262.437 1034 262.766C1034.33 263.094 1034.77 263.284 1035.23 263.296H1060.18C1060.64 263.281 1061.08 263.091 1061.41 262.762C1061.73 262.434 1061.92 261.994 1061.93 261.531V252.804C1061.92 252.34 1061.73 251.898 1061.41 251.57C1061.08 251.241 1060.64 251.051 1060.18 251.039H1035.23ZM1058.57 246.833H1035.23C1034.63 246.825 1034.05 246.582 1033.62 246.154C1033.2 245.726 1032.95 245.148 1032.95 244.543V236.588C1032.95 235.984 1033.2 235.406 1033.62 234.978C1034.05 234.55 1034.63 234.307 1035.23 234.299H1058.57C1059.16 234.314 1059.73 234.562 1060.15 234.99C1060.56 235.417 1060.8 235.991 1060.8 236.588V244.543C1060.8 245.141 1060.56 245.715 1060.15 246.142C1059.73 246.57 1059.16 246.818 1058.57 246.833ZM1035.23 234.824C1034.77 234.836 1034.33 235.026 1034 235.354C1033.67 235.682 1033.48 236.124 1033.47 236.588V244.543C1033.48 245.008 1033.67 245.449 1034 245.778C1034.33 246.106 1034.77 246.296 1035.23 246.308H1058.57C1059.02 246.293 1059.46 246.101 1059.78 245.771C1060.09 245.442 1060.27 245.002 1060.27 244.543V236.588C1060.27 236.13 1060.09 235.69 1059.78 235.36C1059.46 235.031 1059.02 234.839 1058.57 234.824H1035.23Z" fill="white"/>
<path d="M1060.18 267.903H1028.86V230.217H1058.57C1059.4 230.209 1060.24 230.369 1061.01 230.686C1061.79 231.004 1062.49 231.473 1063.09 232.066C1063.68 232.659 1064.15 233.365 1064.47 234.141C1064.79 234.918 1064.94 235.75 1064.94 236.589V244.544C1064.93 245.505 1064.7 246.451 1064.27 247.31L1064.45 248.101C1065.1 248.703 1065.62 249.43 1065.98 250.238C1066.34 251.047 1066.53 251.919 1066.54 252.804V261.531C1066.55 262.37 1066.39 263.202 1066.07 263.978C1065.76 264.754 1065.29 265.46 1064.7 266.053C1064.1 266.647 1063.4 267.116 1062.62 267.433C1061.85 267.751 1061.02 267.911 1060.18 267.903ZM1029.13 267.626H1060.18C1060.98 267.635 1061.78 267.484 1062.52 267.181C1063.26 266.878 1063.94 266.429 1064.51 265.861C1065.08 265.293 1065.52 264.618 1065.83 263.874C1066.13 263.131 1066.28 262.334 1066.27 261.531V252.804C1066.26 251.951 1066.07 251.109 1065.72 250.331C1065.37 249.554 1064.86 248.856 1064.23 248.283V248.245L1064.01 247.291V247.243C1064.44 246.41 1064.66 245.489 1064.67 244.553V236.598C1064.68 235.796 1064.53 235 1064.22 234.257C1063.92 233.514 1063.47 232.839 1062.9 232.271C1062.33 231.704 1061.66 231.255 1060.92 230.952C1060.17 230.648 1059.38 230.496 1058.58 230.503H1029.14L1029.13 267.626ZM1060.18 263.697H1035.23C1034.66 263.689 1034.12 263.459 1033.71 263.054C1033.31 262.65 1033.08 262.103 1033.07 261.531V252.804C1033.08 252.232 1033.31 251.685 1033.71 251.281C1034.12 250.877 1034.66 250.646 1035.23 250.639H1060.18C1060.75 250.646 1061.29 250.877 1061.7 251.282C1062.1 251.686 1062.33 252.233 1062.33 252.804V261.531C1062.33 262.103 1062.1 262.649 1061.7 263.054C1061.29 263.458 1060.75 263.689 1060.18 263.697ZM1035.23 250.915C1034.73 250.915 1034.24 251.116 1033.89 251.474C1033.53 251.832 1033.33 252.317 1033.33 252.823V261.551C1033.33 262.056 1033.53 262.542 1033.89 262.899C1034.24 263.257 1034.73 263.458 1035.23 263.458H1060.18C1060.68 263.458 1061.17 263.257 1061.53 262.899C1061.88 262.542 1062.09 262.056 1062.09 261.551V252.823C1062.09 252.317 1061.88 251.832 1061.53 251.474C1061.17 251.116 1060.68 250.915 1060.18 250.915H1035.23ZM1058.57 246.699H1035.23C1034.66 246.694 1034.12 246.466 1033.71 246.063C1033.31 245.66 1033.08 245.115 1033.07 244.544V236.589C1033.08 236.017 1033.31 235.47 1033.71 235.066C1034.12 234.661 1034.66 234.431 1035.23 234.423H1058.57C1059.13 234.438 1059.67 234.673 1060.06 235.078C1060.45 235.482 1060.67 236.024 1060.67 236.589V244.544C1060.67 245.107 1060.45 245.648 1060.06 246.051C1059.67 246.454 1059.13 246.687 1058.57 246.699ZM1035.23 234.7C1034.73 234.7 1034.24 234.901 1033.89 235.259C1033.53 235.617 1033.33 236.102 1033.33 236.608V244.563C1033.33 245.069 1033.53 245.554 1033.89 245.912C1034.24 246.269 1034.73 246.47 1035.23 246.47H1058.57C1059.06 246.451 1059.52 246.241 1059.87 245.885C1060.21 245.53 1060.4 245.056 1060.4 244.563V236.608C1060.4 236.115 1060.21 235.641 1059.87 235.285C1059.52 234.929 1059.06 234.72 1058.57 234.7H1035.23Z" fill="white"/>
<path d="M1060.18 268.159H1028.6V229.958H1058.57C1059.44 229.942 1060.31 230.101 1061.13 230.428C1061.94 230.755 1062.68 231.241 1063.31 231.86C1063.93 232.478 1064.42 233.215 1064.75 234.027C1065.09 234.839 1065.25 235.71 1065.24 236.587V244.542C1065.24 245.511 1065.02 246.466 1064.59 247.337L1064.74 247.967C1065.39 248.591 1065.92 249.34 1066.28 250.171C1066.65 251.001 1066.84 251.896 1066.85 252.803V261.53C1066.86 262.407 1066.7 263.277 1066.36 264.089C1066.03 264.9 1065.54 265.637 1064.92 266.255C1064.29 266.873 1063.55 267.36 1062.74 267.687C1061.93 268.014 1061.05 268.175 1060.18 268.159ZM1029.4 267.368H1060.18C1060.95 267.382 1061.71 267.241 1062.43 266.952C1063.14 266.664 1063.79 266.234 1064.33 265.689C1064.88 265.144 1065.31 264.495 1065.59 263.78C1065.88 263.065 1066.02 262.3 1066.01 261.53V252.803C1066 251.989 1065.83 251.185 1065.5 250.441C1065.17 249.696 1064.69 249.026 1064.1 248.472L1064.04 248.415L1063.99 248.31L1063.73 247.242V247.165C1064.15 246.354 1064.38 245.455 1064.38 244.542V236.587C1064.4 235.818 1064.26 235.054 1063.97 234.34C1063.68 233.627 1063.25 232.979 1062.71 232.435C1062.16 231.891 1061.52 231.462 1060.8 231.174C1060.09 230.886 1059.32 230.745 1058.56 230.759H1029.39L1029.4 267.368ZM1060.18 263.953H1035.23C1034.59 263.946 1033.98 263.688 1033.53 263.236C1033.07 262.783 1032.81 262.171 1032.8 261.53V252.803C1032.81 252.161 1033.07 251.55 1033.53 251.097C1033.98 250.645 1034.59 250.387 1035.23 250.38H1060.18C1060.82 250.39 1061.43 250.648 1061.88 251.1C1062.33 251.553 1062.59 252.163 1062.6 252.803V261.53C1062.59 262.17 1062.33 262.78 1061.88 263.232C1061.43 263.685 1060.82 263.943 1060.18 263.953ZM1035.23 251.172C1034.81 251.184 1034.4 251.359 1034.09 251.663C1033.79 251.966 1033.62 252.374 1033.6 252.803V261.53C1033.62 261.959 1033.79 262.367 1034.09 262.67C1034.4 262.973 1034.81 263.149 1035.23 263.161H1060.18C1060.61 263.154 1061.02 262.979 1061.32 262.675C1061.62 262.37 1061.79 261.96 1061.8 261.53V252.803C1061.79 252.375 1061.62 251.967 1061.31 251.663C1061.01 251.36 1060.61 251.184 1060.18 251.172H1035.23ZM1058.57 246.965H1035.23C1034.59 246.955 1033.98 246.697 1033.53 246.245C1033.07 245.793 1032.81 245.183 1032.8 244.542V236.587C1032.81 235.947 1033.07 235.336 1033.53 234.884C1033.98 234.432 1034.59 234.174 1035.23 234.165H1058.57C1059.2 234.18 1059.8 234.441 1060.24 234.894C1060.68 235.347 1060.93 235.955 1060.93 236.587V244.542C1060.93 245.175 1060.68 245.783 1060.24 246.236C1059.8 246.688 1059.2 246.95 1058.57 246.965ZM1035.23 234.966C1034.81 234.975 1034.4 235.149 1034.1 235.451C1033.79 235.753 1033.62 236.16 1033.6 236.587V244.542C1033.62 244.97 1033.79 245.377 1034.1 245.679C1034.4 245.981 1034.81 246.154 1035.23 246.164H1058.57C1058.99 246.151 1059.39 245.975 1059.68 245.672C1059.97 245.37 1060.14 244.964 1060.14 244.542V236.587C1060.14 236.165 1059.97 235.76 1059.68 235.457C1059.39 235.155 1058.99 234.978 1058.57 234.966H1035.23Z" fill="white"/>
<path d="M1110.94 230.36C1111.76 230.352 1112.57 230.508 1113.33 230.818C1114.09 231.128 1114.78 231.587 1115.36 232.166C1115.95 232.746 1116.4 233.436 1116.72 234.195C1117.03 234.954 1117.18 235.768 1117.18 236.588V261.531C1117.18 262.352 1117.03 263.166 1116.72 263.926C1116.41 264.685 1115.95 265.376 1115.37 265.956C1114.78 266.537 1114.09 266.996 1113.33 267.307C1112.58 267.618 1111.76 267.775 1110.94 267.769H1086C1085.18 267.775 1084.36 267.618 1083.6 267.307C1082.84 266.996 1082.15 266.537 1081.57 265.956C1080.99 265.376 1080.53 264.685 1080.22 263.926C1079.91 263.166 1079.75 262.352 1079.76 261.531V236.588C1079.75 235.768 1079.91 234.954 1080.22 234.195C1080.53 233.436 1080.99 232.746 1081.57 232.166C1082.15 231.587 1082.84 231.128 1083.6 230.818C1084.36 230.508 1085.18 230.352 1086 230.36H1110.94ZM1110.94 263.553C1111.47 263.543 1111.98 263.327 1112.36 262.95C1112.74 262.573 1112.95 262.064 1112.96 261.531V236.588C1112.95 236.055 1112.74 235.546 1112.36 235.169C1111.98 234.792 1111.47 234.576 1110.94 234.566H1086C1085.46 234.576 1084.96 234.792 1084.58 235.169C1084.2 235.546 1083.99 236.055 1083.98 236.588V261.531C1083.99 262.064 1084.2 262.573 1084.58 262.95C1084.96 263.327 1085.46 263.543 1086 263.553H1110.94Z" fill="white"/>
<path d="M1110.94 268.028H1086C1085.14 268.037 1084.29 267.875 1083.5 267.552C1082.71 267.229 1081.99 266.75 1081.38 266.145C1080.78 265.541 1080.3 264.821 1079.98 264.029C1079.65 263.237 1079.49 262.388 1079.5 261.532V236.59C1079.49 235.734 1079.65 234.886 1079.98 234.093C1080.3 233.301 1080.78 232.582 1081.38 231.977C1081.99 231.372 1082.71 230.894 1083.5 230.57C1084.29 230.247 1085.14 230.085 1086 230.094H1110.94C1111.8 230.085 1112.64 230.247 1113.44 230.57C1114.23 230.894 1114.95 231.372 1115.55 231.977C1116.16 232.582 1116.64 233.301 1116.96 234.093C1117.28 234.886 1117.44 235.734 1117.44 236.59V261.532C1117.44 262.388 1117.28 263.237 1116.96 264.029C1116.64 264.821 1116.16 265.541 1115.55 266.145C1114.95 266.75 1114.23 267.229 1113.44 267.552C1112.64 267.875 1111.8 268.037 1110.94 268.028ZM1086 230.619C1085.21 230.61 1084.43 230.758 1083.7 231.055C1082.97 231.352 1082.31 231.791 1081.76 232.348C1081.2 232.904 1080.76 233.566 1080.46 234.294C1080.17 235.023 1080.02 235.803 1080.03 236.59V261.532C1080.02 262.319 1080.17 263.1 1080.46 263.828C1080.76 264.556 1081.2 265.218 1081.76 265.775C1082.31 266.331 1082.97 266.77 1083.7 267.067C1084.43 267.364 1085.21 267.512 1086 267.503H1110.94C1111.73 267.512 1112.51 267.364 1113.24 267.067C1113.96 266.77 1114.63 266.331 1115.18 265.775C1115.74 265.218 1116.18 264.556 1116.47 263.828C1116.77 263.1 1116.92 262.319 1116.91 261.532V236.59C1116.92 235.803 1116.77 235.023 1116.47 234.294C1116.18 233.566 1115.74 232.904 1115.18 232.348C1114.63 231.791 1113.96 231.352 1113.24 231.055C1112.51 230.758 1111.73 230.61 1110.94 230.619H1086ZM1110.94 263.822H1086C1085.39 263.814 1084.81 263.571 1084.39 263.143C1083.96 262.715 1083.72 262.137 1083.71 261.532V236.59C1083.72 235.985 1083.96 235.407 1084.39 234.979C1084.81 234.552 1085.39 234.308 1086 234.301H1110.94C1111.54 234.308 1112.12 234.552 1112.55 234.979C1112.98 235.407 1113.22 235.985 1113.23 236.59V261.532C1113.22 262.137 1112.98 262.715 1112.55 263.143C1112.12 263.571 1111.54 263.814 1110.94 263.822ZM1086 234.825C1085.53 234.839 1085.09 235.03 1084.77 235.358C1084.44 235.686 1084.25 236.126 1084.23 236.59V261.532C1084.25 261.996 1084.44 262.436 1084.77 262.764C1085.09 263.092 1085.53 263.283 1086 263.297H1110.94C1111.4 263.283 1111.84 263.092 1112.17 262.764C1112.5 262.436 1112.69 261.996 1112.7 261.532V236.59C1112.69 236.126 1112.5 235.686 1112.17 235.358C1111.84 235.03 1111.4 234.839 1110.94 234.825H1086Z" fill="white"/>
<path d="M1110.94 267.903H1086C1085.16 267.911 1084.33 267.751 1083.55 267.434C1082.77 267.116 1082.07 266.647 1081.48 266.054C1080.88 265.461 1080.41 264.755 1080.1 263.979C1079.78 263.202 1079.62 262.37 1079.63 261.532V236.589C1079.62 235.75 1079.78 234.918 1080.1 234.141C1080.41 233.365 1080.88 232.66 1081.48 232.066C1082.07 231.473 1082.77 231.004 1083.55 230.687C1084.33 230.369 1085.16 230.21 1086 230.217H1110.94C1111.78 230.208 1112.61 230.367 1113.39 230.684C1114.17 231.001 1114.87 231.47 1115.47 232.063C1116.06 232.657 1116.53 233.363 1116.85 234.14C1117.16 234.917 1117.32 235.75 1117.31 236.589V261.532C1117.32 262.371 1117.16 263.203 1116.85 263.98C1116.53 264.757 1116.06 265.463 1115.47 266.057C1114.87 266.65 1114.17 267.119 1113.39 267.436C1112.61 267.753 1111.78 267.912 1110.94 267.903ZM1086 230.494C1085.2 230.486 1084.4 230.639 1083.66 230.942C1082.91 231.246 1082.24 231.694 1081.67 232.262C1081.1 232.829 1080.65 233.504 1080.35 234.247C1080.05 234.99 1079.9 235.786 1079.9 236.589V261.532C1079.89 262.334 1080.05 263.131 1080.35 263.875C1080.65 264.618 1081.1 265.294 1081.67 265.861C1082.24 266.429 1082.91 266.878 1083.65 267.181C1084.4 267.484 1085.19 267.635 1086 267.627H1110.94C1111.74 267.637 1112.54 267.486 1113.29 267.183C1114.03 266.881 1114.71 266.432 1115.27 265.864C1115.84 265.296 1116.29 264.62 1116.59 263.876C1116.9 263.132 1117.05 262.335 1117.04 261.532V236.589C1117.04 235.786 1116.89 234.989 1116.59 234.246C1116.29 233.502 1115.84 232.827 1115.27 232.259C1114.7 231.691 1114.03 231.243 1113.28 230.939C1112.54 230.636 1111.74 230.485 1110.94 230.494H1086ZM1110.94 263.697H1086C1085.43 263.689 1084.88 263.458 1084.48 263.054C1084.08 262.649 1083.85 262.103 1083.84 261.532V236.589C1083.85 236.018 1084.08 235.471 1084.48 235.067C1084.88 234.662 1085.43 234.431 1086 234.424H1110.94C1111.51 234.431 1112.06 234.661 1112.46 235.066C1112.87 235.47 1113.1 236.017 1113.11 236.589V261.532C1113.1 262.103 1112.87 262.65 1112.46 263.054C1112.06 263.459 1111.51 263.689 1110.94 263.697ZM1086 234.7C1085.49 234.7 1085.01 234.901 1084.65 235.259C1084.29 235.617 1084.09 236.102 1084.09 236.608V261.551C1084.09 262.057 1084.29 262.542 1084.65 262.9C1085.01 263.257 1085.49 263.458 1086 263.458H1110.94C1111.45 263.458 1111.93 263.257 1112.29 262.9C1112.65 262.542 1112.85 262.057 1112.85 261.551V236.589C1112.85 236.083 1112.65 235.598 1112.29 235.24C1111.93 234.882 1111.45 234.681 1110.94 234.681L1086 234.7Z" fill="white"/>
<path d="M1110.94 268.159H1086C1085.12 268.176 1084.25 268.016 1083.43 267.69C1082.62 267.363 1081.88 266.876 1081.26 266.258C1080.63 265.639 1080.14 264.902 1079.81 264.09C1079.48 263.278 1079.31 262.408 1079.32 261.53V236.587C1079.31 235.71 1079.48 234.839 1079.81 234.027C1080.14 233.215 1080.63 232.478 1081.26 231.86C1081.88 231.241 1082.62 230.755 1083.43 230.428C1084.25 230.101 1085.12 229.942 1086 229.958H1110.94C1111.82 229.942 1112.69 230.101 1113.5 230.428C1114.32 230.755 1115.06 231.241 1115.68 231.86C1116.3 232.478 1116.8 233.215 1117.13 234.027C1117.46 234.839 1117.63 235.71 1117.62 236.587V261.53C1117.63 262.408 1117.46 263.278 1117.13 264.09C1116.8 264.902 1116.3 265.639 1115.68 266.258C1115.06 266.876 1114.32 267.363 1113.5 267.69C1112.69 268.016 1111.82 268.176 1110.94 268.159ZM1086 230.759C1085.23 230.744 1084.46 230.884 1083.75 231.171C1083.03 231.458 1082.38 231.887 1081.84 232.431C1081.29 232.975 1080.86 233.624 1080.58 234.338C1080.29 235.052 1080.15 235.817 1080.16 236.587V261.53C1080.15 262.299 1080.3 263.061 1080.59 263.773C1080.88 264.485 1081.31 265.131 1081.85 265.675C1082.4 266.218 1083.04 266.648 1083.75 266.939C1084.47 267.229 1085.23 267.375 1086 267.368H1110.94C1111.71 267.375 1112.47 267.229 1113.18 266.939C1113.9 266.648 1114.54 266.218 1115.09 265.675C1115.63 265.131 1116.06 264.485 1116.35 263.773C1116.64 263.061 1116.79 262.299 1116.78 261.53V236.587C1116.79 235.817 1116.65 235.052 1116.36 234.338C1116.07 233.624 1115.64 232.975 1115.1 232.431C1114.55 231.887 1113.91 231.458 1113.19 231.171C1112.48 230.884 1111.71 230.744 1110.94 230.759H1086ZM1110.94 263.953H1086C1085.36 263.943 1084.75 263.685 1084.3 263.232C1083.84 262.78 1083.58 262.17 1083.57 261.53V236.587C1083.58 235.948 1083.84 235.337 1084.3 234.885C1084.75 234.433 1085.36 234.174 1086 234.165H1110.94C1111.58 234.174 1112.19 234.433 1112.64 234.885C1113.09 235.337 1113.35 235.948 1113.36 236.587V261.53C1113.36 262.17 1113.1 262.782 1112.65 263.235C1112.19 263.688 1111.58 263.945 1110.94 263.953ZM1086 234.966C1085.57 234.971 1085.16 235.143 1084.86 235.446C1084.55 235.749 1084.38 236.159 1084.38 236.587V261.53C1084.38 261.96 1084.55 262.37 1084.86 262.675C1085.16 262.979 1085.57 263.154 1086 263.161H1110.94C1111.37 263.154 1111.78 262.98 1112.09 262.675C1112.39 262.371 1112.56 261.96 1112.57 261.53V236.587C1112.56 236.158 1112.39 235.748 1112.08 235.446C1111.78 235.143 1111.37 234.971 1110.94 234.966H1086Z" fill="white"/>
<path d="M1161.97 230.36C1162.79 230.352 1163.6 230.508 1164.36 230.818C1165.12 231.128 1165.81 231.587 1166.4 232.166C1166.98 232.746 1167.44 233.436 1167.75 234.195C1168.06 234.954 1168.22 235.768 1168.21 236.588V267.769H1163.99V254.101H1135.01V267.769H1130.79V236.588C1130.78 235.768 1130.94 234.954 1131.25 234.195C1131.56 233.436 1132.02 232.746 1132.6 232.166C1133.18 231.587 1133.87 231.128 1134.63 230.818C1135.39 230.508 1136.21 230.352 1137.03 230.36H1161.97ZM1163.99 249.894V236.54C1163.98 236.007 1163.77 235.499 1163.39 235.121C1163.01 234.744 1162.5 234.528 1161.97 234.518H1137.03C1136.49 234.528 1135.99 234.744 1135.61 235.121C1135.23 235.499 1135.02 236.007 1135.01 236.54V249.894H1163.99Z" fill="white"/>
<path d="M1168.47 268.027H1163.7V254.368H1135.23V268.027H1130.46V236.551C1130.45 235.695 1130.61 234.846 1130.93 234.054C1131.26 233.262 1131.73 232.543 1132.34 231.938C1132.94 231.333 1133.66 230.855 1134.46 230.531C1135.25 230.208 1136.1 230.046 1136.95 230.055H1161.89C1162.75 230.046 1163.6 230.208 1164.39 230.531C1165.18 230.855 1165.9 231.333 1166.51 231.938C1167.11 232.543 1167.59 233.262 1167.91 234.054C1168.24 234.846 1168.4 235.695 1168.39 236.551L1168.47 268.027ZM1164.26 267.503H1167.94V236.589C1167.95 235.802 1167.8 235.022 1167.51 234.293C1167.21 233.565 1166.77 232.903 1166.21 232.347C1165.66 231.79 1164.99 231.351 1164.27 231.054C1163.54 230.757 1162.76 230.609 1161.97 230.618H1137.03C1136.24 230.609 1135.46 230.757 1134.73 231.054C1134 231.351 1133.34 231.79 1132.79 232.347C1132.23 232.903 1131.79 233.565 1131.49 234.293C1131.2 235.022 1131.05 235.802 1131.06 236.589V267.503H1134.74V253.844H1164.31L1164.26 267.503ZM1164.26 250.152H1134.69V236.589C1134.7 235.984 1134.94 235.406 1135.37 234.978C1135.8 234.551 1136.38 234.307 1136.98 234.3H1161.92C1162.53 234.307 1163.11 234.551 1163.53 234.978C1163.96 235.406 1164.2 235.984 1164.21 236.589L1164.26 250.152ZM1135.26 249.628H1163.74V236.589C1163.72 236.125 1163.53 235.685 1163.2 235.357C1162.87 235.029 1162.43 234.839 1161.97 234.824H1137.03C1136.56 234.839 1136.12 235.029 1135.8 235.357C1135.47 235.685 1135.28 236.125 1135.26 236.589V249.628Z" fill="white"/>
<path d="M1168.31 267.903H1163.83V254.235H1135.11V267.903H1130.63V236.589C1130.62 235.75 1130.78 234.918 1131.1 234.141C1131.41 233.365 1131.88 232.66 1132.48 232.066C1133.07 231.473 1133.78 231.004 1134.55 230.687C1135.33 230.369 1136.16 230.21 1137 230.217H1161.94C1162.78 230.208 1163.61 230.367 1164.39 230.684C1165.17 231.001 1165.87 231.47 1166.47 232.063C1167.06 232.657 1167.53 233.363 1167.85 234.14C1168.16 234.917 1168.32 235.75 1168.31 236.589V267.903ZM1164.11 267.627H1168.04V236.589C1168.05 235.786 1167.89 234.989 1167.59 234.246C1167.29 233.502 1166.84 232.827 1166.27 232.259C1165.7 231.691 1165.03 231.243 1164.28 230.939C1163.54 230.636 1162.74 230.485 1161.94 230.494H1137.03C1136.23 230.486 1135.43 230.639 1134.69 230.942C1133.94 231.246 1133.27 231.694 1132.7 232.262C1132.13 232.829 1131.68 233.504 1131.38 234.247C1131.08 234.99 1130.93 235.786 1130.93 236.589V267.627H1134.87V253.968H1164.14L1164.11 267.627ZM1164.11 250.028H1134.84V236.589C1134.85 236.018 1135.08 235.471 1135.48 235.067C1135.88 234.662 1136.43 234.431 1137 234.424H1161.94C1162.51 234.431 1163.06 234.661 1163.46 235.066C1163.87 235.47 1164.1 236.017 1164.11 236.589V250.028ZM1135.11 249.761H1163.83V236.589C1163.83 236.083 1163.63 235.598 1163.27 235.24C1162.91 234.882 1162.43 234.681 1161.92 234.681H1137.03C1136.52 234.681 1136.04 234.882 1135.68 235.24C1135.32 235.598 1135.12 236.083 1135.12 236.589L1135.11 249.761Z" fill="white"/>
<path d="M1168.6 268.159H1163.6V254.5H1135.41V268.159H1130.4V236.587C1130.39 235.71 1130.55 234.839 1130.89 234.027C1131.22 233.215 1131.71 232.478 1132.33 231.86C1132.96 231.241 1133.7 230.755 1134.51 230.428C1135.33 230.101 1136.2 229.942 1137.08 229.958H1162.02C1162.9 229.942 1163.77 230.101 1164.58 230.428C1165.4 230.755 1166.14 231.241 1166.76 231.86C1167.38 232.478 1167.87 233.215 1168.21 234.027C1168.54 234.839 1168.71 235.71 1168.69 236.587L1168.6 268.159ZM1164.39 267.368H1167.81V236.587C1167.82 235.817 1167.68 235.052 1167.39 234.338C1167.1 233.624 1166.67 232.975 1166.13 232.431C1165.58 231.887 1164.93 231.458 1164.22 231.171C1163.51 230.884 1162.74 230.744 1161.97 230.759H1137.03C1136.26 230.744 1135.49 230.884 1134.78 231.171C1134.06 231.458 1133.41 231.887 1132.87 232.431C1132.32 232.975 1131.89 233.624 1131.61 234.338C1131.32 235.052 1131.18 235.817 1131.19 236.587V267.368H1134.6V253.699H1164.39V267.368ZM1164.39 250.294H1134.6V236.587C1134.61 235.948 1134.87 235.337 1135.33 234.885C1135.78 234.433 1136.39 234.174 1137.03 234.165H1161.97C1162.61 234.174 1163.22 234.433 1163.67 234.885C1164.12 235.337 1164.38 235.948 1164.39 236.587V250.294ZM1135.41 249.493H1163.6V236.587C1163.59 236.158 1163.42 235.748 1163.11 235.446C1162.81 235.143 1162.4 234.971 1161.97 234.966H1137.03C1136.6 234.971 1136.19 235.143 1135.89 235.446C1135.58 235.749 1135.41 236.159 1135.41 236.587V249.493Z" fill="white"/>
<path d="M1219.29 247.606C1219.29 248.426 1219.13 249.238 1218.82 249.996C1218.5 250.754 1218.04 251.443 1217.46 252.022C1216.88 252.602 1216.2 253.062 1215.44 253.374C1214.68 253.687 1213.87 253.846 1213.05 253.844H1207.33L1219.07 267.77H1213.51L1201.82 253.844H1188.1C1187.42 253.813 1186.74 253.743 1186.07 253.634V267.77H1181.87V230.408H1213.04C1213.86 230.406 1214.67 230.565 1215.43 230.878C1216.19 231.191 1216.88 231.65 1217.46 232.23C1218.03 232.809 1218.49 233.498 1218.81 234.256C1219.12 235.014 1219.28 235.826 1219.28 236.646L1219.29 247.606ZM1213.05 249.58C1213.57 249.58 1214.07 249.372 1214.44 249.002C1214.81 248.632 1215.02 248.13 1215.02 247.606V236.646C1215.03 236.117 1214.82 235.607 1214.45 235.227C1214.08 234.847 1213.58 234.627 1213.05 234.615H1188.11C1187.57 234.625 1187.06 234.842 1186.68 235.221C1186.31 235.6 1186.09 236.111 1186.08 236.646V247.606C1186.1 248.134 1186.31 248.636 1186.69 249.005C1187.07 249.374 1187.58 249.58 1188.11 249.58H1213.05Z" fill="white"/>
<path d="M1219.64 268.026H1213.39L1201.7 254.101H1188.1C1187.51 254.082 1186.92 254.024 1186.34 253.929V268.026H1181.57V230.121H1213.05C1214.77 230.121 1216.42 230.805 1217.64 232.024C1218.86 233.242 1219.54 234.894 1219.54 236.617V247.576C1219.54 249.299 1218.86 250.951 1217.64 252.169C1216.42 253.388 1214.77 254.072 1213.05 254.072H1207.9L1219.64 268.026ZM1213.64 267.502H1218.51L1206.77 253.576H1213.05C1214.63 253.573 1216.15 252.943 1217.27 251.824C1218.39 250.705 1219.02 249.188 1219.02 247.605V236.645C1219.02 235.062 1218.39 233.543 1217.27 232.423C1216.15 231.303 1214.63 230.674 1213.05 230.674H1182.13V267.502H1185.83V253.337L1186.37 253.404C1186.94 253.493 1187.52 253.55 1188.11 253.576H1201.95L1213.64 267.502ZM1213.05 249.846H1188.11C1187.51 249.844 1186.94 249.608 1186.51 249.19C1186.08 248.771 1185.84 248.202 1185.83 247.605V236.645C1185.83 236.041 1186.07 235.463 1186.5 235.035C1186.92 234.607 1187.5 234.364 1188.11 234.356H1213.05C1213.65 234.371 1214.22 234.618 1214.63 235.046C1215.05 235.473 1215.29 236.047 1215.29 236.645V247.605C1215.29 248.199 1215.05 248.767 1214.63 249.187C1214.21 249.607 1213.64 249.844 1213.05 249.846ZM1188.11 234.89C1187.64 234.902 1187.2 235.093 1186.87 235.421C1186.55 235.75 1186.36 236.192 1186.35 236.655V247.614C1186.36 248.072 1186.55 248.506 1186.88 248.825C1187.21 249.144 1187.65 249.322 1188.11 249.322H1213.05C1213.5 249.322 1213.94 249.142 1214.26 248.822C1214.58 248.502 1214.76 248.068 1214.77 247.614V236.645C1214.77 236.185 1214.59 235.744 1214.27 235.414C1213.94 235.085 1213.51 234.893 1213.05 234.881L1188.11 234.89Z" fill="white"/>
<path d="M1219.37 267.904H1213.45V267.856L1201.76 253.969H1188.11C1187.51 253.944 1186.91 253.887 1186.31 253.797H1186.22V267.914H1181.74V230.275H1213.05C1214.74 230.278 1216.36 230.95 1217.55 232.144C1218.75 233.339 1219.42 234.958 1219.42 236.647V247.607C1219.42 249.296 1218.75 250.915 1217.55 252.109C1216.36 253.304 1214.74 253.976 1213.05 253.978H1207.63L1219.37 267.904ZM1213.58 267.628H1218.78L1207.04 253.702H1213.05C1213.85 253.702 1214.64 253.544 1215.38 253.238C1216.12 252.931 1216.79 252.482 1217.36 251.916C1217.92 251.35 1218.37 250.679 1218.68 249.939C1218.99 249.2 1219.14 248.407 1219.14 247.607V236.647C1219.14 235.03 1218.5 233.478 1217.36 232.334C1216.22 231.189 1214.67 230.545 1213.05 230.542H1182.01V267.628H1185.95V253.482L1186.35 253.53C1186.93 253.619 1187.52 253.677 1188.11 253.702H1201.89L1213.58 267.628ZM1213.05 249.715H1188.11C1187.54 249.715 1187 249.494 1186.6 249.1C1186.2 248.706 1185.96 248.17 1185.95 247.607V236.647C1185.96 236.076 1186.18 235.53 1186.59 235.125C1186.99 234.72 1187.53 234.489 1188.11 234.482H1213.05C1213.61 234.497 1214.15 234.731 1214.54 235.136C1214.94 235.54 1215.16 236.083 1215.16 236.647V247.607C1215.16 247.883 1215.1 248.157 1215 248.413C1214.89 248.669 1214.73 248.901 1214.54 249.097C1214.34 249.293 1214.11 249.448 1213.86 249.554C1213.6 249.66 1213.33 249.715 1213.05 249.715ZM1188.11 234.758C1187.6 234.758 1187.11 234.959 1186.76 235.317C1186.4 235.675 1186.2 236.16 1186.2 236.666V247.626C1186.22 248.12 1186.42 248.588 1186.78 248.932C1187.14 249.275 1187.61 249.467 1188.11 249.467H1213.05C1213.54 249.464 1214 249.269 1214.35 248.925C1214.69 248.58 1214.89 248.113 1214.89 247.626V236.647C1214.89 236.152 1214.7 235.677 1214.35 235.321C1214.01 234.965 1213.54 234.757 1213.05 234.739L1188.11 234.758Z" fill="white"/>
<path d="M1219.94 268.161H1213.33L1201.64 254.235H1188.11C1187.56 254.218 1187.02 254.17 1186.48 254.092V268.161H1181.48V230.008H1213.05C1214.82 230.008 1216.52 230.711 1217.77 231.963C1219.02 233.216 1219.73 234.914 1219.73 236.685V247.644C1219.71 249.407 1219 251.093 1217.75 252.335C1216.5 253.576 1214.81 254.273 1213.05 254.273H1208.19L1219.94 268.161ZM1213.71 267.369H1218.22L1206.47 253.444H1213.04C1214.59 253.441 1216.07 252.825 1217.16 251.731C1218.26 250.637 1218.87 249.153 1218.88 247.606V236.646C1218.88 235.098 1218.26 233.614 1217.17 232.519C1216.07 231.424 1214.59 230.809 1213.04 230.809H1182.27V267.369H1185.67V253.186L1186.37 253.272C1186.94 253.359 1187.52 253.416 1188.1 253.444H1202L1202.08 253.539L1213.71 267.369ZM1213.05 249.981H1188.11C1187.47 249.979 1186.86 249.729 1186.41 249.286C1185.96 248.842 1185.7 248.24 1185.68 247.606V236.646C1185.69 236.007 1185.95 235.396 1186.4 234.944C1186.86 234.492 1187.47 234.234 1188.11 234.224H1213.05C1213.68 234.239 1214.28 234.5 1214.73 234.953C1215.17 235.405 1215.42 236.013 1215.42 236.646V247.606C1215.42 248.235 1215.17 248.838 1214.73 249.283C1214.28 249.728 1213.68 249.979 1213.05 249.981ZM1188.11 235.015C1187.68 235.028 1187.27 235.204 1186.97 235.507C1186.67 235.811 1186.49 236.219 1186.48 236.646V247.606C1186.5 248.028 1186.67 248.428 1186.98 248.722C1187.28 249.016 1187.68 249.18 1188.11 249.18H1213.05C1213.47 249.18 1213.87 249.014 1214.16 248.719C1214.46 248.424 1214.62 248.023 1214.62 247.606V236.646C1214.62 236.223 1214.46 235.815 1214.17 235.51C1213.87 235.206 1213.47 235.028 1213.05 235.015H1188.11Z" fill="white"/>
<path d="M1263.87 230.36C1264.69 230.352 1265.5 230.508 1266.26 230.818C1267.02 231.128 1267.71 231.587 1268.29 232.166C1268.87 232.746 1269.33 233.436 1269.64 234.195C1269.96 234.954 1270.11 235.768 1270.11 236.588V261.531C1270.11 262.352 1269.96 263.166 1269.64 263.926C1269.33 264.685 1268.87 265.376 1268.29 265.956C1267.71 266.537 1267.02 266.996 1266.26 267.307C1265.5 267.618 1264.69 267.775 1263.87 267.769H1232.7V230.36H1263.87ZM1265.9 236.588C1265.89 236.053 1265.67 235.543 1265.29 235.166C1264.91 234.788 1264.4 234.573 1263.87 234.566H1238.9C1238.36 234.573 1237.85 234.788 1237.47 235.166C1237.09 235.543 1236.88 236.053 1236.87 236.588V261.531C1236.88 262.066 1237.09 262.576 1237.47 262.953C1237.85 263.331 1238.36 263.546 1238.9 263.553H1263.83C1264.37 263.546 1264.88 263.331 1265.26 262.953C1265.63 262.576 1265.85 262.066 1265.86 261.531L1265.9 236.588Z" fill="white"/>
<path d="M1263.87 268.027H1232.39V230.122H1263.87C1264.72 230.111 1265.57 230.272 1266.37 230.595C1267.16 230.918 1267.88 231.396 1268.49 232.001C1269.09 232.606 1269.57 233.326 1269.9 234.119C1270.22 234.911 1270.38 235.761 1270.37 236.617V261.56C1270.38 262.414 1270.21 263.26 1269.89 264.05C1269.56 264.839 1269.08 265.556 1268.48 266.158C1267.87 266.76 1267.15 267.235 1266.36 267.556C1265.57 267.877 1264.72 268.037 1263.87 268.027ZM1232.96 267.502H1263.87C1264.66 267.511 1265.44 267.363 1266.17 267.066C1266.89 266.769 1267.56 266.33 1268.11 265.774C1268.67 265.218 1269.11 264.556 1269.41 263.828C1269.71 263.099 1269.86 262.318 1269.85 261.531V236.589C1269.86 235.801 1269.71 235.021 1269.41 234.292C1269.11 233.564 1268.67 232.902 1268.11 232.346C1267.56 231.79 1266.89 231.35 1266.17 231.054C1265.44 230.757 1264.66 230.609 1263.87 230.618H1232.96V267.502ZM1263.87 263.821H1238.9C1238.29 263.813 1237.71 263.57 1237.29 263.142C1236.86 262.714 1236.62 262.136 1236.61 261.531V236.589C1236.62 235.984 1236.86 235.406 1237.29 234.978C1237.71 234.55 1238.29 234.307 1238.9 234.299H1263.83C1264.44 234.307 1265.01 234.55 1265.44 234.978C1265.87 235.406 1266.11 235.984 1266.12 236.589V261.531C1266.11 262.13 1265.87 262.702 1265.45 263.129C1265.04 263.555 1264.47 263.803 1263.87 263.821ZM1238.9 234.824C1238.43 234.836 1237.99 235.026 1237.66 235.354C1237.33 235.683 1237.14 236.124 1237.13 236.589V261.531C1237.14 261.996 1237.33 262.437 1237.66 262.766C1237.99 263.094 1238.43 263.284 1238.9 263.296H1263.83C1264.29 263.284 1264.74 263.094 1265.06 262.766C1265.39 262.437 1265.58 261.996 1265.6 261.531V236.589C1265.58 236.124 1265.39 235.683 1265.06 235.354C1264.74 235.026 1264.29 234.836 1263.83 234.824H1238.9Z" fill="white"/>
<path d="M1263.87 267.903H1232.56V230.217H1263.87C1264.71 230.208 1265.54 230.367 1266.32 230.684C1267.09 231.001 1267.8 231.47 1268.39 232.063C1268.99 232.657 1269.46 233.363 1269.77 234.14C1270.09 234.917 1270.25 235.75 1270.24 236.589V261.532C1270.25 262.371 1270.09 263.203 1269.77 263.98C1269.46 264.757 1268.99 265.463 1268.39 266.057C1267.8 266.65 1267.09 267.119 1266.32 267.436C1265.54 267.753 1264.71 267.912 1263.87 267.903ZM1232.83 267.627H1263.87C1264.67 267.637 1265.47 267.486 1266.21 267.184C1266.96 266.881 1267.64 266.433 1268.2 265.865C1268.77 265.297 1269.22 264.621 1269.53 263.877C1269.83 263.133 1269.98 262.335 1269.97 261.532V236.589C1269.98 235.785 1269.83 234.989 1269.52 234.245C1269.22 233.501 1268.77 232.826 1268.2 232.258C1267.63 231.691 1266.96 231.242 1266.21 230.939C1265.47 230.636 1264.67 230.485 1263.87 230.494H1232.83V267.627ZM1263.87 263.697H1238.9C1238.33 263.689 1237.78 263.459 1237.37 263.054C1236.97 262.65 1236.74 262.103 1236.73 261.532V236.589C1236.74 236.017 1236.97 235.47 1237.37 235.066C1237.78 234.661 1238.33 234.431 1238.9 234.424H1263.83C1264.4 234.431 1264.95 234.661 1265.35 235.066C1265.76 235.47 1265.99 236.017 1266 236.589V261.532C1265.99 262.097 1265.76 262.638 1265.37 263.041C1264.97 263.445 1264.43 263.68 1263.87 263.697ZM1238.9 234.7C1238.39 234.7 1237.91 234.901 1237.55 235.259C1237.19 235.617 1236.99 236.102 1236.99 236.608V261.551C1236.99 262.057 1237.19 262.542 1237.55 262.9C1237.91 263.257 1238.39 263.458 1238.9 263.458H1263.83C1264.34 263.458 1264.82 263.257 1265.18 262.9C1265.54 262.542 1265.74 262.057 1265.74 261.551V236.589C1265.74 236.083 1265.54 235.598 1265.18 235.24C1264.82 234.882 1264.34 234.681 1263.83 234.681L1238.9 234.7Z" fill="white"/>
<path d="M1263.87 268.161H1232.3V229.96H1263.87C1264.75 229.945 1265.62 230.105 1266.43 230.432C1267.24 230.76 1267.98 231.246 1268.61 231.864C1269.23 232.482 1269.72 233.219 1270.05 234.031C1270.39 234.842 1270.55 235.712 1270.55 236.589V261.532C1270.55 262.409 1270.39 263.279 1270.05 264.091C1269.72 264.902 1269.23 265.639 1268.61 266.257C1267.98 266.875 1267.24 267.362 1266.43 267.689C1265.62 268.016 1264.75 268.176 1263.87 268.161ZM1233.1 267.369H1263.87C1264.64 267.378 1265.4 267.233 1266.11 266.943C1266.83 266.653 1267.47 266.223 1268.02 265.68C1268.56 265.136 1268.99 264.489 1269.28 263.776C1269.57 263.064 1269.72 262.301 1269.71 261.532V236.589C1269.72 235.819 1269.58 235.054 1269.29 234.34C1269 233.626 1268.57 232.977 1268.03 232.433C1267.48 231.889 1266.83 231.46 1266.12 231.173C1265.4 230.886 1264.64 230.746 1263.87 230.761H1233.1V267.369ZM1263.87 263.955H1238.9C1238.26 263.947 1237.64 263.69 1237.19 263.237C1236.73 262.785 1236.48 262.173 1236.47 261.532V236.589C1236.48 235.949 1236.74 235.338 1237.19 234.886C1237.65 234.434 1238.26 234.176 1238.9 234.166H1263.83C1264.47 234.176 1265.08 234.434 1265.54 234.886C1265.99 235.338 1266.25 235.949 1266.26 236.589V261.532C1266.25 262.167 1266 262.773 1265.55 263.224C1265.11 263.676 1264.5 263.938 1263.87 263.955ZM1238.9 234.968C1238.47 234.973 1238.06 235.145 1237.75 235.447C1237.45 235.75 1237.27 236.16 1237.27 236.589V261.532C1237.27 261.962 1237.45 262.373 1237.75 262.677C1238.06 262.981 1238.47 263.156 1238.9 263.163H1263.83C1264.26 263.156 1264.67 262.981 1264.98 262.677C1265.28 262.373 1265.45 261.962 1265.46 261.532V236.589C1265.45 236.16 1265.28 235.75 1264.98 235.447C1264.67 235.145 1264.26 234.973 1263.83 234.968H1238.9Z" fill="white"/>
</svg>
