<?xml version="1.0" encoding="UTF-8" standalone="no"?>
<svg
   viewBox="0 0 276.2 276.2"
   version="1.1"
   id="svg48">
  <g
     transform="translate(0.09866369,0.1013163)"
     id="Coin_Gecko_AI">
    <path
       class="cls-2"
       d="M 310,183 A 138,138 0 1 1 171.4,45.61 138,138 0 0 1 310,183 Z"
       transform="translate(-34,-45.61)"
       id="path27"
       style="fill:#8dc63f" />
    <path
       class="cls-3"
       d="M 299.65,183.05 A 127.63,127.63 0 1 1 171.45,56 127.64,127.64 0 0 1 299.65,183.05 Z"
       transform="translate(-34,-45.61)"
       id="path29"
       style="fill:#f9e988" />
    <path
       class="cls-1"
       d="m 174.35,64.27 a 70.18,70.18 0 0 1 24.53,0 74.66,74.66 0 0 1 23.43,7.85 c 7.28,4 13.57,9.43 19.83,14.52 6.26,5.09 12.49,10.3 18.42,16 a 93.38,93.38 0 0 1 15.71,19 108.07,108.07 0 0 1 11,22.17 c 5.33,15.66 7.18,32.53 4.52,48.62 H 291 c -2.67,-15.95 -6.29,-31.15 -12,-45.61 A 178,178 0 0 0 269.56,125.57 208.8,208.8 0 0 0 257.14,105.64 72.3,72.3 0 0 0 240.5,88.84 C 234.02,84.22 226.57,81.23 219.36,78.39 212.15,75.55 205,72.61 197.48,70.45 189.96,68.29 182.32,66.67 174.34,65.1 Z"
       transform="translate(-34,-45.61)"
       id="path31"
       style="fill:#ffffff" />
    <path
       class="cls-4"
       d="m 236.74,138 c -9.26,-2.68 -18.86,-6.48 -28.58,-10.32 -0.56,-2.44 -2.72,-5.48 -7.09,-9.19 -6.35,-5.51 -18.28,-5.37 -28.59,-2.93 -11.38,-2.68 -22.62,-3.63 -33.41,-1 -88.25,24.31 -38.21,83.62 -70.61,143.24 4.61,9.78 54.3,66.84 126.2,51.53 0,0 -24.59,-59.09 30.9,-87.45 45.01,-23.09 77.53,-65.81 11.18,-83.88 z"
       transform="translate(-34,-45.61)"
       id="path33"
       style="fill:#8bc53f" />
    <path
       class="cls-1"
       d="m 247.64,176.81 a 5.35,5.35 0 1 1 -5.38,-5.32 5.36,5.36 0 0 1 5.38,5.32 z"
       transform="translate(-34,-45.61)"
       id="path35"
       style="fill:#ffffff" />
    <path
       class="cls-5"
       d="m 172.48,115.52 c 6.43,0.46 29.68,8 35.68,12.12 -5,-14.5 -21.83,-16.43 -35.68,-12.12 z"
       transform="translate(-34,-45.61)"
       id="path37"
       style="fill:#009345" />
    <path
       class="cls-1"
       d="m 178.6,152.19 a 24.68,24.68 0 1 1 -24.68,-24.67 24.67,24.67 0 0 1 24.68,24.67 z"
       transform="translate(-34,-45.61)"
       id="path39"
       style="fill:#ffffff" />
    <path
       class="cls-6"
       d="m 171.28,152.41 a 17.36,17.36 0 1 1 -17.36,-17.36 17.36,17.36 0 0 1 17.36,17.36 z"
       transform="translate(-34,-45.61)"
       id="path41"
       style="fill:#58595b" />
    <path
       class="cls-4"
       d="m 267.63,187.69 c -20,14.09 -42.74,24.78 -75,24.78 -15.1,0 -18.16,-16 -28.14,-8.18 -5.15,4.06 -23.31,13.14 -37.72,12.45 -14.41,-0.69 -37.77,-9.14 -44.28,-39.9 -2.58,30.76 -3.9,53.42 -15.45,79.39 23,36.83 77.84,65.24 127.62,53 -5.35,-37.35 27.29,-73.93 45.68,-92.65 7,-7.09 20.3,-18.66 27.29,-28.91 z"
       transform="translate(-34,-45.61)"
       id="path43"
       style="fill:#8bc53f" />
    <path
       class="cls-6"
       d="m 266.85,188.61 c -6.21,5.66 -13.6,9.85 -21.12,13.55 a 134.24,134.24 0 0 1 -23.7,8.63 c -8.16,2.11 -16.67,3.7 -25.29,2.92 -8.62,-0.78 -17.43,-3.71 -23.14,-10.17 l 0.27,-0.31 c 7,4.54 15.08,6.14 23.12,6.37 a 108.57,108.57 0 0 0 24.3,-2 132.34,132.34 0 0 0 23.61,-7.3 c 7.63,-3.15 15.18,-6.8 21.68,-12 z"
       transform="translate(-34,-45.61)"
       id="path45"
       style="fill:#58595b" />
  </g>
</svg>
