<svg id="svg" version="1.1" xmlns="http://www.w3.org/2000/svg" xmlns:xlink="http://www.w3.org/1999/xlink" width="400" height="400" viewBox="0, 0, 400,400"><g id="svgg"><path id="path0" d="M193.400 60.265 C 87.303 66.651,25.782 181.120,79.826 271.586 C 136.989 367.274,277.980 360.787,326.208 260.250 C 371.654 165.512,297.595 53.993,193.400 60.265 M240.621 156.211 C 241.834 156.961,243.039 158.166,243.789 159.379 L 245.000 161.337 245.000 200.000 L 245.000 238.663 243.789 240.621 C 243.039 241.834,241.834 243.039,240.621 243.789 L 238.663 245.000 200.000 245.000 L 161.337 245.000 159.379 243.789 C 158.166 243.039,156.961 241.834,156.211 240.621 L 155.000 238.663 154.881 200.832 C 154.801 175.488,154.899 162.526,155.178 161.565 C 155.863 159.200,157.737 157.003,160.054 155.848 L 162.181 154.788 200.422 154.894 L 238.663 155.000 240.621 156.211 " stroke="none" fill="#fbfbfc" fill-rule="evenodd"></path><path id="path1" d="M183.600 0.430 C 41.847 12.741,-42.613 163.705,21.396 290.354 C 71.215 388.926,191.706 428.461,290.354 378.604 C 388.926 328.785,428.461 208.294,378.604 109.646 C 348.052 49.197,290.688 9.389,222.000 0.970 C 215.675 0.195,190.400 -0.160,183.600 0.430 M218.000 60.975 C 299.040 72.238,353.239 147.995,337.351 227.800 C 321.507 307.389,239.678 357.134,161.458 334.729 C 87.317 313.492,44.049 235.548,65.271 161.458 C 81.090 106.232,129.390 66.081,186.800 60.433 C 192.560 59.866,212.516 60.213,218.000 60.975 M160.600 155.756 C 158.680 156.594,156.745 158.438,155.952 160.183 C 154.978 162.328,154.777 237.017,155.739 239.313 C 156.567 241.287,158.396 243.236,160.183 244.048 C 162.328 245.022,237.017 245.223,239.313 244.261 C 241.287 243.433,243.236 241.604,244.048 239.817 C 245.022 237.672,245.223 162.983,244.261 160.687 C 243.433 158.713,241.604 156.764,239.817 155.952 C 237.702 154.992,162.774 154.806,160.600 155.756 " stroke="none" fill="#0454fc" fill-rule="evenodd"></path><path id="path2" d="M181.500 155.100 C 191.675 155.159,208.325 155.159,218.500 155.100 C 228.675 155.040,220.350 154.992,200.000 154.992 C 179.650 154.992,171.325 155.040,181.500 155.100 M154.992 200.000 C 154.992 220.350,155.040 228.675,155.100 218.500 C 155.159 208.325,155.159 191.675,155.100 181.500 C 155.040 171.325,154.992 179.650,154.992 200.000 M244.992 200.000 C 244.992 220.350,245.040 228.675,245.100 218.500 C 245.159 208.325,245.159 191.675,245.100 181.500 C 245.040 171.325,244.992 179.650,244.992 200.000 M181.500 245.100 C 191.675 245.159,208.325 245.159,218.500 245.100 C 228.675 245.040,220.350 244.992,200.000 244.992 C 179.650 244.992,171.325 245.040,181.500 245.100 " stroke="none" fill="#5286fc" fill-rule="evenodd"></path><path id="path3" d="M192.700 60.282 C 193.195 60.378,194.005 60.378,194.500 60.282 C 194.995 60.187,194.590 60.109,193.600 60.109 C 192.610 60.109,192.205 60.187,192.700 60.282 M205.500 60.282 C 205.995 60.378,206.805 60.378,207.300 60.282 C 207.795 60.187,207.390 60.109,206.400 60.109 C 205.410 60.109,205.005 60.187,205.500 60.282 M60.109 193.600 C 60.109 194.590,60.187 194.995,60.282 194.500 C 60.378 194.005,60.378 193.195,60.282 192.700 C 60.187 192.205,60.109 192.610,60.109 193.600 M339.709 193.600 C 339.709 194.590,339.787 194.995,339.882 194.500 C 339.978 194.005,339.978 193.195,339.882 192.700 C 339.787 192.205,339.709 192.610,339.709 193.600 M60.109 206.400 C 60.109 207.390,60.187 207.795,60.282 207.300 C 60.378 206.805,60.378 205.995,60.282 205.500 C 60.187 205.005,60.109 205.410,60.109 206.400 M339.709 206.400 C 339.709 207.390,339.787 207.795,339.882 207.300 C 339.978 206.805,339.978 205.995,339.882 205.500 C 339.787 205.005,339.709 205.410,339.709 206.400 M100.783 298.900 C 102.441 300.666,102.800 300.984,102.800 300.683 C 102.800 300.619,101.945 299.764,100.900 298.783 L 99.000 297.000 100.783 298.900 M298.800 299.000 C 297.828 299.990,297.123 300.800,297.233 300.800 C 297.343 300.800,298.228 299.990,299.200 299.000 C 300.172 298.010,300.877 297.200,300.767 297.200 C 300.657 297.200,299.772 298.010,298.800 299.000 M192.700 339.882 C 193.195 339.978,194.005 339.978,194.500 339.882 C 194.995 339.787,194.590 339.709,193.600 339.709 C 192.610 339.709,192.205 339.787,192.700 339.882 M205.500 339.882 C 205.995 339.978,206.805 339.978,207.300 339.882 C 207.795 339.787,207.390 339.709,206.400 339.709 C 205.410 339.709,205.005 339.787,205.500 339.882 " stroke="none" fill="#84acfc" fill-rule="evenodd"></path><path id="path4" d="M100.786 101.100 L 98.600 103.400 100.900 101.214 C 103.037 99.182,103.383 98.800,103.086 98.800 C 103.024 98.800,101.989 99.835,100.786 101.100 M298.800 101.000 C 299.995 102.210,301.063 103.200,301.173 103.200 C 301.283 103.200,300.395 102.210,299.200 101.000 C 298.005 99.790,296.937 98.800,296.827 98.800 C 296.717 98.800,297.605 99.790,298.800 101.000 " stroke="none" fill="#7cacfc" fill-rule="evenodd"></path></g></svg>