<svg xmlns="http://www.w3.org/2000/svg" viewBox="0 0 2160 569.72"><defs><style>.cls-1{fill:#009add;}.cls-2{fill:#006793;}.cls-3{fill:#00334a;}</style></defs><g id="Layer_2" data-name="Layer 2"><g id="Layer_1-2" data-name="Layer 1"><g id="DARK"><polygon class="cls-1" points="46.52 175.56 0 148.71 0 421.03 46.52 394.17 46.52 175.56"/><polygon points="484.22 148.71 484.22 421.03 437.7 394.17 437.7 175.56 484.22 148.71"/><polygon class="cls-2" points="46.52 406.71 0 433.56 235.84 569.72 235.84 516.01 46.52 406.71"/><polygon class="cls-3" points="437.7 406.71 484.22 433.56 248.38 569.72 248.38 516.01 437.7 406.71"/><polygon class="cls-3" points="248.38 0 484.22 136.16 437.7 163.02 248.38 53.72 248.38 0"/><polygon class="cls-2" points="235.84 0 0 136.16 46.52 163.02 235.84 53.72 235.84 0"/><polygon points="284.18 346.27 284.18 223.46 315.47 241.41 315.47 328.09 284.18 346.27"/><polygon points="242.11 315.58 242.11 254.15 261.24 265.13 261.24 304.47 242.11 315.58"/><polygon points="350.21 383.52 350.21 186.22 396.72 212.91 396.72 356.49 350.21 383.52"/><path d="M701,421V352.57H529.67V306.05L704,148.7h46.53v154h38.2v49.92h-38.2V421ZM606.83,302.65H701V224Z"/><path d="M861.69,421a48.91,48.91,0,0,1-48.81-48.8V153h46.33v63h79.93v46.33H859.21V362.32q0,9.9,1.24,11.14t11.14,1.24h67.55V421Z"/><path d="M973.44,421V148.7h46.33v67.2H1133q19.8,0,34.31,14.33a46.73,46.73,0,0,1,14.5,34.48V421h-46.34V274.61q0-9.9-1.23-11.14t-11.14-1.24h-90.9q-9.9,0-11.14,1.24t-1.24,11.14V421Z"/><path d="M1300,421V199h-111.2V148.7h272.32V199H1350.33V421Z"/><path d="M1525.87,421a48.89,48.89,0,0,1-48.8-48.8V264.71a48.91,48.91,0,0,1,48.8-48.81h110.7a48.93,48.93,0,0,1,48.81,48.81v77.1h-162v20.51q0,9.9,1.24,11.14t11.14,1.24h149.6V421Zm-2.47-121h115.65V274.61q0-9.9-1.24-11.14t-11.14-1.24h-90.89q-9.91,0-11.14,1.24t-1.24,11.14Z"/><path d="M1762.47,421a48.89,48.89,0,0,1-48.8-48.8V264.71a48.91,48.91,0,0,1,48.8-48.81h159.16v46.33H1772.38q-9.92,0-11.14,1.24T1760,274.61v87.71q0,9.9,1.24,11.14t11.14,1.24H1922V421Z"/><path d="M1951.69,421V148.7H1998v67.2h113.17q19.82,0,34.31,14.33a46.73,46.73,0,0,1,14.5,34.48V421h-46.33V274.61q0-9.9-1.24-11.14t-11.14-1.24H2010.4q-9.92,0-11.14,1.24T1998,274.61V421Z"/></g></g></g></svg>