<?xml version="1.0" encoding="UTF-8"?>
<svg width="117.82" height="36.667" fill="#000000" version="1.1" viewBox="0 0 88.366 27.5" xmlns="http://www.w3.org/2000/svg">
 <path d="m13.75 3.75c-5.514 0-10 4.486-10 10 0 5.514 4.486 10 10 10 5.514 0 10-4.486 10-10 0-5.514-4.486-10-10-10zm0 1.5c4.7033 0 8.5 3.7967 8.5 8.5 0 3.8327-2.5215 7.0613-6 8.126v-2.5576c0-0.9551-0.5503-1.7741-1.3457-2.1817 0.7733-0.1479 1.4914-0.4413 2.0947-0.8558 0.6032-0.4144 1.0742-0.938 1.3738-1.5272s0.4193-1.2272 0.349-1.8608-0.3284-1.2447-0.753-1.7826c0.2217-0.68264 0.4695-1.88-0.1192-2.8223-1.1349 0-1.8673 0.77795-2.2168 1.2617-0.5975-0.19628-1.2369-0.2981-1.8828-0.2998-0.6463 5.7e-4 -1.2864 0.10139-1.8848 0.29688-0.35033-0.48399-1.0821-1.2588-2.2148-1.2588-0.67553 1.0813-0.25793 2.2442-0.03418 2.7188-0.45333 0.53551-0.73759 1.151-0.8284 1.7937-0.09082 0.6426 0.01452 1.2933 0.30697 1.8963s0.76331 1.1402 1.3722 1.5656c0.60889 0.4255 1.3376 0.7265 2.1238 0.8772-0.6531 0.3366-1.1422 0.9474-1.292 1.6885h-0.65723c-0.6485 0-0.90047-0.2635-1.251-0.708-0.346-0.4445-0.71803-0.7432-1.165-0.8672-0.241-0.0255-0.40336 0.1578-0.19336 0.3203 0.7095 0.483 0.75847 1.2736 1.043 1.7911 0.259 0.466 0.78964 0.8857 1.3896 0.8857h0.78516v1.626c-3.4785-1.0647-6-4.2933-6-8.126 0-4.7033 3.7967-8.5 8.5-8.5z"/>
 <g transform="translate(1.75,1.75)" stroke-width=".75" aria-label="GitHub">
  <path d="m33.672 19.773q-1.54 0-2.948-0.44-1.386-0.462-2.486-1.364-1.078-0.924-1.716-2.332-0.616-1.43-0.616-3.366 0-2.442 0.99-4.18 1.012-1.76 2.728-2.684 1.738-0.946 3.916-0.946 0.88 0 1.65 0.11 0.792 0.11 1.364 0.242t0.792 0.198l0.396 4.532h-1.782l-1.122-2.706q-0.198-0.022-0.44-0.044t-0.902-0.022q-1.232 0-2.288 0.682-1.034 0.682-1.672 1.914-0.616 1.232-0.616 2.904 0 1.54 0.616 2.728t1.826 1.87q1.232 0.66 2.992 0.66 0.242 0 0.396 0 0.176-0.022 0.264-0.044v-2.838l-2.266-0.308 0.396-1.782h4.752v6.93q-0.396 0.044-1.078 0.132-0.682 0.066-1.518 0.11-0.814 0.044-1.628 0.044z"/>
  <path d="m38.417 19.685-0.242-1.408 1.232-0.286v-7.062h-1.122l-0.242-1.496 3.278-0.572 0.748 0.792v8.382l1.21 0.242v1.408zm2.156-12.98q-0.66 0-1.144-0.462-0.462-0.484-0.462-1.144 0-0.638 0.462-1.1 0.484-0.484 1.144-0.484t1.122 0.484q0.462 0.462 0.462 1.1 0 0.66-0.462 1.144-0.462 0.462-1.122 0.462z"/>
  <path d="m47.099 19.773q-0.726 0-1.364-0.264-0.616-0.264-1.012-0.946t-0.396-1.914l0.044-5.764h-1.672l-0.33-1.782 0.154-0.22h1.87l0.044-3.696 2.354-0.506 0.198 0.352v3.85h2.222q0.11 0 0.11 0.132v1.87h-2.332v5.742q0 0.682 0.176 0.858 0.176 0.154 0.506 0.154 0.374 0 0.814-0.242t0.638-0.396l0.55 1.782q-0.286 0.33-1.012 0.66t-1.562 0.33z"/>
  <path d="m49.677 19.685-0.33-1.958 1.43-0.286v-10.802l-1.386-0.154v-2.002h5.368l0.33 2.046-1.43 0.264v3.938h4.95v-4.092l-1.232-0.154v-2.002h5.434l0.33 2.046-1.65 0.264v10.714l1.606 0.264-0.022 1.914h-5.412l-0.33-1.958 1.276-0.286v-4.4h-4.95v4.466l1.386 0.264 0.022 1.914z"/>
  <path d="m67.233 19.773q-1.034 0-1.804-0.352t-1.188-1.078q-0.418-0.748-0.418-1.87v-5.544h-1.122l-0.242-1.474 3.256-0.594 0.77 0.836v6.27q0 0.418 0.11 0.748 0.11 0.308 0.308 0.528t0.462 0.33q0.286 0.088 0.616 0.088 0.594 0 1.1-0.352t0.682-0.792v-5.654l-0.99 0.066-0.264-1.474 3.146-0.594 0.77 0.836v7.678q0 0.286 0.11 0.396 0.11 0.088 0.242 0.088 0.11 0 0.198-0.022t0.11-0.022l0.418 1.232q-0.132 0.154-0.594 0.44-0.44 0.286-1.122 0.286-0.572 0-1.056-0.242-0.462-0.242-0.726-0.814-0.506 0.55-1.276 0.814-0.77 0.242-1.496 0.242z"/>
  <path d="m74.682 19.773-0.704-0.594v-13.816l-1.144 0.066-0.242-1.496 3.278-0.44 0.748 0.77v5.038q0.352-0.176 0.814-0.286 0.484-0.132 1.1-0.132 1.32 0 2.288 0.638 0.968 0.638 1.496 1.826 0.55 1.166 0.55 2.816 0 1.606-0.418 2.706-0.418 1.078-1.122 1.716t-1.584 0.924q-0.88 0.264-1.782 0.264-0.616 0-1.144-0.11-0.528-0.132-0.968-0.352zm3.278-2.068q0.594 0 1.078-0.352 0.506-0.374 0.792-1.122 0.308-0.77 0.308-1.958 0-1.144-0.286-1.87-0.264-0.748-0.748-1.1t-1.1-0.352q-0.418 0-0.792 0.11-0.352 0.11-0.594 0.286v6.072q0.198 0.132 0.594 0.22 0.396 0.066 0.748 0.066z"/>
 </g>
</svg>
