<?xml version="1.0" encoding="UTF-8" standalone="no"?>
<svg
   xmlns="http://www.w3.org/2000/svg"
   width="120"
   height="32"
   viewBox="0 0 90 24"
   version="1.1"
   id="svg4"
   style="fill:#000">
  <path
     d="M 12,2 C 6.48603,2 2,6.48604 2,12 2,17.514 6.48603,22 12,22 17.514,22 22,17.514 22,12 22,6.48604 17.514,2 12,2 Z m 0,1.5 c 4.7033,0 8.5,3.7967 8.5,8.5 0,3.8327 -2.5215,7.0613 -6,8.126 v -2.5576 c 0,-0.9551 -0.5503,-1.7741 -1.3457,-2.1817 0.7733,-0.1479 1.4914,-0.4413 2.0947,-0.8558 0.6032,-0.4144 1.0742,-0.938 1.3738,-1.5272 0.2996,-0.5892 0.4193,-1.2272 0.349,-1.8608 -0.0703,-0.6336 -0.3284,-1.24472 -0.753,-1.78255 0.2217,-0.68264 0.4695,-1.88001 -0.1192,-2.82226 -1.1349,0 -1.8673,0.77795 -2.2168,1.26171 C 13.2853,7.60352 12.6459,7.5017 12,7.5 11.3537,7.50057 10.7136,7.60139 10.1152,7.79688 9.76487,7.31289 9.03311,6.53809 7.90039,6.53809 7.22486,7.61941 7.64246,8.78228 7.86621,9.25684 7.41288,9.79235 7.12862,10.4078 7.03781,11.0505 c -0.09082,0.6426 0.01452,1.2933 0.30697,1.8963 0.29245,0.603 0.76331,1.1402 1.3722,1.5656 0.60889,0.4255 1.33762,0.7265 2.12382,0.8772 -0.6531,0.3366 -1.14216,0.9474 -1.29197,1.6885 H 8.8916 c -0.6485,0 -0.90047,-0.2635 -1.25098,-0.708 -0.346,-0.4445 -0.71803,-0.7432 -1.16503,-0.8672 -0.241,-0.0255 -0.40336,0.1578 -0.19336,0.3203 0.7095,0.483 0.75847,1.2736 1.04297,1.7911 0.259,0.466 0.78964,0.8857 1.38964,0.8857 H 9.5 v 1.626 C 6.02153,19.0613 3.5,15.8327 3.5,12 3.5,7.2967 7.29669,3.5 12,3.5 Z"
     id="path2"
     inkscapeConnector-curvature="0"
     style="fill:#000" />
  <text
     xml:space="preserve"
     style="font-weight:bold;font-size:30px;line-height:1.25;font-family:Kreon;-inkscape-font-specification:'Kreon Bold';letter-spacing:0px;word-spacing:0px;stroke-width:0.75;fill:#000"
     x="25.312025"
     y="19.68545"
     id="text827"><tspan
       sodipodiRole="line"
       id="tspan825"
       x="25.312025"
       y="19.68545"
       style="font-size:22px;line-height:0.25;letter-spacing:-1.46249998px"
       dx="0">GitHub</tspan></text>
</svg>
