<svg width="121" height="26" viewBox="0 0 121 26" fill="none" xmlns="http://www.w3.org/2000/svg">
<path fill-rule="evenodd" clip-rule="evenodd" d="M6.50824 11.0918L14.5718 19.3001L22.5493 11.1794L29.0902 17.8377L21.4906 25.5738L19.5355 23.6367L25.2322 17.8377L22.5493 15.1067L14.5718 23.2274L6.50824 15.019L3.85799 17.7169L9.64133 23.604L7.68629 25.5411L0 17.7169L6.50824 11.0918Z" fill="white"/>
<path fill-rule="evenodd" clip-rule="evenodd" d="M22.582 15.0189L14.5184 6.81054L6.54091 14.9312L2.28882e-05 8.27294L7.59967 0.536873L9.55471 2.47398L3.85801 8.27294L6.54091 11.004L14.5184 2.8833L22.582 11.0916L25.2322 8.3938L19.4489 2.50663L21.4039 0.56953L29.0902 8.3938L22.582 15.0189Z" fill="white"/>
<path fill-rule="evenodd" clip-rule="evenodd" d="M13.3147 25.381L13.3147 20.2094H15.9479L15.9479 25.381H13.3147Z" fill="white"/>
<path fill-rule="evenodd" clip-rule="evenodd" d="M13.3147 5.90128L13.3147 0.729717L15.9479 0.729717L15.9479 5.90128L13.3147 5.90128Z" fill="white"/>
<path d="M41.7141 6.64251H39.0902V19.8535H41.7141V6.64251Z" fill="white"/>
<path d="M55.0236 10.1288C53.8309 10.1288 52.6933 10.6425 52.1245 11.7618C51.5373 10.6425 50.4364 10.1288 49.152 10.1288C47.9961 10.1288 47.1153 10.5691 46.6566 11.3581L46.3814 10.3122H43.9961V19.8535H46.5649V14.5141C46.5649 13.1012 47.2988 12.4223 48.3814 12.4223C49.4089 12.4223 50.1061 13.0645 50.1061 14.6242V19.8535H52.5832V14.5691C52.6199 13.0829 53.3906 12.4223 54.3997 12.4223C55.4456 12.4223 56.1245 13.0645 56.1245 14.4957V19.8719H58.7117V13.982C58.7117 11.3398 56.9318 10.1288 55.0236 10.1288Z" fill="white"/>
<path d="M71.7774 10.1288C70.5848 10.1288 69.4472 10.6425 68.8784 11.7618C68.2912 10.6425 67.1903 10.1288 65.9059 10.1288C64.7499 10.1288 63.8692 10.5691 63.4105 11.3581L63.1352 10.3122H60.7499V19.8535H63.3187V14.5141C63.3187 13.1012 64.0527 12.4223 65.1352 12.4223C66.1628 12.4223 66.86 13.0645 66.86 14.6242V19.8535H69.3371V14.5691C69.3738 13.0829 70.1444 12.4223 71.1536 12.4223C72.1995 12.4223 72.8784 13.0645 72.8784 14.4957V19.8719H75.4655V13.982C75.4655 11.3398 73.6857 10.1288 71.7774 10.1288Z" fill="white"/>
<path d="M83.7607 10.3122V15.5416C83.7607 16.9544 83.1001 17.7985 81.8341 17.8168C80.6231 17.8535 79.8524 17.1379 79.8524 15.6517V10.3122H77.412V15.982C77.412 18.4223 78.8249 20.037 81.2653 20.037C82.4029 20.037 83.2286 19.5232 83.724 18.8077L83.8524 19.8535H86.201V10.3122H83.7607Z" fill="white"/>
<path d="M93.7395 10.1288C92.3083 10.1288 91.3541 10.6609 90.8587 11.4499L90.7119 10.3122H88.3266V19.8535H90.8954V14.8077C90.8954 13.2664 91.6294 12.3306 92.9872 12.3306C94.2349 12.3306 94.9872 13.1379 94.9872 14.7159V19.8535H97.5743V14.1838C97.5743 11.7434 96.1798 10.1288 93.7395 10.1288Z" fill="white"/>
<path d="M108.808 14.9361C108.808 12.0187 106.918 10.1288 104.074 10.1288C101.23 10.1288 99.3222 12.1104 99.3222 15.0829C99.3222 18.0737 101.23 20.0554 104.093 20.0554C106.496 20.0554 108.313 18.7159 108.735 16.7343H106.148C105.854 17.5599 105.102 17.982 104.166 17.982C102.937 17.982 101.946 17.193 101.909 15.7801H108.808V14.9361ZM104.074 12.1288C105.194 12.1288 106.13 12.771 106.24 14.0921H101.928C102.038 12.771 102.974 12.1288 104.074 12.1288Z" fill="white"/>
<path d="M109.811 10.3122V12.5508H111.279V19.8535H113.866V12.5508H116.05V10.3122H113.866V9.33976C113.866 8.66086 114.05 8.1471 115.096 8.1471H116.05V6.05536H114.527C112.123 6.05536 111.279 7.22967 111.279 9.08288V10.3122H109.811Z" fill="white"/>
<path d="M117.747 8.84435H120.352L120.389 6.05536H117.783L117.747 8.84435ZM117.783 19.8535H120.352V10.3122H117.783V19.8535Z" fill="white"/>
</svg>
