<?xml version="1.0" encoding="UTF-8"?>
<svg width="517.25" height="111.23" enable-background="new 0 0 220.507 220.454" version="1.1" viewBox="0 0 517.25 111.23" xml:space="preserve" xmlns="http://www.w3.org/2000/svg">
	<linearGradient id="SVGID_1_" x2="220.51" y1="110.23" y2="110.23" gradientTransform="matrix(.4592 0 0 .4592 5.002 5.0005)" gradientUnits="userSpaceOnUse">
		<stop stop-color="#F1BA3D" offset="0"/>
		<stop stop-color="#EA227A" offset="1"/>
	</linearGradient>
	<path d="m105.87 66.874c-6.3361 23.059-25.61 38.789-48.212 39.344-23.161 0.56711-43.884-14.488-50.577-36.743-6.5198-21.689 2.6115-45.43 22.182-57.731 4.5167-2.8397 9.4559-4.6728 14.504-6.2681 0.83208-0.54278 2.0522-0.76733 2.3479 0.12398 0.56987 1.722-1.3896 2.1785-2.2106 3.2222-17.783 16.288-18.593 43.47-1.7987 60.298 16.719 16.752 44.162 16.023 60.394-1.626 0.91152-0.99555 1.6384-2.1578 2.4498-3.2388 1.9176 0.31043 1.2399 1.5241 0.91474 2.6165" fill="url(#SVGID_1_)" stroke-width=".4592"/>
	<g transform="matrix(.4592 0 0 .4592 5.002 5.0005)">
		<path id="SVGCleanerId_0_1_" d="m213.18 34.82c-1.857-0.337-3.657-0.796-5.348-1.365-12.399-4.17-19.408-14.3-21.715-27.341-0.219-1.235-2.001-1.236-2.22 0-2.681 15.154-11.601 25.871-26.985 28.726-1.224 0.227-1.224 1.99 0 2.217 15.243 2.819 24.32 13.516 26.991 28.548 0.168 0.947 1.168 0.952 1.111 0.93 0.546-1e-3 1.014-0.394 1.108-0.932 1.359-7.752 5.178-18.285 15.645-24.434 3.345-1.962 7.185-3.352 11.415-4.13 0.535-0.099 0.924-0.566 0.923-1.11 0-0.545-0.39-1.012-0.925-1.109z"/>
	</g>
	<path d="m80.155 34.419c-2.0141-0.66814-3.3462-2.1688-3.9946-4.2435-0.11618-0.37241-0.50834-0.36828-0.49364-0.36323-0.22639 0-0.42661 0.14694-0.49364 0.36277-0.6282 2.0053-1.9424 3.5391-3.9951 4.2417-0.46518 0.15934-0.46564 0.82014 4.5e-4 0.97948 2.0384 0.69799 3.3614 2.2198 3.9951 4.244 0.11708 0.37287 0.50833 0.36736 0.49456 0.36277 0.22684 0 0.42705-0.14786 0.49364-0.36461 0.46884-1.5149 1.2945-2.6863 2.4563-3.4812 1.2702-0.86973 1.8928-0.61717 1.8924-1.2472-8.8e-4 -0.22317-0.14373-0.42063-0.35542-0.49089z" stroke-width=".4592"/>
	<path d="m73.23 10.805c-2.0219-0.67044-3.349-2.1771-3.9946-4.243-0.11664-0.37241-0.5088-0.36828-0.4941-0.36323-0.22593 0-0.4266 0.14694-0.49365 0.36323-0.62681 2.0007-1.9388 3.5372-3.9951 4.2417-0.46518 0.15934-0.46563 0.82014 4.6e-4 0.97948 2.0434 0.69982 3.3632 2.2253 3.9946 4.2439 0.11756 0.37287 0.50879 0.36782 0.49502 0.36277 0.22639 0 0.42706-0.14832 0.4941-0.36461 0.77514-2.5082 2.3373-3.3637 2.4563-3.4812 1.2656-0.86789 1.8924-0.6213 1.8919-1.2477-8.9e-4 -0.22363-0.14373-0.42109-0.35496-0.49135z" stroke-width=".4592"/>
	<g transform="translate(-123.57 -28.35)" aria-label="MOONLIGHT">
		<path d="m249.76 60.522h8.5625l10.625 32.062 10.781-32.062h8.4375l7.75 45.969h-8.4375l-4.9375-29.031-9.7812 29.031h-7.7188l-9.6562-29.031-5.0312 29.031h-8.5312z"/>
		<path d="m324.66 59.365q9.75 0 16.75 7.0625 7.0312 7.0625 7.0312 17.219 0 10.062-6.9375 17.031-6.9062 6.9688-16.781 6.9688-10.344 0-17.188-7.1562-6.8438-7.1562-6.8438-17 0-6.5938 3.1875-12.125t8.75-8.75q5.5938-3.25 12.031-3.25zm-0.0937 8.5625q-6.375 0-10.719 4.4375t-4.3438 11.281q0 7.625 5.4688 12.062 4.25 3.4688 9.75 3.4688 6.2188 0 10.594-4.5t4.375-11.094q0-6.5625-4.4062-11.094-4.4062-4.5625-10.719-4.5625z"/>
		<path d="m378.41 59.365q9.75 0 16.75 7.0625 7.0312 7.0625 7.0312 17.219 0 10.062-6.9375 17.031-6.9062 6.9688-16.781 6.9688-10.344 0-17.188-7.1562-6.8438-7.1562-6.8438-17 0-6.5938 3.1875-12.125t8.75-8.75q5.5938-3.25 12.031-3.25zm-0.0937 8.5625q-6.375 0-10.719 4.4375t-4.3438 11.281q0 7.625 5.4688 12.062 4.25 3.4688 9.75 3.4688 6.2188 0 10.594-4.5t4.375-11.094q0-6.5625-4.4062-11.094-4.4062-4.5625-10.719-4.5625z"/>
		<path d="m410.48 60.522h8.375l19.719 30.25v-30.25h8.75v45.969h-8.4062l-19.688-30.156v30.156h-8.75z"/>
		<path d="m457.82 60.522h8.75v37.625h16.72v8.3437h-25.47z"/>
		<path d="m493.32 60.522h8.6875v45.969h-8.6875z"/>
		<path d="m554.26 68.022-6.1562 6.0938q-5.8438-6.1875-13.625-6.1875-6.7812 0-11.375 4.5-4.5625 4.5-4.5625 10.938 0 6.6562 4.75 11.281t11.719 4.625q4.5312 0 7.625-1.9062 3.125-1.9062 5.0312-5.9688h-13.312v-8.2188h23.125l0.0625 1.9375q0 6.0312-3.125 11.438-3.125 5.4062-8.0938 8.25t-11.656 2.8438q-7.1562 0-12.781-3.0938-5.5938-3.125-8.875-8.875-3.25-5.75-3.25-12.406 0-9.125 6.0312-15.875 7.1562-8.0312 18.625-8.0312 6 0 11.219 2.2188 4.4062 1.875 8.625 6.4375z"/>
		<path d="m565.54 60.522h8.875v17.344h15.375v-17.344h8.8438v45.969h-8.8438v-20.156h-15.375v20.156h-8.875z"/>
		<path d="m605.74 60.522h30.077v8.625h-10.243v37.344h-8.875v-37.344h-10.959z"/>
	</g>
</svg>
