<?xml version="1.0" encoding="UTF-8"?>
<svg width="125.36" height="38" version="1.1" viewBox="0 0 125.36 38" xmlns="http://www.w3.org/2000/svg">
 <g id="LOGO" transform="translate(-3,-1)">
  <path id="形状结合" d="m8 6 4.34 4.34a12.11 12.11 0 0 1 19.66 9.1v14.56l-4.34-4.34a12.11 12.11 0 0 1-19.66-9.1zm3 7.17v7a9.14 9.14 0 0 0 14.2 7.63l0.23-0.16-13.9-13.89zm3.84-1-0.23 0.16 14.47 14.47v-7a9.14 9.14 0 0 0-14.28-7.6z"/>
 </g>
 <g stroke-width=".70234" aria-label="ONTO">
  <path d="m42.036 19.123q0-3.0727 0.91908-5.1578 0.68588-1.5364 1.8656-2.7572 1.1934-1.2209 2.6063-1.8107 1.8793-0.79562 4.3347-0.79562 4.4445 0 7.1057 2.7572 2.6749 2.7572 2.6749 7.6681 0 4.8697-2.6475 7.627-2.6475 2.7435-7.0783 2.7435-4.4856 0-7.1331-2.7298-2.6475-2.7435-2.6475-7.5447zm4.1839-0.13718q0 3.4157 1.5775 5.1852 1.5775 1.7558 4.0055 1.7558 2.428 0 3.9781-1.7421 1.5638-1.7558 1.5638-5.2538 0-3.4568-1.5226-5.1578-1.5089-1.701-4.0192-1.701t-4.0467 1.7284q-1.5364 1.7147-1.5364 5.1852z"/>
  <path d="m64.739 29.055v-20.11h3.9507l8.2305 13.429v-13.429h3.7723v20.11h-4.0741l-8.1071-13.114v13.114z"/>
  <path d="m89.526 29.055v-16.708h-5.9671v-3.402h15.981v3.402h-5.9534v16.708z"/>
  <path d="m100.86 19.123q0-3.0727 0.91907-5.1578 0.68588-1.5364 1.8656-2.7572 1.1934-1.2209 2.6063-1.8107 1.8793-0.79562 4.3348-0.79562 4.4445 0 7.1057 2.7572 2.6749 2.7572 2.6749 7.6681 0 4.8697-2.6475 7.627-2.6475 2.7435-7.0783 2.7435-4.4856 0-7.1331-2.7298-2.6475-2.7435-2.6475-7.5447zm4.1838-0.13718q0 3.4157 1.5775 5.1852 1.5775 1.7558 4.0055 1.7558t3.9781-1.7421q1.5638-1.7558 1.5638-5.2538 0-3.4568-1.5226-5.1578-1.5089-1.701-4.0192-1.701t-4.0467 1.7284q-1.5364 1.7147-1.5364 5.1852z"/>
 </g>
</svg>
