<?xml version="1.0" encoding="UTF-8"?>
<svg width="977.89" height="164.9" version="1.1" viewBox="0 0 977.89 164.9" xmlns="http://www.w3.org/2000/svg">
 <ellipse cx="82.837" cy="83.612" rx="58.958" ry="58.182" fill="#000" stroke-width=".77576"/>
 <path d="m144.88 82.39c0.73542 32.815-26.669 62.531-62.451 62.508-35.723-0.03568-62.81-29.74-62.428-62.626 0.40006-34.696 27.84-62.296 62.687-62.272 34.505 0.023583 62.192 27.794 62.192 62.39zm-71.57 52.636c0.32947-0.0706 0.65304-0.14196 0.9825-0.20635-0.44707-18.594-2.1709-37.248 2.5651-55.365-0.81773-0.71308-1.1943-1.22-1.6944-1.4498-2.5768-1.1905-5.1479-2.3987-7.7953-3.4301-4.6478-1.8093-6.4422-4.9211-5.6068-10.502 1.0237 0.49509 1.9415 0.97839 2.8946 1.3909 3.1358 1.3614 6.2187 2.8937 9.4427 3.99 4.2772 1.4557 5.1126 2.5637 4.4478 7.1313-0.45304 3.1059-1.0296 6.2059-1.2649 9.3357-0.21768 2.8579 2.4827 6.7654 4.6536 7.2316 1.8828 0.4065 4.7888-2.0278 5.7065-5.134 0.37081-1.249 0.20635-2.7051 0.07059-4.0487-0.30565-3.1235-0.79981-6.2236-1.1055-9.3472-0.26531-2.6698 1.1411-4.0725 3.6182-4.9506 3.4948-1.2318 6.8771-2.7877 10.301-4.2139 0.93557-0.38904 1.8595-0.8251 2.9068-1.2966 0.48253 6.3003-1.1179 8.6754-6.4598 10.656-2.8889 1.0726-5.6421 2.5048-8.8313 3.9487 4.7593 18.836 2.9533 37.536 3.2303 56.266 1.3824-1.5732 2.3475-3.2295 3.2-4.9385 0.74163-1.491 1.3359-3.0534 2.024-4.5739 3.2714-7.2371 6.6778-14.415 9.749-21.735 0.95264-2.2807 1.3646-4.9393 1.394-7.4318 0.13575-12.276 0.12334-24.553 0.0233-36.829-0.0233-2.9291-0.0939-6.0056-0.98212-8.7403-1.5888-4.8917-3.0123-10.155-5.9478-14.215-5.2837-7.3081-13.356-9.306-22.057-8.1686-6.9482 0.90764-13.09 4.0607-16.244 10.385-3.3123 6.6421-5.4126 13.879-5.3597 21.535 0.08239 12.082-0.01761 24.158 0.07059 36.24 0.01179 1.927 0.22358 4.0076 0.97668 5.7399 4.3595 10.072 8.8897 20.068 13.402 30.076 0.42364 0.94255 1.1179 1.7742 1.6885 2.6523z" fill="#fb2715" stroke-width=".77576"/>
 <g transform="matrix(1.074 0 0 1.074 -52.973 -25.411)" stroke-width="1.3542">
  <path d="m230.56 122.06c-1.2026 0-2.5189-0.0325-3.9489-0.0975-1.4314-0.0664-2.8208-0.1449-4.1683-0.24376-1.3488-0.0975-2.5757-0.21126-3.6808-0.34127v-3.5602c1.17 0.0975 2.397 0.19636 3.6808 0.29386s2.5351 0.18011 3.7539 0.24376c1.2188 0.0664 2.2507 0.0975 3.0958 0.0975 1.7212 0 3.1039-0.0745 4.1439-0.21938 1.04-0.1449 1.9176-0.43064 2.6326-0.85316 0.48752-0.29251 0.84503-0.68253 1.0725-1.17 0.22616-0.48616 0.36564-1.0549 0.41439-1.7063 0.0488-0.65002 0.0731-1.3488 0.0731-2.0963 0-1.1037-0.0325-1.9988-0.0975-2.68-0.065-0.68388-0.23699-1.212-0.5119-1.5858-0.27626-0.37241-0.72315-0.64867-1.3407-0.82878-0.61752-0.17741-1.4463-0.31554-2.4864-0.41439l-8.3366-0.92629c-1.5601-0.19501-2.8114-0.52815-3.7539-0.99942-0.94253-0.47127-1.6494-1.0725-2.1207-1.8038s-0.78815-1.6088-0.95066-2.6326c-0.16251-1.0238-0.24376-2.1695-0.24376-3.4357 0-2.0476 0.26814-3.6903 0.80441-4.9253 0.53627-1.235 1.3244-2.1762 2.3645-2.8276 1.04-0.64867 2.2995-1.0793 3.7783-1.2906 1.4788-0.21126 3.177-0.31689 5.0946-0.31689 1.235 0 2.5026 0.03115 3.8026 0.0975 1.3 0.065 2.527 0.15303 3.6808 0.26678 1.1538 0.11376 2.1045 0.25324 2.852 0.41575v3.4614c-0.84638-0.13-1.8201-0.24511-2.9251-0.34126-1.105-0.0975-2.2345-0.17063-3.3883-0.21938-1.1538-0.04875-2.2507-0.07313-3.2908-0.07313-1.7876 0-3.2352 0.08125-4.3389 0.24376-1.105 0.16251-1.9826 0.45502-2.6326 0.87754-0.71502 0.42252-1.1619 1.0157-1.3407 1.7781-0.17876 0.76243-0.26814 1.6819-0.26814 2.7545 0 1.2676 0.0894 2.2507 0.26814 2.9495 0.1774 0.70014 0.56741 1.1877 1.17 1.4626 0.60128 0.27626 1.5032 0.4794 2.7057 0.6094l8.1416 0.92629c1.17 0.0975 2.2006 0.25324 3.0958 0.4645 0.89378 0.21126 1.6643 0.56065 2.3157 1.0468 0.64868 0.48617 1.1376 1.1876 1.4626 2.0963 0.19501 0.45637 0.34127 0.95878 0.43877 1.5113 0.0975 0.55252 0.17063 1.1619 0.21938 1.8282 0.0488 0.66627 0.0731 1.407 0.0731 2.2196 0 1.8512-0.17875 3.3883-0.53627 4.6071-0.35751 1.2174-0.86128 2.1844-1.5113 2.8994-0.65003 0.71639-1.4463 1.2527-2.3888 1.6088-0.94253 0.35887-1.9907 0.58638-3.1445 0.68388-1.1538 0.0961-2.397 0.1449-3.7295 0.1449z"/>
  <path d="m266.25 121.67v-33.543h14.674c2.1451 0 3.8595 0.26949 5.1433 0.80576 1.2838 0.53627 2.2426 1.2757 2.8764 2.2182 0.63378 0.94254 1.0644 2.0571 1.2919 3.3409 0.22616 1.2824 0.34127 2.6881 0.34127 4.2157 0 1.4626-0.10563 2.8357-0.31689 4.1195-0.21126 1.2838-0.6419 2.4132-1.2919 3.3883s-1.6251 1.7388-2.9251 2.2913-3.0389 0.82743-5.2165 0.82743h-10.384v12.334h-4.1927zm4.1927-15.989h9.0191c1.5926 0 2.852-0.13 3.7783-0.39137 0.92629-0.25866 1.6169-0.67305 2.072-1.2432 0.45502-0.56742 0.74753-1.2906 0.87754-2.1695 0.12865-0.87753 0.19501-1.9338 0.19501-3.1689 0-1.235-0.0569-2.29-0.17064-3.1689-0.11375-0.87889-0.39001-1.5926-0.82878-2.1451s-1.1213-0.96691-2.0476-1.2432c-0.92629-0.27491-2.1857-0.41575-3.7783-0.41575h-9.1166z"/>
  <path d="m308.71 121.67 12.676-33.543h5.2652l12.627 33.543h-4.3389l-3.4614-9.1667h-15.064l-3.4614 9.1667zm8.9704-12.822h12.529l-6.1428-16.431h-0.24376z"/>
  <path d="m361.8 121.67v-33.543h15.406c2.1126 0 3.7945 0.25324 5.0458 0.75701 1.25 0.50512 2.1762 1.2188 2.7789 2.1451 0.60127 0.92629 0.99941 2.007 1.1944 3.2434 0.19501 1.235 0.29251 2.5514 0.29251 3.9489 0 1.2025-0.10563 2.4457-0.31689 3.7295-0.21261 1.2824-0.68253 2.4457-1.4138 3.4858-0.73128 1.04-1.877 1.8038-3.437 2.29l5.6552 13.943h-4.4852l-5.5577-14.088 1.17 0.58502c-0.22751 0.065-0.50512 0.11376-0.82878 0.1449-0.32501 0.0325-0.76378 0.0487-1.3163 0.0487h-9.9942v13.309zm4.1927-16.966h9.4091c1.6251 0 2.9007-0.13001 3.827-0.38866 0.92629-0.26001 1.6088-0.66628 2.0476-1.2188 0.43877-0.55253 0.72316-1.2269 0.85316-2.0232 0.13001-0.79628 0.19501-1.7469 0.19501-2.8506 0-1.105-0.0569-2.0557-0.17063-2.852-0.11376-0.79628-0.37377-1.4626-0.78003-1.9988-0.40762-0.53627-1.0563-0.94254-1.9501-1.2188-0.89379-0.27491-2.1207-0.41575-3.6808-0.41575h-9.7504z"/>
  <path d="m418.4 121.67v-29.836h-10.579v-3.7052h25.4v3.7052h-10.628v29.836z"/>
  <path d="m448.87 121.67 12.676-33.543h5.2652l12.627 33.543h-4.3389l-3.4614-9.1667h-15.064l-3.4614 9.1667zm8.9704-12.822h12.529l-6.1428-16.431h-0.24376z"/>
  <path d="m501.97 121.67v-33.543h4.2902l17.404 25.694h0.19501v-25.694h4.0464v33.543h-4.0464l-17.648-26.18h-0.19501v26.18z"/>
  <path d="m581.53 121.67v-33.543h14.674c2.1451 0 3.8595 0.26949 5.1433 0.80576 1.2838 0.53627 2.2426 1.2757 2.8764 2.2182 0.63378 0.94254 1.0644 2.0571 1.2919 3.3409 0.22616 1.2824 0.34126 2.6881 0.34126 4.2157 0 1.4626-0.10562 2.8357-0.31688 4.1195-0.21126 1.2838-0.6419 2.4132-1.2919 3.3883s-1.6251 1.7388-2.9251 2.2913-3.0389 0.82743-5.2165 0.82743h-10.384v12.334h-4.1927zm4.1927-15.989h9.0191c1.5926 0 2.852-0.13 3.7783-0.39137 0.92629-0.25866 1.6169-0.67305 2.072-1.2432 0.45502-0.56742 0.74753-1.2906 0.87754-2.1695 0.12865-0.87753 0.195-1.9338 0.195-3.1689 0-1.235-0.0569-2.29-0.17063-3.1689-0.11375-0.87889-0.39001-1.5926-0.82878-2.1451s-1.1213-0.96691-2.0476-1.2432c-0.92629-0.27491-2.1857-0.41575-3.7783-0.41575h-9.1166z"/>
  <path d="m629.55 121.67v-33.543h15.406c2.1139 0 3.7932 0.25324 5.0472 0.75701 1.2513 0.50512 2.1762 1.2188 2.7775 2.1451 0.60263 0.92629 0.99942 2.007 1.1958 3.2434 0.19636 1.2364 0.29116 2.5514 0.29116 3.9489 0 1.2025-0.10563 2.4457-0.31418 3.7295-0.21126 1.2824-0.68253 2.4457-1.4152 3.4858-0.72993 1.04-1.8756 1.8038-3.4357 2.29l5.6552 13.943h-4.4879l-5.5577-14.088 1.1687 0.58502c-0.22751 0.065-0.50242 0.11376-0.82743 0.1449-0.32502 0.0325-0.76378 0.0487-1.3177 0.0487h-9.9942v13.309zm4.1927-16.966h9.4091c1.6237 0 2.9021-0.13001 3.827-0.38866 0.92629-0.26001 1.6088-0.66628 2.0476-1.2188 0.43877-0.55253 0.7218-1.2269 0.85452-2.0232 0.13-0.79628 0.19365-1.7469 0.19365-2.8506 0-1.105-0.0555-2.0557-0.16928-2.852-0.11375-0.79628-0.37512-1.4626-0.78003-1.9988-0.40762-0.53627-1.0576-0.94254-1.9487-1.2188-0.89379-0.27491-2.1207-0.41575-3.6821-0.41575h-9.7504v12.967z"/>
  <path d="m691.56 122.06c-2.6001 0-4.7533-0.13949-6.4596-0.41575-1.7063-0.2749-3.0565-0.77055-4.0464-1.4869-0.99129-0.71368-1.7144-1.7144-2.1695-2.9982-0.45637-1.2838-0.74888-2.9251-0.87753-4.924-0.13001-2.0002-0.19501-4.4432-0.19501-7.3372s0.065-5.3383 0.19501-7.3372c0.13-2.0002 0.42252-3.6401 0.87753-4.9253 0.45502-1.2824 1.1768-2.2832 2.1695-2.9969 0.98993-0.71503 2.3414-1.212 4.0464-1.4883s3.8595-0.41439 6.4596-0.41439c2.6001 0 4.7547 0.13813 6.461 0.41439 1.7063 0.27626 3.0551 0.77191 4.0464 1.4883 0.98994 0.71368 1.7144 1.7144 2.1695 2.9969 0.45502 1.2852 0.74753 2.9251 0.87754 4.9253 0.12865 1.9988 0.19501 4.4432 0.19501 7.3372s-0.0664 5.337-0.19501 7.3372c-0.13136 1.9988-0.42252 3.6402-0.87754 4.924s-1.1782 2.2846-2.1695 2.9982c-0.99129 0.71503-2.3414 1.212-4.0464 1.4869-1.7063 0.27762-3.8609 0.41575-6.461 0.41575zm0-3.6076c1.7876 0 3.2664-0.0555 4.4364-0.17063 1.17-0.11375 2.0963-0.38189 2.7789-0.80576 0.68252-0.42116 1.2026-1.1118 1.5601-2.0706 0.35751-0.95743 0.5769-2.2832 0.6568-3.9733 0.0826-1.6901 0.12323-3.8677 0.12323-6.5328 0-2.6651-0.0406-4.8427-0.12323-6.5328-0.0813-1.6901-0.30064-3.0145-0.6568-3.9733-0.35887-0.95879-0.87754-1.6508-1.5601-2.072-0.68253-0.42116-1.6088-0.69065-2.7789-0.80576-1.17-0.1124-2.6488-0.16928-4.4364-0.16928-1.7876 0-3.2583 0.05688-4.4121 0.16928-1.1552 0.11511-2.0801 0.38324-2.7789 0.80576-0.70013 0.42252-1.2188 1.1132-1.5601 2.072-0.34127 0.95879-0.56065 2.2832-0.6568 3.9733-0.0975 1.6901-0.14626 3.8677-0.14626 6.5328 0 2.6651 0.0488 4.8427 0.14626 6.5328 0.0961 1.6901 0.31553 3.0158 0.6568 3.9733 0.34126 0.95879 0.86128 1.6508 1.5601 2.0706 0.69878 0.42252 1.6237 0.69201 2.7789 0.80576 1.1538 0.11511 2.6245 0.17063 4.4121 0.17063z"/>
  <path d="m737.34 121.67v-29.836h-10.579v-3.7052h25.4v3.7052h-10.628v29.836z"/>
  <path d="m787.31 122.06c-2.6001 0-4.7533-0.13949-6.4596-0.41575-1.7063-0.2749-3.0565-0.77055-4.0464-1.4869-0.99129-0.71368-1.7144-1.7144-2.1695-2.9982-0.45637-1.2838-0.74888-2.9251-0.87753-4.924-0.13001-2.0002-0.19501-4.4432-0.19501-7.3372s0.065-5.3383 0.19501-7.3372c0.13-2.0002 0.42251-3.6401 0.87753-4.9253 0.45502-1.2824 1.1768-2.2832 2.1695-2.9969 0.98994-0.71503 2.3414-1.212 4.0464-1.4883 1.705-0.27626 3.8595-0.41439 6.4596-0.41439 2.6001 0 4.7547 0.13813 6.461 0.41439s3.0551 0.77191 4.0464 1.4883c0.98993 0.71368 1.7144 1.7144 2.1695 2.9969 0.45502 1.2852 0.74753 2.9251 0.87753 4.9253 0.12866 1.9988 0.19501 4.4432 0.19501 7.3372s-0.0664 5.337-0.19501 7.3372c-0.13136 1.9988-0.42251 3.6402-0.87753 4.924s-1.1782 2.2846-2.1695 2.9982c-0.99129 0.71503-2.3414 1.212-4.0464 1.4869-1.7063 0.27762-3.8609 0.41575-6.461 0.41575zm0-3.6076c1.7876 0 3.2664-0.0555 4.4364-0.17063 1.17-0.11375 2.0963-0.38189 2.7789-0.80576 0.68253-0.42116 1.2026-1.1118 1.5601-2.0706 0.35751-0.95743 0.5769-2.2832 0.65679-3.9733 0.0826-1.6901 0.12324-3.8677 0.12324-6.5328 0-2.6651-0.0406-4.8427-0.12324-6.5328-0.0813-1.6901-0.30063-3.0145-0.65679-3.9733-0.35887-0.95879-0.87754-1.6508-1.5601-2.072-0.68252-0.42116-1.6088-0.69065-2.7789-0.80576-1.17-0.1124-2.6489-0.16928-4.4364-0.16928s-3.2582 0.05688-4.412 0.16928c-1.1552 0.11511-2.0801 0.38324-2.7789 0.80576-0.70014 0.42252-1.2188 1.1132-1.5601 2.072-0.34126 0.95879-0.56064 2.2832-0.65679 3.9733-0.0975 1.6901-0.14626 3.8677-0.14626 6.5328 0 2.6651 0.0487 4.8427 0.14626 6.5328 0.0961 1.6901 0.31553 3.0158 0.65679 3.9733 0.34127 0.95879 0.86129 1.6508 1.5601 2.0706 0.69878 0.42252 1.6237 0.69201 2.7789 0.80576 1.1538 0.11511 2.6245 0.17063 4.412 0.17063z"/>
  <path d="m838.25 122.06c-2.3401 0-4.3078-0.13949-5.899-0.41575-1.5926-0.2749-2.8926-0.76107-3.9002-1.4626-1.0075-0.69878-1.7781-1.6887-2.3157-2.9725-0.53628-1.2824-0.90192-2.9332-1.0969-4.9483-0.19637-2.0151-0.29252-4.4676-0.29252-7.3615 0-2.894 0.0961-5.3383 0.29252-7.3372 0.195-2.0002 0.56064-3.6401 1.0969-4.9253 0.53627-1.2824 1.3082-2.2832 2.3157-2.9969 1.0076-0.71503 2.3076-1.212 3.9002-1.4883 1.5926-0.27626 3.5602-0.41439 5.899-0.41439 0.91004 0 1.8431 0.03115 2.8032 0.0975 0.95743 0.065 1.877 0.1449 2.7531 0.24376 0.87754 0.0975 1.6413 0.22751 2.2913 0.38866v3.3639c-0.74888-0.0975-1.5194-0.18688-2.3157-0.26678-0.79628-0.08261-1.5844-0.13948-2.3645-0.17199-0.78003-0.03115-1.4788-0.0474-2.0963-0.0474-1.8864 0-3.4614 0.08125-4.7289 0.24376-1.2676 0.16251-2.2751 0.47939-3.0213 0.95066-0.74888 0.47262-1.3095 1.2025-1.6819 2.1938-0.37377 0.99129-0.62701 2.3076-0.75701 3.9489-0.13001 1.6413-0.19501 3.7133-0.19501 6.2159 0 2.5026 0.065 4.5746 0.19501 6.2159 0.13 1.6413 0.38189 2.9576 0.75701 3.9489 0.37241 0.99129 0.93306 1.7226 1.6819 2.1938 0.74753 0.47262 1.7551 0.78816 3.0213 0.95066 1.2689 0.16251 2.8439 0.24376 4.7289 0.24376 1.1037 0 2.3076-0.0487 3.6076-0.1449 1.3001-0.0975 2.42-0.21126 3.3639-0.34126v3.46c-0.68388 0.13136-1.4883 0.23699-2.4132 0.31689-0.92764 0.0826-1.877 0.15303-2.852 0.21938-0.97369 0.0664-1.8986 0.0989-2.7775 0.0989z"/>
  <path d="m882.76 122.06c-2.6001 0-4.7533-0.13949-6.4596-0.41575-1.7063-0.2749-3.0565-0.77055-4.0464-1.4869-0.99129-0.71368-1.7144-1.7144-2.1695-2.9982-0.45637-1.2838-0.74888-2.9251-0.87753-4.924-0.13001-2.0002-0.19501-4.4432-0.19501-7.3372s0.065-5.3383 0.19501-7.3372c0.13-2.0002 0.42251-3.6401 0.87753-4.9253 0.45502-1.2824 1.1768-2.2832 2.1695-2.9969 0.98994-0.71503 2.3414-1.212 4.0464-1.4883 1.705-0.27626 3.8595-0.41439 6.4596-0.41439 2.6001 0 4.7547 0.13813 6.461 0.41439s3.0551 0.77191 4.0464 1.4883c0.98993 0.71368 1.7144 1.7144 2.1695 2.9969 0.45502 1.2852 0.74753 2.9251 0.87754 4.9253 0.12865 1.9988 0.195 4.4432 0.195 7.3372s-0.0663 5.337-0.195 7.3372c-0.13136 1.9988-0.42252 3.6402-0.87754 4.924s-1.1782 2.2846-2.1695 2.9982c-0.99129 0.71503-2.3414 1.212-4.0464 1.4869-1.7063 0.27762-3.8609 0.41575-6.461 0.41575zm0-3.6076c1.7876 0 3.2664-0.0555 4.4364-0.17063 1.17-0.11375 2.0963-0.38189 2.7789-0.80576 0.68252-0.42116 1.2025-1.1118 1.5601-2.0706 0.35751-0.95743 0.5769-2.2832 0.6568-3.9733 0.0826-1.6901 0.12323-3.8677 0.12323-6.5328 0-2.6651-0.0406-4.8427-0.12323-6.5328-0.0813-1.6901-0.30064-3.0145-0.6568-3.9733-0.35887-0.95879-0.87754-1.6508-1.5601-2.072-0.68253-0.42116-1.6088-0.69065-2.7789-0.80576-1.17-0.1124-2.6488-0.16928-4.4364-0.16928-1.7876 0-3.2582 0.05688-4.412 0.16928-1.1552 0.11511-2.0801 0.38324-2.7789 0.80576-0.70013 0.42252-1.2188 1.1132-1.5601 2.072-0.34127 0.95879-0.56065 2.2832-0.6568 3.9733-0.0975 1.6901-0.14626 3.8677-0.14626 6.5328 0 2.6651 0.0488 4.8427 0.14626 6.5328 0.0961 1.6901 0.31553 3.0158 0.6568 3.9733 0.34126 0.95879 0.86128 1.6508 1.5601 2.0706 0.69878 0.42252 1.6237 0.69201 2.7789 0.80576 1.1538 0.11511 2.6245 0.17063 4.412 0.17063z"/>
  <path d="m921.37 121.67v-33.543h4.194v29.838h15.649v3.7038h-19.843z"/>
 </g>
</svg>
