<svg xmlns="http://www.w3.org/2000/svg" width="16" height="16" fill="none"><path fill="#000" d="M4.776 1.082h6.447v13.835H4.776z"/><path d="M15.923 7.993c.094 4.164-3.384 7.935-7.925 7.932C3.464 15.921.027 12.151.076 7.978.126 3.575 3.608.072 8.03.075a7.883 7.883 0 017.892 7.918zm-9.082 6.68c.041-.01.082-.019.124-.027-.056-2.36-.275-4.727.326-7.026-.104-.09-.152-.155-.215-.184-.327-.151-.654-.304-.99-.435-.59-.23-.817-.625-.711-1.333.13.063.246.124.367.176.398.173.79.368 1.199.507.542.185.648.325.564.905-.057.394-.13.787-.16 1.185-.028.362.315.858.59.917.24.052.608-.257.724-.651.047-.159.026-.344.01-.514-.04-.396-.102-.79-.141-1.186-.034-.34.145-.517.46-.628.443-.157.872-.354 1.306-.535.12-.05.236-.105.37-.165.06.8-.143 1.101-.82 1.352-.367.137-.717.318-1.121.502.604 2.39.375 4.763.41 7.14.175-.2.298-.41.406-.627.094-.189.17-.387.257-.58.415-.919.847-1.83 1.237-2.759.12-.289.173-.626.177-.943.017-1.558.016-3.116.003-4.673-.003-.372-.012-.763-.125-1.11-.201-.62-.382-1.288-.755-1.804-.67-.927-1.695-1.18-2.799-1.036-.882.115-1.661.515-2.061 1.318-.42.843-.687 1.761-.68 2.733.01 1.533-.003 3.065.009 4.599.001.244.028.508.124.728.553 1.278 1.128 2.547 1.7 3.817.054.12.142.225.215.336z" fill="#fb2715"/></svg>
