<svg width="16" height="16" viewBox="0 0 16 16" fill="none" xmlns="http://www.w3.org/2000/svg">
<path d="M7.99275 2.3333C7.86264 2.3352 7.73839 2.38775 7.6464 2.47979L1.1464 8.97978C1.09841 9.02586 1.0601 9.08104 1.03371 9.14211C1.00732 9.20317 0.993378 9.26889 0.992702 9.33541C0.992025 9.40193 1.00463 9.46791 1.02977 9.5295C1.05492 9.59109 1.0921 9.64704 1.13914 9.69408C1.18618 9.74112 1.24213 9.7783 1.30372 9.80344C1.3653 9.82859 1.43129 9.84119 1.49781 9.84051C1.56433 9.83984 1.63005 9.8259 1.69111 9.7995C1.75217 9.77311 1.80736 9.7348 1.85343 9.68682L7.99992 3.54033L14.1464 9.68682C14.1925 9.7348 14.2477 9.77311 14.3087 9.7995C14.3698 9.82589 14.4355 9.83984 14.502 9.84051C14.5685 9.84119 14.6345 9.82859 14.6961 9.80344C14.7577 9.7783 14.8137 9.74112 14.8607 9.69408C14.9077 9.64704 14.9449 9.59109 14.9701 9.5295C14.9952 9.46791 15.0078 9.40193 15.0071 9.33541C15.0065 9.26889 14.9925 9.20317 14.9661 9.14211C14.9397 9.08104 14.9014 9.02586 14.8534 8.97978L8.35343 2.47979C8.30616 2.43249 8.24988 2.39516 8.18793 2.37C8.12598 2.34484 8.05961 2.33236 7.99275 2.3333ZM7.99275 6.3333C7.86264 6.3352 7.73839 6.38775 7.6464 6.47979L1.1464 12.9798C1.09841 13.0259 1.0601 13.081 1.03371 13.1421C1.00732 13.2032 0.993378 13.2689 0.992702 13.3354C0.992025 13.4019 1.00463 13.4679 1.02977 13.5295C1.05492 13.5911 1.0921 13.647 1.13914 13.6941C1.18618 13.7411 1.24213 13.7783 1.30372 13.8034C1.3653 13.8286 1.43129 13.8412 1.49781 13.8405C1.56433 13.8398 1.63005 13.8259 1.69111 13.7995C1.75217 13.7731 1.80736 13.7348 1.85343 13.6868L7.99992 7.54033L14.1464 13.6868C14.1925 13.7348 14.2477 13.7731 14.3087 13.7995C14.3698 13.8259 14.4355 13.8398 14.502 13.8405C14.5685 13.8412 14.6345 13.8286 14.6961 13.8034C14.7577 13.7783 14.8137 13.7411 14.8607 13.6941C14.9077 13.647 14.9449 13.5911 14.9701 13.5295C14.9952 13.4679 15.0078 13.4019 15.0071 13.3354C15.0065 13.2689 14.9925 13.2032 14.9661 13.1421C14.9397 13.081 14.9014 13.0259 14.8534 12.9798L8.35343 6.47979C8.30616 6.43249 8.24988 6.39516 8.18793 6.37C8.12598 6.34484 8.05961 6.33236 7.99275 6.3333Z" fill="#FB2715"/>
</svg>
