<?xml version="1.0" encoding="UTF-8" standalone="no"?>
<svg
   xmlns="http://www.w3.org/2000/svg"
   width="16"
   height="16"
   viewBox="0 0 16 16"
   fill="black"
   version="1.1"
   id="svg3">
  <path
     d="m 5.866845,3.263605 c 0.21582,0 0.3929,0.07747 0.53678,0.22135 l 4.24443,4.14486 c 0.1882,0.18815 0.2823,0.38184 0.2823,0.61979 0,0.23796 -0.0886,0.43718 -0.2823,0.61979 l -4.24442,4.15035 c -0.14942,0.1439 -0.3265,0.2214 -0.53679,0.2214 -0.42611,0 -0.77474,-0.3431 -0.77474,-0.7692 0,-0.2103 0.08854,-0.4095 0.24349,-0.5645 l 3.76302,-3.65784 -3.76302,-3.65234 c -0.15495,-0.15495 -0.24349,-0.35417 -0.24349,-0.56445 0,-0.42611 0.34863,-0.76921 0.77474,-0.76921 z"
     id="path2"
     inkscapeconnector-curvature="0" />
</svg>
