<svg width="16" height="16" viewBox="0 0 16 16" fill="none" xmlns="http://www.w3.org/2000/svg">
<path d="M3.02246 6.10799C3.02246 6.32381 3.09993 6.50089 3.24381 6.64477L7.38867 10.8892C7.57682 11.0774 7.77051 11.1715 8.00846 11.1715C8.24642 11.1715 8.44564 11.0829 8.62825 10.8892L12.7786 6.64478C12.9225 6.49536 13 6.31828 13 6.10799C13 5.68188 12.6569 5.33325 12.2308 5.33325C12.0205 5.33325 11.8213 5.42179 11.6663 5.57674L8.00846 9.33976L4.35612 5.57674C4.20117 5.42179 4.00195 5.33325 3.79167 5.33325C3.36556 5.33325 3.02246 5.68188 3.02246 6.10799Z" fill="white"/>
</svg>
