<?xml version="1.0" encoding="UTF-8" standalone="no"?>
<svg
   xmlns:dc="http://purl.org/dc/elements/1.1/"
   xmlns:cc="http://creativecommons.org/ns#"
   xmlns:rdf="http://www.w3.org/1999/02/22-rdf-syntax-ns#"
   xmlns:svg="http://www.w3.org/2000/svg"
   xmlns="http://www.w3.org/2000/svg"
   xmlns:sodipodi="http://sodipodi.sourceforge.net/DTD/sodipodi-0.dtd"
   xmlns:inkscape="http://www.inkscape.org/namespaces/inkscape"
   width="16"
   height="16"
   viewBox="0 0 16 16"
   fill="none"
   version="1.1"
   id="svg4"
   sodipodi:docname="arrow-up-dark.svg"
   inkscape:version="0.92.4 (5da689c313, 2019-01-14)">
  <metadata
     id="metadata10">
    <rdf:RDF>
      <cc:Work
         rdf:about="">
        <dc:format>image/svg+xml</dc:format>
        <dc:type
           rdf:resource="http://purl.org/dc/dcmitype/StillImage" />
      </cc:Work>
    </rdf:RDF>
  </metadata>
  <defs
     id="defs8" />
  <sodipodi:namedview
     pagecolor="#ffffff"
     bordercolor="#666666"
     borderopacity="1"
     objecttolerance="10"
     gridtolerance="10"
     guidetolerance="10"
     inkscape:pageopacity="0"
     inkscape:pageshadow="2"
     inkscape:window-width="716"
     inkscape:window-height="480"
     id="namedview6"
     showgrid="false"
     inkscape:zoom="10.429825"
     inkscape:cx="10.111131"
     inkscape:cy="4.0962801"
     inkscape:window-x="0"
     inkscape:window-y="0"
     inkscape:window-maximized="0"
     inkscape:current-layer="svg4" />
  <path
     d="m 3.02246,10.39676 c 0,-0.21582 0.07747,-0.3929 0.22135,-0.53678 L 7.38867,5.61555 c 0.18815,-0.1882 0.38184,-0.2823 0.61979,-0.2823 0.23796,0 0.43718,0.0886 0.61979,0.2823 L 12.7786,9.85997 C 12.9225,10.00939 13,10.18647 13,10.39676 c 0,0.42611 -0.3431,0.77474 -0.7692,0.77474 -0.2103,0 -0.4095,-0.08854 -0.5645,-0.24349 L 8.00846,7.16499 4.35612,10.92801 c -0.15495,0.15495 -0.35417,0.24349 -0.56445,0.24349 -0.42611,0 -0.76921,-0.34863 -0.76921,-0.77474 z"
     id="path2"
     style="fill:#000000"
     inkscape:connector-curvature="0" />
</svg>
