<?xml version="1.0" encoding="UTF-8" standalone="no"?>
<svg
   xmlns="http://www.w3.org/2000/svg"
   id="svg3"
   version="1.1"
   fill="black"
   viewBox="0 0 16 16"
   height="16"
   width="16">
  <path
     style="stroke-width:1.53679895"
     id="path2"
     d="m 0.33326379,4.7045114 c 0,0.3316719 0.1190558,0.6038083 0.34017044,0.8249229 L 7.0432504,12.05227 c 0.2891487,0.289225 0.5868112,0.433838 0.9524925,0.433838 0.3656967,0 0.6718578,-0.13616 0.9524926,-0.433838 L 15.326488,5.5294497 c 0.221146,-0.2296285 0.340248,-0.5017648 0.340248,-0.8249383 0,-0.6548454 -0.527276,-1.1906195 -1.182106,-1.1906195 -0.323189,0 -0.629319,0.1360682 -0.867523,0.3741951 L 7.9957429,9.671092 2.3828309,3.888087 C 2.144704,3.6499601 1.8385429,3.5138919 1.5153849,3.5138919 c -0.65484541,0 -1.18212111,0.5357741 -1.18212111,1.1906195 z" />
</svg>
