<?xml version="1.0" encoding="UTF-8" standalone="no"?>
<svg
   xmlns="http://www.w3.org/2000/svg"
   id="svg3"
   version="1.1"
   fill="black"
   viewBox="0 0 16 16"
   height="16"
   width="16">
  <path
     style="stroke-width:1.5093019"
     id="path2"
     d="m 0.47043949,11.236524 c 0,-0.325737 0.11692564,-0.593004 0.33408398,-0.810163 L 7.0603689,4.0202347 C 7.3443441,3.7361841 7.6366808,3.5941588 7.9958192,3.5941588 c 0.3591534,0 0.6598366,0.1337242 0.9354502,0.4260759 l 6.2641316,6.4061113 c 0.217189,0.22552 0.33416,0.492787 0.33416,0.810178 0,0.643129 -0.517841,1.169317 -1.160955,1.169317 -0.317406,0 -0.61806,-0.133633 -0.852001,-0.3675 L 7.9958192,6.3588076 2.4833351,12.038341 c -0.2338662,0.233867 -0.5345494,0.3675 -0.8519255,0.3675 -0.64312859,0 -1.16097011,-0.526188 -1.16097011,-1.169317 z" />
</svg>
