<svg
   xmlns="http://www.w3.org/2000/svg"
   width="16"
   height="16"
   viewBox="0 0 16 16"
   fill="black">
  <path
     d="m 3.02246,10.39676 c 0,-0.21582 0.07747,-0.3929 0.22135,-0.53678 L 7.38867,5.61555 c 0.18815,-0.1882 0.38184,-0.2823 0.61979,-0.2823 0.23796,0 0.43718,0.0886 0.61979,0.2823 L 12.7786,9.85997 C 12.9225,10.00939 13,10.18647 13,10.39676 c 0,0.42611 -0.3431,0.77474 -0.7692,0.77474 -0.2103,0 -0.4095,-0.08854 -0.5645,-0.24349 L 8.00846,7.16499 4.35612,10.92801 c -0.15495,0.15495 -0.35417,0.24349 -0.56445,0.24349 -0.42611,0 -0.76921,-0.34863 -0.76921,-0.77474 z"
     id="path2"/>
</svg>
