<svg width="16" height="16" viewBox="0 0 16 16" fill="black" xmlns="http://www.w3.org/2000/svg">
   <path d="m 3.02246,6.10799 c 0,0.21582 0.07747,0.3929 0.22135,0.53678 l 4.14486,4.24443 c 0.18815,0.1882 0.38184,0.2823 0.61979,0.2823 0.23796,0 0.43718,-0.0886 0.61979,-0.2823 L 12.7786,6.64478 C 12.9225,6.49536 13,6.31828 13,6.10799 13,5.68188 12.6569,5.33325 12.2308,5.33325 c -0.2103,0 -0.4095,0.08854 -0.5645,0.24349 L 8.00846,9.33976 4.35612,5.57674 C 4.20117,5.42179 4.00195,5.33325 3.79167,5.33325 c -0.42611,0 -0.76921,0.34863 -0.76921,0.77474 z" id="path2" />
</svg>
