<?xml version="1.0" encoding="iso-8859-1"?>
<!-- Generator: Adobe Illustrator 16.0.0, SVG Export Plug-In . SVG Version: 6.00 Build 0)  -->
<!DOCTYPE svg PUBLIC "-//W3C//DTD SVG 1.1//EN" "http://www.w3.org/Graphics/SVG/1.1/DTD/svg11.dtd">
<svg version="1.1" id="Capa_1" xmlns="http://www.w3.org/2000/svg" xmlns:xlink="http://www.w3.org/1999/xlink" x="0px" y="0px"
	 width="49px" height="49px" viewBox="0 0 49 49" style="enable-background:new 0 0 49 49;" xml:space="preserve">
<g>
	<path d="M47.116,7.037H9.103c-1.041,0-1.883,0.843-1.883,1.883v3.846H2.511C1.125,12.766,0,13.891,0,15.276v24.175
		c0,1.386,1.125,2.512,2.511,2.512h38.012c1.388,0,2.512-1.126,2.512-2.512v-4.476h4.081c1.041,0,1.884-0.844,1.884-1.883V8.919
		C49,7.88,48.157,7.037,47.116,7.037z M9.433,38.667H3.468v-3.14h5.964L9.433,38.667L9.433,38.667z M16.966,38.667h-5.964v-3.14
		h5.964V38.667z M24.5,38.667h-5.964v-3.14H24.5V38.667z M28.247,25.326c0,1.662,0.677,3.173,1.767,4.27
		c-0.714,0.403-1.531,0.655-2.408,0.655c-2.722,0-4.927-2.205-4.927-4.925c0-2.721,2.206-4.928,4.927-4.928
		c0.877,0,1.694,0.249,2.408,0.654C28.924,22.149,28.247,23.661,28.247,25.326z M34.316,20.397c2.721,0,4.927,2.205,4.927,4.928
		c0,2.72-2.206,4.925-4.927,4.925c-2.723,0-4.926-2.205-4.926-4.925C29.391,22.604,31.596,20.397,34.316,20.397z M32.034,38.667
		h-5.966v-3.14h5.966V38.667z M39.566,38.667h-5.963v-3.14h5.963V38.667z M45.232,31.213h-2.197v-9.025h2.197V31.213z
		 M45.232,14.496h-2.334c-0.33-1.001-1.265-1.729-2.375-1.729H10.987v-1.964h34.246V14.496L45.232,14.496z"/>
</g>
<g>
</g>
<g>
</g>
<g>
</g>
<g>
</g>
<g>
</g>
<g>
</g>
<g>
</g>
<g>
</g>
<g>
</g>
<g>
</g>
<g>
</g>
<g>
</g>
<g>
</g>
<g>
</g>
<g>
</g>
</svg>
