<svg width="48" height="48" viewBox="0 0 48 48" fill="none" xmlns="http://www.w3.org/2000/svg">
<path d="M24 4C12.972 4 4 12.972 4 24C4 35.028 12.972 44 24 44C35.028 44 44 35.028 44 24C44 20.791 43.222 17.7672 41.873 15.0762L39.6289 17.3203C40.5089 19.3713 41 21.629 41 24C41 33.374 33.374 41 24 41C14.626 41 7 33.374 7 24C7 14.626 14.626 7 24 7C28.446 7 32.4856 8.7292 35.5176 11.5332L37.6387 9.41211C34.0617 6.06511 29.273 4 24 4ZM39.4707 10.9863C39.0811 10.9977 38.7113 11.1602 38.4395 11.4395L21.5 28.3789L17.5605 24.4395C17.4223 24.2955 17.2568 24.1806 17.0736 24.1014C16.8904 24.0222 16.6932 23.9804 16.4937 23.9784C16.2941 23.9763 16.0962 24.0141 15.9114 24.0896C15.7266 24.165 15.5588 24.2766 15.4177 24.4177C15.2766 24.5588 15.165 24.7266 15.0896 24.9114C15.0141 25.0962 14.9763 25.2941 14.9784 25.4937C14.9804 25.6932 15.0222 25.8904 15.1014 26.0736C15.1806 26.2568 15.2955 26.4223 15.4395 26.5605L20.4395 31.5605C20.7208 31.8417 21.1022 31.9997 21.5 31.9997C21.8978 31.9997 22.2792 31.8417 22.5605 31.5605L40.5605 13.5605C40.7769 13.3498 40.9247 13.0786 40.9844 12.7825C41.0442 12.4864 41.0131 12.1792 40.8953 11.901C40.7776 11.6228 40.5786 11.3867 40.3244 11.2235C40.0702 11.0603 39.7726 10.9776 39.4707 10.9863Z" fill="#FB2715"/>
</svg>
