<svg width="18" height="18" viewBox="0 0 18 18" fill="none" xmlns="http://www.w3.org/2000/svg">
<path d="M16.7432 0.489269C16.5451 0.493946 16.3569 0.576799 16.2197 0.719738L8.99999 7.93947L1.78027 0.719738C1.71036 0.647744 1.62672 0.590511 1.53429 0.551427C1.44186 0.512343 1.34253 0.492202 1.24218 0.492198C1.09292 0.492235 0.947065 0.536803 0.823276 0.620199C0.699486 0.703595 0.603393 0.822028 0.547291 0.960344C0.491188 1.09866 0.477628 1.25057 0.508346 1.39664C0.539063 1.5427 0.61266 1.67628 0.719721 1.78028L7.93945 9.00001L0.719721 16.2197C0.647743 16.2888 0.590277 16.3716 0.55069 16.4632C0.511102 16.5548 0.490189 16.6534 0.489175 16.7532C0.48816 16.853 0.507065 16.9519 0.544782 17.0443C0.582498 17.1367 0.638269 17.2206 0.708828 17.2912C0.779386 17.3617 0.863314 17.4175 0.955696 17.4552C1.04808 17.4929 1.14706 17.5118 1.24684 17.5108C1.34662 17.5098 1.44519 17.4889 1.53679 17.4493C1.62838 17.4097 1.71116 17.3523 1.78027 17.2803L8.99999 10.0606L16.2197 17.2803C16.2888 17.3523 16.3716 17.4097 16.4632 17.4493C16.5548 17.4889 16.6534 17.5098 16.7532 17.5108C16.8529 17.5118 16.9519 17.4929 17.0443 17.4552C17.1367 17.4175 17.2206 17.3617 17.2912 17.2912C17.3617 17.2206 17.4175 17.1367 17.4552 17.0443C17.4929 16.9519 17.5118 16.853 17.5108 16.7532C17.5098 16.6534 17.4889 16.5548 17.4493 16.4632C17.4097 16.3716 17.3522 16.2888 17.2803 16.2197L10.0605 9.00001L17.2803 1.78028C17.3893 1.67561 17.4642 1.54041 17.4951 1.39243C17.526 1.24445 17.5115 1.09059 17.4534 0.951016C17.3953 0.811442 17.2964 0.692671 17.1697 0.610274C17.043 0.527876 16.8943 0.485698 16.7432 0.489269Z" fill="#AACDFF"/>
</svg>
