<?xml version="1.0" encoding="UTF-8"?>
<svg width="25.001" height="25" version="1.1" viewBox="0 0 25.001 25" xml:space="preserve"
	xmlns="http://www.w3.org/2000/svg">
	<path d="m20.986 4.0145c-4.686-4.686-12.284-4.686-16.971 0-4.686 4.686-4.686 12.284 0 16.971 4.686 4.686 12.284 4.686 16.971 0 4.687-4.687 4.687-12.285 0-16.971zm-1.414 15.556c-3.908 3.908-10.234 3.908-14.142 0-3.899-3.899-3.899-10.243 0-14.142 3.908-3.908 10.234-3.909 14.142 0 1.889 1.889 2.929 4.4 2.929 7.071s-1.04 5.182-2.929 7.071zm-1.414-11.314-4.243 4.243 4.243 4.243-1.414 1.414-4.243-4.243-4.243 4.243-1.414-1.414 4.243-4.243-4.243-4.243 1.414-1.414 4.243 4.243 4.243-4.243z" />
</svg>
