<svg xmlns="http://www.w3.org/2000/svg" width="32" height="32" viewBox="0 0 24 24" fill="black">
   <path d="m 22.472527,0.48939168 c -0.267928,0.006327 -0.522467,0.11838475 -0.708028,0.31170688 L 11.999958,10.565699 2.2353492,0.80109856 C 2.1407967,0.70372879 2.0276745,0.62632176 1.9026639,0.57346107 1.7776533,0.52059902 1.6433105,0.49335988 1.5075882,0.49335447 1.3057156,0.49340316 1.108451,0.55368091 0.94102764,0.66647312 0.77360433,0.77926668 0.64363821,0.93944471 0.56776085,1.126517 0.49188213,1.3135893 0.47354237,1.5190459 0.51508814,1.7165905 0.55663256,1.9141487 0.65617173,2.0948142 0.8009706,2.2354731 l 9.7646044,9.7646089 -9.7646044,9.764554 c -0.0973495,0.09346 -0.17507164,0.205443 -0.22861264,0.329331 -0.0535424,0.123888 -0.081827,0.257244 -0.0831984,0.392222 -0.001373,0.134844 0.024196,0.26874 0.0752079,0.39371 0.0510105,0.12497 0.12644018,0.238444 0.22187048,0.33393 0.095429,0.09535 0.20894068,0.170819 0.33388636,0.221808 0.1249457,0.05099 0.2588151,0.07655 0.3937665,0.0752 0.1349514,-0.0014 0.2682663,-0.02962 0.3921543,-0.08318 0.1238745,-0.05356 0.2358336,-0.131191 0.3293041,-0.22857 l 9.7646088,-9.764568 9.764541,9.764568 c 0.09346,0.09738 0.205443,0.175012 0.329331,0.22857 0.123888,0.05356 0.257243,0.08183 0.392222,0.08318 0.134978,0.0014 0.26874,-0.02421 0.39371,-0.0752 0.12497,-0.05099 0.238443,-0.126458 0.333929,-0.221808 0.09535,-0.09549 0.17082,-0.20896 0.221808,-0.33393 0.05099,-0.12497 0.07655,-0.258866 0.0752,-0.39371 -0.0014,-0.134978 -0.02962,-0.268334 -0.08318,-0.392222 -0.05356,-0.123888 -0.131192,-0.235874 -0.228571,-0.329331 l -9.764567,-9.764554 9.764568,-9.7646089 c 0.147557,-0.1415786 0.248723,-0.3244216 0.290515,-0.524563 0.04179,-0.2001414 0.02218,-0.4082354 -0.0564,-0.5970091 C 23.354621,0.92512861 23.220859,0.76449208 23.049364,0.65304966 22.878003,0.54160859 22.676888,0.48456329 22.472527,0.48939168 Z" id="path2" style="stroke-width:1.35248947" />
</svg>
