<svg width="16" height="16" viewBox="0 0 16 16" fill="none" xmlns="http://www.w3.org/2000/svg">
<path d="M15.9981 7.99245C16.0924 12.1963 12.5817 16.003 7.99782 16C3.42147 15.9955 -0.0484769 12.1903 0.000512324 7.97735C0.0517626 3.53266 3.56693 -0.00301807 8.03098 1.93321e-06C12.4513 0.00302194 15.9981 3.56059 15.9981 7.99245ZM6.82962 14.7354C6.87182 14.7263 6.91327 14.7173 6.95548 14.7089C6.8982 12.3269 6.67737 9.93734 7.28409 7.61646C7.17932 7.5251 7.13109 7.46017 7.06703 7.43073C6.73691 7.27822 6.40755 7.12344 6.0684 6.99132C5.47299 6.75953 5.24312 6.36089 5.35014 5.6459C5.48128 5.70932 5.59886 5.77123 5.72095 5.82409C6.12266 5.99849 6.51759 6.19479 6.93061 6.33522C7.47854 6.52171 7.58556 6.66365 7.50039 7.24877C7.44236 7.64666 7.3685 8.04379 7.33835 8.4447C7.31046 8.81087 7.6564 9.31144 7.93451 9.37108C8.17569 9.42318 8.54801 9.11136 8.66558 8.71348C8.71307 8.55342 8.69196 8.36693 8.67463 8.19479C8.63544 7.79464 8.57213 7.39751 8.53294 6.99736C8.49902 6.65534 8.67915 6.47565 8.99645 6.36316C9.44414 6.20536 9.8775 6.00604 10.3161 5.82333C10.436 5.7735 10.5543 5.71763 10.6885 5.65723C10.7503 6.46433 10.5453 6.76859 9.86092 7.02227C9.49086 7.15968 9.13814 7.34315 8.72965 7.52812C9.33937 9.94111 9.10799 12.3367 9.14342 14.7361C9.32053 14.5345 9.44414 14.3224 9.55342 14.1034C9.64838 13.9124 9.72451 13.7123 9.81269 13.5176C10.2317 12.5904 10.6681 11.6708 11.0615 10.7331C11.1836 10.4409 11.2364 10.1004 11.2402 9.78105C11.2575 8.20838 11.256 6.63571 11.2432 5.06304C11.2402 4.68781 11.2311 4.2937 11.1173 3.94338C10.9138 3.31672 10.7314 2.64251 10.3553 2.12231C9.67853 1.18611 8.64448 0.930164 7.52979 1.07588C6.63969 1.19215 5.85285 1.59608 5.44887 2.40619C5.02455 3.25708 4.75549 4.18422 4.76227 5.16497C4.77282 6.71272 4.76001 8.25972 4.77131 9.80748C4.77282 10.0544 4.79995 10.3209 4.89642 10.5428C5.4549 11.8331 6.03524 13.1136 6.61331 14.3956C6.66757 14.5164 6.75651 14.6229 6.82962 14.7354Z" fill="#FB2715"/>
</svg>
