<?xml version="1.0" encoding="UTF-8" standalone="no"?>
<svg
   xmlns:dc="http://purl.org/dc/elements/1.1/"
   xmlns:cc="http://creativecommons.org/ns#"
   xmlns:rdf="http://www.w3.org/1999/02/22-rdf-syntax-ns#"
   xmlns:svg="http://www.w3.org/2000/svg"
   xmlns="http://www.w3.org/2000/svg"
   xmlns:sodipodi="http://sodipodi.sourceforge.net/DTD/sodipodi-0.dtd"
   xmlns:inkscape="http://www.inkscape.org/namespaces/inkscape"
   width="16"
   height="16"
   viewBox="0 0 16 16"
   fill="none"
   version="1.1"
   id="svg4"
   sodipodi:docname="coin_sparta_black_bg.svg"
   inkscape:version="0.92.4 (5da689c313, 2019-01-14)"
   inkscape:export-filename="F:\Programming\Projects\spartan-protocol\SpartanProtocol-DAppV2\src\assets\icons\coin_sparta.png"
   inkscape:export-xdpi="3101.0637"
   inkscape:export-ydpi="3101.0637">
  <metadata
     id="metadata10">
    <rdf:RDF>
      <cc:Work
         rdf:about="">
        <dc:format>image/svg+xml</dc:format>
        <dc:type
           rdf:resource="http://purl.org/dc/dcmitype/StillImage" />
        <dc:title />
      </cc:Work>
    </rdf:RDF>
  </metadata>
  <defs
     id="defs8" />
  <sodipodi:namedview
     pagecolor="#ffffff"
     bordercolor="#666666"
     borderopacity="1"
     objecttolerance="10"
     gridtolerance="10"
     guidetolerance="10"
     inkscape:pageopacity="0"
     inkscape:pageshadow="2"
     inkscape:window-width="2560"
     inkscape:window-height="1356"
     id="namedview6"
     showgrid="false"
     inkscape:zoom="41.7193"
     inkscape:cx="1.1046323"
     inkscape:cy="9.341578"
     inkscape:window-x="1072"
     inkscape:window-y="370"
     inkscape:window-maximized="1"
     inkscape:current-layer="svg4" />
  <rect
     style="fill:#000000;fill-opacity:1;stroke-width:0.99062777"
     id="rect817"
     width="6.447475"
     height="13.835208"
     x="4.7762623"
     y="1.082396" />
  <path
     d="M 15.923161,7.9925199 C 16.016578,12.15697 12.53878,15.927993 7.9978624,15.925021 3.4644032,15.920563 0.02697763,12.151026 0.07550772,7.9775614 0.12627766,3.5745284 3.6084999,0.07198767 8.0307116,0.07497937 12.409603,0.0779708 15.923161,3.6021966 15.923161,7.9925199 Z M 6.8406111,14.672273 c 0.041805,-0.009 0.082865,-0.01794 0.1246803,-0.02625 C 6.9085484,12.286349 6.689788,9.9191854 7.2908217,7.620057 7.1870336,7.5295502 7.1392556,7.4652286 7.075796,7.4360646 6.74877,7.2849839 6.4224967,7.1316546 6.0865254,7.0007728 5.4966958,6.7711552 5.2689801,6.3762515 5.3749972,5.6679625 5.5049081,5.7307881 5.6213861,5.7921179 5.7423318,5.8444825 6.1402769,6.0172479 6.5315054,6.2117081 6.9406546,6.350822 7.4834491,6.5355642 7.5894662,6.6761739 7.5050944,7.25581 7.4476083,7.6499708 7.3744406,8.0433788 7.3445731,8.4405314 7.3169445,8.8032696 7.6596422,9.299148 7.9351457,9.358229 8.1740653,9.4098408 8.5428958,9.1009432 8.6593639,8.7067922 8.7064088,8.5482323 8.6854966,8.3634903 8.6683291,8.1929636 8.6295064,7.7965639 8.5667898,7.4031559 8.5279671,7.0067563 8.494365,6.6679417 8.6728067,6.4899359 8.9871328,6.3785002 9.430627,6.222179 9.8599259,6.0247272 10.294415,5.8437296 10.413191,5.7943669 10.530383,5.7390203 10.663324,5.6791864 10.724547,6.478722 10.521467,6.7801303 9.8435011,7.0314329 9.4769092,7.167555 9.127495,7.3493054 8.7228334,7.5325417 9.326839,9.9229165 9.0976275,12.296054 9.1327255,14.672967 c 0.17545,-0.199711 0.2979015,-0.409822 0.4061573,-0.62677 0.09407,-0.18921 0.169486,-0.387435 0.2568396,-0.580309 0.4150836,-0.918512 0.8473926,-1.829493 1.2371066,-2.758404 0.120955,-0.289462 0.17326,-0.62677 0.177025,-0.9431277 0.01713,-1.55793 0.01565,-3.1158606 0.0029,-4.6737911 C 11.209854,4.718852 11.200839,4.3284357 11.088106,3.981399 10.886513,3.3606123 10.705822,2.6927212 10.333248,2.1773966 9.6628201,1.2499709 8.6384617,0.99642375 7.5342189,1.140774 6.6524612,1.2559543 5.8729956,1.6560986 5.4728019,2.458616 5.0524587,3.3015313 4.7859204,4.2199818 4.7926369,5.19154 c 0.01045,1.5332439 -0.00224,3.065745 0.00895,4.5989994 0.0015,0.2446056 0.028372,0.5086076 0.1239374,0.7284276 0.5532458,1.278208 1.1281468,2.546706 1.7007989,3.816691 0.053752,0.119668 0.1418578,0.22517 0.2142827,0.336615 z"
     id="path2"
     inkscape:connector-curvature="0"
     style="fill:#fb2715;stroke-width:0.99062777" />
</svg>
