<svg
   xmlns="http://www.w3.org/2000/svg"
   width="25"
   height="25"
   viewBox="0 0 16 16"
   fill="#000000">
  <ellipse
     style="fill-opacity:1;stroke:#ffffff;stroke-width:0.63433182;stroke-opacity:0.03517588"
     id="path817"
     cx="8"
     cy="8"
     rx="7.465241"
     ry="7.6201596" />
  <path
     d="M 15.934159,7.9925523 C 16.027709,12.138885 12.545081,15.893501 7.9978591,15.890542 3.4581074,15.886103 0.01591067,12.132967 0.06450812,7.9776589 0.11534853,3.593782 3.6024041,0.10647984 8.0307539,0.10945854 12.415723,0.11243719 15.934159,3.6213299 15.934159,7.9925523 Z M 6.8390014,14.643243 c 0.041862,-0.009 0.082981,-0.01785 0.1248535,-0.02613 C 6.907033,12.267698 6.6879691,9.9108321 7.2898369,7.6217067 7.1859048,7.5315968 7.1380606,7.4675551 7.0745129,7.438518 6.7470329,7.2880945 6.4203069,7.1354322 6.0838692,7.00512 5.4932208,6.7765014 5.2651892,6.3833158 5.3713533,5.6781084 5.5014446,5.7406606 5.6180842,5.8017235 5.7391979,5.8538602 6.1376952,6.0258741 6.5294669,6.2194883 6.9391839,6.3579969 7.4827318,6.5419352 7.5888961,6.6819332 7.5044071,7.2590475 7.4468411,7.6514935 7.3735719,8.0431899 7.343663,8.4386147 7.315996,8.7997745 7.6591695,9.2934956 7.9350553,9.3523196 8.1743066,9.4037066 8.543649,9.0961532 8.6602788,8.7037171 8.7073888,8.545847 8.6864478,8.3619086 8.6692488,8.1921239 8.6303798,7.7974488 8.5675761,7.4057524 8.5286996,7.0110773 8.4950508,6.673737 8.6737402,6.4965055 8.9885027,6.3855547 9.4326125,6.2299136 9.8625067,6.0333209 10.297599,5.8531106 c 0.118942,-0.049148 0.236295,-0.1042538 0.369422,-0.1638273 0.0613,0.7960572 -0.142055,1.0961541 -0.8209617,1.3463633 -0.3671005,0.1355297 -0.7169997,0.3164895 -1.1222229,0.4989288 0.6048439,2.379975 0.3753143,4.7427886 0.410461,7.1093586 0.1756936,-0.198841 0.2983151,-0.408039 0.406721,-0.624043 0.094201,-0.188387 0.1697219,-0.385749 0.2571966,-0.577785 0.415659,-0.914514 0.848569,-1.82153 1.238823,-2.746401 0.121123,-0.288203 0.173501,-0.624044 0.177271,-0.9390246 0.01716,-1.5511525 0.01568,-3.1023049 0.003,-4.6534574 -0.003,-0.3700958 -0.01201,-0.7588136 -0.124906,-1.1043405 C 10.890519,3.3807965 10.709578,2.7158112 10.336485,2.2027287 9.6651279,1.279338 8.6393475,1.0268939 7.533572,1.1706161 6.6505904,1.2852954 5.870043,1.6836987 5.4692937,2.4827247 5.0483671,3.3219726 4.7814588,4.2364272 4.7881846,5.2037585 c 0.010466,1.5265734 -0.00224,3.052407 0.00896,4.5789903 0.00149,0.2435422 0.02841,0.5063952 0.1241094,0.7252602 0.5540137,1.272644 1.1297126,2.535625 1.7031596,3.800084 0.053826,0.119148 0.1420548,0.224191 0.2145801,0.33515 z"
     id="path2"
     inkscapeconnector-curvature="0"
     style="fill:#fb2715;stroke-width:0.98915619" />
</svg>
