<?xml version="1.0" encoding="UTF-8"?>
<svg width="24" height="24" fill="black" version="1.1" viewBox="0 0 24 24" xmlns="http://www.w3.org/2000/svg">
 <g transform="translate(-.61488 .12335)">
  <path d="m6.25 2c-1.2405 0-2.25 1.0095-2.25 2.25v15.5c0 1.2405 1.0095 2.25 2.25 2.25h11.5c1.2405 0 2.25-1.0095 2.25-2.25v-15.5c0-1.155-0.878-2.0986-2-2.2246v1.5215c0.2905 0.1035 0.5 0.3786 0.5 0.7041v15.5c0 0.4135-0.3365 0.75-0.75 0.75h-11.5c-0.4135 0-0.75-0.3365-0.75-0.75v-15.5c0-0.414 0.3365-0.75098 0.75-0.75098h2.75v-1.5zm3.75 0v8.25c0 0.1301 0.0339 0.258 0.0983 0.371 0.0644 0.1131 0.1571 0.2075 0.269 0.2739s0.2392 0.1025 0.3693 0.1048c0.1301 0.0024 0.2586-0.0292 0.3728-0.0915l2.3906-1.3037 2.3906 1.3037c0.1142 0.0623 0.2427 0.0939 0.3728 0.0915 0.1301-0.0023 0.2574-0.0384 0.3693-0.1048s0.2046-0.1608 0.269-0.2739c0.0644-0.113 0.0983-0.2409 0.0983-0.371v-8.25zm1.5 1.5h4v5.4863l-1.6406-0.89453c-0.1103-0.06017-0.2338-0.0917-0.3594-0.0917s-0.2491 0.03153-0.3594 0.0917l-1.6406 0.89453zm-2.75 9c-0.09938-0.0014-0.19806 0.017-0.29028 0.054-0.09223 0.0371-0.17617 0.0921-0.24695 0.1619-0.07077 0.0698-0.12698 0.1529-0.16534 0.2446s-0.05811 0.1901-0.05811 0.2895 0.01975 0.1978 0.05811 0.2895 0.09457 0.1748 0.16534 0.2446c0.07078 0.0698 0.15472 0.1248 0.24695 0.1619 0.09222 0.037 0.1909 0.0554 0.29028 0.054h6.5c0.0994 0.0014 0.1981-0.017 0.2903-0.054 0.0922-0.0371 0.1761-0.0921 0.2469-0.1619s0.127-0.1529 0.1654-0.2446c0.0383-0.0917 0.0581-0.1901 0.0581-0.2895s-0.0198-0.1978-0.0581-0.2895c-0.0384-0.0917-0.0946-0.1748-0.1654-0.2446s-0.1547-0.1248-0.2469-0.1619c-0.0922-0.037-0.1909-0.0554-0.2903-0.054zm0 3.5c-0.09938-0.0014-0.19806 0.017-0.29028 0.054-0.09223 0.0371-0.17617 0.0921-0.24695 0.1619-0.07077 0.0698-0.12698 0.1529-0.16534 0.2446s-0.05811 0.1901-0.05811 0.2895 0.01975 0.1978 0.05811 0.2895 0.09457 0.1748 0.16534 0.2446c0.07078 0.0698 0.15472 0.1248 0.24695 0.1619 0.09222 0.037 0.1909 0.0554 0.29028 0.054h4.5c0.0994 0.0014 0.1981-0.017 0.2903-0.054 0.0922-0.0371 0.1761-0.0921 0.2469-0.1619s0.127-0.1529 0.1654-0.2446c0.0383-0.0917 0.0581-0.1901 0.0581-0.2895s-0.0198-0.1978-0.0581-0.2895c-0.0384-0.0917-0.0946-0.1748-0.1654-0.2446s-0.1547-0.1248-0.2469-0.1619c-0.0922-0.037-0.1909-0.0554-0.2903-0.054z"/>
  <path d="m21.23 3.8644c0 0.67028-0.31139 1.2719-0.80222 1.6572-0.36417 0.285-0.81806 0.45389-1.3089 0.45389-0.78111 0-1.4619-0.42222-1.8261-1.0556-0.17944-0.31139-0.285-0.67028-0.285-1.0556 0-1.1664 0.94472-2.1111 2.1111-2.1111 1.1664 0 2.1111 0.94472 2.1111 2.1111z" fill="#13cf54" stroke-width="1.0556"/>
 </g>
</svg>
