<?xml version="1.0" encoding="UTF-8"?>
<svg width="31.5" height="31.495" version="1.1" viewBox="0 0 31.5 31.495" xmlns="http://www.w3.org/2000/svg">
 <path d="m10.533 0.5h17.101a3.37 3.37 0 0 1 3.366 3.367v17.1a3.369 3.369 0 0 1-3.366 3.365h-17.1a3.368 3.368 0 0 1-3.365-3.365v-17.1a3.369 3.369 0 0 1 3.364-3.367zm17.101 21.332a0.866 0.866 0 0 0 0.866-0.865v-17.1a0.867 0.867 0 0 0-0.866-0.867h-17.1a0.867 0.867 0 0 0-0.865 0.867v17.1a0.865 0.865 0 0 0 0.865 0.865z"/>
 <path d="m3.866 7.169h3.7755c1.6667 0 1.6142 2.5-0.05243 2.5h-3.7231c-0.47805 5.51e-4 -0.86545 0.38795-0.866 0.866v17.095c5.52e-4 0.47789 0.38811 0.865 0.866 0.865h17.1c0.47789 0 0.86545-0.38711 0.866-0.865v-3.9863c0-1.6667 2.5-1.7191 2.5-0.05243v4.0387c-0.0022 1.856-1.505 3.3606-3.361 3.365h-17.105c-1.8579-0.0017-3.3638-1.5071-3.366-3.365v-17.1c5e-3 -1.8561 1.5099-3.3588 3.366-3.361z"/>
</svg>
