<?xml version="1.0" encoding="iso-8859-1"?>
<!-- Generator: Adobe Illustrator 19.0.0, SVG Export Plug-In . SVG Version: 6.00 Build 0)  -->
<svg version="1.1" id="Layer_1" xmlns="http://www.w3.org/2000/svg" xmlns:xlink="http://www.w3.org/1999/xlink" x="0px" y="0px"
	 viewBox="0 0 512 512" style="enable-background:new 0 0 512 512;" xml:space="preserve">
<path style="fill:#FF6465;" d="M380.688,256.001l116.299-116.299c8.72-8.72,8.72-22.859,0-31.579l-93.107-93.108
	c-8.72-8.72-22.859-8.72-31.579,0l-116.3,116.299l-116.3-116.299c-8.72-8.72-22.859-8.72-31.579,0l-93.107,93.107
	c-8.72,8.72-8.72,22.859,0,31.579l116.299,116.299L15.015,372.3c-8.72,8.72-8.72,22.859,0,31.579l93.108,93.107
	c8.72,8.72,22.859,8.72,31.579,0l116.299-116.299L372.3,496.985c8.72,8.72,22.859,8.72,31.579,0l93.108-93.107
	c8.72-8.72,8.72-22.859,0-31.579L380.688,256.001z"/>
<path d="M388.082,511.986c-7.887,0-15.777-3.003-21.781-9.008l-43.847-43.846c-3.309-3.309-3.309-8.675,0-11.983
	c3.309-3.308,8.674-3.31,11.984,0l43.846,43.846c5.402,5.402,14.193,5.404,19.597,0l93.105-93.107
	c2.618-2.617,4.06-6.097,4.06-9.798c0-3.701-1.441-7.18-4.058-9.798l-116.299-116.3c-3.309-3.309-3.309-8.675,0-11.983
	L490.988,133.71c2.618-2.617,4.06-6.097,4.06-9.798s-1.441-7.18-4.058-9.798l-93.108-93.108c-2.618-2.618-6.097-4.058-9.799-4.058
	c-3.7,0-7.18,1.441-9.797,4.058L261.986,137.305c-1.59,1.59-3.744,2.482-5.993,2.482s-4.402-0.893-5.993-2.482l-65.536-65.537
	c-3.309-3.309-3.309-8.675,0-11.983c3.31-3.31,8.675-3.309,11.984,0l59.544,59.545L366.301,9.023C372.119,3.204,379.855,0,388.082,0
	s15.964,3.204,21.781,9.022l93.108,93.108c5.818,5.818,9.022,13.554,9.022,21.781s-3.204,15.964-9.023,21.781L392.664,255.999
	l110.307,110.307c5.818,5.818,9.022,13.554,9.022,21.781s-3.204,15.964-9.023,21.782l-93.105,93.107
	C403.859,508.983,395.971,511.986,388.082,511.986z"/>
<path d="M123.905,512c-8.228,0-15.964-3.204-21.781-9.022L9.015,409.87c-12.01-12.01-12.01-31.552,0-43.564l110.308-110.307
	L9.015,145.692c-12.009-12.01-12.009-31.552,0-43.564l93.108-93.107C107.941,3.204,115.677,0,123.905,0s15.964,3.204,21.781,9.022
	l26.794,26.794c3.309,3.309,3.309,8.675,0,11.983c-3.31,3.309-8.675,3.309-11.984,0l-26.794-26.794
	c-2.616-2.617-6.097-4.058-9.797-4.058c-3.701,0-7.18,1.441-9.799,4.058L21,114.112c-5.402,5.403-5.402,14.193,0,19.596
	l116.3,116.299c1.589,1.589,2.481,3.744,2.481,5.992s-0.893,4.403-2.481,5.992L21,378.291c-5.403,5.403-5.403,14.193,0,19.596
	l93.108,93.108c2.616,2.617,6.097,4.058,9.797,4.058c3.701,0,7.18-1.441,9.799-4.058l116.298-116.299
	c1.59-1.59,3.744-2.482,5.993-2.482c2.248,0,4.402,0.893,5.993,2.482l48.485,48.485c3.309,3.309,3.309,8.675,0,11.983
	c-3.31,3.309-8.675,3.309-11.984,0l-42.493-42.494L145.69,502.978C139.869,508.796,132.132,512,123.905,512z"/>
<g>
</g>
<g>
</g>
<g>
</g>
<g>
</g>
<g>
</g>
<g>
</g>
<g>
</g>
<g>
</g>
<g>
</g>
<g>
</g>
<g>
</g>
<g>
</g>
<g>
</g>
<g>
</g>
<g>
</g>
</svg>
