<?xml version="1.0" encoding="UTF-8" standalone="no"?>
<svg xmlns="http://www.w3.org/2000/svg" width="32" height="32" viewBox="0 0 24 24" fill="black" version="1.1" id="svg4">
   <path d="m 12.003369,3 c 4.78182,0 8.6943,3.75344 8.97262,8.4668 l 0.99707,-0.9971 c 0.06991,-0.072 0.15355,-0.1292 0.24598,-0.1683 0.09243,-0.0391 0.19176,-0.0592 0.29211,-0.0592 0.14926,0 0.29511,0.0446 0.4189,0.128 0.123792,0.0834 0.219885,0.2018 0.275987,0.3401 0.0561,0.1383 0.06966,0.2903 0.03895,0.4363 -0.03072,0.1461 -0.104315,0.2797 -0.211376,0.3837 l -2.249997,2.25 c -0.14066,0.1406 -0.3314,0.2196 -0.53028,0.2196 -0.19887,0 -0.38961,-0.079 -0.53027,-0.2196 l -2.25,-2.25 c -0.07198,-0.0691 -0.12944,-0.1519 -0.16903,-0.2435 -0.03959,-0.0916 -0.0605,-0.1902 -0.06152,-0.29 -10e-4,-0.0997 0.0179,-0.1987 0.05561,-0.2911 0.03772,-0.0924 0.09349,-0.1763 0.16405,-0.2469 0.07056,-0.0705 0.15448,-0.1263 0.24687,-0.164 0.09238,-0.0377 0.19136,-0.0566 0.29114,-0.0556 0.09978,10e-4 0.19835,0.0219 0.28995,0.0615 0.09159,0.0396 0.17437,0.097 0.24348,0.169 l 0.93945,0.9395 C 19.172319,7.53643 15.955079,4.5 12.003369,4.5 9.4653692,4.5 7.2361692,5.75839 5.8773692,7.68262 c -0.0568,0.08048 -0.1289,0.14899 -0.2122,0.20161 -0.0833,0.05262 -0.1761,0.08832 -0.2732,0.10505 -0.0971,0.01674 -0.1965,0.01419 -0.2926,-0.0075 -0.0961,-0.02169 -0.187,-0.06209 -0.2675,-0.11891 -0.0805,-0.05682 -0.149,-0.12893 -0.2016,-0.21222 -0.0526,-0.08329 -0.0883,-0.17613 -0.105,-0.27322 -0.0167,-0.09708 -0.0141,-0.19651 0.0076,-0.2926 0.0217,-0.0961 0.0621,-0.18697 0.1189,-0.26745 C 6.2799692,4.51161 8.9682692,3 12.003369,3 Z m -8.2392998,7 c 0.1952,0.0029 0.3815,0.0817 0.5195,0.2197 l 2.25,2.25 c 0.072,0.0691 0.1295,0.1519 0.1691,0.2435 0.0396,0.0916 0.0605,0.1902 0.0615,0.29 10e-4,0.0997 -0.0179,0.1987 -0.0556,0.2911 -0.0377,0.0924 -0.0935,0.1763 -0.1641,0.2469 -0.0705,0.0705 -0.1545,0.1263 -0.2468,0.164 -0.0924,0.0377 -0.1914,0.0566 -0.2912,0.0556 -0.0998,-10e-4 -0.1983,-0.0219 -0.2899,-0.0615 -0.0916,-0.0396 -0.1744,-0.097 -0.2435,-0.169 l -0.9395,-0.9395 c 0.3008,3.8728 3.518,6.9092 7.4697998,6.9092 2.53794,0 4.76715,-1.2584 6.12594,-3.1826 0.05681,-0.0805 0.12891,-0.149 0.2122,-0.2016 0.08328,-0.0526 0.17612,-0.0883 0.2732,-0.1051 0.09708,-0.0167 0.19651,-0.0142 0.2926,0.0075 0.0961,0.0217 0.18698,0.0621 0.26746,0.1189 0.08048,0.0568 0.14898,0.129 0.20159,0.2123 0.05261,0.0832 0.0883,0.1761 0.10502,0.2732 0.01673,0.0971 0.01417,0.1965 -0.0075,0.2926 -0.0217,0.0961 -0.06212,0.1869 -0.11894,0.2674 C 17.726679,19.4884 15.038349,21 12.003369,21 7.2214692,21 3.3089692,17.2466 3.0306692,12.5332 l -0.9971,0.9971 c -0.0691,0.072 -0.1518,0.1294 -0.2434,0.169 -0.0916,0.0396 -0.1902,0.0605 -0.29,0.0615 -0.0998,10e-4 -0.1988,-0.0179 -0.2911,-0.0556 -0.0924,-0.0377 -0.1763,-0.0935 -0.24689996,-0.164 -0.0706,-0.0706 -0.1263,-0.1545 -0.164,-0.2469 -0.0378,-0.0924 -0.0567,-0.1914 -0.0557,-0.2911 0.0011,-0.0998 0.022,-0.1984 0.0616,-0.29 0.0395,-0.0916 0.097,-0.1744 0.169,-0.2435 l 2.24999996,-2.25 c 0.0709,-0.0709 0.1553,-0.1269 0.2482,-0.1646 0.093,-0.0378 0.1925,-0.05651 0.2928,-0.0551 z" id="path2" />
</svg>
