<svg width="16" height="16" viewBox="0 0 24 24" fill="none" xmlns="http://www.w3.org/2000/svg">
<path d="M6.25 2C5.0095 2 4 3.0095 4 4.25V19.75C4 20.9905 5.0095 22 6.25 22H12.8164C12.3889 21.5555 12.0253 21.0515 11.7373 20.5H6.25C5.8365 20.5 5.5 20.1635 5.5 19.75V4.25C5.5 3.8365 5.8365 3.5 6.25 3.5H12V7.75C12 8.9905 13.0095 10 14.25 10H18.5V11.085C19.0225 11.166 19.5265 11.3015 20 11.499V9.24902C20 9.04202 19.916 8.85548 19.7803 8.71973L13.2803 2.21973C13.1445 2.08404 12.957 2 12.75 2H6.25ZM13.5 4.56055L17.4385 8.49902H14.25C13.8365 8.49902 13.5 8.16252 13.5 7.74902V4.56055ZM17.5 12C14.4625 12 12 14.4625 12 17.5C12 20.5375 14.4625 23 17.5 23C20.5375 23 23 20.5375 23 17.5C23 14.4625 20.5375 12 17.5 12ZM8.75 12.5C8.336 12.5 8 12.836 8 13.25C8 13.664 8.336 14 8.75 14H12.0283C12.3903 13.435 12.8337 12.9275 13.3477 12.5H8.75ZM8.75 16C8.336 16 8 16.336 8 16.75C8 17.164 8.336 17.5 8.75 17.5H11C11 16.983 11.0667 16.4825 11.1807 16H8.75ZM14 17H21C21.276 17 21.5 17.224 21.5 17.5C21.5 17.776 21.276 18 21 18H14C13.724 18 13.5 17.776 13.5 17.5C13.5 17.224 13.724 17 14 17Z" fill="#AACDFF"/>
</svg>
