<?xml version="1.0" encoding="utf-8"?>
<!-- Uploaded to SVGRepo https://www.svgrepo.com -->
<svg version="1.2" baseProfile="tiny" id="Layer_1" xmlns="http://www.w3.org/2000/svg" xmlns:xlink="http://www.w3.org/1999/xlink"
	 x="0px" y="0px" viewBox="0 0 256 256" xml:space="preserve">
<path d="M211,197.5h-60c-1.2,2.6-2.8,5.2-5,7.4c-4.5,4.5-10.4,6.9-16.8,6.9c-6.4,0-12.3-2.4-16.8-6.9l-42.2-42.2
	c-1.9-1.9-1.9-4.7,0-6.6c1.9-1.9,4.7-1.9,6.6,0l42.5,42.5c5.5,5.5,14.5,5.5,20.2,0c5.5-5.5,5.5-14.5,0-20.2l-52.9-52.9
	c-8.8-8.8-20.2-13-31.5-13.3h-55v56.9h26.6c6.2,0,12.1,2.4,16.8,6.9l36.8,36.8c9,9,21.6,13.3,33.2,13.3H211
	c7.8,0,14.2-6.4,14.2-14.2S218.8,197.5,211,197.5z M240.4,111.2c17.9-15.7,20.1-43.1,4.3-61.3l0,0C229,32,201.6,29.8,183.4,45.6
	l-6.2,5.4l-6.2-5.4c-17.9-15.7-45.6-13.6-61.3,4.3l0,0c-15.8,17.9-13.6,45.6,4.3,61.3l62.2,63.8L240.4,111.2z"/>
</svg>
