<?xml version="1.0" encoding="UTF-8" standalone="no"?>
<!-- Generator: Adobe Illustrator 18.1.1, SVG Export Plug-In . SVG Version: 6.00 Build 0)  -->

<svg
   xmlns:dc="http://purl.org/dc/elements/1.1/"
   xmlns:cc="http://creativecommons.org/ns#"
   xmlns:rdf="http://www.w3.org/1999/02/22-rdf-syntax-ns#"
   xmlns:svg="http://www.w3.org/2000/svg"
   xmlns="http://www.w3.org/2000/svg"
   xmlns:sodipodi="http://sodipodi.sourceforge.net/DTD/sodipodi-0.dtd"
   xmlns:inkscape="http://www.inkscape.org/namespaces/inkscape"
   version="1.1"
   id="Capa_1"
   x="0px"
   y="0px"
   viewBox="0 0 611.999 611.999"
   style="enable-background:new 0 0 611.999 611.999;"
   xml:space="preserve"
   sodipodi:docname="fire.svg"
   inkscape:version="0.92.4 (5da689c313, 2019-01-14)"><metadata
   id="metadata41"><rdf:RDF><cc:Work
       rdf:about=""><dc:format>image/svg+xml</dc:format><dc:type
         rdf:resource="http://purl.org/dc/dcmitype/StillImage" /></cc:Work></rdf:RDF></metadata><defs
   id="defs39" /><sodipodi:namedview
   pagecolor="#ffffff"
   bordercolor="#666666"
   borderopacity="1"
   objecttolerance="10"
   gridtolerance="10"
   guidetolerance="10"
   inkscape:pageopacity="0"
   inkscape:pageshadow="2"
   inkscape:window-width="2560"
   inkscape:window-height="1356"
   id="namedview37"
   showgrid="false"
   inkscape:zoom="0.38562153"
   inkscape:cx="305.99951"
   inkscape:cy="305.99951"
   inkscape:window-x="1072"
   inkscape:window-y="370"
   inkscape:window-maximized="1"
   inkscape:current-layer="Capa_1" />

<g
   id="g6">
</g>
<g
   id="g8">
</g>
<g
   id="g10">
</g>
<g
   id="g12">
</g>
<g
   id="g14">
</g>
<g
   id="g16">
</g>
<g
   id="g18">
</g>
<g
   id="g20">
</g>
<g
   id="g22">
</g>
<g
   id="g24">
</g>
<g
   id="g26">
</g>
<g
   id="g28">
</g>
<g
   id="g30">
</g>
<g
   id="g32">
</g>
<g
   id="g34">
</g>
<circle
   style="fill:#a80005;fill-opacity:0.96482412;stroke-width:25.5879097"
   id="path812"
   cx="305.99951"
   cy="305.99951"
   r="302.5004" /><g
   id="g4"
   style="fill:#ffffff"
   transform="matrix(0.78423341,0,0,0.78423341,66.024482,66.024552)">
	<path
   d="m 216.02,611.195 c 5.978,3.178 12.284,-3.704 8.624,-9.4 -19.866,-30.919 -38.678,-82.947 -8.706,-149.952 49.982,-111.737 80.396,-169.609 80.396,-169.609 0,0 16.177,67.536 60.029,127.585 42.205,57.793 65.306,130.478 28.064,191.029 -3.495,5.683 2.668,12.388 8.607,9.349 46.1,-23.582 97.806,-70.885 103.64,-165.017 2.151,-28.764 -1.075,-69.034 -17.206,-119.851 -20.741,-64.406 -46.239,-94.459 -60.992,-107.365 -4.413,-3.861 -11.276,-0.439 -10.914,5.413 4.299,69.494 -21.845,87.129 -36.726,47.386 -5.943,-15.874 -9.409,-43.33 -9.409,-76.766 0,-55.665 -16.15,-112.967 -51.755,-159.531 -9.259,-12.109 -20.093,-23.424 -32.523,-33.073 -4.5,-3.494 -11.023,0.018 -10.611,5.7 2.734,37.736 0.257,145.885 -94.624,275.089 -86.029,119.851 -52.693,211.896 -40.864,236.826 22.616,47.759 54.162,75.806 84.97,92.187 z"
   id="path2"
   style="fill:#ffffff"
   inkscape:connector-curvature="0" />
</g></svg>