<svg width="32" height="41" viewBox="0 0 32 41" fill="currentColor" xmlns="http://www.w3.org/2000/svg">
<path d="M16 1.84379e-08C15.648 -5.51516e-05 15.3071 0.123701 15.0371 0.349609C15.0371 0.349609 11.3095 3.46554 7.58594 8.04102C3.86238 12.6165 0 18.6796 0 25C0 33.5438 6.74591 40.5304 15.1855 40.959C15.4536 40.9864 15.725 41 16 41C16.275 41 16.5464 40.9864 16.8145 40.959C25.2541 40.5304 32 33.5438 32 25C32 18.243 27.6008 11.7782 23.6445 7.11719C23.4458 6.88278 23.18 6.71503 22.8828 6.63664C22.5857 6.55825 22.2717 6.573 21.9832 6.67888C21.6948 6.78477 21.4458 6.97669 21.2699 7.22868C21.0941 7.48068 20.9998 7.7806 21 8.08789V12.5C21 13.3465 20.3465 14 19.5 14C18.6535 14 18 13.3465 18 12.5V1.93555C18 1.72322 17.9548 1.51331 17.8676 1.31971C17.7804 1.12611 17.6531 0.953232 17.4941 0.8125C17.1687 0.524232 16.9668 0.353516 16.9668 0.353516C16.6963 0.125335 16.3539 0.000119951 16 1.84379e-08ZM15 4.44727V12.5C15 14.9675 17.0325 17 19.5 17C21.9675 17 24 14.9675 24 12.5V12.4805C26.7382 16.3652 29 20.8888 29 25C29 29.3668 26.8559 33.2109 23.5684 35.5664C23.844 34.7593 24 33.8974 24 33C24 29.6591 22.1698 26.6012 20.4551 24.293C18.7404 21.9847 17.0176 20.3984 17.0176 20.3984C16.8702 20.2621 16.6969 20.1568 16.508 20.0887C16.3191 20.0206 16.1185 19.9911 15.918 20.002C15.5695 20.0213 15.2387 20.1615 14.9824 20.3984C14.9824 20.3984 13.2596 21.9847 11.5449 24.293C9.83021 26.6012 8 29.6591 8 33C8 33.8974 8.15597 34.7593 8.43164 35.5664C5.14405 33.2109 3 29.3668 3 25C3 19.9554 6.38762 14.2688 9.91406 9.93555C11.8698 7.53231 13.6468 5.73267 15 4.44727ZM16 23.7578C16.5659 24.3288 17.0197 24.7019 18.0449 26.082C19.5802 28.1488 21 30.8409 21 33C21 35.605 19.0488 37.7196 16.5156 37.9746C16.3461 37.9917 16.1744 38 16 38C15.8263 38 15.6553 37.9916 15.4863 37.9746C15.4857 37.9746 15.485 37.9746 15.4844 37.9746C12.9512 37.7196 11 35.605 11 33C11 30.8409 12.4198 28.1488 13.9551 26.082C14.9803 24.7019 15.4341 24.3288 16 23.7578Z"/>
</svg>
