<?xml version="1.0" encoding="iso-8859-1"?>
<!-- Generator: Adobe Illustrator 16.0.0, SVG Export Plug-In . SVG Version: 6.00 Build 0)  -->
<!DOCTYPE svg PUBLIC "-//W3C//DTD SVG 1.1//EN" "http://www.w3.org/Graphics/SVG/1.1/DTD/svg11.dtd">
<svg version="1.1" id="Capa_1" xmlns="http://www.w3.org/2000/svg" xmlns:xlink="http://www.w3.org/1999/xlink" x="0px" y="0px"
	 width="47.001px" height="47.001px" viewBox="0 0 47.001 47.001" style="enable-background:new 0 0 47.001 47.001;"
	 xml:space="preserve">
<g>
	<g id="Layer_1_19_">
		<g>
			<g>
				<path d="M31.736,10.307c-0.111-0.112-0.249-0.193-0.398-0.24l-8.975-2.818c-3.589-1.127-5.924,0.839-6.553,1.47
					c-0.367,0.367-0.648,0.754-0.792,1.091l-3.998,9.404c-0.229,0.538-0.151,1.255,0.208,1.97c0.514,1.021,1.44,1.757,2.547,2.022
					c1.239,0.297,2.524-0.106,3.53-1.111c0.263-0.263,0.487-0.553,0.619-0.799l1.344-2.493c0.221-0.413,0.542-0.841,0.88-1.179
					c1.153-1.154,1.701-0.626,1.934-0.402c2.011,1.941,12.554,12.529,12.554,12.529c0.375,0.375,0.297,1.086-0.172,1.554
					c-0.468,0.467-1.18,0.547-1.554,0.174l-2.962-2.961c-0.382-0.383-0.998-0.383-1.38,0c-0.382,0.379-0.382,0.998,0,1.379
					l2.962,2.963c0.374,0.373,0.296,1.084-0.172,1.551c-0.468,0.469-1.181,0.547-1.553,0.174l-2.963-2.961
					c-0.382-0.382-1-0.382-1.38,0c-0.382,0.379-0.382,0.998,0,1.38l2.962,2.962c0.374,0.374,0.293,1.085-0.174,1.553
					c-0.467,0.467-1.178,0.547-1.553,0.172l-2.962-2.961c-0.38-0.381-0.999-0.381-1.38,0c-0.38,0.381-0.38,1,0,1.379l2.962,2.963
					c0.375,0.375,0.295,1.086-0.172,1.554c-0.47,0.468-1.181,0.547-1.554,0.173l-3.606-3.609c0.515-0.774,0.375-1.897-0.389-2.664
					c-0.856-0.855-2.173-0.934-2.935-0.17c0.762-0.763,0.687-2.078-0.171-2.935c-0.858-0.856-2.172-0.935-2.934-0.173
					c0.762-0.762,0.685-2.076-0.174-2.932c-0.856-0.858-2.17-0.936-2.934-0.174c0.764-0.762,0.685-2.076-0.172-2.935
					c-0.802-0.802-1.997-0.911-2.774-0.3l-5.839-5.839c-0.381-0.382-1-0.382-1.381,0c-0.38,0.38-0.38,0.999,0,1.381l5.824,5.823
					l-1.727,1.727c-0.762,0.761-0.685,2.075,0.174,2.934c0.856,0.856,2.17,0.935,2.933,0.172c-0.763,0.763-0.685,2.076,0.173,2.934
					c0.856,0.855,2.171,0.936,2.934,0.173c-0.763,0.763-0.686,2.076,0.172,2.933c0.858,0.858,2.172,0.936,2.934,0.174
					c-0.762,0.761-0.685,2.074,0.173,2.933c0.857,0.856,2.17,0.935,2.934,0.172l1.824-1.823l3.581,3.58
					c1.143,1.143,3.076,1.063,4.314-0.173c0.603-0.603,0.925-1.373,0.97-2.135c0.762-0.045,1.533-0.368,2.135-0.972
					c0.604-0.603,0.928-1.373,0.974-2.135c0.761-0.045,1.529-0.367,2.135-0.971c0.603-0.604,0.926-1.373,0.97-2.136
					c0.763-0.044,1.533-0.366,2.137-0.972c1.236-1.236,1.312-3.172,0.172-4.313l-1.51-1.511l6.2-6.199
					c0.381-0.38,0.381-0.999,0-1.38L31.736,10.307z"/>
			</g>
			<g>
				<path d="M46.43,12.489l-7.901-7.901c-0.762-0.763-1.999-0.763-2.762,0l-2.762,2.76c-0.762,0.762-0.762,1.999,0,2.761
					l7.902,7.903c0.763,0.762,2,0.762,2.762,0l2.761-2.761C47.191,14.488,47.191,13.251,46.43,12.489z M42.283,16.513
					c-0.884,0-1.602-0.717-1.602-1.602c0-0.885,0.718-1.603,1.602-1.603c0.885,0,1.603,0.717,1.603,1.603
					C43.885,15.795,43.168,16.513,42.283,16.513z"/>
			</g>
		</g>
	</g>
</g>
<g>
</g>
<g>
</g>
<g>
</g>
<g>
</g>
<g>
</g>
<g>
</g>
<g>
</g>
<g>
</g>
<g>
</g>
<g>
</g>
<g>
</g>
<g>
</g>
<g>
</g>
<g>
</g>
<g>
</g>
</svg>
