<svg width="16" height="16" viewBox="0 0 16 16" fill="none" xmlns="http://www.w3.org/2000/svg">
<path d="M7.99324 3.83599C7.86313 3.83789 7.73888 3.89044 7.64689 3.98247L1.14689 10.4825C1.0989 10.5285 1.06059 10.5837 1.0342 10.6448C1.00781 10.7059 0.993866 10.7716 0.99319 10.8381C0.992514 10.9046 1.00512 10.9706 1.03026 11.0322C1.05541 11.0938 1.09259 11.1497 1.13963 11.1968C1.18666 11.2438 1.24262 11.281 1.3042 11.3061C1.36579 11.3313 1.43178 11.3439 1.4983 11.3432C1.56482 11.3425 1.63053 11.3286 1.6916 11.3022C1.75266 11.2758 1.80785 11.2375 1.85392 11.1895L8.0004 5.04302L14.1469 11.1895C14.193 11.2375 14.2481 11.2758 14.3092 11.3022C14.3703 11.3286 14.436 11.3425 14.5025 11.3432C14.569 11.3439 14.635 11.3313 14.6966 11.3061C14.7582 11.281 14.8141 11.2438 14.8612 11.1968C14.9082 11.1497 14.9454 11.0938 14.9705 11.0322C14.9957 10.9706 15.0083 10.9046 15.0076 10.8381C15.0069 10.7716 14.993 10.7059 14.9666 10.6448C14.9402 10.5837 14.9019 10.5285 14.8539 10.4825L8.35392 3.98247C8.30665 3.93518 8.25037 3.89785 8.18842 3.87269C8.12647 3.84753 8.0601 3.83505 7.99324 3.83599Z" fill="#FB2715"/>
</svg>
