<svg width="32" height="32" viewBox="0 0 24 24" fill="none" xmlns="http://www.w3.org/2000/svg">
    <path d="M15.9999 3C13.2842 3 11.0802 5.19437 11.0214 7.89648C8.62028 7.6085 7.05671 6.71075 6.09757 5.82617C5.03391 4.84519 4.69718 3.97363 4.69718 3.97363C4.64802 3.84977 4.56675 3.74124 4.46173 3.65921C4.35671 3.57718 4.23173 3.52461 4.09965 3.5069C3.96757 3.4892 3.83316 3.507 3.71025 3.55848C3.58733 3.60996 3.48035 3.69326 3.40031 3.7998C3.40031 3.7998 2.49992 5 2.49992 6.75C2.49992 7.75049 2.81581 8.49078 3.1923 9.11817C3.17843 9.11167 3.08488 9.0791 3.08488 9.0791C2.96534 9.01942 2.83204 8.99275 2.69874 9.00185C2.56544 9.01094 2.437 9.05548 2.32668 9.13085C2.21636 9.20622 2.12818 9.30969 2.07125 9.43056C2.01432 9.55143 1.9907 9.68531 2.00285 9.81836C2.00285 9.81836 2.29152 11.9284 4.27531 13.4707L4.06828 13.5225C3.95589 13.5505 3.85154 13.6042 3.76338 13.6794C3.67523 13.7545 3.60568 13.849 3.56018 13.9555C3.51467 14.0621 3.49446 14.1777 3.50112 14.2933C3.50777 14.409 3.54112 14.5215 3.59855 14.6221C3.59855 14.6221 3.93494 15.1911 4.63956 15.79C5.05734 16.1452 5.67105 16.5116 6.39445 16.8506C5.50605 17.1752 4.18132 17.5 2.24992 17.5C2.10579 17.5 1.96472 17.5415 1.84356 17.6196C1.72241 17.6976 1.62631 17.8089 1.56677 17.9402C1.50722 18.0714 1.48675 18.2171 1.5078 18.3596C1.52885 18.5022 1.59053 18.6357 1.68546 18.7441C1.68546 18.7441 2.25858 19.3755 3.39152 19.9248C4.52446 20.4741 6.26965 21 8.74992 21C13.1098 21 16.2422 18.9086 18.1972 16.2578C20.1521 13.6071 20.9999 10.4306 20.9999 8C20.9999 7.84577 20.9903 7.69372 20.9765 7.54297C22.0321 6.5258 22.4282 5.76112 22.4472 5.72363C22.5422 5.53313 22.5068 5.30434 22.3593 5.15234C22.2123 4.99984 21.9844 4.9569 21.7909 5.0459L21.7099 5.08301C21.6404 5.11501 21.5709 5.14721 21.5009 5.17871C21.7044 4.85421 21.865 4.50744 21.9765 4.14844C22.0385 3.95044 21.9715 3.73347 21.8075 3.60547C21.6435 3.47747 21.4177 3.46377 21.2402 3.57227C20.629 3.94368 20.0432 4.2037 19.4335 4.37793C18.5362 3.52674 17.3284 3 15.9999 3ZM15.9999 4.5C17.9415 4.5 19.4999 6.05841 19.4999 8C19.4999 10.0694 18.7227 13.018 16.9902 15.3672C15.2576 17.7164 12.6401 19.5 8.74992 19.5C6.86732 19.5 5.61501 19.1595 4.67667 18.791C5.65959 18.6384 6.50589 18.4347 7.11417 18.1992C8.16901 17.7909 8.7382 17.3193 8.7382 17.3193C8.8426 17.2297 8.92035 17.1131 8.96293 16.9823C9.00551 16.8515 9.01129 16.7115 8.97963 16.5776C8.94798 16.4437 8.8801 16.3211 8.78343 16.2232C8.68677 16.1253 8.56504 16.0558 8.43156 16.0225C7.07019 15.6821 6.19708 15.1317 5.64933 14.6729L6.43156 14.4775C6.58625 14.4389 6.72462 14.352 6.82658 14.2295C6.92854 14.1069 6.98879 13.955 6.99859 13.7959C7.00839 13.6367 6.96722 13.4786 6.88106 13.3445C6.7949 13.2103 6.66824 13.1071 6.51945 13.0498C4.89689 12.4257 4.21553 11.5432 3.8671 10.8037C4.29109 10.8915 4.68586 11 5.24992 11C5.41882 10.9999 5.58274 10.9427 5.71512 10.8378C5.84751 10.7329 5.94061 10.5864 5.97937 10.422C6.01812 10.2576 6.00026 10.085 5.92866 9.93199C5.85707 9.77901 5.73594 9.65467 5.58488 9.5791C5.58488 9.5791 3.99992 8.85 3.99992 6.75C3.99992 6.37297 4.10434 6.13418 4.18058 5.84863C4.44217 6.20018 4.65776 6.5393 5.07999 6.92871C6.36733 8.11598 8.4951 9.32658 11.7099 9.49902C11.8116 9.50445 11.9134 9.4891 12.009 9.45391C12.1046 9.41872 12.192 9.36443 12.2659 9.29434C12.3398 9.22425 12.3987 9.13984 12.4389 9.04626C12.4792 8.95267 12.4999 8.85187 12.4999 8.75V8C12.4999 6.05841 14.0583 4.5 15.9999 4.5Z"
          fill="#AACDFF"/>
</svg>
