<svg width="32" height="32" viewBox="0 0 24 24" fill="none" xmlns="http://www.w3.org/2000/svg">
<path d="M10 2C7.24746 2 5 4.24746 5 7C5 9.75254 7.24746 12 10 12C12.7525 12 15 9.75254 15 7C15 4.24746 12.7525 2 10 2ZM10 3.5C11.9419 3.5 13.5 5.05812 13.5 7C13.5 8.94188 11.9419 10.5 10 10.5C8.05812 10.5 6.5 8.94188 6.5 7C6.5 5.05812 8.05812 3.5 10 3.5ZM17 9C16.0625 9 15.2644 9.37857 14.752 9.95508C14.2395 10.5316 14 11.2708 14 12C14 12.7292 14.2395 13.4684 14.752 14.0449C15.2644 14.6214 16.0625 15 17 15C17.9375 15 18.7356 14.6214 19.248 14.0449C19.7605 13.4684 20 12.7292 20 12C20 11.2708 19.7605 10.5316 19.248 9.95508C18.7356 9.37857 17.9375 9 17 9ZM17 10.5C17.5625 10.5 17.8894 10.6839 18.127 10.9512C18.3645 11.2184 18.5 11.6042 18.5 12C18.5 12.3958 18.3645 12.7816 18.127 13.0488C17.8894 13.3161 17.5625 13.5 17 13.5C16.4375 13.5 16.1106 13.3161 15.873 13.0488C15.6355 12.7816 15.5 12.3958 15.5 12C15.5 11.6042 15.6355 11.2184 15.873 10.9512C16.1106 10.6839 16.4375 10.5 17 10.5ZM4.25 14C3.0095 14 2 15.0095 2 16.25V16.8496C2 19.7376 5.514 22 10 22C10.9375 22 11.8287 21.8964 12.6582 21.7139C12.1582 21.3419 11.7527 20.9017 11.4697 20.4092C11.0062 20.4672 10.5165 20.5 10 20.5C5.985 20.5 3.5 18.6051 3.5 16.8496V16.25C3.5 15.8365 3.8365 15.5 4.25 15.5H12.5264C13.0269 15.185 13.6165 15 14.25 15H14.3633C14.0383 14.714 13.76 14.3765 13.541 14H4.25ZM14.25 16C13.0162 16 12 17.0162 12 18.25V18.6709C12 19.6649 12.6283 20.5277 13.5234 21.0986C14.4186 21.6695 15.6146 22 17 22C18.3854 22 19.5814 21.6695 20.4766 21.0986C21.3717 20.5277 22 19.6649 22 18.6709V18.25C22 17.0162 20.9838 16 19.75 16H14.25ZM14.25 17.5H19.75C20.1733 17.5 20.5 17.8268 20.5 18.25V18.6709C20.5 19.0269 20.2679 19.4526 19.6699 19.834C19.072 20.2153 18.1421 20.5 17 20.5C15.8579 20.5 14.928 20.2153 14.3301 19.834C13.7321 19.4526 13.5 19.0269 13.5 18.6709V18.25C13.5 17.8268 13.8268 17.5 14.25 17.5Z" fill="white"/>
</svg>
