<svg width="48" height="48" viewBox="0 0 48 48" fill="none" xmlns="http://www.w3.org/2000/svg">
<path d="M36 5C32.1518 5 29 8.15178 29 12C29 12.5858 29.1985 13.1095 29.3359 13.6543L17.3457 19.6523C16.0591 18.0739 14.1815 17 12 17C8.15177 17 5 20.1518 5 24C5 27.8482 8.15177 31 12 31C14.1815 31 16.0591 29.9261 17.3457 28.3477L29.3359 34.3457C29.1985 34.8905 29 35.4142 29 36C29 39.8482 32.1518 43 36 43C39.8482 43 43 39.8482 43 36C43 32.1518 39.8482 29 36 29C33.8185 29 31.9409 30.0739 30.6543 31.6523L18.6641 25.6543C18.8015 25.1095 19 24.5858 19 24C19 23.4142 18.8015 22.8905 18.6641 22.3457L30.6543 16.3477C31.9409 17.9261 33.8185 19 36 19C39.8482 19 43 15.8482 43 12C43 8.15178 39.8482 5 36 5ZM36 8C38.2269 8 40 9.77309 40 12C40 14.2269 38.2269 16 36 16C33.7731 16 32 14.2269 32 12C32 9.77309 33.7731 8 36 8ZM12 20C14.2269 20 16 21.7731 16 24C16 26.2269 14.2269 28 12 28C9.77309 28 8 26.2269 8 24C8 21.7731 9.77309 20 12 20ZM36 32C38.2269 32 40 33.7731 40 36C40 38.2269 38.2269 40 36 40C33.7731 40 32 38.2269 32 36C32 33.7731 33.7731 32 36 32Z" fill="#AACDFF"/>
</svg>
