<svg width="32" height="32" viewBox="0 0 24 24" fill="none" xmlns="http://www.w3.org/2000/svg">
<path d="M18 2.5C16.0759 2.5 14.5 4.07589 14.5 6C14.5 6.83657 14.7981 7.60692 15.293 8.21094L12.8867 11.25H9.41699C9.07085 9.68295 7.66676 8.5 6 8.5C4.07589 8.5 2.5 10.0759 2.5 12C2.5 13.9241 4.07589 15.5 6 15.5C7.66676 15.5 9.07085 14.317 9.41699 12.75H12.8867L15.293 15.7891C14.7981 16.3931 14.5 17.1634 14.5 18C14.5 19.9241 16.0759 21.5 18 21.5C19.9241 21.5 21.5 19.9241 21.5 18C21.5 16.0759 19.9241 14.5 18 14.5C17.4513 14.5 16.9333 14.6316 16.4697 14.8594L14.207 12L16.4697 9.14062C16.9333 9.36843 17.4513 9.5 18 9.5C19.9241 9.5 21.5 7.92411 21.5 6C21.5 4.07589 19.9241 2.5 18 2.5ZM18 4C19.1135 4 20 4.88655 20 6C20 7.11345 19.1135 8 18 8C16.8865 8 16 7.11345 16 6C16 4.88655 16.8865 4 18 4ZM6 10C7.11345 10 8 10.8865 8 12C8 13.1135 7.11345 14 6 14C4.88655 14 4 13.1135 4 12C4 10.8865 4.88655 10 6 10ZM18 16C19.1135 16 20 16.8865 20 18C20 19.1135 19.1135 20 18 20C16.8865 20 16 19.1135 16 18C16 16.8865 16.8865 16 18 16Z" fill="#AACDFF"/>
</svg>
