<svg width="32" height="32" viewBox="0 0 24 24" fill="none" xmlns="http://www.w3.org/2000/svg">
<path d="M5.25003 2.99995C4.07236 2.99995 3.10324 3.92866 3.01663 5.08589C3.00509 5.1398 2.99952 5.19482 3.00003 5.24995V6.74995V7.49995V18.75C3.00003 19.9837 4.01628 21 5.25003 21H18.75C19.9838 21 21 19.9837 21 18.75V8.24995C21 7.0162 19.9838 5.99995 18.75 5.99995H5.25003C4.82678 5.99995 4.50003 5.6732 4.50003 5.24995C4.50003 4.8267 4.82678 4.49995 5.25003 4.49995H17.75C17.8494 4.50136 17.9481 4.483 18.0403 4.44594C18.1325 4.40888 18.2165 4.35386 18.2873 4.28407C18.358 4.21429 18.4142 4.13114 18.4526 4.03944C18.491 3.94775 18.5107 3.84935 18.5107 3.74995C18.5107 3.65056 18.491 3.55216 18.4526 3.46046C18.4142 3.36877 18.358 3.28562 18.2873 3.21583C18.2165 3.14605 18.1325 3.09103 18.0403 3.05397C17.9481 3.01691 17.8494 2.99855 17.75 2.99995H5.25003ZM4.50003 7.49995H5.25003H18.75C19.1733 7.49995 19.5 7.8267 19.5 8.24995V18.75C19.5 19.1732 19.1733 19.5 18.75 19.5H5.25003C4.82678 19.5 4.50003 19.1732 4.50003 18.75V7.49995ZM16.75 12C16.4185 12 16.1006 12.1316 15.8661 12.3661C15.6317 12.6005 15.5 12.9184 15.5 13.25C15.5 13.5815 15.6317 13.8994 15.8661 14.1338C16.1006 14.3683 16.4185 14.5 16.75 14.5C17.0816 14.5 17.3995 14.3683 17.6339 14.1338C17.8683 13.8994 18 13.5815 18 13.25C18 12.9184 17.8683 12.6005 17.6339 12.3661C17.3995 12.1316 17.0816 12 16.75 12Z" fill="white"/>
</svg>
