<svg width="32" height="32" viewBox="0 0 24 24" fill="none" xmlns="http://www.w3.org/2000/svg">
<path d="M12 1.99998C11.6358 1.99998 11.275 2.01917 10.9199 2.0576C10.821 2.06693 10.7248 2.09583 10.6371 2.14264C10.5494 2.18944 10.4719 2.25321 10.4091 2.33024C10.3463 2.40726 10.2994 2.49601 10.2711 2.59132C10.2429 2.68663 10.2339 2.78661 10.2446 2.88543C10.2554 2.98425 10.2856 3.07995 10.3337 3.16697C10.3818 3.25399 10.4466 3.33058 10.5245 3.39231C10.6025 3.45403 10.6919 3.49966 10.7876 3.52652C10.8833 3.55339 10.9834 3.56097 11.082 3.54881C11.3829 3.51624 11.6892 3.49998 12 3.49998C16.7031 3.49998 20.5 7.29684 20.5 12C20.5 16.7031 16.7031 20.5 12 20.5C11.6892 20.5 11.3829 20.4837 11.082 20.4512C11.0571 20.4479 11.032 20.446 11.0068 20.4453C10.8115 20.4393 10.6216 20.5097 10.4775 20.6416C10.3333 20.7735 10.2463 20.9565 10.235 21.1515C10.2237 21.3466 10.2889 21.5384 10.4168 21.6861C10.5447 21.8338 10.7252 21.9257 10.9199 21.9424C11.2559 21.9787 11.5972 21.9961 11.9414 21.998C11.9434 21.9984 11.9453 21.9987 11.9473 21.999C11.9649 21.9991 11.9823 22 12 22C17.5139 22 22 17.5138 22 12C22 6.50512 17.5444 2.03172 12.0566 2.00096C12.0553 2.00095 12.054 2.00097 12.0527 2.00096C12.0352 2.00001 12.0176 1.99969 12 1.99998ZM8.27637 2.81346L7.92969 2.86619L7.875 2.88865L7.81934 2.91404L7.15039 3.25389L7.09766 3.28319L6.46191 3.67381L6.41113 3.70701L6.10645 3.92967L5.7998 4.49803L6.04785 5.09373L6.66699 5.27635L6.99121 5.14061L7.27051 4.93651L7.85742 4.57615L8.47461 4.26365L8.49609 4.25486L8.49805 4.25194L8.93066 3.7783L8.83398 3.13963L8.27637 2.81346ZM4.81348 5.89256L4.16797 5.91307L3.90234 6.14354L3.64746 6.50096L3.61426 6.55174L3.23047 7.19139L3.20117 7.2451L2.87109 7.91502L2.8623 8.55955L3.35742 8.97361L3.99121 8.84861L4.21582 8.57908L4.52832 7.94529L4.88574 7.34861L5.12305 7.01561L5.23535 6.37986L4.81348 5.89256ZM15.7354 8.99315C15.5406 8.99882 15.3556 9.08008 15.2197 9.21971L10.75 13.6894L8.78027 11.7197C8.71116 11.6477 8.62839 11.5903 8.53679 11.5507C8.4452 11.5111 8.34662 11.4902 8.24684 11.4892C8.14706 11.4881 8.04808 11.5071 7.9557 11.5448C7.86332 11.5825 7.77939 11.6383 7.70883 11.7088C7.63828 11.7794 7.58251 11.8633 7.54479 11.9557C7.50707 12.0481 7.48817 12.147 7.48918 12.2468C7.4902 12.3466 7.51111 12.4452 7.5507 12.5368C7.59028 12.6284 7.64775 12.7111 7.71973 12.7803L10.2197 15.2803C10.3604 15.4209 10.5511 15.4998 10.75 15.4998C10.9489 15.4998 11.1396 15.4209 11.2803 15.2803L16.2803 10.2803C16.3885 10.1749 16.4623 10.0393 16.4922 9.89124C16.5221 9.74318 16.5066 9.58956 16.4477 9.45048C16.3888 9.3114 16.2893 9.19333 16.1622 9.11173C16.0351 9.03013 15.8863 8.9888 15.7354 8.99315ZM2.74414 10.29L2.18652 10.6142L2.06152 10.9424L2.03906 11.1123L2.03418 11.1758L2.00098 11.9687V12.0283L2.02637 12.7265L2.03027 12.7822L2.06055 13.0488L2.40137 13.5967L3.04199 13.6767L3.50781 13.2305L3.55078 12.8818L3.52441 12.6406L3.5 12.0039L3.53223 11.2637L3.54883 11.1318L3.34766 10.5185L2.74414 10.29ZM3.75391 15.0322L3.11719 15.1396L2.80078 15.7021L2.85938 16.0488L2.94043 16.2373L2.96289 16.2861L3.26562 16.8721L3.29199 16.918L3.63379 17.4785L3.66309 17.5234L3.90137 17.8584L4.46582 18.1719L5.06445 17.9306L5.25488 17.3144L5.12402 16.9883L4.90234 16.6777L4.58594 16.1601L4.31055 15.626L4.23828 15.458L3.75391 15.0322ZM6.33301 18.7519L5.85352 19.1836L5.8877 19.8281L6.12305 20.0898L6.62988 20.4365L6.6748 20.4648L7.24219 20.7969L7.29004 20.8222L7.88184 21.1142L8.52734 21.123L8.94043 20.6269L8.81543 19.9941L8.54492 19.7695L7.97559 19.4883L7.45703 19.1855L6.9707 18.8515L6.33301 18.7519Z" fill="#AACDFF"/>
</svg>
