<svg width="21" height="21" viewBox="0 0 21 21" fill="none" xmlns="http://www.w3.org/2000/svg">
<path d="M20.1475 0.000340963C20.1175 0.00123688 20.0876 0.00375813 20.0579 0.00789363H12.4297C12.3199 0.00634073 12.2108 0.0266267 12.1089 0.0675727C12.0071 0.108519 11.9143 0.169308 11.8361 0.246408C11.7579 0.323508 11.6958 0.415381 11.6534 0.516688C11.611 0.617994 11.5892 0.726714 11.5892 0.836529C11.5892 0.946344 11.611 1.05506 11.6534 1.15637C11.6958 1.25768 11.7579 1.34955 11.8361 1.42665C11.9143 1.50375 12.0071 1.56454 12.1089 1.60549C12.2108 1.64643 12.3199 1.66672 12.4297 1.66517H18.1633L9.63407 10.1943C9.55455 10.2706 9.49106 10.3621 9.44732 10.4633C9.40358 10.5645 9.38047 10.6734 9.37935 10.7836C9.37823 10.8939 9.39912 11.0032 9.44079 11.1053C9.48246 11.2074 9.54408 11.3001 9.62204 11.3781C9.7 11.456 9.79272 11.5176 9.89479 11.5593C9.99686 11.601 10.1062 11.6219 10.2165 11.6207C10.3267 11.6196 10.4356 11.5965 10.5368 11.5528C10.638 11.509 10.7295 11.4456 10.8058 11.366L19.335 2.83691V8.57046C19.3335 8.68027 19.3538 8.78929 19.3947 8.89118C19.4357 8.99308 19.4965 9.08582 19.5736 9.16402C19.6507 9.24222 19.7425 9.30431 19.8438 9.34669C19.9451 9.38908 20.0539 9.4109 20.1637 9.4109C20.2735 9.4109 20.3822 9.38908 20.4835 9.34669C20.5848 9.30431 20.6767 9.24222 20.7538 9.16402C20.8309 9.08582 20.8917 8.99308 20.9327 8.89118C20.9736 8.78929 20.9939 8.68027 20.9923 8.57046V0.941188C21.0087 0.821967 20.9988 0.70062 20.9635 0.585582C20.9282 0.470544 20.8683 0.364574 20.7879 0.275039C20.7075 0.185503 20.6086 0.114551 20.498 0.0671128C20.3874 0.0196748 20.2678 -0.00311038 20.1475 0.000340963V0.000340963ZM4.14322 1.66517C1.86473 1.66517 0 3.52987 0 5.80834V16.8568C0 19.1353 1.86473 21 4.14322 21H15.1918C17.4703 21 19.335 19.1353 19.335 16.8568V11.3326C19.3366 11.2228 19.3163 11.1138 19.2754 11.0119C19.2344 10.91 19.1736 10.8172 19.0965 10.739C19.0194 10.6608 18.9276 10.5987 18.8262 10.5564C18.7249 10.514 18.6162 10.4921 18.5064 10.4921C18.3966 10.4921 18.2879 10.514 18.1866 10.5564C18.0852 10.5987 17.9934 10.6608 17.9163 10.739C17.8392 10.8172 17.7784 10.91 17.7374 11.0119C17.6965 11.1138 17.6762 11.2228 17.6778 11.3326V16.8568C17.6778 18.2398 16.5748 19.3427 15.1918 19.3427H4.14322C2.76022 19.3427 1.65729 18.2398 1.65729 16.8568V5.80834C1.65729 4.42535 2.76022 3.32244 4.14322 3.32244H9.66752C9.77733 3.32399 9.88635 3.3037 9.98824 3.26276C10.0901 3.22181 10.1829 3.16102 10.2611 3.08392C10.3393 3.00682 10.4014 2.91495 10.4438 2.81364C10.4861 2.71234 10.508 2.60362 10.508 2.4938C10.508 2.38399 10.4861 2.27527 10.4438 2.17396C10.4014 2.07265 10.3393 1.98078 10.2611 1.90368C10.1829 1.82658 10.0901 1.76579 9.98824 1.72484C9.88635 1.6839 9.77733 1.66361 9.66752 1.66517H4.14322Z" fill="#AACDFF"/>
</svg>
