<svg width="16" height="20" viewBox="0 0 16 20" fill="none" xmlns="http://www.w3.org/2000/svg">
<path d="M8 0C5.79971 0 4 1.79971 4 4V6H2.25C1.01625 6 0 7.01625 0 8.25V17.75C0 18.9838 1.01625 20 2.25 20H13.75C14.9838 20 16 18.9838 16 17.75V8.25C16 7.01625 14.9838 6 13.75 6H12V4C12 1.79971 10.2003 0 8 0ZM8 1.5C9.38971 1.5 10.5 2.61029 10.5 4V6H5.5V4C5.5 2.61029 6.61029 1.5 8 1.5ZM2.25 7.5H13.75C14.1732 7.5 14.5 7.82675 14.5 8.25V17.75C14.5 18.1732 14.1732 18.5 13.75 18.5H2.25C1.82675 18.5 1.5 18.1732 1.5 17.75V8.25C1.5 7.82675 1.82675 7.5 2.25 7.5ZM8 11.5C7.60218 11.5 7.22064 11.658 6.93934 11.9393C6.65804 12.2206 6.5 12.6022 6.5 13C6.5 13.3978 6.65804 13.7794 6.93934 14.0607C7.22064 14.342 7.60218 14.5 8 14.5C8.39782 14.5 8.77936 14.342 9.06066 14.0607C9.34196 13.7794 9.5 13.3978 9.5 13C9.5 12.6022 9.34196 12.2206 9.06066 11.9393C8.77936 11.658 8.39782 11.5 8 11.5Z" fill="#0A0001"/>
</svg>
