<svg width="32" height="32" viewBox="0 0 24 24" fill="none" xmlns="http://www.w3.org/2000/svg">
<path d="M6.75012 9.00494C6.75012 8.03694 5.96562 7.25244 4.99762 7.25244C4.02962 7.25244 3.24512 8.03694 3.24512 9.00494C3.24512 9.83444 3.24512 18.6714 3.24512 19.4999C3.24512 20.4679 4.02962 21.2524 4.99762 21.2524C5.96562 21.2524 6.75012 20.4679 6.75012 19.4999C6.75012 18.6709 6.75012 9.83394 6.75012 9.00494Z" stroke="#AACDFF" stroke-width="1.5" stroke-miterlimit="10"/>
<path d="M13.7526 13.5025C13.7526 12.5345 12.9681 11.75 12.0001 11.75C11.0321 11.75 10.2476 12.5345 10.2476 13.5025C10.2476 14.332 10.2476 18.6715 10.2476 19.5C10.2476 20.468 11.0321 21.2525 12.0001 21.2525C12.9681 21.2525 13.7526 20.468 13.7526 19.5C13.7526 18.671 13.7526 14.332 13.7526 13.5025Z" stroke="#AACDFF" stroke-width="1.5" stroke-miterlimit="10"/>
<path d="M20.7501 4.5025C20.7501 3.5345 19.9656 2.75 18.9976 2.75C18.0296 2.75 17.2451 3.5345 17.2451 4.5025C17.2451 5.332 17.2451 18.6715 17.2451 19.5C17.2451 20.468 18.0296 21.2525 18.9976 21.2525C19.9656 21.2525 20.7501 20.468 20.7501 19.5C20.7501 18.671 20.7501 5.332 20.7501 4.5025Z" stroke="#AACDFF" stroke-width="1.5" stroke-miterlimit="10"/>
</svg>
