<svg width="24" height="24" viewBox="0 0 24 24" fill="none" xmlns="http://www.w3.org/2000/svg">
<path d="M12 2C11.2116 2 10.4513 2.09971 9.7256 2.26855C9.57426 2.30388 9.43763 2.38534 9.33459 2.50167C9.23155 2.61801 9.16719 2.76347 9.1504 2.91797L8.99122 4.36914C8.93916 4.84468 8.66447 5.26543 8.25001 5.50488C7.83638 5.74386 7.33432 5.77033 6.8965 5.57812H6.89552L5.56251 4.99121C5.42033 4.92864 5.26223 4.91176 5.11004 4.9429C4.95785 4.97403 4.81909 5.05165 4.7129 5.16504C3.67666 6.26979 2.88135 7.60753 2.4297 9.10059C2.38471 9.24919 2.38695 9.40809 2.4361 9.55537C2.48525 9.70265 2.57889 9.83105 2.70411 9.92285L3.88673 10.79C4.27291 11.074 4.50001 11.5214 4.50001 12C4.50001 12.4789 4.27291 12.9267 3.88673 13.21L2.70411 14.0762C2.57889 14.168 2.48525 14.2964 2.4361 14.4437C2.38695 14.5909 2.38471 14.7498 2.4297 14.8984C2.8813 16.3913 3.67598 17.7301 4.7129 18.835C4.8192 18.9482 4.95802 19.0256 5.1102 19.0566C5.26239 19.0875 5.42043 19.0705 5.56251 19.0078L6.89552 18.4209C7.33356 18.2283 7.8361 18.256 8.25001 18.4951C8.66447 18.7346 8.93916 19.1553 8.99122 19.6309L9.1504 21.082C9.16732 21.2362 9.23162 21.3814 9.33446 21.4975C9.4373 21.6136 9.57361 21.695 9.72462 21.7305C10.4507 21.8999 11.2116 22 12 22C12.7885 22 13.5487 21.9003 14.2744 21.7314C14.4258 21.6961 14.5624 21.6147 14.6654 21.4983C14.7685 21.382 14.8328 21.2365 14.8496 21.082L15.0088 19.6309C15.0609 19.1553 15.3356 18.7346 15.75 18.4951C16.1636 18.2561 16.6657 18.2287 17.1035 18.4209L18.4375 19.0078C18.5796 19.0705 18.7376 19.0875 18.8898 19.0566C19.042 19.0256 19.1808 18.9482 19.2871 18.835C20.3234 17.7302 21.1187 16.3915 21.5703 14.8984C21.6153 14.7498 21.6131 14.5909 21.5639 14.4437C21.5148 14.2964 21.4211 14.168 21.2959 14.0762L20.1133 13.21C19.7271 12.9267 19.5 12.4789 19.5 12C19.5 11.5211 19.7271 11.0733 20.1133 10.79L21.2959 9.92383C21.4211 9.83203 21.5148 9.70363 21.5639 9.55635C21.6131 9.40907 21.6153 9.25017 21.5703 9.10156C21.1187 7.60851 20.3234 6.26979 19.2871 5.16504C19.1808 5.05182 19.042 4.97438 18.8898 4.94342C18.7376 4.91246 18.5796 4.9295 18.4375 4.99219L17.1035 5.5791C16.6657 5.77131 16.1636 5.74386 15.75 5.50488C15.3356 5.26543 15.0609 4.84468 15.0088 4.36914L14.8496 2.91797C14.8327 2.76378 14.7684 2.61862 14.6656 2.50249C14.5627 2.38636 14.4264 2.30497 14.2754 2.26953C13.5493 2.10008 12.7885 2 12 2ZM12 3.5C12.4872 3.5 12.955 3.58744 13.4238 3.66992L13.5176 4.53223C13.6215 5.48169 14.1735 6.32617 15 6.80371C15.8271 7.28157 16.8341 7.3365 17.708 6.95215L18.501 6.60352C19.1099 7.3347 19.592 8.16059 19.9287 9.06543L19.2256 9.58105C18.4558 10.1458 18 11.0449 18 12C18 12.9551 18.4558 13.8542 19.2256 14.4189L19.9287 14.9346C19.592 15.8394 19.1099 16.6653 18.501 17.3965L17.708 17.0479C16.8341 16.6635 15.8271 16.7184 15 17.1963C14.1735 17.6738 13.6215 18.5183 13.5176 19.4678L13.4238 20.3301C12.955 20.4123 12.4869 20.5 12 20.5C11.5129 20.5 11.0451 20.4126 10.5762 20.3301L10.4824 19.4678C10.3785 18.5183 9.82656 17.6738 9.00001 17.1963C8.17293 16.7184 7.16597 16.6635 6.292 17.0479L5.49904 17.3965C4.89 16.6654 4.40798 15.8395 4.0713 14.9346L4.77443 14.4189C5.54424 13.8542 6.00001 12.9551 6.00001 12C6.00001 11.0449 5.54387 10.1452 4.77443 9.58008L4.0713 9.06445C4.40818 8.15927 4.89074 7.33392 5.50001 6.60254L6.292 6.95117C7.16597 7.33553 8.17293 7.28157 9.00001 6.80371C9.82656 6.32617 10.3785 5.48169 10.4824 4.53223L10.5762 3.66992C11.045 3.58767 11.5131 3.5 12 3.5ZM12 8C9.79976 8 8.00001 9.79975 8.00001 12C8.00001 14.2003 9.79976 16 12 16C14.2003 16 16 14.2003 16 12C16 9.79975 14.2003 8 12 8ZM12 9.5C13.3896 9.5 14.5 10.6104 14.5 12C14.5 13.3896 13.3896 14.5 12 14.5C10.6104 14.5 9.50001 13.3896 9.50001 12C9.50001 10.6104 10.6104 9.5 12 9.5Z" fill="#AACDFF"/>
</svg>
