<svg width="24" height="24" viewBox="0 0 24 24" fill="none" xmlns="http://www.w3.org/2000/svg">
<path d="M20.7589 2.01294C20.6512 2.00908 20.5405 2.02043 20.4298 2.0481L16.6652 2.9895C16.197 3.10674 15.7773 3.3706 15.4689 3.74243L7.23061 13.1702L6.28042 12.22C6.21131 12.148 6.12853 12.0905 6.03693 12.0509C5.94534 12.0114 5.84676 11.9904 5.74698 11.9894C5.64721 11.9884 5.54823 12.0073 5.45584 12.045C5.36346 12.0828 5.27953 12.1385 5.20898 12.2091C5.13842 12.2796 5.08265 12.3636 5.04493 12.4559C5.00721 12.5483 4.98831 12.6473 4.98932 12.7471C4.99034 12.8469 5.01125 12.9454 5.05084 13.037C5.09043 13.1286 5.14789 13.2114 5.21987 13.2805L6.4396 14.5002L3.24917 17.6907C3.10317 17.5629 2.91335 17.4967 2.71956 17.5059C2.52577 17.5151 2.3431 17.5991 2.20989 17.7401C2.07668 17.8812 2.0033 18.0683 2.00516 18.2623C2.00702 18.4563 2.08398 18.6421 2.21987 18.7805L5.21987 21.7805C5.35833 21.9164 5.54406 21.9934 5.73806 21.9952C5.93206 21.9971 6.11923 21.9237 6.26027 21.7905C6.40132 21.6573 6.48527 21.4746 6.49448 21.2808C6.5037 21.087 6.43748 20.8972 6.30971 20.7512L9.50014 17.5608L10.7199 18.7805C10.789 18.8525 10.8718 18.91 10.9634 18.9496C11.0549 18.9891 11.1535 19.01 11.2533 19.0111C11.3531 19.0121 11.4521 18.9932 11.5444 18.9555C11.6368 18.9177 11.7207 18.862 11.7913 18.7914C11.8619 18.7209 11.9176 18.6369 11.9554 18.5445C11.9931 18.4522 12.012 18.3532 12.011 18.2534C12.0099 18.1536 11.989 18.0551 11.9494 17.9635C11.9099 17.8719 11.8524 17.7891 11.7804 17.72L10.8312 16.7708L20.2755 8.53247C20.6514 8.22162 20.9171 7.79804 21.0333 7.32544C21.0333 7.32512 21.0333 7.32479 21.0333 7.32447L21.9542 3.56568C22.1439 2.79034 21.5129 2.04 20.7589 2.01294ZM20.4982 3.20825V3.21021L20.4972 3.20923L20.4982 3.20825ZM20.4015 3.60083L19.5763 6.96802C19.5365 7.12908 19.4464 7.27223 19.3195 7.3772C19.3145 7.38137 19.3097 7.3856 19.3048 7.38989L9.76772 15.7073L8.29311 14.2327L16.6115 4.71509C16.6158 4.71026 16.62 4.70538 16.6242 4.70044C16.7288 4.57427 16.8706 4.48434 17.0294 4.44458L20.4015 3.60083ZM7.50014 15.5608L8.4396 16.5002L5.25014 19.6897L4.31069 18.7502L7.50014 15.5608Z" fill="#AACDFF"/>
</svg>
