<svg width="14" height="14" viewBox="0 0 14 14" fill="none" xmlns="http://www.w3.org/2000/svg">
<path d="M4.81251 1.45805C4.75453 1.45723 4.69697 1.46794 4.64317 1.48956C4.58938 1.51118 4.54041 1.54327 4.49912 1.58398C4.45784 1.62469 4.42505 1.6732 4.40268 1.72668C4.3803 1.78017 4.36877 1.83757 4.36877 1.89555C4.36877 1.95353 4.3803 2.01093 4.40268 2.06442C4.42505 2.11791 4.45784 2.16641 4.49912 2.20712C4.54041 2.24783 4.58938 2.27992 4.64317 2.30154C4.69697 2.32316 4.75453 2.33387 4.81251 2.33305H4.95834V5.77438C4.95834 6.04128 4.87669 6.30197 4.72478 6.5212L1.983 10.4815V10.4821C1.64282 10.9738 1.6768 11.6548 2.09351 12.1141C2.36555 12.4143 2.74611 12.5414 3.10808 12.5414H10.8919C11.2539 12.5414 11.6345 12.4143 11.9065 12.1141C12.3232 11.6548 12.3572 10.9738 12.017 10.4821V10.4815L9.27523 6.5212C9.12332 6.30197 9.04167 6.04128 9.04167 5.77438V2.33305H9.18751C9.24548 2.33387 9.30304 2.32316 9.35684 2.30154C9.41064 2.27992 9.4596 2.24783 9.50089 2.20712C9.54217 2.16641 9.57496 2.11791 9.59734 2.06442C9.61971 2.01093 9.63124 1.95353 9.63124 1.89555C9.63124 1.83757 9.61971 1.78017 9.59734 1.72668C9.57496 1.6732 9.54217 1.62469 9.50089 1.58398C9.4596 1.54327 9.41064 1.51118 9.35684 1.48956C9.30304 1.46794 9.24548 1.45723 9.18751 1.45805H8.60417H5.39584H4.81251ZM5.83334 2.33305H8.16667V4.66639H5.83334V2.33305ZM5.83334 5.54139H8.16667V5.77438C8.16667 6.21914 8.30225 6.65381 8.55575 7.01966L11.2975 10.9799C11.4114 11.145 11.4066 11.3633 11.2588 11.5262L11.2582 11.5268C11.1832 11.6096 11.0467 11.6664 10.8919 11.6664H3.10808C2.95336 11.6664 2.81681 11.6097 2.74179 11.5268L2.74122 11.5262C2.59341 11.3633 2.58858 11.145 2.70248 10.9799V10.9794L5.44426 7.01966C5.69777 6.65381 5.83334 6.21914 5.83334 5.77438V5.54139ZM6.12501 7.58305C5.9703 7.58305 5.82192 7.64451 5.71253 7.75391C5.60313 7.8633 5.54167 8.01168 5.54167 8.16639C5.54167 8.3211 5.60313 8.46947 5.71253 8.57887C5.82192 8.68826 5.9703 8.74972 6.12501 8.74972C6.27972 8.74972 6.42809 8.68826 6.53749 8.57887C6.64688 8.46947 6.70834 8.3211 6.70834 8.16639C6.70834 8.01168 6.64688 7.8633 6.53749 7.75391C6.42809 7.64451 6.27972 7.58305 6.12501 7.58305ZM8.60417 9.33305C8.41079 9.33305 8.22532 9.40988 8.08857 9.54662C7.95183 9.68337 7.87501 9.86883 7.87501 10.0622C7.87501 10.2556 7.95183 10.4411 8.08857 10.5778C8.22532 10.7146 8.41079 10.7914 8.60417 10.7914C8.79756 10.7914 8.98303 10.7146 9.11977 10.5778C9.25652 10.4411 9.33334 10.2556 9.33334 10.0622C9.33334 9.86883 9.25652 9.68337 9.11977 9.54662C8.98303 9.40988 8.79756 9.33305 8.60417 9.33305Z" fill="#AACDFF"/>
</svg>
