<svg width="32" height="32" viewBox="0 0 24 24" fill="none" xmlns="http://www.w3.org/2000/svg">
<path d="M12.5 2C6.98615 2 2.5 6.48615 2.5 12C2.5 17.5139 6.98615 22 12.5 22C16.383 22 19.7514 19.7759 21.4053 16.5352C21.4606 16.4268 21.4887 16.3066 21.4872 16.1849C21.4857 16.0633 21.4547 15.9438 21.3967 15.8368C21.3388 15.7298 21.2556 15.6386 21.1545 15.5709C21.0534 15.5032 20.9374 15.4611 20.8164 15.4482C16.4216 14.982 13 11.2756 13 6.75C13 5.44412 13.2928 4.21214 13.8076 3.0957C13.8585 2.98536 13.8818 2.8643 13.8756 2.74294C13.8693 2.62158 13.8337 2.50355 13.7717 2.39902C13.7098 2.29449 13.6233 2.20658 13.5198 2.14286C13.4164 2.07913 13.299 2.0415 13.1777 2.0332C12.9782 2.01977 12.7529 2 12.5 2ZM12.0811 3.54199C11.7406 4.55719 11.5 5.61915 11.5 6.75C11.5 11.6177 14.9208 15.6626 19.4805 16.7021C17.955 18.9641 15.4391 20.5 12.5 20.5C7.79685 20.5 4 16.7031 4 12C4 7.4404 7.5777 3.76408 12.0811 3.54199Z" fill="white"/>
</svg>
