<svg
   xmlns="http://www.w3.org/2000/svg"
   width="16"
   height="20"
   viewBox="0 0 16 20"
   fill="black">
  <path
     d="M 8,0 C 5.7997101,0 4,1.7997101 4,4 V 6 H 2.25 C 1.0162499,6 0,7.0162501 0,8.25 v 9.5 C 0,18.9838 1.0162499,20 2.25,20 h 11.5 C 14.9838,20 16,18.9838 16,17.75 V 8.25 C 16,7.0162501 14.9838,6 13.75,6 H 12 V 4 C 12,1.7997101 10.2003,0 8,0 Z m 0,1.5 c 1.38971,0 2.5,1.1102899 2.5,2.5 v 2 h -5 V 4 C 5.5,2.6102899 6.6102899,1.5 8,1.5 Z m -5.75,6 h 11.5 c 0.4232,0 0.75,0.3267501 0.75,0.75 v 9.5 c 0,0.4232 -0.3268,0.75 -0.75,0.75 H 2.25 C 1.8267499,18.5 1.5,18.1732 1.5,17.75 V 8.25 C 1.5,7.8267501 1.8267499,7.5 2.25,7.5 Z M 8,11.5 C 7.60218,11.5 7.22064,11.658 6.93934,11.939299 6.65804,12.2206 6.5,12.6022 6.5,13 c 0,0.3978 0.15804,0.7794 0.43934,1.060701 C 7.22064,14.342 7.60218,14.5 8,14.5 8.39782,14.5 8.77936,14.342 9.06066,14.060701 9.34196,13.7794 9.5,13.3978 9.5,13 9.5,12.6022 9.34196,12.2206 9.06066,11.939299 8.77936,11.658 8.39782,11.5 8,11.5 Z"
     id="path2"
     inkscape:connector-curvature="0"
     style="fill-opacity:1;stroke-width:1" />
</svg>
