<svg width="24" height="24" viewBox="0 0 24 24" fill="none" xmlns="http://www.w3.org/2000/svg">
<path d="M9.5 1.5C9.224 1.5 9 1.7235 9 2V4.5C9 4.7155 9.1373 4.90613 9.3418 4.97363C9.3938 4.99113 9.4475 5 9.5 5C9.6545 5 9.80389 4.9278 9.90039 4.7998C10.2369 4.3513 11.7075 3.75 12.75 3.75C14.2605 3.75 14.8762 2.66916 14.9902 2.09766C15.0197 1.95066 14.9817 1.79812 14.8867 1.68262C14.7917 1.56712 14.65 1.5 14.5 1.5H9.5ZM2.5 2.5C2.224 2.5 2 2.7235 2 3V5C2 5.2155 2.1373 5.40613 2.3418 5.47363C2.3938 5.49113 2.4475 5.5 2.5 5.5C2.6545 5.5 2.80389 5.4278 2.90039 5.2998C3.28139 4.7923 4.032 4.25 5 4.25C6.718 4.25 7.34952 3.37684 7.41602 3.27734C7.51852 3.12384 7.52841 2.92715 7.44141 2.76465C7.35441 2.60165 7.1845 2.5 7 2.5H2.5ZM17 2.5C16.724 2.5 16.5 2.7235 16.5 3V5C16.5 5.2155 16.6373 5.40613 16.8418 5.47363C16.8938 5.49113 16.9475 5.5 17 5.5C17.1545 5.5 17.3039 5.4278 17.4004 5.2998C17.7814 4.7923 18.5325 4.25 19.5 4.25C21.218 4.25 21.8495 3.37684 21.916 3.27734C22.0185 3.12384 22.0284 2.92667 21.9414 2.76367C21.8544 2.60117 21.6845 2.5 21.5 2.5H17ZM12 6.5C9.36104 6.5 7.09377 6.94047 5.42969 7.60938C4.59765 7.94383 3.91425 8.33255 3.39941 8.79199C2.88458 9.25143 2.5 9.82059 2.5 10.5V20.75C2.50002 20.9489 2.57904 21.1397 2.71969 21.2803C2.86034 21.421 3.05109 21.5 3.25 21.5H10.25C10.4489 21.5 10.6397 21.421 10.7803 21.2803C10.921 21.1397 11 20.9489 11 20.75V17.5C11 16.9388 11.4388 16.5 12 16.5C12.5612 16.5 13 16.9388 13 17.5V20.75C13 20.9489 13.079 21.1397 13.2197 21.2803C13.3603 21.421 13.5511 21.5 13.75 21.5H20.75C20.9489 21.5 21.1397 21.421 21.2803 21.2803C21.421 21.1397 21.5 20.9489 21.5 20.75V10.5C21.5 9.82059 21.1154 9.25143 20.6006 8.79199C20.0858 8.33255 19.4024 7.94383 18.5703 7.60938C16.9062 6.94047 14.639 6.5 12 6.5ZM12 8C14.4695 8 16.5769 8.42464 18.0107 9.00098C18.7276 9.28915 19.274 9.61879 19.6016 9.91113C19.9291 10.2035 20 10.4199 20 10.5V20H14.5V17.5C14.5 16.1282 13.3718 15 12 15C10.6282 15 9.5 16.1282 9.5 17.5V20H4V10.5C4 10.4199 4.07085 10.2035 4.39844 9.91113C4.72603 9.61879 5.27236 9.28915 5.98926 9.00098C7.42305 8.42464 9.53046 8 12 8ZM10.25 10C9.6975 10 9.25 10.4475 9.25 11V12.5C9.25 12.776 9.474 13 9.75 13H10.75C11.0265 13 11.25 12.7765 11.25 12.5V11C11.25 10.4475 10.8025 10 10.25 10ZM13.75 10C13.1975 10 12.75 10.4475 12.75 11V12.5C12.75 12.776 12.974 13 13.25 13H14.25C14.5265 13 14.75 12.7765 14.75 12.5V11C14.75 10.4475 14.3025 10 13.75 10ZM6.75 11C6.1975 11 5.75 11.4475 5.75 12V13.5C5.75 13.776 5.974 14 6.25 14H7.25C7.5265 14 7.75 13.7765 7.75 13.5V12C7.75 11.4475 7.3025 11 6.75 11ZM17.25 11C16.6975 11 16.25 11.4475 16.25 12V13.5C16.25 13.776 16.474 14 16.75 14H17.75C18.0265 14 18.25 13.7765 18.25 13.5V12C18.25 11.4475 17.8025 11 17.25 11ZM6.75 15.5C6.1975 15.5 5.75 15.9475 5.75 16.5V18C5.75 18.276 5.974 18.5 6.25 18.5H7.25C7.5265 18.5 7.75 18.2765 7.75 18V16.5C7.75 15.9475 7.3025 15.5 6.75 15.5ZM17.25 15.5C16.6975 15.5 16.25 15.9475 16.25 16.5V18C16.25 18.276 16.474 18.5 16.75 18.5H17.75C18.0265 18.5 18.25 18.2765 18.25 18V16.5C18.25 15.9475 17.8025 15.5 17.25 15.5Z" fill="#AACDFF"/>
</svg>
