<svg width="24" height="24" viewBox="0 0 24 24" fill="none" xmlns="http://www.w3.org/2000/svg">
<path d="M12 22C17.514 22 22 17.514 22 12C22 6.48604 17.514 2 12 2C6.48603 2 2 6.48603 2 12C2 17.514 6.48603 22 12 22ZM12 20.5C7.29669 20.5 3.5 16.7033 3.5 12C3.5 7.29669 7.29669 3.5 12 3.5C16.7033 3.5 20.5 7.2967 20.5 12C20.5 16.7033 16.7033 20.5 12 20.5Z" fill="#AACDFF"/>
<mask id="mask0" mask-type="alpha" maskUnits="userSpaceOnUse" x="1" y="1" width="21" height="21">
<circle cx="11.75" cy="11.25" r="10.25" transform="rotate(-180 11.75 11.25)" fill="#C4C4C4"/>
</mask>
<g mask="url(#mask0)">
<path d="M12.0004 30C12.5234 30 13.0468 29.8385 13.4886 29.5156C14.7064 28.6259 16.9411 27.2889 19.4125 27.0312C20.3266 26.9357 21.0382 26.1346 20.9984 25.2051C20.5918 15.6913 14.5301 12.0229 12.7504 11.1758C12.2787 10.9516 11.723 10.9516 11.2513 11.1758C9.47164 12.0229 3.40986 15.6913 3.00329 25.2051L3.00329 25.2061C2.9644 26.1353 3.6753 26.9357 4.58923 27.0312L4.59021 27.0312C7.06115 27.2891 9.29549 28.626 10.5131 29.5156C10.9549 29.8385 11.4773 30 12.0004 30ZM12.0004 28.5059C11.7906 28.5059 11.5814 28.4388 11.3978 28.3047C10.0616 27.3284 7.64514 25.8414 4.74548 25.5391L4.74451 25.5391C4.59189 25.5232 4.49623 25.414 4.50232 25.2686C4.88308 16.3686 10.4026 13.2418 11.8949 12.5312C11.9682 12.4964 12.0335 12.4964 12.1068 12.5312C13.5992 13.2418 19.119 16.3688 19.4994 25.2695C19.5056 25.4146 19.4106 25.5231 19.2572 25.5391L19.2562 25.5391C16.3566 25.8414 13.9402 27.3284 12.6039 28.3047C12.4203 28.4388 12.2101 28.5059 12.0004 28.5059Z" fill="#AACDFF"/>
</g>
</svg>
