<svg width="24" height="24" viewBox="0 0 24 24" fill="none" xmlns="http://www.w3.org/2000/svg">
<path d="M11.9756 1.99987C11.8157 2.00534 11.6617 2.0618 11.5361 2.16101L4.42969 7.75964C3.52774 8.47046 3 9.55663 3 10.705V20.2499C3 20.9317 3.5682 21.4999 4.25 21.4999H9.25C9.9318 21.4999 10.5 20.9317 10.5 20.2499V15.2499C10.5 15.1024 10.6025 14.9999 10.75 14.9999H13.25C13.3975 14.9999 13.5 15.1024 13.5 15.2499V20.2499C13.5 20.9317 14.0682 21.4999 14.75 21.4999H19.75C20.4318 21.4999 21 20.9317 21 20.2499V10.705C21 9.55663 20.4723 8.47046 19.5703 7.75964L12.4639 2.16101C12.3252 2.05145 12.1522 1.99438 11.9756 1.99987ZM12 3.70495L18.6426 8.93835C19.1846 9.36553 19.5 10.0153 19.5 10.705V19.9999H15V15.2499C15 14.2924 14.2075 13.4999 13.25 13.4999H10.75C9.79252 13.4999 9 14.2924 9 15.2499V19.9999H4.5V10.705C4.5 10.0153 4.81537 9.36553 5.35742 8.93835L12 3.70495Z" fill="white"/>
</svg>
