<svg width="32" height="32" viewBox="0 0 24 24" fill="none" xmlns="http://www.w3.org/2000/svg">
    <path d="M19.5873 5.00793C20.4308 5.00793 20.6528 5.64593 20.4033 7.14393C20.1178 8.85693 19.2953 14.5284 18.6393 18.0589C18.3883 19.4099 17.9358 19.9924 17.2773 19.9924C16.9153 19.9924 16.4913 19.8164 16.0043 19.4949C15.3443 19.0589 12.0123 16.8554 11.2888 16.3379C10.6288 15.8664 9.7183 15.2989 10.8603 14.1819C11.2668 13.7839 13.9303 11.2404 16.0053 9.26093C16.2268 9.04943 16.0413 8.72693 15.7953 8.72693C15.7393 8.72693 15.6798 8.74394 15.6218 8.78243C12.8248 10.6374 8.9463 13.2119 8.4528 13.5474C7.9593 13.8824 7.4783 14.0974 6.8373 14.0974C6.5098 14.0974 6.1403 14.0414 5.7058 13.9164C4.7343 13.6374 3.7858 13.3049 3.4163 13.1779C1.9938 12.6899 2.3313 12.0574 3.7128 11.4494C9.2518 9.01293 16.4193 6.04193 17.4088 5.63093C18.3728 5.23043 19.0888 5.00793 19.5873 5.00793ZM19.5873 3.50793C18.9033 3.50793 18.0798 3.72843 16.8343 4.24493L16.6848 4.30693C11.3673 6.51493 6.5458 8.56393 3.1088 10.0759C2.5718 10.3124 0.938301 11.0309 1.0018 12.5339C1.0288 13.1824 1.3858 14.0664 2.9298 14.5959L3.0438 14.6349C3.4748 14.7834 4.3723 15.0929 5.2923 15.3574C5.8523 15.5184 6.3583 15.5964 6.8378 15.5964C7.6698 15.5964 8.3143 15.3589 8.8183 15.0824C8.8158 15.1664 8.8178 15.2509 8.8243 15.3359C8.9153 16.4919 9.8093 17.1259 10.3433 17.5049L10.4178 17.5579C11.2063 18.1219 14.7748 20.4794 15.1788 20.7459C15.9393 21.2479 16.6258 21.4914 17.2783 21.4914C18.3043 21.4914 19.6298 20.9434 20.1148 18.3324C20.5753 15.8559 21.1073 12.3964 21.4958 9.87043C21.6613 8.79243 21.7973 7.90843 21.8838 7.38993C22.0583 6.34293 22.1383 5.15693 21.4098 4.29743C21.1038 3.93743 20.5398 3.50793 19.5873 3.50793Z"
          fill="#AACDFF"/>
</svg>
