<svg width="24" height="24" viewBox="0 0 24 24" fill="black" xmlns="http://www.w3.org/2000/svg">
<path d="M11.9883 1.48922C11.8461 1.49185 11.7076 1.53487 11.5889 1.61324C11.3617 1.69813 9.45987 2.42087 7.42188 3.9648C5.25962 5.60287 3 8.18265 3 11.75C3 13.6916 3.25959 15.0205 3.53613 15.8847C3.71754 16.4516 3.82252 16.5536 3.94824 16.7597L3.20215 18.8134L3.21777 18.7744C2.69631 19.9919 3.35811 21.4207 4.62402 21.8105L8.23535 22.9218C9.25387 23.2355 10.2763 22.5169 10.4375 21.5H13.5625C13.7236 22.5169 14.7464 23.2356 15.7646 22.9228C15.7646 22.9225 15.7646 22.9222 15.7646 22.9218L19.375 21.8115C20.6414 21.4221 21.3047 19.9924 20.7822 18.7744L20.7979 18.8144L20.0518 16.7607C20.1774 16.5548 20.2823 16.4521 20.4639 15.8847C20.7404 15.0205 21 13.6916 21 11.75C21 8.18265 18.7404 5.60287 16.5781 3.9648C14.544 2.42378 12.6496 1.70255 12.416 1.61519C12.4158 1.61513 12.4143 1.61428 12.4141 1.61422C12.288 1.53056 12.1396 1.48699 11.9883 1.48922ZM11.25 3.40133V10.0146C11.1541 9.89228 11.1014 9.74812 10.9863 9.63766C10.6171 9.28316 10.0965 8.99996 9.5 8.99996C8.56342 8.99996 7.74853 9.38472 7.23535 10.0039C6.72218 10.623 6.5 11.4239 6.5 12.25C6.5 13.7705 7.58235 14.9986 9 15.3476V20.6269C8.98677 20.7074 8.98677 20.7896 9 20.8701V21.249C9 21.4383 8.85718 21.5438 8.67676 21.4882L5.06543 20.3769C4.6279 20.2424 4.41626 19.7864 4.59668 19.3652C4.60227 19.352 4.60748 19.3386 4.6123 19.3252L5.45508 17.0058C5.499 16.885 5.51111 16.7548 5.49025 16.6279C5.46938 16.501 5.41625 16.3816 5.33594 16.2812C5.33594 16.2812 5.18733 16.126 4.96387 15.4277C4.74041 14.7294 4.5 13.5583 4.5 11.75C4.5 8.81727 6.36538 6.64705 8.32812 5.16012C9.48679 4.28234 10.4943 3.75381 11.25 3.40133ZM12.75 3.40133C13.5057 3.75381 14.5132 4.28234 15.6719 5.16012C17.6346 6.64705 19.5 8.81727 19.5 11.75C19.5 13.5583 19.2596 14.7294 19.0361 15.4277C18.8127 16.126 18.6641 16.2812 18.6641 16.2812C18.5838 16.3816 18.5306 16.501 18.5098 16.6279C18.4889 16.7548 18.501 16.885 18.5449 17.0058L19.3877 19.3261C19.3925 19.3393 19.3977 19.3523 19.4033 19.3652C19.5839 19.7862 19.3722 20.2433 18.9346 20.3779L15.3242 21.4882C15.1434 21.5438 15 21.4383 15 21.249V20.873C15.0132 20.7925 15.0132 20.7104 15 20.6298V15.3476C16.4177 14.9986 17.5 13.7705 17.5 12.25C17.5 11.4692 17.371 10.6759 16.8789 10.0283C16.3869 9.38066 15.5349 8.99996 14.5 8.99996C13.8726 8.99996 13.3139 9.26427 12.9199 9.62691C12.8418 9.69879 12.8181 9.79551 12.75 9.87301V3.40133ZM9.5 10.5C9.6535 10.5 9.76997 10.5495 9.94727 10.7197C10.1246 10.8899 10.3207 11.1806 10.4922 11.5214C10.8351 12.2031 11.0523 13.0058 11.3232 13.5732C11.3843 13.7009 11.4802 13.8088 11.6 13.8843C11.7198 13.9598 11.8584 13.9998 12 13.9998C12.1416 13.9998 12.2802 13.9598 12.4 13.8843C12.5198 13.8088 12.6157 13.7009 12.6768 13.5732C12.9737 12.9512 13.1176 12.1633 13.4248 11.499C13.5784 11.1668 13.7595 10.8925 13.9355 10.7304C14.1116 10.5684 14.2524 10.5 14.5 10.5C15.2151 10.5 15.4881 10.6792 15.6836 10.9365C15.879 11.1937 16 11.6503 16 12.25C16 13.225 15.225 14 14.25 14C14.0511 14 13.8603 14.079 13.7197 14.2197C13.579 14.3603 13.5 14.5511 13.5 14.75V20H10.5V14.75C10.5 14.5511 10.421 14.3603 10.2803 14.2197C10.1397 14.079 9.94891 14 9.75 14C8.77497 14 8 13.225 8 12.25C8 11.6955 8.15282 11.2466 8.38965 10.9609C8.62647 10.6752 8.93658 10.5 9.5 10.5Z" />
</svg>
