<svg width="14" height="14" viewBox="0 0 14 14" fill="none" xmlns="http://www.w3.org/2000/svg">
<path d="M12.821 0.664268C12.8029 0.664809 12.7848 0.66633 12.7669 0.668826H8.16406C8.09781 0.667889 8.03202 0.680129 7.97054 0.704836C7.90906 0.729543 7.8531 0.766223 7.80591 0.812745C7.75873 0.859268 7.72126 0.914704 7.69568 0.975833C7.67011 1.03696 7.65694 1.10256 7.65694 1.16883C7.65694 1.23509 7.67011 1.30069 7.69568 1.36182C7.72126 1.42295 7.75873 1.47838 7.80591 1.52491C7.8531 1.57143 7.90906 1.60811 7.97054 1.63282C8.03202 1.65752 8.09781 1.66976 8.16406 1.66883H11.6237L6.47721 6.81531C6.42923 6.86138 6.39092 6.91657 6.36453 6.97763C6.33813 7.0387 6.32419 7.10441 6.32352 7.17093C6.32284 7.23745 6.33544 7.30344 6.36059 7.36502C6.38573 7.42661 6.42291 7.48256 6.46995 7.5296C6.51699 7.57664 6.57294 7.61382 6.63453 7.63897C6.69612 7.66411 6.7621 7.67672 6.82862 7.67604C6.89514 7.67536 6.96086 7.66142 7.02192 7.63503C7.08299 7.60864 7.13817 7.57033 7.18424 7.52234L12.3307 2.37586V5.83549C12.3298 5.90175 12.342 5.96753 12.3667 6.02901C12.3914 6.0905 12.4281 6.14646 12.4746 6.19364C12.5212 6.24083 12.5766 6.2783 12.6377 6.30387C12.6989 6.32944 12.7645 6.34261 12.8307 6.34261C12.897 6.34261 12.9626 6.32944 13.0237 6.30387C13.0848 6.2783 13.1403 6.24083 13.1868 6.19364C13.2333 6.14646 13.27 6.0905 13.2947 6.02901C13.3194 5.96753 13.3317 5.90175 13.3307 5.83549V1.23198C13.3406 1.16004 13.3347 1.08682 13.3133 1.0174C13.292 0.947989 13.2559 0.884047 13.2074 0.830021C13.1589 0.775996 13.0992 0.733183 13.0324 0.704558C12.9657 0.675934 12.8935 0.662186 12.821 0.664268ZM3.16406 1.66883C1.78923 1.66883 0.664062 2.79399 0.664062 4.16883V10.8355C0.664062 12.2103 1.78923 13.3355 3.16406 13.3355H9.83073C11.2056 13.3355 12.3307 12.2103 12.3307 10.8355V7.50216C12.3317 7.4359 12.3194 7.37012 12.2947 7.30864C12.27 7.24715 12.2333 7.19119 12.1868 7.14401C12.1403 7.09682 12.0848 7.05936 12.0237 7.03378C11.9626 7.00821 11.897 6.99504 11.8307 6.99504C11.7645 6.99504 11.6989 7.00821 11.6377 7.03378C11.5766 7.05936 11.5212 7.09682 11.4746 7.14401C11.4281 7.19119 11.3914 7.24715 11.3667 7.30864C11.342 7.37012 11.3298 7.4359 11.3307 7.50216V10.8355C11.3307 11.67 10.6652 12.3355 9.83073 12.3355H3.16406C2.32956 12.3355 1.66406 11.67 1.66406 10.8355V4.16883C1.66406 3.33433 2.32956 2.66883 3.16406 2.66883H6.4974C6.56365 2.66976 6.62943 2.65752 6.69092 2.63282C6.7524 2.60811 6.80836 2.57143 6.85555 2.52491C6.90273 2.47838 6.9402 2.42295 6.96577 2.36182C6.99135 2.30069 7.00452 2.23509 7.00452 2.16883C7.00452 2.10256 6.99135 2.03696 6.96577 1.97583C6.9402 1.9147 6.90273 1.85927 6.85555 1.81275C6.80836 1.76622 6.7524 1.72954 6.69092 1.70484C6.62943 1.68013 6.56365 1.66789 6.4974 1.66883H3.16406Z" fill="#AACDFF"/>
</svg>
