<svg id="SvgjsSvg1016" width="288" height="288" xmlns="http://www.w3.org/2000/svg" version="1.1" xmlns:xlink="http://www.w3.org/1999/xlink" xmlns:svgjs="http://svgjs.com/svgjs"><defs id="SvgjsDefs1017"></defs><g id="SvgjsG1018"><svg xmlns="http://www.w3.org/2000/svg" xmlns:svgjs="http://svgjs.com/svgjs" xmlns:xlink="http://www.w3.org/1999/xlink" width="288" height="288"><svg xmlns="http://www.w3.org/2000/svg" width="288" height="288" enable-background="new 0 0 64 64" viewBox="0 0 64 64"><switch><path fill="#aacdff" d="m28.8 47.4c1 0 1.9.8 1.9 1.9 0 1-.8 1.9-1.9 1.9-1 0-1.9-.8-1.9-1.9s.9-1.9 1.9-1.9m29.4-11.6c-1 0-1.9-.8-1.9-1.9 0-1 .8-1.9 1.9-1.9 1 0 1.9.8 1.9 1.9 0 1-.9 1.9-1.9 1.9m0-7.7c-3.2 0-5.8 2.6-5.8 5.8 0 .6.1 1.2.3 1.8l-19.1 10.2c-1.1-1.6-2.9-2.5-4.8-2.5-2.2 0-4.2 1.3-5.2 3.2l-17.2-9c-1.8-1-3.2-3.9-3-6.7.1-1.4.6-2.5 1.3-2.9.5-.3 1-.2 1.7.1l.1.1c4.6 2.4 19.5 10.2 20.1 10.5 1 .4 1.5.6 3.2-.2l30.8-16c.5-.2 1-.6 1-1.3 0-.9-.9-1.3-.9-1.3-1.8-.8-4.5-2.1-7.1-3.3-5.6-2.6-12-5.6-14.8-7.1-2.4-1.3-4.4-.2-4.7 0l-.7.3c-12.7 6.4-29.5 14.7-30.5 15.3-1.7 1-2.8 3.1-2.9 5.7-.2 4.1 1.9 8.4 4.9 9.9l18.2 9.4c.4 2.8 2.9 5 5.7 5 3.2 0 5.7-2.5 5.8-5.7l20-10.8c1 .8 2.3 1.2 3.6 1.2 3.2 0 5.8-2.6 5.8-5.8 0-3.3-2.6-5.9-5.8-5.9" class="color4285fd svgShape color6cf"></path></switch></svg></svg></g></svg>