<svg width="24" height="24" viewBox="0 0 24 24" fill="none" xmlns="http://www.w3.org/2000/svg">
<path d="M14.4004 1.96859C14.2591 1.96927 14.1175 1.97396 13.9747 1.98324C13.6245 2.00629 13.5077 2.16287 13.4268 2.24593C13.346 2.32899 13.301 2.39526 13.2579 2.46273C13.1716 2.59766 13.1031 2.73617 13.0293 2.89437C12.9861 2.98723 12.9425 3.11055 12.8985 3.21371C12.8691 3.13168 12.851 3.03627 12.8184 2.95882C12.7469 2.7889 12.6738 2.63085 12.5401 2.46175C12.4064 2.29266 12.109 2.01276 11.6602 2.08089C9.28495 2.44196 6.95645 3.32664 5.39165 4.89144C3.65804 6.62505 2.71244 9.20694 2.57915 11.7899C2.44587 14.3728 3.12975 17.0036 4.89165 18.7655C5.03231 18.9061 5.22305 18.985 5.42193 18.985C5.62081 18.985 5.81154 18.9061 5.9522 18.7655L8.14849 16.5692C8.13962 17.2265 8.02291 17.8831 7.78814 18.5096L7.0479 20.4871C6.99841 20.6198 6.98747 20.7638 7.01636 20.9024C7.04525 21.041 7.11278 21.1686 7.21115 21.2705C7.30952 21.3723 7.43471 21.4442 7.57225 21.4779C7.70978 21.5116 7.85403 21.5056 7.98833 21.4608L11.7491 20.202C13.0318 19.7725 14.4186 19.7712 15.7022 20.1971L19.5137 21.4618C19.6397 21.5036 19.7745 21.5113 19.9044 21.4841C20.0343 21.4568 20.1546 21.3956 20.2531 21.3066C20.3516 21.2177 20.4248 21.1041 20.4651 20.9777C20.5054 20.8512 20.5114 20.7163 20.4825 20.5868L19.6045 16.6375C19.6949 16.7927 19.8379 16.9103 20.0076 16.969C20.1773 17.0277 20.3624 17.0236 20.5293 16.9574C20.6962 16.8912 20.8338 16.7673 20.9172 16.6083C21.0005 16.4492 21.024 16.2656 20.9835 16.0907L20.2637 12.7762L20.2706 12.8123C19.936 10.8043 18.5351 9.20075 16.7608 8.29964L19.7803 5.28011C19.9209 5.13946 19.9999 4.94872 19.9999 4.74984C19.9999 4.55096 19.9209 4.36022 19.7803 4.21957C18.4565 2.89576 16.52 1.95831 14.4004 1.96859ZM14.4043 3.49886C15.8013 3.49509 17.1188 4.01558 18.1348 4.80453L15.2208 7.71859C14.657 7.576 14.0781 7.49984 13.5001 7.49984C11.0128 7.49984 8.81098 8.94302 7.77251 11.0965C7.27826 12.1223 7.30555 13.2929 7.72173 14.3055C7.77915 14.445 7.82711 14.5877 7.8731 14.7303C7.84655 14.7511 7.82143 14.7736 7.7979 14.7977L5.49517 17.1004C4.47441 15.7344 3.97558 13.8364 4.0772 11.867C4.19392 9.60522 5.06181 7.34237 6.4522 5.95199C7.59802 4.80617 9.48527 4.04512 11.4786 3.67757C11.5549 3.88354 11.6388 4.14269 11.7129 4.44027C11.8881 5.14302 12.0098 5.87289 12.0098 5.87289C12.037 6.0384 12.1189 6.19001 12.2424 6.30351C12.3659 6.417 12.5239 6.48583 12.6911 6.49899C12.8583 6.51214 13.0251 6.46887 13.1649 6.37609C13.3046 6.28331 13.4092 6.14636 13.462 5.98714C13.462 5.98714 13.7081 5.24664 13.9854 4.51253C14.1241 4.14548 14.2717 3.77933 14.3887 3.52816C14.3954 3.51381 14.3978 3.51246 14.4043 3.49886ZM13.5001 8.99984C15.4209 8.99984 17.4415 10.174 18.3477 11.8143C18.1621 11.8021 17.9651 11.7981 17.7549 11.8143C16.7606 11.8908 15.4738 12.4186 14.6065 13.8641C14.5389 13.9771 14.5022 14.1059 14.5002 14.2375C14.4981 14.3692 14.5307 14.4991 14.5948 14.6141C14.5948 14.6141 15.0183 15.391 15.8399 16.0086C16.3876 16.4203 17.1771 16.7552 18.0918 16.7459L18.7305 19.6209L16.1739 18.7733C14.5825 18.2452 12.8628 18.2476 11.2725 18.7801L9.00396 19.5399L9.19244 19.036C9.83484 17.3218 9.80499 15.4277 9.10845 13.7352C8.83864 13.0788 8.83533 12.3471 9.12408 11.7479C9.91661 10.1044 11.5923 8.99984 13.5001 8.99984ZM17.8702 13.3104C18.397 13.2699 18.7458 13.3766 18.8682 13.4178L19.211 15.0008C19.1233 15.0053 19.037 15.0251 18.9561 15.0594C17.9207 15.5007 17.28 15.2144 16.7413 14.8094C16.4229 14.5701 16.3853 14.4519 16.2471 14.2635C16.7862 13.6245 17.3522 13.3502 17.8702 13.3104Z" fill="#AACDFF"/>
</svg>
