<svg width="14" height="14" viewBox="0 0 14 14" fill="none" xmlns="http://www.w3.org/2000/svg">
<path d="M6.99215 0.325989C6.85965 0.328059 6.7334 0.382634 6.64111 0.477726C6.54883 0.572819 6.49806 0.700653 6.49996 0.83315V2.49982C6.49902 2.56607 6.51126 2.63185 6.53597 2.69334C6.56068 2.75482 6.59736 2.81078 6.64388 2.85797C6.6904 2.90515 6.74584 2.94262 6.80697 2.96819C6.8681 2.99377 6.9337 3.00694 6.99996 3.00694C7.06622 3.00694 7.13182 2.99377 7.19295 2.96819C7.25408 2.94262 7.30952 2.90515 7.35604 2.85797C7.40256 2.81078 7.43924 2.75482 7.46395 2.69334C7.48866 2.63185 7.5009 2.56607 7.49996 2.49982V0.83315C7.50092 0.766228 7.48844 0.699795 7.46325 0.637787C7.43806 0.575778 7.40068 0.519458 7.35332 0.472162C7.30597 0.424867 7.2496 0.387559 7.18756 0.36245C7.12552 0.337342 7.05907 0.324943 6.99215 0.325989ZM3.89384 1.15346C3.80716 1.15681 3.72284 1.18265 3.64916 1.22844C3.57548 1.27423 3.51499 1.3384 3.47362 1.41465C3.43224 1.49089 3.41141 1.57659 3.41318 1.66332C3.41495 1.75005 3.43924 1.83482 3.48368 1.90932L4.31702 3.35268C4.34908 3.411 4.39246 3.46234 4.44462 3.50368C4.49677 3.54502 4.55666 3.57553 4.62076 3.59342C4.68486 3.61132 4.75189 3.61624 4.81792 3.60789C4.88394 3.59955 4.94764 3.57811 5.00528 3.54483C5.06291 3.51155 5.11332 3.4671 5.15355 3.41408C5.19379 3.36107 5.22303 3.30056 5.23957 3.23609C5.25612 3.17163 5.25963 3.10451 5.2499 3.03867C5.24016 2.97284 5.21739 2.9096 5.1829 2.85268L4.34957 1.40932C4.30459 1.32879 4.23822 1.26227 4.15779 1.21712C4.07736 1.17196 3.98601 1.14993 3.89384 1.15346ZM10.0911 1.15346C10.0014 1.15268 9.91323 1.17602 9.83569 1.22103C9.75815 1.26604 9.69413 1.33108 9.65035 1.40932L8.81702 2.85268C8.78253 2.9096 8.75976 2.97284 8.75002 3.03867C8.74029 3.10451 8.7438 3.17163 8.76035 3.23609C8.77689 3.30056 8.80613 3.36107 8.84637 3.41408C8.8866 3.4671 8.93701 3.51155 8.99464 3.54483C9.05228 3.57811 9.11598 3.59955 9.182 3.60789C9.24803 3.61624 9.31506 3.61132 9.37916 3.59342C9.44326 3.57553 9.50315 3.54502 9.55531 3.50368C9.60746 3.46234 9.65084 3.411 9.6829 3.35268L10.5162 1.90932C10.5612 1.83374 10.5855 1.74763 10.5866 1.65967C10.5877 1.57171 10.5655 1.48502 10.5224 1.40835C10.4793 1.33169 10.4167 1.26775 10.341 1.223C10.2653 1.17824 10.1791 1.15426 10.0911 1.15346ZM1.67249 3.41323C1.56026 3.40894 1.44985 3.44256 1.35906 3.50868C1.26826 3.57479 1.20237 3.66954 1.17199 3.77766C1.14162 3.88579 1.14852 4.00099 1.1916 4.10472C1.23468 4.20844 1.31142 4.29464 1.40947 4.34943L2.85282 5.18276C2.90975 5.21724 2.97298 5.24002 3.03882 5.24975C3.10465 5.25948 3.17177 5.25597 3.23623 5.23943C3.3007 5.22289 3.36121 5.19364 3.41423 5.15341C3.46724 5.11318 3.51169 5.06277 3.54497 5.00513C3.57825 4.9475 3.59969 4.8838 3.60804 4.81777C3.61638 4.75175 3.61146 4.68472 3.59357 4.62061C3.57567 4.55651 3.54516 4.49663 3.50382 4.44447C3.46248 4.39231 3.41115 4.34893 3.35282 4.31687L1.90947 3.48354C1.8376 3.44064 1.75612 3.41646 1.67249 3.41323ZM12.3626 3.41323C12.267 3.41017 12.1726 3.43457 12.0905 3.48354L10.6471 4.31687C10.5888 4.34893 10.5374 4.39231 10.4961 4.44447C10.4548 4.49663 10.4242 4.55651 10.4064 4.62061C10.3885 4.68472 10.3835 4.75175 10.3919 4.81777C10.4002 4.8838 10.4217 4.9475 10.4549 5.00513C10.4882 5.06277 10.5327 5.11318 10.5857 5.15341C10.6387 5.19364 10.6992 5.22289 10.7637 5.23943C10.8281 5.25597 10.8953 5.25948 10.9611 5.24975C11.0269 5.24002 11.0902 5.21724 11.1471 5.18276L12.5905 4.34943C12.6858 4.29608 12.7611 4.21297 12.8047 4.1128C12.8484 4.01264 12.858 3.90093 12.8322 3.79476C12.8064 3.68859 12.7465 3.59381 12.6616 3.52491C12.5768 3.45601 12.4718 3.41678 12.3626 3.41323ZM0.833293 6.49982C0.767037 6.49888 0.701256 6.51112 0.639772 6.53583C0.578288 6.56053 0.522327 6.59721 0.475142 6.64374C0.427957 6.69026 0.390489 6.74569 0.364915 6.80682C0.339342 6.86795 0.326172 6.93355 0.326172 6.99982C0.326172 7.06608 0.339342 7.13168 0.364915 7.19281C0.390489 7.25394 0.427957 7.30937 0.475142 7.3559C0.522327 7.40242 0.578288 7.4391 0.639772 7.46381C0.701256 7.48851 0.767037 7.50075 0.833293 7.49982H2.49996C2.56622 7.50075 2.632 7.48851 2.69348 7.46381C2.75497 7.4391 2.81093 7.40242 2.85811 7.3559C2.9053 7.30937 2.94276 7.25394 2.96834 7.19281C2.99391 7.13168 3.00708 7.06608 3.00708 6.99982C3.00708 6.93355 2.99391 6.86795 2.96834 6.80682C2.94276 6.74569 2.9053 6.69026 2.85811 6.64374C2.81093 6.59721 2.75497 6.56053 2.69348 6.53583C2.632 6.51112 2.56622 6.49888 2.49996 6.49982H0.833293ZM11.5 6.49982C11.4337 6.49888 11.3679 6.51112 11.3064 6.53583C11.245 6.56053 11.189 6.59721 11.1418 6.64374C11.0946 6.69026 11.0572 6.74569 11.0316 6.80682C11.006 6.86795 10.9928 6.93355 10.9928 6.99982C10.9928 7.06608 11.006 7.13168 11.0316 7.19281C11.0572 7.25394 11.0946 7.30937 11.1418 7.3559C11.189 7.40242 11.245 7.4391 11.3064 7.46381C11.3679 7.48851 11.4337 7.50075 11.5 7.49982H13.1666C13.2329 7.50075 13.2987 7.48851 13.3601 7.46381C13.4216 7.4391 13.4776 7.40242 13.5248 7.3559C13.572 7.30937 13.6094 7.25394 13.635 7.19281C13.6606 7.13168 13.6737 7.06608 13.6737 6.99982C13.6737 6.93355 13.6606 6.86795 13.635 6.80682C13.6094 6.74569 13.572 6.69026 13.5248 6.64374C13.4776 6.59721 13.4216 6.56053 13.3601 6.53583C13.2987 6.51112 13.2329 6.49888 13.1666 6.49982H11.5ZM3.12496 8.74656C3.02939 8.7435 2.93495 8.7679 2.85282 8.81687L1.40947 9.65021C1.35114 9.68227 1.29981 9.72565 1.25847 9.7778C1.21713 9.82996 1.18662 9.88985 1.16872 9.95395C1.15083 10.018 1.14591 10.0851 1.15425 10.1511C1.1626 10.2171 1.18404 10.2808 1.21732 10.3385C1.2506 10.3961 1.29505 10.4465 1.34806 10.4867C1.40108 10.527 1.46159 10.5562 1.52605 10.5728C1.59052 10.5893 1.65764 10.5928 1.72347 10.5831C1.78931 10.5734 1.85254 10.5506 1.90947 10.5161L3.35282 9.68276C3.44819 9.62942 3.52345 9.5463 3.56711 9.44614C3.61077 9.34597 3.62041 9.23426 3.59457 9.12809C3.56873 9.02192 3.50883 8.92714 3.42402 8.85824C3.33921 8.78934 3.23417 8.75011 3.12496 8.74656ZM10.9095 8.74656C10.7973 8.74243 10.687 8.77617 10.5963 8.84233C10.5056 8.9085 10.4399 9.00325 10.4096 9.11133C10.3793 9.21942 10.3862 9.33455 10.4293 9.4382C10.4724 9.54185 10.5491 9.62799 10.6471 9.68276L12.0905 10.5161C12.1474 10.5506 12.2106 10.5734 12.2764 10.5831C12.3423 10.5928 12.4094 10.5893 12.4739 10.5728C12.5383 10.5562 12.5988 10.527 12.6519 10.4867C12.7049 10.4465 12.7493 10.3961 12.7826 10.3385C12.8159 10.2808 12.8373 10.2171 12.8457 10.1511C12.854 10.0851 12.8491 10.018 12.8312 9.95395C12.8133 9.88985 12.7828 9.82996 12.7414 9.7778C12.7001 9.72565 12.6488 9.68227 12.5905 9.65021L11.1471 8.81687C11.075 8.77387 10.9933 8.74969 10.9095 8.74656ZM4.75777 10.3904C4.66805 10.3897 4.57979 10.4132 4.50224 10.4583C4.42469 10.5034 4.36071 10.5686 4.31702 10.647L3.48368 12.0903C3.4492 12.1472 3.42642 12.2105 3.41669 12.2763C3.40696 12.3421 3.41047 12.4093 3.42701 12.4737C3.44356 12.5382 3.4728 12.5987 3.51303 12.6517C3.55327 12.7047 3.60368 12.7492 3.66131 12.7825C3.71895 12.8157 3.78264 12.8372 3.84867 12.8455C3.9147 12.8539 3.98173 12.8489 4.04583 12.8311C4.10993 12.8132 4.16981 12.7826 4.22197 12.7413C4.27413 12.7 4.31751 12.6486 4.34957 12.5903L5.1829 11.147C5.22807 11.0714 5.25247 10.9852 5.25364 10.8971C5.25481 10.8091 5.23271 10.7223 5.18957 10.6455C5.14643 10.5687 5.08378 10.5047 5.00796 10.4599C4.93213 10.4151 4.84583 10.3912 4.75777 10.3904ZM9.22717 10.3911C9.14049 10.3944 9.05617 10.4203 8.98249 10.4661C8.90882 10.5119 8.84832 10.576 8.80695 10.6523C8.76558 10.7285 8.74475 10.8142 8.74651 10.9009C8.74828 10.9877 8.77258 11.0725 8.81702 11.147L9.65035 12.5903C9.68241 12.6486 9.72579 12.7 9.77795 12.7413C9.83011 12.7826 9.88999 12.8132 9.95409 12.8311C10.0182 12.8489 10.0852 12.8539 10.1512 12.8455C10.2173 12.8372 10.281 12.8157 10.3386 12.7825C10.3962 12.7492 10.4467 12.7047 10.4869 12.6517C10.5271 12.5987 10.5564 12.5382 10.5729 12.4737C10.5895 12.4093 10.593 12.3421 10.5832 12.2763C10.5735 12.2105 10.5507 12.1472 10.5162 12.0903L9.6829 10.647C9.63793 10.5664 9.57156 10.4999 9.49113 10.4547C9.4107 10.4096 9.31934 10.3876 9.22717 10.3911ZM6.99215 10.9927C6.85965 10.9947 6.7334 11.0493 6.64111 11.1444C6.54883 11.2395 6.49806 11.3673 6.49996 11.4998V13.1665C6.49902 13.2327 6.51126 13.2985 6.53597 13.36C6.56068 13.4215 6.59736 13.4774 6.64388 13.5246C6.6904 13.5718 6.74584 13.6093 6.80697 13.6349C6.8681 13.6604 6.9337 13.6736 6.99996 13.6736C7.06622 13.6736 7.13182 13.6604 7.19295 13.6349C7.25408 13.6093 7.30952 13.5718 7.35604 13.5246C7.40256 13.4774 7.43924 13.4215 7.46395 13.36C7.48866 13.2985 7.5009 13.2327 7.49996 13.1665V11.4998C7.50092 11.4329 7.48844 11.3665 7.46325 11.3045C7.43806 11.2424 7.40068 11.1861 7.35332 11.1388C7.30597 11.0915 7.2496 11.0542 7.18756 11.0291C7.12552 11.004 7.05907 10.9916 6.99215 10.9927Z" fill="#FB2715"/>
</svg>
