<svg width="43" height="24" viewBox="0 0 43 24" fill="none" xmlns="http://www.w3.org/2000/svg">
<rect width="43" height="24" rx="12" fill="#1D171F"/>
<path d="M11.0586 7.46875L13.25 13.6562L15.4297 7.46875H17.7383V16H15.9746V13.668L16.1504 9.64258L13.8477 16H12.6406L10.3438 9.64844L10.5195 13.668V16H8.76172V7.46875H11.0586ZM24.1953 14.2422H21.1133L20.5273 16H18.6582L21.834 7.46875H23.4629L26.6562 16H24.7871L24.1953 14.2422ZM21.5879 12.8184H23.7207L22.6484 9.625L21.5879 12.8184ZM30.5059 10.4102L32.1055 7.46875H34.127L31.6426 11.6992L34.1914 16H32.1465L30.5059 13.0117L28.8652 16H26.8203L29.3691 11.6992L26.8848 7.46875H28.9062L30.5059 10.4102Z" fill="#AACDFF"/>
</svg>
