<svg width="36" height="38" viewBox="0 0 36 38" fill="black" xmlns="http://www.w3.org/2000/svg">
<path d="M10.4998 2.79416e-05C10.3011 -0.00278313 10.1037 0.0339386 9.91928 0.108059C9.73483 0.18218 9.56695 0.292221 9.42539 0.431788C9.28384 0.571355 9.17143 0.737663 9.09471 0.921049C9.01799 1.10443 8.97848 1.30124 8.97848 1.50003C8.97848 1.69882 9.01799 1.89562 9.09471 2.07901C9.17143 2.26239 9.28384 2.4287 9.42539 2.56827C9.56695 2.70784 9.73483 2.81788 9.91928 2.892C10.1037 2.96612 10.3011 3.00284 10.4998 3.00003H10.9998V14.7989C10.9998 15.7139 10.7199 16.6077 10.1991 17.3594L0.798674 30.9375V30.9395C-0.367665 32.6253 -0.251158 34.9603 1.17758 36.5352C2.11027 37.5643 3.41507 38 4.6561 38H31.3436C32.5846 38 33.8894 37.5643 34.8221 36.5352C36.2508 34.9603 36.3674 32.6254 35.201 30.9395V30.9375L25.8006 17.3594C25.2798 16.6077 24.9998 15.7139 24.9998 14.7989V3.00003H25.4998C25.6986 3.00284 25.896 2.96612 26.0804 2.892C26.2649 2.81788 26.4327 2.70784 26.5743 2.56827C26.7159 2.4287 26.8283 2.26239 26.905 2.07901C26.9817 1.89562 27.0212 1.69882 27.0212 1.50003C27.0212 1.30124 26.9817 1.10443 26.905 0.921049C26.8283 0.737663 26.7159 0.571355 26.5743 0.431788C26.4327 0.292221 26.2649 0.18218 26.0804 0.108059C25.896 0.0339386 25.6986 -0.00278313 25.4998 2.79416e-05H23.4998H12.4998H10.4998ZM13.9998 3.00003H21.9998V11H13.9998V3.00003ZM13.9998 14H21.9998V14.7989C21.9998 16.3238 22.4647 17.8141 23.3338 19.0684L32.7342 32.6465C33.1247 33.2124 33.1082 33.961 32.6014 34.5196L32.5995 34.5215C32.3423 34.8055 31.8741 35 31.3436 35H4.6561C4.12563 35 3.65747 34.8056 3.40024 34.5215L3.39828 34.5196C2.8915 33.961 2.87497 33.2124 3.26547 32.6465V32.6446L12.6659 19.0684C13.535 17.8141 13.9998 16.3238 13.9998 14.7989V14ZM14.9998 21C14.4694 21 13.9607 21.2107 13.5856 21.5858C13.2106 21.9609 12.9998 22.4696 12.9998 23C12.9998 23.5305 13.2106 24.0392 13.5856 24.4142C13.9607 24.7893 14.4694 25 14.9998 25C15.5303 25 16.039 24.7893 16.4141 24.4142C16.7891 24.0392 16.9998 23.5305 16.9998 23C16.9998 22.4696 16.7891 21.9609 16.4141 21.5858C16.039 21.2107 15.5303 21 14.9998 21ZM23.4998 27C22.8368 27 22.2009 27.2634 21.7321 27.7323C21.2632 28.2011 20.9998 28.837 20.9998 29.5C20.9998 30.1631 21.2632 30.799 21.7321 31.2678C22.2009 31.7366 22.8368 32 23.4998 32C24.1629 32 24.7988 31.7366 25.2676 31.2678C25.7365 30.799 25.9998 30.1631 25.9998 29.5C25.9998 28.837 25.7365 28.2011 25.2676 27.7323C24.7988 27.2634 24.1629 27 23.4998 27Z" />
</svg>
