<?xml version="1.0" encoding="UTF-8" standalone="no"?>
<!-- Created with Inkscape (http://www.inkscape.org/) -->

<svg
   xmlns:dc="http://purl.org/dc/elements/1.1/"
   xmlns:cc="http://creativecommons.org/ns#"
   xmlns:rdf="http://www.w3.org/1999/02/22-rdf-syntax-ns#"
   xmlns:svg="http://www.w3.org/2000/svg"
   xmlns="http://www.w3.org/2000/svg"
   xmlns:sodipodi="http://sodipodi.sourceforge.net/DTD/sodipodi-0.dtd"
   xmlns:inkscape="http://www.inkscape.org/namespaces/inkscape"
   id="svg2"
   sodipodi:modified="true"
   sodipodi:docname="mint.svg"
   viewBox="0 0 660 659.99999"
   sodipodi:version="0.32"
   version="1.0"
   inkscape:output_extension="org.inkscape.output.svg.inkscape"
   inkscape:version="0.92.4 (5da689c313, 2019-01-14)"
   width="660"
   height="660">
  <defs
     id="defs10" />
  <sodipodi:namedview
     id="base"
     bordercolor="#666666"
     inkscape:pageshadow="2"
     guidetolerance="10"
     pagecolor="#ffffff"
     gridtolerance="10000"
     inkscape:window-height="1356"
     width="990px"
     inkscape:zoom="0.70710678"
     objecttolerance="10"
     height="765px"
     borderopacity="1.0"
     inkscape:current-layer="g2209"
     inkscape:cx="614.55965"
     inkscape:cy="330.60964"
     inkscape:window-y="370"
     inkscape:window-x="1072"
     inkscape:window-width="2560"
     inkscape:pageopacity="0.0"
     inkscape:document-units="px"
     showgrid="false"
     inkscape:window-maximized="1" />
  <g
     id="layer1"
     inkscape:label="Layer 1"
     inkscape:groupmode="layer"
     transform="translate(-169.38,36.189985)">
    <circle
       style="fill:#a80005;fill-opacity:0.96482412;stroke-width:27.44210625"
       id="path812"
       cx="499.38"
       cy="293.81003"
       r="324.42072" />
    <g
       id="g2209"
       transform="matrix(0.75244477,0,0,0.75244477,138.99628,13.218793)">
      <g
         id="g825"
         transform="matrix(0.91043156,0,0,0.91043156,37.932795,24.033805)">
        <path
           inkscape:connector-curvature="0"
           d="m 481.34,141.88 c -151.43,0 -274.34,31.36 -274.34,70 0,9.22 7.02,18.02 19.75,26.09 -42.6,40.36 -67.97,90.97 -67.97,145.91 0,55.69 26.09,106.96 69.75,147.59 -6.66,19.48 -33.32,82.15 -24.28,91.19 9.73,9.72 81.62,-21.88 94.91,-25.44 4.09,-1.1 14.57,-2.71 26.87,-4.75 46.89,19.19 100.89,30.12 158.38,30.12 58.06,0 112.59,-11.16 159.81,-30.71 13.85,2.32 25.87,4.14 30.34,5.34 13.29,3.56 85.18,35.16 94.91,25.44 9.7,-9.7 -21.7,-81.21 -25.41,-94.78 41.39,-40.04 65.97,-89.93 65.97,-144 0,-56.04 -26.38,-107.57 -70.53,-148.32 10.46,-7.4 16.19,-15.36 16.19,-23.68 0,-38.64 -122.91,-70 -274.35,-70 z"
           style="fill:#ffffff"
           id="path2170" />
        <path
           transform="matrix(5.0209,0,0,3.2147,-637,-1154.5)"
           inkscape:connector-curvature="0"
           d="m 269.21,423.29 c 0,6.97 -20.82,12.63 -46.47,12.63 -25.65,0 -46.47,-5.66 -46.47,-12.63 0,-6.97 20.82,-12.63 46.47,-12.63 25.65,0 46.47,5.66 46.47,12.63 z"
           style="fill:#a80005;fill-opacity:0.96470588"
           id="path2178" />
      </g>
    </g>
  </g>
  <metadata
     id="metadata7">
    <rdf:RDF>
      <cc:Work>
        <dc:format>image/svg+xml</dc:format>
        <dc:type
           rdf:resource="http://purl.org/dc/dcmitype/StillImage" />
        <cc:license
           rdf:resource="http://creativecommons.org/publicdomain/zero/1.0/" />
        <dc:publisher>
          <cc:Agent
             rdf:about="http://openclipart.org/">
            <dc:title>Openclipart</dc:title>
          </cc:Agent>
        </dc:publisher>
        <dc:title>Pot of Gold</dc:title>
        <dc:date>2006-12-26T00:00:00</dc:date>
        <dc:description />
        <dc:source>https://openclipart.org/detail/3577/-by--3577</dc:source>
        <dc:creator>
          <cc:Agent>
            <dc:title>OneSeventeen</dc:title>
          </cc:Agent>
        </dc:creator>
        <dc:subject>
          <rdf:Bag>
            <rdf:li>black</rdf:li>
            <rdf:li>cauldron</rdf:li>
            <rdf:li>kettle</rdf:li>
            <rdf:li>pot</rdf:li>
          </rdf:Bag>
        </dc:subject>
      </cc:Work>
      <cc:License
         rdf:about="http://creativecommons.org/publicdomain/zero/1.0/">
        <cc:permits
           rdf:resource="http://creativecommons.org/ns#Reproduction" />
        <cc:permits
           rdf:resource="http://creativecommons.org/ns#Distribution" />
        <cc:permits
           rdf:resource="http://creativecommons.org/ns#DerivativeWorks" />
      </cc:License>
    </rdf:RDF>
  </metadata>
</svg>
