<?xml version="1.0" encoding="UTF-8" standalone="no"?>
<svg
   xmlns:dc="http://purl.org/dc/elements/1.1/"
   xmlns:cc="http://creativecommons.org/ns#"
   xmlns:rdf="http://www.w3.org/1999/02/22-rdf-syntax-ns#"
   xmlns:svg="http://www.w3.org/2000/svg"
   xmlns="http://www.w3.org/2000/svg"
   xmlns:sodipodi="http://sodipodi.sourceforge.net/DTD/sodipodi-0.dtd"
   xmlns:inkscape="http://www.inkscape.org/namespaces/inkscape"
   id="svg2"
   xml:space="preserve"
   viewBox="0 0 150 150"
   version="1.1"
   sodipodi:docname="mint.svg"
   width="150"
   height="150"
   inkscape:version="0.92.4 (5da689c313, 2019-01-14)"><defs
   id="defs59" /><sodipodi:namedview
   pagecolor="#ffffff"
   bordercolor="#666666"
   borderopacity="1"
   objecttolerance="10"
   gridtolerance="10"
   guidetolerance="10"
   inkscape:pageopacity="0"
   inkscape:pageshadow="2"
   inkscape:window-width="2560"
   inkscape:window-height="1356"
   id="namedview57"
   showgrid="false"
   inkscape:zoom="4.7472356"
   inkscape:cx="22.689471"
   inkscape:cy="101.42624"
   inkscape:window-x="1072"
   inkscape:window-y="370"
   inkscape:window-maximized="1"
   inkscape:current-layer="g929" />
  <circle
   style="fill:#a80005;fill-opacity:0.96482412;stroke-width:6.20988894"
   id="path812"
   cx="75"
   cy="75"
   r="73.41333" /><g
   id="g12"
   transform="matrix(1.25,0,0,-1.25,-460.50625,438.18875)">
    
    
    
    
    
    
    
    
    
    
    
    
    
    
    
    
    
    
    
    
    
    
    
    
    
    
    
    
    
    
    
    
    
    
    
    
    
    
    
    
    
    
    
    
    
    
    
    
    
    
    <g
   id="g929"
   transform="translate(4.170655,-7.1043591)"><path
     style="fill:#ffffff;fill-opacity:0.40703517;stroke-width:0.85134339"
     inkscape:connector-curvature="0"
     d="m 447.69313,262.6558 c 0,-2.87244 -10.53622,-5.20001 -23.446,-5.20001 -12.90977,0 -23.37448,2.32757 -23.37448,5.20001 l 0.009,44.98072 c 0,2.87158 10.45534,5.20001 23.36511,5.20001 12.90978,0 23.37449,-2.32843 23.37449,-5.20001 l 0.0715,-44.98072"
     id="path512" /><path
     sodipodi:nodetypes="sssssssssss"
     style="fill:none;stroke:#ffffff;stroke-width:0.97121251;stroke-miterlimit:3.86400008;stroke-dasharray:none;stroke-opacity:1"
     inkscape:connector-curvature="0"
     stroke-miterlimit="3.864"
     d="m 400.86925,307.64078 c 0,2.87158 10.46471,5.20001 23.37448,5.20001 12.90977,0 23.37448,-2.32843 23.37448,-5.20001 0,-2.87243 -10.46471,-5.2 -23.37448,-5.2 -3.18689,0 -6.22479,0.14184 -8.99305,0.3987 -8.44563,0.78367 -14.38143,2.63795 -14.38143,4.8013 z m 0,-44.98073 c 0,2.87158 10.46471,5.20001 23.37448,5.20001 12.90977,0 23.37448,-2.32843 23.37448,-5.20001 0,-2.87243 -10.46471,-5.2 -23.37448,-5.2 -12.90977,0 -23.37448,2.32757 -23.37448,5.2 z"
     id="path514" /><path
     style="fill:#f5bc17;fill-opacity:1;stroke:#ffffff;stroke-width:0.32265916;stroke-miterlimit:3.86400008"
     inkscape:connector-curvature="0"
     stroke-miterlimit="3.864"
     d="m 411.59617,268.70885 c 0,0.93903 0.7611,1.69928 1.69928,1.69928 0.93903,0 1.70014,-0.76025 1.70014,-1.69928 0,-0.93818 -0.76111,-1.69928 -1.70014,-1.69928 -0.93818,0 -1.69928,0.7611 -1.69928,1.69928 z"
     id="path516" /><path
     style="fill:#f5bc17;fill-opacity:1;stroke:#ffffff;stroke-width:0.32265916;stroke-miterlimit:3.86400008"
     inkscape:connector-curvature="0"
     stroke-miterlimit="3.864"
     d="m 414.55885,270.1391 c 0,0.64532 0.52272,1.16805 1.16804,1.16805 0.64532,0 1.16804,-0.52273 1.16804,-1.16805 0,-0.64531 -0.52272,-1.16804 -1.16804,-1.16804 -0.64532,0 -1.16804,0.52273 -1.16804,1.16804 z"
     id="path518" /><path
     style="fill:#f5bc17;fill-opacity:1;stroke:#ffffff;stroke-width:0.32265916;stroke-miterlimit:3.86400008"
     inkscape:connector-curvature="0"
     stroke-miterlimit="3.864"
     d="m 418.50908,263.18363 c 0,0.93818 0.76025,1.69928 1.69928,1.69928 0.93818,0 1.69928,-0.7611 1.69928,-1.69928 0,-0.93903 -0.7611,-1.69928 -1.69928,-1.69928 -0.93903,0 -1.69928,0.76025 -1.69928,1.69928 z"
     id="path520" /><path
     style="fill:#f5bc17;fill-opacity:1;stroke:#ffffff;stroke-width:0.32265916;stroke-miterlimit:3.86400008"
     inkscape:connector-curvature="0"
     stroke-miterlimit="3.864"
     d="m 416.08275,267.35521 c 0,0.64532 0.52358,1.16804 1.16804,1.16804 0.64532,0 1.1689,-0.52272 1.1689,-1.16804 0,-0.64532 -0.52358,-1.16804 -1.1689,-1.16804 -0.64446,0 -1.16804,0.52272 -1.16804,1.16804 z"
     id="path522" /><path
     style="fill:#f5bc17;fill-opacity:1;stroke:#ffffff;stroke-width:0.32265916;stroke-miterlimit:3.86400008"
     inkscape:connector-curvature="0"
     stroke-miterlimit="3.864"
     d="m 404.3257,267.9171 c 0,1.30596 1.05822,2.36418 2.36503,2.36418 1.30596,0 2.36418,-1.05822 2.36418,-2.36418 0,-1.30596 -1.05822,-2.36503 -2.36418,-2.36503 -1.30681,0 -2.36503,1.05907 -2.36503,2.36503 z"
     id="path524" /><path
     style="fill:#f5bc17;fill-opacity:1;stroke:#ffffff;stroke-width:0.32265916;stroke-miterlimit:3.86400008"
     inkscape:connector-curvature="0"
     stroke-miterlimit="3.864"
     d="m 418.74746,272.82935 c 0,0.8871 0.71938,1.60648 1.60648,1.60648 0.8871,0 1.60563,-0.71938 1.60563,-1.60648 0,-0.8871 -0.71853,-1.60649 -1.60563,-1.60649 -0.8871,0 -1.60648,0.71939 -1.60648,1.60649 z"
     id="path526" /><path
     style="fill:#f5bc17;fill-opacity:1;stroke:#ffffff;stroke-width:0.32265916;stroke-miterlimit:3.86400008"
     inkscape:connector-curvature="0"
     stroke-miterlimit="3.864"
     d="m 408.80377,274.43839 c 0,0.4793 0.38821,0.86752 0.86666,0.86752 0.47931,0 0.86752,-0.38822 0.86752,-0.86752 0,-0.47931 -0.38821,-0.86752 -0.86752,-0.86752 -0.47845,0 -0.86666,0.38821 -0.86666,0.86752 z"
     id="path528" /><path
     style="fill:#f5bc17;fill-opacity:1;stroke:#ffffff;stroke-width:0.32265916;stroke-miterlimit:3.86400008"
     inkscape:connector-curvature="0"
     stroke-miterlimit="3.864"
     d="m 422.7658,267.77237 c 0,0.47845 0.38821,0.86667 0.86752,0.86667 0.47845,0 0.86751,-0.38822 0.86751,-0.86667 0,-0.47931 -0.38906,-0.86752 -0.86751,-0.86752 -0.47931,0 -0.86752,0.38821 -0.86752,0.86752 z"
     id="path530" /><path
     style="fill:#f5bc17;fill-opacity:1;stroke:#ffffff;stroke-width:0.32265916;stroke-miterlimit:3.86400008"
     inkscape:connector-curvature="0"
     stroke-miterlimit="3.864"
     d="m 406.65838,282.1771 c 0,0.93818 0.7611,1.69928 1.69928,1.69928 0.93818,0 1.69928,-0.7611 1.69928,-1.69928 0,-0.93903 -0.7611,-1.70013 -1.69928,-1.70013 -0.93818,0 -1.69928,0.7611 -1.69928,1.70013 z"
     id="path532" /><path
     style="fill:#f5bc17;fill-opacity:1;stroke:#ffffff;stroke-width:0.32265916;stroke-miterlimit:3.86400008"
     inkscape:connector-curvature="0"
     stroke-miterlimit="3.864"
     d="m 405.75596,284.60343 c 0,0.64532 0.52272,1.16804 1.16804,1.16804 0.64532,0 1.16889,-0.52272 1.16889,-1.16804 0,-0.64532 -0.52357,-1.16804 -1.16889,-1.16804 -0.64532,0 -1.16804,0.52272 -1.16804,1.16804 z"
     id="path534" /><path
     style="fill:#f5bc17;fill-opacity:1;stroke:#ffffff;stroke-width:0.32265916;stroke-miterlimit:3.86400008"
     inkscape:connector-curvature="0"
     stroke-miterlimit="3.864"
     d="m 409.45079,287.91515 c 0,0.93904 0.76025,1.69929 1.69928,1.69929 0.93818,0 1.69928,-0.76025 1.69928,-1.69929 0,-0.93818 -0.7611,-1.69928 -1.69928,-1.69928 -0.93903,0 -1.69928,0.7611 -1.69928,1.69928 z"
     id="path536" /><path
     style="fill:#f5bc17;fill-opacity:1;stroke:#ffffff;stroke-width:0.32265916;stroke-miterlimit:3.86400008"
     inkscape:connector-curvature="0"
     stroke-miterlimit="3.864"
     d="m 408.54836,286.12733 c 0,0.64532 0.52273,1.16805 1.16805,1.16805 0.64531,0 1.16804,-0.52273 1.16804,-1.16805 0,-0.64532 -0.52273,-1.16889 -1.16804,-1.16889 -0.64532,0 -1.16805,0.52357 -1.16805,1.16889 z"
     id="path538" /><path
     style="fill:#f5bc17;fill-opacity:1;stroke:#ffffff;stroke-width:0.32265916;stroke-miterlimit:3.86400008"
     inkscape:connector-curvature="0"
     stroke-miterlimit="3.864"
     d="m 410.2851,279.35915 c 0,1.30596 1.05907,2.36418 2.36503,2.36418 1.30597,0 2.36419,-1.05822 2.36419,-2.36418 0,-1.30596 -1.05822,-2.36503 -2.36419,-2.36503 -1.30596,0 -2.36503,1.05907 -2.36503,2.36503 z"
     id="path540" /><path
     style="fill:#f5bc17;fill-opacity:1;stroke:#ffffff;stroke-width:0.32265916;stroke-miterlimit:3.86400008"
     inkscape:connector-curvature="0"
     stroke-miterlimit="3.864"
     d="m 411.03429,282.81561 c 0,0.8871 0.71853,1.60648 1.60563,1.60648 0.8871,0 1.60648,-0.71938 1.60648,-1.60648 0,-0.8871 -0.71938,-1.60564 -1.60648,-1.60564 -0.8871,0 -1.60563,0.71854 -1.60563,1.60564 z"
     id="path542" /><path
     style="fill:#f5bc17;fill-opacity:1;stroke:#ffffff;stroke-width:0.32265916;stroke-miterlimit:3.86400008"
     inkscape:connector-curvature="0"
     stroke-miterlimit="3.864"
     d="m 427.63548,288.07691 c 0,0.93903 0.7611,1.70013 1.69928,1.70013 0.93903,0 1.69928,-0.7611 1.69928,-1.70013 0,-0.93818 -0.76025,-1.69928 -1.69928,-1.69928 -0.93818,0 -1.69928,0.7611 -1.69928,1.69928 z"
     id="path544" /><path
     style="fill:#f5bc17;fill-opacity:1;stroke:#ffffff;stroke-width:0.32265916;stroke-miterlimit:3.86400008"
     inkscape:connector-curvature="0"
     stroke-miterlimit="3.864"
     d="m 425.73699,286.64665 c 0,0.64532 0.52272,1.16805 1.16804,1.16805 0.64532,0 1.16804,-0.52273 1.16804,-1.16805 0,-0.64532 -0.52272,-1.16889 -1.16804,-1.16889 -0.64532,0 -1.16804,0.52357 -1.16804,1.16889 z"
     id="path546" /><path
     style="fill:#f5bc17;fill-opacity:1;stroke:#ffffff;stroke-width:0.32265916;stroke-miterlimit:3.86400008"
     inkscape:connector-curvature="0"
     stroke-miterlimit="3.864"
     d="m 421.89743,290.86932 c 0,0.93903 0.7611,1.70013 1.70013,1.70013 0.93818,0 1.69928,-0.7611 1.69928,-1.70013 0,-0.93818 -0.7611,-1.69929 -1.69928,-1.69929 -0.93903,0 -1.70013,0.76111 -1.70013,1.69929 z"
     id="path548" /><path
     style="fill:#f5bc17;fill-opacity:1;stroke:#ffffff;stroke-width:0.32265916;stroke-miterlimit:3.86400008"
     inkscape:connector-curvature="0"
     stroke-miterlimit="3.864"
     d="m 424.21308,289.43906 c 0,0.64532 0.52273,1.16804 1.16804,1.16804 0.64532,0 1.16805,-0.52272 1.16805,-1.16804 0,-0.64532 -0.52273,-1.1689 -1.16805,-1.1689 -0.64531,0 -1.16804,0.52358 -1.16804,1.1689 z"
     id="path550" /><path
     style="fill:#f5bc17;fill-opacity:1;stroke:#ffffff;stroke-width:0.32265916;stroke-miterlimit:3.86400008"
     inkscape:connector-curvature="0"
     stroke-miterlimit="3.864"
     d="m 436.65121,295.10901 c 0,1.30596 1.05822,2.36418 2.36418,2.36418 1.30596,0 2.36503,-1.05822 2.36503,-2.36418 0,-1.30596 -1.05907,-2.36504 -2.36503,-2.36504 -1.30596,0 -2.36418,1.05908 -2.36418,2.36504 z"
     id="path552" /><path
     style="fill:#f5bc17;fill-opacity:1;stroke:#ffffff;stroke-width:0.32265916;stroke-miterlimit:3.86400008"
     inkscape:connector-curvature="0"
     stroke-miterlimit="3.864"
     d="m 431.14302,294.10442 c 0,0.8871 0.71938,1.60563 1.60648,1.60563 0.8871,0 1.60649,-0.71853 1.60649,-1.60563 0,-0.8871 -0.71939,-1.60648 -1.60649,-1.60648 -0.8871,0 -1.60648,0.71938 -1.60648,1.60648 z"
     id="path554" /><path
     style="fill:#f5bc17;fill-opacity:1;stroke:#ffffff;stroke-width:0.32265916;stroke-miterlimit:3.86400008"
     inkscape:connector-curvature="0"
     stroke-miterlimit="3.864"
     d="m 420.68001,283.95641 c 0,0.8871 0.71938,1.60563 1.60648,1.60563 0.8871,0 1.60649,-0.71853 1.60649,-1.60563 0,-0.8871 -0.71939,-1.60649 -1.60649,-1.60649 -0.8871,0 -1.60648,0.71939 -1.60648,1.60649 z"
     id="path556" /><path
     style="fill:#f5bc17;fill-opacity:1;stroke:#ffffff;stroke-width:0.32265916;stroke-miterlimit:3.86400008"
     inkscape:connector-curvature="0"
     stroke-miterlimit="3.864"
     d="m 432.09652,282.35588 c 0,0.47846 0.38821,0.86667 0.86752,0.86667 0.47931,0 0.86752,-0.38821 0.86752,-0.86667 0,-0.4793 -0.38821,-0.86752 -0.86752,-0.86752 -0.47931,0 -0.86752,0.38822 -0.86752,0.86752 z"
     id="path558" /><path
     style="fill:#f5bc17;fill-opacity:1;stroke:#ffffff;stroke-width:0.32265916;stroke-miterlimit:3.86400008"
     inkscape:connector-curvature="0"
     stroke-miterlimit="3.864"
     d="m 418.13449,289.01339 c 0,0.4793 0.38821,0.86752 0.86752,0.86752 0.4793,0 0.86752,-0.38822 0.86752,-0.86752 0,-0.47931 -0.38822,-0.86752 -0.86752,-0.86752 -0.47931,0 -0.86752,0.38821 -0.86752,0.86752 z"
     id="path560" /><path
     style="fill:#f5bc17;fill-opacity:1;stroke:#ffffff;stroke-width:0.32265916;stroke-miterlimit:3.86400008"
     inkscape:connector-curvature="0"
     stroke-miterlimit="3.864"
     d="m 437.2812,285.43774 c 0,0.93904 0.76025,1.69929 1.69928,1.69929 0.93818,0 1.69928,-0.76025 1.69928,-1.69929 0,-0.93818 -0.7611,-1.69928 -1.69928,-1.69928 -0.93903,0 -1.69928,0.7611 -1.69928,1.69928 z"
     id="path562" /><path
     style="fill:#f5bc17;fill-opacity:1;stroke:#ffffff;stroke-width:0.32265916;stroke-miterlimit:3.86400008"
     inkscape:connector-curvature="0"
     stroke-miterlimit="3.864"
     d="m 435.28054,279.41023 c 0,0.64532 0.52273,1.16805 1.16805,1.16805 0.64532,0 1.16804,-0.52273 1.16804,-1.16805 0,-0.64531 -0.52272,-1.16804 -1.16804,-1.16804 -0.64532,0 -1.16805,0.52273 -1.16805,1.16804 z"
     id="path564" /><path
     style="fill:#f5bc17;fill-opacity:1;stroke:#ffffff;stroke-width:0.32265916;stroke-miterlimit:3.86400008"
     inkscape:connector-curvature="0"
     stroke-miterlimit="3.864"
     d="m 434.33555,264.71605 c 0,0.93903 0.7611,1.70013 1.69929,1.70013 0.93903,0 1.69928,-0.7611 1.69928,-1.70013 0,-0.93818 -0.76025,-1.69928 -1.69928,-1.69928 -0.93819,0 -1.69929,0.7611 -1.69929,1.69928 z"
     id="path566" /><path
     style="fill:#f5bc17;fill-opacity:1;stroke:#ffffff;stroke-width:0.32265916;stroke-miterlimit:3.86400008"
     inkscape:connector-curvature="0"
     stroke-miterlimit="3.864"
     d="m 439.44361,270.61586 c 0,0.64531 0.52358,1.16889 1.1689,1.16889 0.64532,0 1.16804,-0.52358 1.16804,-1.16889 0,-0.64532 -0.52272,-1.16805 -1.16804,-1.16805 -0.64532,0 -1.1689,0.52273 -1.1689,1.16805 z"
     id="path568" /><path
     style="fill:#f5bc17;fill-opacity:1;stroke:#ffffff;stroke-width:0.32265916;stroke-miterlimit:3.86400008"
     inkscape:connector-curvature="0"
     stroke-miterlimit="3.864"
     d="m 422.7658,277.72457 c 0,1.30596 1.05822,2.36504 2.36418,2.36504 1.30596,0 2.36503,-1.05908 2.36503,-2.36504 0,-1.30596 -1.05907,-2.36503 -2.36503,-2.36503 -1.30596,0 -2.36418,1.05907 -2.36418,2.36503 z"
     id="path570" /><path
     style="fill:#f5bc17;fill-opacity:1;stroke:#ffffff;stroke-width:0.32265916;stroke-miterlimit:3.86400008"
     inkscape:connector-curvature="0"
     stroke-miterlimit="3.864"
     d="m 414.63547,295.79008 c 0,0.88795 0.71853,1.60649 1.60563,1.60649 0.8871,0 1.60649,-0.71854 1.60649,-1.60649 0,-0.88625 -0.71939,-1.60563 -1.60649,-1.60563 -0.8871,0 -1.60563,0.71938 -1.60563,1.60563 z"
     id="path572" /><path
     style="fill:#f5bc17;fill-opacity:1;stroke:#ffffff;stroke-width:0.32265916;stroke-miterlimit:3.86400008"
     inkscape:connector-curvature="0"
     stroke-miterlimit="3.864"
     d="m 434.41217,306.15093 c 0,0.47931 0.38822,0.86752 0.86752,0.86752 0.47931,0 0.86752,-0.38821 0.86752,-0.86752 0,-0.47931 -0.38821,-0.86752 -0.86752,-0.86752 -0.4793,0 -0.86752,0.38821 -0.86752,0.86752 z"
     id="path574" /><path
     style="fill:#f5bc17;fill-opacity:1;stroke:#ffffff;stroke-width:0.32265916;stroke-miterlimit:3.86400008"
     inkscape:connector-curvature="0"
     stroke-miterlimit="3.864"
     d="m 437.70687,307.74294 c 0,0.93818 0.76025,1.69928 1.69928,1.69928 0.93819,0 1.69929,-0.7611 1.69929,-1.69928 0,-0.93903 -0.7611,-1.69928 -1.69929,-1.69928 -0.93903,0 -1.69928,0.76025 -1.69928,1.69928 z"
     id="path576" /><path
     style="fill:#f5bc17;fill-opacity:1;stroke:#ffffff;stroke-width:0.32265916;stroke-miterlimit:3.86400008"
     inkscape:connector-curvature="0"
     stroke-miterlimit="3.864"
     d="m 430.53005,308.58577 c 0,0.64532 0.52272,1.16804 1.16804,1.16804 0.64532,0 1.16804,-0.52272 1.16804,-1.16804 0,-0.64532 -0.52272,-1.16804 -1.16804,-1.16804 -0.64532,0 -1.16804,0.52272 -1.16804,1.16804 z"
     id="path578" /><path
     style="fill:#f5bc17;fill-opacity:1;stroke:#ffffff;stroke-width:0.32265916;stroke-miterlimit:3.86400008"
     inkscape:connector-curvature="0"
     stroke-miterlimit="3.864"
     d="m 404.30867,300.76193 c 0,0.93903 0.7611,1.69928 1.69928,1.69928 0.93904,0 1.70014,-0.76025 1.70014,-1.69928 0,-0.93818 -0.7611,-1.69929 -1.70014,-1.69929 -0.93818,0 -1.69928,0.76111 -1.69928,1.69929 z"
     id="path580" /><path
     style="fill:#f5bc17;fill-opacity:1;stroke:#ffffff;stroke-width:0.32265916;stroke-miterlimit:3.86400008"
     inkscape:connector-curvature="0"
     stroke-miterlimit="3.864"
     d="m 407.57783,296.54778 c 0,0.64446 0.52358,1.16804 1.1689,1.16804 0.64446,0 1.16804,-0.52358 1.16804,-1.16804 0,-0.64532 -0.52358,-1.1689 -1.16804,-1.1689 -0.64532,0 -1.1689,0.52358 -1.1689,1.1689 z"
     id="path582" /><path
     style="fill:#f5bc17;fill-opacity:1;stroke:#bdbcbc;stroke-width:0.32265916;stroke-miterlimit:3.86400008"
     inkscape:connector-curvature="0"
     stroke-miterlimit="3.864"
     d="m 417.87057,314.51112 c 0,0.64532 0.52273,1.16804 1.16805,1.16804 0.64531,0 1.16804,-0.52272 1.16804,-1.16804 0,-0.64532 -0.52273,-1.16889 -1.16804,-1.16889 -0.64532,0 -1.16805,0.52357 -1.16805,1.16889 z"
     id="path584" /><path
     style="fill:#f5bc17;fill-opacity:1;stroke:#ffffff;stroke-width:0.32265916;stroke-miterlimit:3.86400008"
     inkscape:connector-curvature="0"
     stroke-miterlimit="3.864"
     d="m 422.12729,307.55565 c 0,0.93818 0.7611,1.69928 1.69928,1.69928 0.93903,0 1.70013,-0.7611 1.70013,-1.69928 0,-0.93904 -0.7611,-1.70014 -1.70013,-1.70014 -0.93818,0 -1.69928,0.7611 -1.69928,1.70014 z"
     id="path586" /><path
     style="fill:#f5bc17;fill-opacity:1;stroke:#ffffff;stroke-width:0.32265916;stroke-miterlimit:3.86400008"
     inkscape:connector-curvature="0"
     stroke-miterlimit="3.864"
     d="m 412.33684,309.64144 c 0,0.64532 0.52273,1.16804 1.16804,1.16804 0.64532,0 1.16805,-0.52272 1.16805,-1.16804 0,-0.64532 -0.52273,-1.16805 -1.16805,-1.16805 -0.64531,0 -1.16804,0.52273 -1.16804,1.16805 z"
     id="path588" /><path
     style="fill:#f5bc17;fill-opacity:1;stroke:#ffffff;stroke-width:0.32265916;stroke-miterlimit:3.86400008"
     inkscape:connector-curvature="0"
     stroke-miterlimit="3.864"
     d="m 415.64857,308.79009 c 0,0.8871 0.71938,1.60564 1.60648,1.60564 0.8871,0 1.60649,-0.71854 1.60649,-1.60564 0,-0.8871 -0.71939,-1.60648 -1.60649,-1.60648 -0.8871,0 -1.60648,0.71938 -1.60648,1.60648 z"
     id="path590" /><path
     style="fill:#f5bc17;fill-opacity:1;stroke:#bdbcbc;stroke-width:0.32265916;stroke-miterlimit:3.86400008"
     inkscape:connector-curvature="0"
     stroke-miterlimit="3.864"
     d="m 422.05918,317.20137 c 0,0.8871 0.71939,1.60563 1.60649,1.60563 0.8871,0 1.60563,-0.71853 1.60563,-1.60563 0,-0.8871 -0.71853,-1.60649 -1.60563,-1.60649 -0.8871,0 -1.60649,0.71939 -1.60649,1.60649 z"
     id="path592" /><path
     style="fill:#f5bc17;fill-opacity:1;stroke:#bdbcbc;stroke-width:0.32265916;stroke-miterlimit:3.86400008"
     inkscape:connector-curvature="0"
     stroke-miterlimit="3.864"
     d="m 412.11549,318.81041 c 0,0.47845 0.38821,0.86751 0.86752,0.86751 0.47846,0 0.86667,-0.38906 0.86667,-0.86751 0,-0.47931 -0.38821,-0.86752 -0.86667,-0.86752 -0.47931,0 -0.86752,0.38821 -0.86752,0.86752 z"
     id="path594" /><path
     style="fill:#f5bc17;fill-opacity:1;stroke:#ffffff;stroke-width:0.32265916;stroke-miterlimit:3.86400008"
     inkscape:connector-curvature="0"
     stroke-miterlimit="3.864"
     d="m 426.07752,312.14439 c 0,0.4793 0.38822,0.86752 0.86752,0.86752 0.47846,0 0.86752,-0.38822 0.86752,-0.86752 0,-0.47846 -0.38906,-0.86752 -0.86752,-0.86752 -0.4793,0 -0.86752,0.38906 -0.86752,0.86752 z"
     id="path596" /><path
     style="fill:#f5bc17;fill-opacity:1;stroke:#bdbcbc;stroke-width:0.32265916;stroke-miterlimit:3.86400008"
     inkscape:connector-curvature="0"
     stroke-miterlimit="3.864"
     d="m 417.82801,328.03897 c 0,0.93818 0.7611,1.69928 1.69928,1.69928 0.93903,0 1.69928,-0.7611 1.69928,-1.69928 0,-0.93903 -0.76025,-1.70013 -1.69928,-1.70013 -0.93818,0 -1.69928,0.7611 -1.69928,1.70013 z"
     id="path598" /><path
     style="fill:#f5bc17;fill-opacity:1;stroke:#bdbcbc;stroke-width:0.32265916;stroke-miterlimit:3.86400008"
     inkscape:connector-curvature="0"
     stroke-miterlimit="3.864"
     d="m 412.77103,337.01213 c 0,0.64532 0.52357,1.16804 1.16804,1.16804 0.64532,0 1.16889,-0.52272 1.16889,-1.16804 0,-0.64532 -0.52357,-1.1689 -1.16889,-1.1689 -0.64447,0 -1.16804,0.52358 -1.16804,1.1689 z"
     id="path600" /><path
     style="fill:#f5bc17;fill-opacity:1;stroke:#bdbcbc;stroke-width:0.32265916;stroke-miterlimit:3.86400008"
     inkscape:connector-curvature="0"
     stroke-miterlimit="3.864"
     d="m 422.85944,331.01016 c 0,0.64446 0.52358,1.16804 1.16805,1.16804 0.64532,0 1.16889,-0.52358 1.16889,-1.16804 0,-0.64532 -0.52357,-1.1689 -1.16889,-1.1689 -0.64447,0 -1.16805,0.52358 -1.16805,1.1689 z"
     id="path602" /><path
     style="fill:#f5bc17;fill-opacity:1;stroke:#bdbcbc;stroke-width:0.32265916;stroke-miterlimit:3.86400008"
     inkscape:connector-curvature="0"
     stroke-miterlimit="3.864"
     d="m 430.30019,319.43189 c 0,1.08376 0.87773,1.96234 1.96149,1.96234 1.08376,0 1.96235,-0.87858 1.96235,-1.96234 0,-1.08291 -0.87859,-1.9615 -1.96235,-1.9615 -1.08376,0 -1.96149,0.87859 -1.96149,1.9615 z"
     id="path604" /><path
     style="fill:#f5bc17;fill-opacity:1;stroke:#bdbcbc;stroke-width:0.32265916;stroke-miterlimit:3.86400008"
     inkscape:connector-curvature="0"
     stroke-miterlimit="3.864"
     d="m 415.19735,330.56746 c 0,0.64532 0.52358,1.16889 1.1689,1.16889 0.64532,0 1.16804,-0.52357 1.16804,-1.16889 0,-0.64447 -0.52272,-1.16805 -1.16804,-1.16805 -0.64532,0 -1.1689,0.52358 -1.1689,1.16805 z"
     id="path606" /><path
     style="fill:#f5bc17;fill-opacity:1;stroke:#bdbcbc;stroke-width:0.32265916;stroke-miterlimit:3.86400008"
     inkscape:connector-curvature="0"
     stroke-miterlimit="3.864"
     d="m 424.69835,327.62181 c 0,0.8871 0.71938,1.60563 1.60648,1.60563 0.8871,0 1.60649,-0.71853 1.60649,-1.60563 0,-0.8871 -0.71939,-1.60649 -1.60649,-1.60649 -0.8871,0 -1.60648,0.71939 -1.60648,1.60649 z"
     id="path608" /><path
     sodipodi:nodetypes="csccsccscccc"
     style="fill:none;stroke:#ffffff;stroke-width:0.97138286;stroke-miterlimit:3.86400008;stroke-opacity:1"
     inkscape:connector-curvature="0"
     stroke-miterlimit="3.864"
     d="m 447.63354,329.28193 c 0,-2.87158 -10.47493,-5.20001 -23.3847,-5.20001 -12.90977,0 -23.37449,2.32843 -23.37449,5.20001 m -0.0392,0.0221 c 0,2.87159 10.50388,5.17787 23.41365,5.17787 12.90977,0 23.37448,-2.32757 23.37448,-5.2 l -0.0162,-66.72234 c 0,-2.87243 -10.44854,-5.10465 -23.35831,-5.10465 -12.90977,0 -23.37449,2.32757 -23.37449,5.2 l -0.0289,49.04871 -8.5e-4,1.92737 z"
     id="path610" /><path
     style="fill:#f5bc17;fill-opacity:1;stroke:#bdbcbc;stroke-width:0.32265916;stroke-miterlimit:3.86400008"
     inkscape:connector-curvature="0"
     stroke-miterlimit="3.864"
     d="m 416.14235,333.42797 c 0,0.93903 0.7611,1.69928 1.69928,1.69928 0.93903,0 1.69928,-0.76025 1.69928,-1.69928 0,-0.93818 -0.76025,-1.69928 -1.69928,-1.69928 -0.93818,0 -1.69928,0.7611 -1.69928,1.69928 z"
     id="path612" /></g>
  </g>
<metadata
   id="metadata54"><rdf:RDF><cc:Work><dc:format>image/svg+xml</dc:format><dc:type
         rdf:resource="http://purl.org/dc/dcmitype/StillImage" /><cc:license
         rdf:resource="http://creativecommons.org/publicdomain/zero/1.0/" /><dc:publisher><cc:Agent
           rdf:about="http://openclipart.org/"><dc:title>Openclipart</dc:title></cc:Agent></dc:publisher><dc:title>58294main_The.Brain.in.Space-page-163-chemistry</dc:title><dc:date>2010-04-06T07:38:26</dc:date><dc:description>This is clipart converted and broken apart that has been released into the public domain because the document says so, and its from NASA, a USA government agency. The publication is called &quot;The Brain in Space:&quot;\n\nhttp://www.nasa.gov/audience/foreducators/topnav/materials/listbytype/The.Brain.in.Space.html</dc:description><dc:source>http://openclipart.org/detail/38551/-by-rejon-38551</dc:source><dc:creator><cc:Agent><dc:title>rejon</dc:title></cc:Agent></dc:creator><dc:subject><rdf:Bag><rdf:li>astronomy</rdf:li><rdf:li>brain</rdf:li><rdf:li>clip art</rdf:li><rdf:li>clipart</rdf:li><rdf:li>converted</rdf:li><rdf:li>government</rdf:li><rdf:li>nasa</rdf:li><rdf:li>science</rdf:li><rdf:li>space</rdf:li><rdf:li>usa</rdf:li></rdf:Bag></dc:subject></cc:Work><cc:License
       rdf:about="http://creativecommons.org/publicdomain/zero/1.0/"><cc:permits
         rdf:resource="http://creativecommons.org/ns#Reproduction" /><cc:permits
         rdf:resource="http://creativecommons.org/ns#Distribution" /><cc:permits
         rdf:resource="http://creativecommons.org/ns#DerivativeWorks" /></cc:License></rdf:RDF></metadata></svg>