<?xml version="1.0" encoding="UTF-8" standalone="no"?>
<svg
   xmlns="http://www.w3.org/2000/svg"
   id="svg4"
   version="1.1"
   fill="black"
   viewBox="0 0 24 24"
   height="24"
   width="24">
  <path
     style="stroke-width:2.30904603"
     id="path2"
     d="M 11.972961,0.4301239 C 11.513922,0.4372809 11.07682,0.62632344 10.757017,0.95566278 10.437445,1.285025 10.261496,1.7277845 10.268192,2.1867074 V 10.268368 H 2.1865321 c -0.229473,-0.0032 -0.4573296,0.03925 -0.6702699,0.124689 -0.2129633,0.08566 -0.4067848,0.212662 -0.57021908,0.373833 -0.16341113,0.161172 -0.29320259,0.353054 -0.38177759,0.564794 -0.0885751,0.211739 -0.13417866,0.438949 -0.13417866,0.668469 0,0.229519 0.0456037,0.456728 0.13417866,0.668468 0.088575,0.211739 0.21836646,0.403621 0.38177759,0.564793 0.16343428,0.161171 0.35725558,0.288168 0.57021908,0.373834 0.2129403,0.08544 0.4407969,0.127921 0.6702699,0.124688 h 8.0816599 v 8.081661 c -0.0032,0.229519 0.03925,0.457421 0.124689,0.670316 0.08567,0.212894 0.212663,0.406623 0.373835,0.570103 0.16117,0.16348 0.353053,0.293249 0.564792,0.381916 0.21174,0.08843 0.43895,0.134156 0.668469,0.134156 0.229519,0 0.456728,-0.04572 0.668469,-0.134156 0.211738,-0.08867 0.403621,-0.218436 0.564792,-0.381916 0.161172,-0.16348 0.288168,-0.357209 0.373834,-0.570103 0.08544,-0.212895 0.127921,-0.440797 0.124689,-0.670316 v -8.081661 h 8.081661 c 0.229518,0.0032 0.457421,-0.03925 0.670315,-0.124688 0.212894,-0.08567 0.406623,-0.212663 0.570104,-0.373834 0.16348,-0.161172 0.293249,-0.353054 0.381916,-0.564793 0.08843,-0.21174 0.134156,-0.438949 0.134156,-0.668468 0,-0.22952 -0.04572,-0.45673 -0.134156,-0.668469 -0.08867,-0.21174 -0.218436,-0.403622 -0.381916,-0.564794 -0.163481,-0.161171 -0.35721,-0.288168 -0.570104,-0.373833 -0.212894,-0.08543 -0.440797,-0.127922 -0.670315,-0.124689 H 13.731761 V 2.1867074 C 13.734993,1.9549254 13.691814,1.724829 13.604532,1.5100415 13.517251,1.2952772 13.387944,1.100209 13.223771,0.93640524 13.059828,0.77260151 12.864714,0.64336421 12.649743,0.55640554 12.43477,0.46944688 12.204789,0.4264987 11.972961,0.4301239 Z" />
</svg>
