<?xml version="1.0" encoding="iso-8859-1"?>
<!-- Generator: Adobe Illustrator 18.0.0, SVG Export Plug-In . SVG Version: 6.00 Build 0)  -->
<!DOCTYPE svg PUBLIC "-//W3C//DTD SVG 1.1//EN" "http://www.w3.org/Graphics/SVG/1.1/DTD/svg11.dtd">
<svg version="1.1" id="Capa_1" xmlns="http://www.w3.org/2000/svg" xmlns:xlink="http://www.w3.org/1999/xlink" x="0px" y="0px"
	 viewBox="0 0 453.136 453.136" style="enable-background:new 0 0 453.136 453.136;" xml:space="preserve">
<g>
	<circle cx="314.663" cy="129.249" r="40.898"/>
	<path d="M88.562,192.074c-7.87,7.538-8.137,20.031-0.597,27.901c7.403,7.727,19.935,8.23,27.901,0.597l49.288-47.223l0.001,0
		l73.238,16.398l-65.353,2.282c-50.385,48.276-43.325,41.516-44.332,42.462c10.512,3.491,20.149,9.371,28.223,17.391
		c0.059,0.059,0.121,0.113,0.18,0.172c2.397,2.397,5.597,3.717,9.011,3.717c3.413,0,6.613-1.32,9.01-3.717
		c8.141-8.141,17.889-14.092,28.526-17.603c7.294-2.408,15.002-3.678,22.912-3.678c12.172,0,23.882,2.962,34.305,8.543
		l23.094-18.578l59.875,9.581c4.631,0.741,9.491-0.18,13.631-2.785l78.421-49.366c9.223-5.806,11.993-17.99,6.188-27.213
		c-5.807-9.223-17.99-11.993-27.213-6.188l-72.13,45.406l-54.256-8.682l-30.806-38.294c-9.279-11.535-25.925-13.651-37.766-5.033
		l24.215,12.233c-0.001,0-79.512-18.945-79.513-18.945c-6.284-1.404-13.107,0.361-17.956,5.001
		c-0.003,0.002-0.005,0.005-0.008,0.007C139.598,143.214,95.642,185.296,88.562,192.074z"/>
	<path d="M86.055,283.874c5.24-5.24,12.207-8.125,19.618-8.125c7.411,0,14.377,2.886,19.617,8.125
		c10.906,10.906,25.407,16.913,40.831,16.913c15.424,0,29.925-6.006,40.83-16.913c5.24-5.24,12.207-8.125,19.618-8.125
		s14.377,2.886,19.618,8.125c22.513,22.514,59.146,22.515,81.662,0c5.24-5.24,12.207-8.125,19.617-8.125
		c7.41,0,14.377,2.885,19.617,8.125c22.514,22.515,59.147,22.515,81.661,0c5.858-5.858,5.858-15.355,0-21.213
		c-5.857-5.858-15.355-5.858-21.213,0c-5.24,5.24-12.207,8.125-19.618,8.125c-7.411,0-14.377-2.886-19.617-8.125
		c-10.906-10.906-25.407-16.913-40.831-16.913c-15.424,0-29.925,6.006-40.831,16.913c-5.24,5.24-12.207,8.125-19.618,8.125
		c-7.411,0-14.377-2.886-19.618-8.125c-22.514-22.515-59.147-22.515-81.662,0c-5.24,5.24-12.206,8.125-19.617,8.125
		c-7.41,0-14.377-2.885-19.617-8.125c-22.514-22.515-59.147-22.515-81.661,0c-5.24,5.24-12.207,8.125-19.618,8.125
		c-7.411,0-14.378-2.886-19.618-8.125c-5.857-5.858-15.356-5.858-21.213,0c-5.858,5.858-5.858,15.355,0,21.213
		C26.907,306.389,63.541,306.389,86.055,283.874z"/>
	<path d="M427.53,326.661c-5.24,5.24-12.207,8.125-19.618,8.125c-7.411,0-14.377-2.886-19.617-8.125
		c-10.906-10.906-25.407-16.913-40.831-16.913c-15.424,0-29.925,6.006-40.831,16.913c-5.24,5.24-12.207,8.125-19.618,8.125
		c-7.411,0-14.377-2.886-19.618-8.125c-22.514-22.515-59.147-22.515-81.662,0c-5.24,5.24-12.206,8.125-19.617,8.125
		c-7.41,0-14.377-2.885-19.617-8.125c-22.514-22.515-59.147-22.515-81.661,0c-5.24,5.24-12.207,8.125-19.618,8.125
		c-7.411,0-14.378-2.886-19.618-8.125c-5.857-5.858-15.356-5.858-21.213,0c-5.858,5.858-5.858,15.355,0,21.213
		c22.514,22.515,59.147,22.515,81.661,0c5.24-5.24,12.207-8.125,19.618-8.125c7.411,0,14.377,2.886,19.617,8.125
		c10.906,10.906,25.407,16.913,40.831,16.913c15.424,0,29.925-6.006,40.83-16.913c5.24-5.24,12.207-8.125,19.618-8.125
		s14.377,2.886,19.618,8.125c22.513,22.514,59.146,22.515,81.662,0c5.24-5.24,12.207-8.125,19.617-8.125
		c7.41,0,14.377,2.885,19.617,8.125c22.514,22.515,59.147,22.515,81.661,0c5.858-5.858,5.858-15.355,0-21.213
		C442.886,320.803,433.388,320.803,427.53,326.661z"/>
</g>
<g>
</g>
<g>
</g>
<g>
</g>
<g>
</g>
<g>
</g>
<g>
</g>
<g>
</g>
<g>
</g>
<g>
</g>
<g>
</g>
<g>
</g>
<g>
</g>
<g>
</g>
<g>
</g>
<g>
</g>
</svg>
