<svg width="16" height="16" viewBox="0 0 16 16" fill="none" xmlns="http://www.w3.org/2000/svg">
<path d="M8.00712 13.6667C8.13724 13.6648 8.26148 13.6122 8.35348 13.5202L14.8535 7.02022C14.9015 6.97414 14.9398 6.91896 14.9662 6.85789C14.9926 6.79683 15.0065 6.73111 15.0072 6.66459C15.0079 6.59807 14.9953 6.53209 14.9701 6.4705C14.945 6.40891 14.9078 6.35296 14.8607 6.30592C14.8137 6.25888 14.7578 6.2217 14.6962 6.19656C14.6346 6.17141 14.5686 6.15881 14.5021 6.15949C14.4355 6.16016 14.3698 6.1741 14.3088 6.2005C14.2477 6.22689 14.1925 6.2652 14.1464 6.31318L7.99996 12.4597L1.85348 6.31318C1.80741 6.2652 1.75222 6.22689 1.69116 6.2005C1.63009 6.1741 1.56438 6.16016 1.49786 6.15949C1.43134 6.15881 1.36535 6.17141 1.30376 6.19656C1.24218 6.2217 1.18622 6.25888 1.13918 6.30592C1.09215 6.35296 1.05497 6.40891 1.02982 6.4705C1.00468 6.53209 0.992074 6.59807 0.99275 6.66459C0.993426 6.73111 1.00737 6.79683 1.03376 6.85789C1.06015 6.91896 1.09846 6.97414 1.14645 7.02021L7.64645 13.5202C7.69372 13.5675 7.74999 13.6048 7.81194 13.63C7.8739 13.6552 7.94026 13.6676 8.00712 13.6667ZM8.00712 9.6667C8.13724 9.6648 8.26148 9.61225 8.35348 9.52021L14.8535 3.02022C14.9015 2.97414 14.9398 2.91896 14.9662 2.85789C14.9926 2.79683 15.0065 2.73111 15.0072 2.66459C15.0079 2.59807 14.9953 2.53209 14.9701 2.4705C14.945 2.40891 14.9078 2.35296 14.8607 2.30592C14.8137 2.25888 14.7578 2.2217 14.6962 2.19656C14.6346 2.17141 14.5686 2.15881 14.5021 2.15949C14.4355 2.16016 14.3698 2.1741 14.3088 2.2005C14.2477 2.22689 14.1925 2.2652 14.1464 2.31318L7.99996 8.45967L1.85348 2.31318C1.80741 2.2652 1.75222 2.22689 1.69116 2.20049C1.63009 2.1741 1.56438 2.16016 1.49786 2.15949C1.43134 2.15881 1.36535 2.17141 1.30376 2.19656C1.24218 2.2217 1.18622 2.25888 1.13918 2.30592C1.09215 2.35296 1.05497 2.40891 1.02982 2.4705C1.00468 2.53209 0.992074 2.59807 0.99275 2.66459C0.993426 2.73111 1.00737 2.79683 1.03376 2.85789C1.06015 2.91896 1.09846 2.97414 1.14645 3.02021L7.64645 9.52021C7.69372 9.5675 7.74999 9.60483 7.81195 9.63C7.8739 9.65516 7.94026 9.66764 8.00712 9.6667Z" fill="#FB2715"/>
</svg>
