<svg width="32" height="32" viewBox="0 0 16 16" fill="black" xmlns="http://www.w3.org/2000/svg">
<path d="M6.83333 2C4.16988 2 2 4.16988 2 6.83333C2 9.49679 4.16988 11.6667 6.83333 11.6667C7.98545 11.6667 9.04457 11.2597 9.8763 10.5833L13.1465 13.8535C13.1926 13.9015 13.2477 13.9398 13.3088 13.9662C13.3699 13.9926 13.4356 14.0065 13.5021 14.0072C13.5686 14.0079 13.6346 13.9953 13.6962 13.9701C13.7578 13.945 13.8137 13.9078 13.8608 13.8608C13.9078 13.8137 13.945 13.7578 13.9701 13.6962C13.9953 13.6346 14.0079 13.5686 14.0072 13.5021C14.0065 13.4356 13.9926 13.3699 13.9662 13.3088C13.9398 13.2477 13.9015 13.1926 13.8535 13.1465L10.5833 9.8763C11.2597 9.04457 11.6667 7.98545 11.6667 6.83333C11.6667 4.16988 9.49679 2 6.83333 2ZM6.83333 3C8.95635 3 10.6667 4.71032 10.6667 6.83333C10.6667 7.86754 10.2587 8.80191 9.597 9.49023C9.55622 9.52021 9.52021 9.55622 9.49023 9.597C8.80191 10.2587 7.86754 10.6667 6.83333 10.6667C4.71032 10.6667 3 8.95635 3 6.83333C3 4.71032 4.71032 3 6.83333 3Z" />
</svg>
