<?xml version="1.0" encoding="UTF-8"?>
<svg width="20.588" height="21" fill="none" version="1.1" viewBox="0 0 20.588 21" xmlns="http://www.w3.org/2000/svg">
 <path d="m8.2949 0.5a1 1 0 0 0-0.97656 0.7832l-0.0019532 0.0019531-0.43945 1.9805c-0.399 0.19-0.78062 0.41016-1.1406 0.66016l-1.9355-0.61133a1 1 0 0 0-1.166 0.45508l-2 3.4629a1 1 0 0 0 0.18945 1.2383l1.4961 1.3711a8.097 8.097 0 0 0 0 1.3164l-1.4961 1.373a1 1 0 0 0-0.18945 1.2363l2 3.4648a1 1 0 0 0 1.166 0.45312l1.9375-0.60938c0.359 0.25 0.74062 0.47016 1.1406 0.66016l0.43945 1.9805a1 1 0 0 0 0.97656 0.7832h4a1 1 0 0 0 0.97656-0.7832l0.43945-1.9805c0.399-0.19 0.78062-0.41016 1.1406-0.66016l1.9355 0.60938a1 1 0 0 0 1.166-0.45312l2-3.4648a1 1 0 0 0-0.18945-1.2363l-1.4961-1.373a8.1 8.1 0 0 0 0-1.3164l1.4961-1.373a1 1 0 0 0 0.18945-1.2363l-2-3.4648a1 1 0 0 0-1.166-0.45312l-1.9375 0.60938c-0.359-0.25-0.73867-0.47016-1.1387-0.66016l-0.44141-1.9805a1 1 0 0 0-0.97461-0.7832h-4zm2 5.5059a4.4936 4.4936 0 0 1 4.4922 4.4941 4.4936 4.4936 0 0 1-4.4922 4.4941 4.4936 4.4936 0 0 1-4.4941-4.4941 4.4936 4.4936 0 0 1 4.4941-4.4941z" clip-rule="evenodd" fill="currentColor" fill-rule="evenodd"/>
</svg>
