<svg width="32" height="32" viewBox="0 0 32 32" fill="none" xmlns="http://www.w3.org/2000/svg">
<path d="M31.9965 15.9849C32.1849 24.3926 25.1636 32.006 15.9958 32C6.84299 31.9909 -0.0969545 24.3805 0.00102465 15.9547C0.103526 7.06531 7.13391 -0.00603615 16.0621 3.86643e-06C24.9028 0.00604388 31.9965 7.12118 31.9965 15.9849ZM13.6593 29.4707C13.7437 29.4526 13.8266 29.4345 13.9111 29.4179C13.7965 24.6538 13.3548 19.8747 14.5683 15.2329C14.3587 15.0502 14.2623 14.9203 14.1341 14.8615C13.4739 14.5564 12.8152 14.2469 12.1369 13.9826C10.9461 13.5191 10.4863 12.7218 10.7004 11.2918C10.9626 11.4186 11.1978 11.5425 11.442 11.6482C12.2454 11.997 13.0353 12.3896 13.8613 12.6704C14.9572 13.0434 15.1712 13.3273 15.0009 14.4975C14.8848 15.2933 14.7371 16.0876 14.6768 16.8894C14.621 17.6217 15.3129 18.6229 15.8691 18.7422C16.3515 18.8464 17.0961 18.2227 17.3313 17.427C17.4262 17.1068 17.384 16.7339 17.3494 16.3896C17.271 15.5893 17.1444 14.795 17.066 13.9947C16.9982 13.3107 17.3584 12.9513 17.993 12.7263C18.8884 12.4107 19.7551 12.0121 20.6324 11.6467C20.8721 11.547 21.1088 11.4353 21.3771 11.3145C21.5007 12.9287 21.0907 13.5372 19.722 14.0445C18.9819 14.3194 18.2764 14.6863 17.4594 15.0562C18.6789 19.8822 18.2161 24.6735 18.287 29.4722C18.6412 29.0691 18.8884 28.6448 19.107 28.2069C19.2969 27.8248 19.4491 27.4247 19.6255 27.0351C20.4636 25.1808 21.3364 23.3416 22.1232 21.4662C22.3674 20.8818 22.4729 20.2008 22.4805 19.5621C22.5151 16.4168 22.5121 13.2714 22.4865 10.1261C22.4805 9.37562 22.4624 8.58739 22.2348 7.88675C21.8278 6.63345 21.463 5.28502 20.7108 4.24462C19.3572 2.37222 17.2891 1.86033 15.0597 2.15176C13.2795 2.3843 11.7058 3.19215 10.8978 4.81238C10.0492 6.51416 9.51103 8.36844 9.5246 10.3299C9.5457 13.4254 9.52008 16.5194 9.54269 19.6149C9.5457 20.1087 9.59997 20.6418 9.79291 21.0857C10.9099 23.6663 12.0706 26.2273 13.2267 28.7912C13.3352 29.0328 13.5131 29.2458 13.6593 29.4707Z" fill="#FB2715"/>
</svg>
