<svg width="16" height="16" viewBox="0 0 16 16" fill="none" xmlns="http://www.w3.org/2000/svg">
<path d="M7.99221 1.32623C7.85971 1.3283 7.73346 1.38288 7.64117 1.47797C7.54889 1.57306 7.49812 1.7009 7.50002 1.83339V3.50006C7.49908 3.56632 7.51132 3.6321 7.53603 3.69358C7.56074 3.75507 7.59742 3.81103 7.64394 3.85821C7.69046 3.9054 7.7459 3.94286 7.80703 3.96844C7.86816 3.99401 7.93376 4.00718 8.00002 4.00718C8.06628 4.00718 8.13189 3.99401 8.19301 3.96844C8.25414 3.94286 8.30958 3.9054 8.3561 3.85821C8.40262 3.81103 8.4393 3.75507 8.46401 3.69358C8.48872 3.6321 8.50096 3.56632 8.50002 3.50006V1.83339C8.50098 1.76647 8.4885 1.70004 8.46331 1.63803C8.43812 1.57602 8.40074 1.5197 8.35338 1.47241C8.30603 1.42511 8.24966 1.3878 8.18762 1.36269C8.12558 1.33759 8.05913 1.32519 7.99221 1.32623ZM4.8939 2.15371C4.80722 2.15705 4.7229 2.18289 4.64922 2.22868C4.57555 2.27447 4.51505 2.33865 4.47368 2.41489C4.4323 2.49114 4.41148 2.57683 4.41324 2.66356C4.41501 2.75029 4.4393 2.83507 4.48375 2.90957L5.31708 4.35293C5.34914 4.41125 5.39252 4.46258 5.44468 4.50392C5.49683 4.54526 5.55672 4.57577 5.62082 4.59367C5.68492 4.61156 5.75195 4.61648 5.81798 4.60814C5.88401 4.59979 5.9477 4.57835 6.00534 4.54507C6.06297 4.51179 6.11338 4.46734 6.15361 4.41433C6.19385 4.36131 6.22309 4.3008 6.23964 4.23634C6.25618 4.17187 6.25969 4.10475 6.24996 4.03892C6.24023 3.97308 6.21745 3.90985 6.18296 3.85293L5.34963 2.40957C5.30466 2.32904 5.23828 2.26251 5.15785 2.21736C5.07742 2.1722 4.98607 2.15017 4.8939 2.15371ZM11.0912 2.15371C11.0015 2.15292 10.9133 2.17626 10.8357 2.22127C10.7582 2.26629 10.6942 2.33132 10.6504 2.40957L9.81708 3.85293C9.78259 3.90985 9.75982 3.97308 9.75009 4.03892C9.74035 4.10475 9.74386 4.17187 9.76041 4.23634C9.77695 4.3008 9.8062 4.36131 9.84643 4.41433C9.88666 4.46734 9.93707 4.51179 9.99471 4.54507C10.0523 4.57835 10.116 4.59979 10.1821 4.60814C10.2481 4.61648 10.3151 4.61156 10.3792 4.59367C10.4433 4.57577 10.5032 4.54526 10.5554 4.50392C10.6075 4.46258 10.6509 4.41125 10.683 4.35293L11.5163 2.90957C11.5613 2.83399 11.5856 2.74787 11.5867 2.65991C11.5877 2.57196 11.5656 2.48527 11.5225 2.4086C11.4794 2.33193 11.4168 2.26799 11.3411 2.22324C11.2653 2.17849 11.1791 2.1545 11.0912 2.15371ZM2.67255 4.41347C2.56032 4.40919 2.44991 4.44281 2.35912 4.50892C2.26833 4.57503 2.20243 4.66978 2.17206 4.77791C2.14168 4.88603 2.14858 5.00124 2.19166 5.10496C2.23474 5.20868 2.31148 5.29488 2.40953 5.34967L3.85289 6.183C3.90981 6.21749 3.97304 6.24026 4.03888 6.25C4.10471 6.25973 4.17183 6.25622 4.2363 6.23968C4.30076 6.22313 4.36127 6.19389 4.41429 6.15365C4.4673 6.11342 4.51175 6.06301 4.54503 6.00538C4.57831 5.94774 4.59975 5.88404 4.6081 5.81802C4.61644 5.75199 4.61152 5.68496 4.59363 5.62086C4.57573 5.55676 4.54522 5.49687 4.50388 5.44472C4.46254 5.39256 4.41121 5.34918 4.35289 5.31712L2.90953 4.48378C2.83766 4.44088 2.75618 4.41671 2.67255 4.41347ZM13.3627 4.41347C13.2671 4.41041 13.1726 4.43481 13.0905 4.48378L11.6472 5.31712C11.5888 5.34918 11.5375 5.39256 11.4962 5.44472C11.4548 5.49687 11.4243 5.55676 11.4064 5.62086C11.3885 5.68496 11.3836 5.75199 11.3919 5.81802C11.4003 5.88404 11.4217 5.94774 11.455 6.00538C11.4883 6.06301 11.5327 6.11342 11.5858 6.15365C11.6388 6.19389 11.6993 6.22313 11.7637 6.23968C11.8282 6.25622 11.8953 6.25973 11.9612 6.25C12.027 6.24026 12.0902 6.21749 12.1472 6.183L13.5905 5.34967C13.6859 5.29633 13.7611 5.21322 13.8048 5.11305C13.8485 5.01288 13.8581 4.90117 13.8323 4.795C13.8064 4.68883 13.7465 4.59405 13.6617 4.52515C13.5769 4.45625 13.4719 4.41702 13.3627 4.41347ZM1.83335 7.50006C1.7671 7.49912 1.70132 7.51136 1.63983 7.53607C1.57835 7.56078 1.52239 7.59746 1.4752 7.64398C1.42802 7.6905 1.39055 7.74594 1.36498 7.80707C1.3394 7.8682 1.32623 7.9338 1.32623 8.00006C1.32623 8.06632 1.3394 8.13193 1.36498 8.19305C1.39055 8.25418 1.42802 8.30962 1.4752 8.35614C1.52239 8.40266 1.57835 8.43934 1.63983 8.46405C1.70132 8.48876 1.7671 8.501 1.83335 8.50006H3.50002C3.56628 8.501 3.63206 8.48876 3.69354 8.46405C3.75503 8.43934 3.81099 8.40266 3.85817 8.35614C3.90536 8.30962 3.94282 8.25418 3.9684 8.19305C3.99397 8.13193 4.00714 8.06632 4.00714 8.00006C4.00714 7.9338 3.99397 7.8682 3.9684 7.80707C3.94282 7.74594 3.90536 7.6905 3.85817 7.64398C3.81099 7.59746 3.75503 7.56078 3.69354 7.53607C3.63206 7.51136 3.56628 7.49912 3.50002 7.50006H1.83335ZM12.5 7.50006C12.4338 7.49912 12.368 7.51136 12.3065 7.53607C12.245 7.56078 12.1891 7.59746 12.1419 7.64398C12.0947 7.6905 12.0572 7.74594 12.0316 7.80707C12.0061 7.8682 11.9929 7.9338 11.9929 8.00006C11.9929 8.06632 12.0061 8.13193 12.0316 8.19305C12.0572 8.25418 12.0947 8.30962 12.1419 8.35614C12.1891 8.40266 12.245 8.43934 12.3065 8.46405C12.368 8.48876 12.4338 8.501 12.5 8.50006H14.1667C14.2329 8.501 14.2987 8.48876 14.3602 8.46405C14.4217 8.43934 14.4777 8.40266 14.5248 8.35614C14.572 8.30962 14.6095 8.25418 14.6351 8.19305C14.6606 8.13193 14.6738 8.06632 14.6738 8.00006C14.6738 7.9338 14.6606 7.8682 14.6351 7.80707C14.6095 7.74594 14.572 7.6905 14.5248 7.64398C14.4777 7.59746 14.4217 7.56078 14.3602 7.53607C14.2987 7.51136 14.2329 7.49912 14.1667 7.50006H12.5ZM4.12502 9.74681C4.02945 9.74374 3.93501 9.76814 3.85289 9.81712L2.40953 10.6505C2.3512 10.6825 2.29987 10.7259 2.25853 10.778C2.21719 10.8302 2.18668 10.8901 2.16878 10.9542C2.15089 11.0183 2.14597 11.0853 2.15431 11.1514C2.16266 11.2174 2.1841 11.2811 2.21738 11.3387C2.25066 11.3963 2.29511 11.4468 2.34812 11.487C2.40114 11.5272 2.46165 11.5565 2.52612 11.573C2.59058 11.5896 2.6577 11.5931 2.72353 11.5833C2.78937 11.5736 2.8526 11.5508 2.90953 11.5163L4.35289 10.683C4.44825 10.6297 4.52351 10.5465 4.56717 10.4464C4.61083 10.3462 4.62047 10.2345 4.59463 10.1283C4.56879 10.0222 4.50889 9.92738 4.42408 9.85848C4.33927 9.78958 4.23423 9.75036 4.12502 9.74681ZM11.9095 9.74681C11.7974 9.74268 11.6871 9.77641 11.5964 9.84258C11.5057 9.90874 11.4399 10.0035 11.4096 10.1116C11.3794 10.2197 11.3863 10.3348 11.4294 10.4384C11.4725 10.5421 11.5492 10.6282 11.6472 10.683L13.0905 11.5163C13.1474 11.5508 13.2107 11.5736 13.2765 11.5833C13.3423 11.5931 13.4095 11.5896 13.4739 11.573C13.5384 11.5565 13.5989 11.5272 13.6519 11.487C13.7049 11.4468 13.7494 11.3963 13.7827 11.3387C13.8159 11.2811 13.8374 11.2174 13.8457 11.1514C13.8541 11.0853 13.8492 11.0183 13.8313 10.9542C13.8134 10.8901 13.7828 10.8302 13.7415 10.778C13.7002 10.7259 13.6488 10.6825 13.5905 10.6505L12.1472 9.81712C12.0751 9.77411 11.9934 9.74993 11.9095 9.74681ZM5.75783 11.3907C5.66811 11.39 5.57985 11.4134 5.5023 11.4585C5.42475 11.5037 5.36077 11.5688 5.31708 11.6472L4.48375 13.0906C4.44926 13.1475 4.42648 13.2107 4.41675 13.2765C4.40702 13.3424 4.41053 13.4095 4.42707 13.474C4.44362 13.5384 4.47286 13.5989 4.51309 13.652C4.55333 13.705 4.60374 13.7494 4.66137 13.7827C4.71901 13.816 4.7827 13.8374 4.84873 13.8458C4.91476 13.8541 4.98179 13.8492 5.04589 13.8313C5.10999 13.8134 5.16988 13.7829 5.22203 13.7415C5.27419 13.7002 5.31757 13.6489 5.34963 13.5906L6.18296 12.1472C6.22813 12.0716 6.25253 11.9854 6.2537 11.8974C6.25487 11.8093 6.23277 11.7225 6.18963 11.6457C6.14649 11.569 6.08384 11.505 6.00802 11.4602C5.9322 11.4154 5.84589 11.3914 5.75783 11.3907ZM10.2272 11.3913C10.1406 11.3947 10.0562 11.4205 9.98256 11.4663C9.90888 11.5121 9.84838 11.5763 9.80701 11.6525C9.76564 11.7288 9.74481 11.8145 9.74657 11.9012C9.74834 11.9879 9.77264 12.0727 9.81708 12.1472L10.6504 13.5906C10.6825 13.6489 10.7259 13.7002 10.778 13.7415C10.8302 13.7829 10.8901 13.8134 10.9542 13.8313C11.0183 13.8492 11.0853 13.8541 11.1513 13.8458C11.2173 13.8374 11.281 13.816 11.3387 13.7827C11.3963 13.7494 11.4467 13.705 11.4869 13.652C11.5272 13.5989 11.5564 13.5384 11.573 13.474C11.5895 13.4095 11.593 13.3424 11.5833 13.2765C11.5736 13.2107 11.5508 13.1475 11.5163 13.0906L10.683 11.6472C10.638 11.5667 10.5716 11.5001 10.4912 11.455C10.4108 11.4098 10.3194 11.3878 10.2272 11.3913ZM7.99221 11.9929C7.85971 11.995 7.73346 12.0495 7.64117 12.1446C7.54889 12.2397 7.49812 12.3676 7.50002 12.5001V14.1667C7.49908 14.233 7.51132 14.2988 7.53603 14.3602C7.56074 14.4217 7.59742 14.4777 7.64394 14.5249C7.69046 14.5721 7.7459 14.6095 7.80703 14.6351C7.86816 14.6607 7.93376 14.6738 8.00002 14.6738C8.06628 14.6738 8.13189 14.6607 8.19301 14.6351C8.25414 14.6095 8.30958 14.5721 8.3561 14.5249C8.40262 14.4777 8.4393 14.4217 8.46401 14.3602C8.48872 14.2988 8.50096 14.233 8.50002 14.1667V12.5001C8.50098 12.4331 8.4885 12.3667 8.46331 12.3047C8.43812 12.2427 8.40074 12.1864 8.35338 12.1391C8.30603 12.0918 8.24966 12.0545 8.18762 12.0294C8.12558 12.0043 8.05913 11.9919 7.99221 11.9929Z" fill="#F5BC17"/>
</svg>
