<svg width="24" height="24" viewBox="0 0 24 24" fill="black" xmlns="http://www.w3.org/2000/svg">
<path d="M19.6679 2.64478C19.5643 2.63721 19.4577 2.64295 19.3505 2.66431C19.3505 2.66464 19.3505 2.66496 19.3505 2.66529L15.7792 3.37916C15.1767 3.49951 14.6315 3.81827 14.2313 4.28443L11.9999 6.88502L9.76845 4.28443C9.3683 3.81827 8.82308 3.49951 8.2206 3.37916L4.65029 2.66529H4.64931C3.79077 2.49386 2.99442 3.30774 3.18447 4.16236L3.87978 7.29224C4.00346 7.84742 4.29628 8.35144 4.71767 8.73365L7.92177 11.636L5.95498 13.927L4.89736 12.8694C4.82825 12.7974 4.74547 12.7399 4.65388 12.7004C4.56228 12.6608 4.46371 12.6399 4.36393 12.6388C4.26415 12.6378 4.16517 12.6567 4.07279 12.6945C3.98041 12.7322 3.89648 12.7879 3.82592 12.8585C3.75536 12.9291 3.69959 13.013 3.66187 13.1054C3.62416 13.1977 3.60525 13.2967 3.60627 13.3965C3.60728 13.4963 3.62819 13.5949 3.66778 13.6865C3.70737 13.7781 3.76483 13.8608 3.83681 13.9299L5.17373 15.2669L3.24892 17.1907C3.10293 17.0629 2.9131 16.9967 2.71932 17.0059C2.52553 17.0151 2.34285 17.0991 2.20964 17.2401C2.07643 17.3812 2.00306 17.5683 2.00492 17.7623C2.00678 17.9563 2.08373 18.1421 2.21962 18.2805L2.63173 18.6926C2.67951 18.7593 2.7379 18.8177 2.80459 18.8655L4.63173 20.6926C4.67951 20.7593 4.7379 20.8177 4.80459 20.8655L5.21963 21.2805C5.35809 21.4164 5.54382 21.4934 5.73782 21.4952C5.93181 21.4971 6.11899 21.4237 6.26003 21.2905C6.40108 21.1573 6.48502 20.9746 6.49424 20.7808C6.50346 20.587 6.43723 20.3972 6.30947 20.2512L8.23427 18.3274L9.33681 19.4299C9.40592 19.5019 9.4887 19.5594 9.58029 19.599C9.67189 19.6386 9.77046 19.6595 9.87024 19.6605C9.97002 19.6615 10.069 19.6426 10.1614 19.6049C10.2538 19.5672 10.3377 19.5114 10.4083 19.4408C10.4788 19.3703 10.5346 19.2863 10.5723 19.194C10.61 19.1016 10.6289 19.0026 10.6279 18.9028C10.6269 18.803 10.606 18.7045 10.5664 18.6129C10.5268 18.5213 10.4693 18.4385 10.3974 18.3694L9.56338 17.5354L11.9999 15.3284L14.6815 17.7581L13.7196 18.72C13.6476 18.7891 13.5902 18.8719 13.5506 18.9635C13.511 19.0551 13.4901 19.1536 13.4891 19.2534C13.4881 19.3532 13.507 19.4522 13.5447 19.5445C13.5824 19.6369 13.6382 19.7209 13.7087 19.7914C13.7793 19.862 13.8632 19.9177 13.9556 19.9555C14.048 19.9932 14.147 20.0121 14.2467 20.0111C14.3465 20.0101 14.4451 19.9891 14.5367 19.9496C14.6283 19.91 14.7111 19.8525 14.7802 19.7805L15.9999 18.5608L17.6903 20.2522C17.565 20.3986 17.5008 20.5875 17.5111 20.7799C17.5213 20.9723 17.6052 21.1534 17.7453 21.2856C17.8855 21.4178 18.0711 21.491 18.2638 21.4901C18.4564 21.4891 18.6413 21.4141 18.7802 21.2805L21.7802 18.2805C21.9194 18.1427 21.9991 17.9558 22.0023 17.7599C22.0055 17.5641 21.932 17.3747 21.7974 17.2324C21.6628 17.09 21.4779 17.0059 21.2821 16.9982C21.0864 16.9904 20.8954 17.0595 20.7499 17.1907L19.0604 15.5003L20.2802 14.2805C20.3522 14.2114 20.4096 14.1286 20.4492 14.037C20.4888 13.9454 20.5097 13.8469 20.5107 13.7471C20.5117 13.6473 20.4928 13.5483 20.4551 13.456C20.4174 13.3636 20.3616 13.2796 20.2911 13.2091C20.2205 13.1385 20.1366 13.0828 20.0442 13.045C19.9518 13.0073 19.8528 12.9884 19.7531 12.9894C19.6533 12.9904 19.5547 13.0114 19.4631 13.0509C19.3715 13.0905 19.2887 13.148 19.2196 13.22L18.2606 14.179L16.077 11.636L19.2821 8.73267C19.704 8.35045 19.9969 7.84683 20.12 7.29127L20.8153 4.16236C20.9817 3.4144 20.3926 2.69781 19.6679 2.64478ZM4.73134 4.21119L7.92666 4.84986C8.20018 4.9045 8.44794 5.05013 8.62978 5.26197L11.0106 8.03638L8.89834 10.4973L5.72548 7.62232C5.53388 7.44853 5.39997 7.2189 5.34365 6.96607L4.73134 4.21119ZM19.2685 4.21119L18.6562 6.96607C18.6558 6.96607 18.6555 6.96607 18.6552 6.96607C18.5993 7.21826 18.4671 7.44763 18.2753 7.62135L8.50185 16.4739L7.01943 14.9915L15.37 5.26099C15.5519 5.04916 15.7996 4.9045 16.0731 4.84986L19.2685 4.21119ZM14.9657 12.6428L17.1112 15.1428C17.0924 15.2118 17.0835 15.2832 17.0849 15.3547L15.8524 16.5872C15.784 16.5857 15.7156 16.5936 15.6493 16.6106L13.1171 14.3167L14.9657 12.6428ZM6.23427 16.3274L7.17373 17.2669L5.2499 19.1897L4.31045 18.2503L6.23427 16.3274ZM17.9999 16.5608L19.6894 18.2503L18.7499 19.1897L17.0604 17.5003L17.9999 16.5608Z" />
</svg>
