<?xml version="1.0" encoding="utf-8"?>
<!-- Uploaded to SVGRepo https://www.svgrepo.com -->
<svg version="1.2" baseProfile="tiny" id="Layer_1" xmlns="http://www.w3.org/2000/svg" xmlns:xlink="http://www.w3.org/1999/xlink"
	 x="0px" y="0px" viewBox="-1077 923 256 256" xml:space="preserve">
<path d="M-830.9,1123.5l-76.3-114.4v-60.7h9c6.6,0,12.1-5.4,12.1-12.1v0c0-6.6-5.4-12.1-12.1-12.1h-101.5c-6.6,0-12.1,5.4-12.1,12.1
	v0c0,6.6,5.4,12.1,12.1,12.1h9v60.7l-76.3,114.4c-4.5,5.7-7.2,12.9-7.2,20.7c0,18.4,15,33.4,33.4,33.4h183.9
	c18.4,0,33.4-14.9,33.4-33.4C-823.7,1136.4-826.4,1129.2-830.9,1123.5z M-1007.4,1097.4l-41.6,60.7c-4.6-2.8-7.7-8-7.7-14
	c0-3.4,1-6.6,2.8-9.2l80-119.8v-66.7h43.4l0,11.8h-26.7v14.7h26.7l0,22.3h-26.7v14.7h26.7l0,22.3h-26.7v14.7h26.7l0,22.3h-26.7v14.7
	h26.7l0,11.5H-1007.4z"/>
</svg>
