<?xml version="1.0" encoding="utf-8"?>

<svg version="1.1" id="Layer_1"
	 xmlns="http://www.w3.org/2000/svg" x="0px" y="0px" width="24px" height="24px"
	 viewBox="0 0 24 24" enable-background="new 0 0 24 24">
<g>
	<g>
		<g>
			<g>
				<path d="M20,24H4c-2.2,0-4-1.8-4-4V5c0-0.6,0.4-1,1-1h22c0.6,0,1,0.4,1,1v15C24,22.2,22.2,24,20,24z M2,6v14c0,1.1,0.9,2,2,2h16
					c1.1,0,2-0.9,2-2V6H2z"/>
			</g>
		</g>
		<g>
			<g>
				<path stroke="#2D2D2D" stroke-width="2" stroke-linecap="round" stroke-linejoin="round" stroke-miterlimit="10" d="M12,6"/>
			</g>
		</g>
	</g>
	<g>
		<g>
			<path d="M23,5H1V4c0-1.7,1.3-3,3-3h16c1.7,0,3,1.3,3,3V5z"/>
		</g>
		<g>
			<path d="M23,6H1C0.4,6,0,5.6,0,5V4c0-2.2,1.8-4,4-4h16c2.2,0,4,1.8,4,4v1C24,5.6,23.6,6,23,6z M2,4h20c0-1.1-0.9-2-2-2H4
				C2.9,2,2,2.9,2,4z"/>
		</g>
	</g>
	<g>
		<g>
			<path d="M7,24c-0.6,0-1-0.4-1-1V5c0-0.6,0.4-1,1-1s1,0.4,1,1v18C8,23.6,7.6,24,7,24z"/>
		</g>
	</g>
	<g>
		<g>
			<path stroke="#2D2D2D" stroke-width="2" stroke-linecap="round" stroke-linejoin="round" stroke-miterlimit="10" d="M1,8"/>
		</g>
	</g>
	<g>
		<g>
			<path stroke="#2D2D2D" stroke-width="2" stroke-linecap="round" stroke-linejoin="round" stroke-miterlimit="10" d="M23,8"/>
		</g>
	</g>
	<g>
		<g>
			<path d="M23,12H1c-0.6,0-1-0.4-1-1s0.4-1,1-1h22c0.6,0,1,0.4,1,1S23.6,12,23,12z"/>
		</g>
	</g>
	<g>
		<g>
			<path d="M23,18H1c-0.6,0-1-0.4-1-1s0.4-1,1-1h22c0.6,0,1,0.4,1,1S23.6,18,23,18z"/>
		</g>
	</g>
</g>
</svg>
