<svg xmlns="http://www.w3.org/2000/svg" width="48" height="48" viewBox="0 0 48 48" fill="currentColor">
<path id="path2" d="M 24,4 C 12.972,4 4,12.972 4,24 c 0,11.028 8.972,20 20,20 7.422511,0 13.914214,-4.063877 17.365234,-10.083984 0.0079,-0.01386 0.01357,-0.02909 0.02148,-0.04297 -0.98396,-0.675574 -1.809667,-1.154832 -2.499999,-1.671887 C 35.987625,37.442222 30.40166,41 24,41 14.626,41 7,33.374 7,24 7,14.626 14.626,7 24,7 c 4.446,0 8.485578,1.7292032 11.517578,4.533203 L 37.638672,9.4121094 C 34.061672,6.0651094 29.273,4 24,4 Z m 15.470703,6.986328 c -0.3896,0.0114 -0.75945,0.173825 -1.03125,0.453125 L 21.5,28.378906 c -0.513649,0.435101 -0.610085,0.918381 -0.5625,1.316406 0.05675,0.474669 0.318359,0.828125 0.318359,0.828126 0,0 0.596189,0.607111 1.296875,0.617187 0.267818,0.0039 0.55117,-0.08018 0.822266,-0.318359 L 40.560547,13.560547 c 0.2164,-0.2107 0.364128,-0.481244 0.423828,-0.777344 0.0598,-0.2961 0.02796,-0.604612 -0.08984,-0.882812 -0.1177,-0.2782 -0.316112,-0.514535 -0.570312,-0.677735 -0.2542,-0.1632 -0.551616,-0.245028 -0.853516,-0.236328 z m 2.402344,4.089844 -2.244141,2.24414 C 40.508906,19.371313 41,21.629 41,24 c 0,0.815131 -0.07425,1.611637 -0.185547,2.396484 1.391723,0.299098 1.396887,0.303919 2.833987,0.646411 C 43.881335,25.824877 44,25.285041 44,24 44,20.791 43.222047,17.767172 41.873047,15.076172 Z" />
<path d="m 41.065399,29.473931 c -0.0114,-0.3896 -0.1739,-0.7594 -0.4532,-1.0312 l -16.9394,-16.9395 c -0.435101,-0.513649 -0.919323,-0.609594 -1.31735,-0.562009 -0.474667,0.05675 -0.82675,0.317623 -0.82675,0.317623 0,0 -0.607955,0.595688 -0.618031,1.296374 -0.0039,0.267818 0.07964,0.550975 0.317819,0.822071 l 17.262712,17.186441 c 0.2107,0.2164 0.4819,0.3642 0.778,0.4239 0.2961,0.0598 0.6033,0.0287 0.8815,-0.0891 0.2782,-0.1177 0.5143,-0.3167 0.6775,-0.5709 0.1632,-0.2542 0.2459,-0.5518 0.2372,-0.8537 z" id="path2-4"/>
</svg>
