<svg width="14" height="14" viewBox="0 0 14 14" fill="black" xmlns="http://www.w3.org/2000/svg">
<path d="M6.99996 1.16699C3.78348 1.16699 1.16663 3.78385 1.16663 7.00033C1.16663 10.2168 3.78348 12.8337 6.99996 12.8337C10.2164 12.8337 12.8333 10.2168 12.8333 7.00033C12.8333 3.78385 10.2164 1.16699 6.99996 1.16699ZM6.99996 2.04199C9.74356 2.04199 11.9583 4.25673 11.9583 7.00033C11.9583 9.74392 9.74356 11.9587 6.99996 11.9587C4.25636 11.9587 2.04163 9.74392 2.04163 7.00033C2.04163 4.25673 4.25636 2.04199 6.99996 2.04199ZM6.98344 4.08423C6.92319 4.08647 6.86406 4.10114 6.80976 4.12731C6.75545 4.15349 6.70713 4.1906 6.66785 4.23633L4.91785 6.278C4.86338 6.34152 4.82828 6.41933 4.81669 6.50221C4.80511 6.58508 4.81753 6.66953 4.85249 6.74556C4.88744 6.82159 4.94346 6.886 5.01391 6.93115C5.08436 6.97631 5.16628 7.00031 5.24996 7.00033H6.56246V9.47949C6.56164 9.53747 6.57235 9.59503 6.59397 9.64882C6.61559 9.70262 6.64768 9.75159 6.68839 9.79287C6.7291 9.83416 6.7776 9.86695 6.83109 9.88932C6.88458 9.9117 6.94198 9.92322 6.99996 9.92322C7.05794 9.92322 7.11534 9.9117 7.16883 9.88932C7.22232 9.86695 7.27082 9.83416 7.31153 9.79287C7.35224 9.75159 7.38433 9.70262 7.40595 9.64882C7.42757 9.59503 7.43828 9.53747 7.43746 9.47949V7.00033H8.74996C8.83364 7.00031 8.91556 6.97631 8.98601 6.93115C9.05646 6.886 9.11248 6.82159 9.14743 6.74556C9.18239 6.66953 9.19481 6.58508 9.18323 6.50221C9.17164 6.41933 9.13654 6.34152 9.08207 6.278L7.33207 4.23633C7.28916 4.18637 7.23551 4.14675 7.17515 4.12041C7.11478 4.09408 7.04925 4.08171 6.98344 4.08423ZM6.99996 5.19336L7.79862 6.12533H7.07174C7.02477 6.11761 6.97686 6.11761 6.92989 6.12533H6.20129L6.99996 5.19336Z" />
</svg>
