<svg width="14" height="14" viewBox="0 0 14 14" fill="black"
  xmlns="http://www.w3.org/2000/svg">
  <path d="M7.00004 12.833C10.2165 12.833 12.8334 10.2162 12.8334 6.99967C12.8334 3.7832 10.2165 1.16634 7.00004 1.16634C3.78356 1.16634 1.16671 3.78319 1.16671 6.99967C1.16671 10.2162 3.78356 12.833 7.00004 12.833ZM7.00004 11.958C4.25644 11.958 2.04171 9.74327 2.04171 6.99967C2.04171 4.25608 4.25644 2.04134 7.00004 2.04134C9.74364 2.04134 11.9584 4.25608 11.9584 6.99967C11.9584 9.74327 9.74364 11.958 7.00004 11.958Z" />
  <mask id="mask0" mask-type="alpha" maskUnits="userSpaceOnUse" x="0" y="0" width="13" height="13">
    <ellipse cx="6.85421" cy="6.56283" rx="5.97917" ry="5.97917" transform="rotate(-180 6.85421 6.56283)" />
  </mask>
  <g mask="url(#mask0)">
    <path d="M7.00021 17.5C7.30532 17.5 7.61061 17.4058 7.86838 17.2174C8.57872 16.6985 9.88233 15.9185 11.3239 15.7682C11.8572 15.7125 12.2723 15.2452 12.2491 14.703C12.0119 9.15327 8.47587 7.01337 7.43771 6.51921C7.16257 6.38845 6.83842 6.38845 6.56328 6.51921C5.52513 7.01337 1.98909 9.15327 1.75192 14.703L1.75192 14.7035C1.72923 15.2456 2.14393 15.7125 2.67705 15.7682L2.67762 15.7682C4.119 15.9187 5.42237 16.6985 6.13262 17.2174C6.39038 17.4058 6.69511 17.5 7.00021 17.5ZM7.00021 16.6284C6.87788 16.6284 6.75584 16.5893 6.64873 16.5111C5.86924 15.9416 4.45966 15.0741 2.7682 14.8978L2.76763 14.8978C2.67861 14.8885 2.6228 14.8248 2.62635 14.74C2.84846 9.54834 6.06816 7.72436 6.93869 7.3099C6.98147 7.28957 7.01953 7.28957 7.06231 7.3099C7.93288 7.72438 11.1528 9.54845 11.3746 14.7406C11.3783 14.8252 11.3229 14.8885 11.2334 14.8978L11.2328 14.8978C9.54133 15.0741 8.13175 15.9416 7.35226 16.5111C7.24515 16.5893 7.12255 16.6284 7.00021 16.6284Z" />
  </g>
</svg>
