<svg width="24" height="24" viewBox="0 0 18 18" fill="none" xmlns="http://www.w3.org/2000/svg">
<path d="M13.75 11.5C14.4404 11.5 15 10.9404 15 10.25C15 9.55964 14.4404 9 13.75 9C13.0596 9 12.5 9.55964 12.5 10.25C12.5 10.9404 13.0596 11.5 13.75 11.5Z" fill="#AACDFF"/>
<path d="M13.75 11.5C14.4404 11.5 15 10.9404 15 10.25C15 9.55964 14.4404 9 13.75 9C13.0596 9 12.5 9.55964 12.5 10.25C12.5 10.9404 13.0596 11.5 13.75 11.5Z" fill="#AACDFF"/>
<path d="M13.75 11.5C14.4404 11.5 15 10.9404 15 10.25C15 9.55964 14.4404 9 13.75 9C13.0596 9 12.5 9.55964 12.5 10.25C12.5 10.9404 13.0596 11.5 13.75 11.5Z" fill="#AACDFF"/>
<path d="M12.87 3.00012H2.25V2.99512H12.82C12.835 2.99512 12.855 2.99512 12.87 3.00012Z" fill="#AACDFF"/>
<path d="M18 5.505C18 5.51 18 5.51 18 5.515V15.75C18 16.985 16.985 18 15.75 18H2.25C1.015 18 0 16.985 0 15.75V2.25C0 2.195 0.005 2.14 0.015 2.085C0.105 0.93 1.07 0 2.25 0H10.27C10.685 0.005 11.015 0.345 11.01 0.76C11.005 1.175 10.665 1.505 10.25 1.5H2.25C1.825 1.5 1.5 1.825 1.5 2.25C1.5 2.675 1.825 3 2.25 3H12.87C13.26 3.03 13.565 3.355 13.56 3.755C13.555 4.17 13.22 4.5 12.805 4.5C12.8 4.5 12.8 4.5 12.795 4.5H1.5V15.75C1.5 16.175 1.825 16.5 2.25 16.5H15.75C16.175 16.5 16.5 16.175 16.5 15.75V5.49C16.505 5.08 16.845 4.745 17.26 4.755C17.67 4.76 18 5.095 18 5.505Z" fill="#AACDFF"/>
<path d="M18 2C18 2.635 17.705 3.205 17.24 3.57C16.895 3.84 16.465 4 16 4C15.26 4 14.615 3.6 14.27 3C14.1 2.705 14 2.365 14 2C14 0.895 14.895 0 16 0C17.105 0 18 0.895 18 2Z" fill="#FB2715"/>
</svg>
