<svg
   xmlns="http://www.w3.org/2000/svg"
   width="24"
   height="24"
   viewBox="0 0 18 18"
   fill="none"
   >
  <g
     id="g833"
     transform="translate(0.0444918,-0.34957635)">
    <path
       style="stroke-width:0.79166663"
       inkscapeconnector-curvature="0"
       id="path2"
       d="m 12.715925,11.328743 c 0.546567,0 0.989584,-0.443017 0.989584,-0.989583 0,-0.5465346 -0.443017,-0.9895836 -0.989584,-0.9895836 -0.546566,0 -0.989583,0.443049 -0.989583,0.9895836 0,0.546566 0.443017,0.989583 0.989583,0.989583 z" />
    <path
       style="stroke-width:0.79166663"
       inkscapeconnector-curvature="0"
       id="path4"
       d="m 12.715925,11.328743 c 0.546567,0 0.989584,-0.443017 0.989584,-0.989583 0,-0.5465346 -0.443017,-0.9895836 -0.989584,-0.9895836 -0.546566,0 -0.989583,0.443049 -0.989583,0.9895836 0,0.546566 0.443017,0.989583 0.989583,0.989583 z" />
    <path
       style="stroke-width:0.79166663"
       inkscapeconnector-curvature="0"
       id="path6"
       d="m 12.715925,11.328743 c 0.546567,0 0.989584,-0.443017 0.989584,-0.989583 0,-0.5465346 -0.443017,-0.9895836 -0.989584,-0.9895836 -0.546566,0 -0.989583,0.443049 -0.989583,0.9895836 0,0.546566 0.443017,0.989583 0.989583,0.989583 z" />
    <path
       style="stroke-width:0.79166663"
       inkscapeconnector-curvature="0"
       id="path8"
       d="M 12.019259,4.5996716 H 3.6117583 v -0.00396 h 8.3679167 c 0.01187,0 0.02771,0 0.03959,0.00396 z" />
    <path
       style="stroke-width:0.79166663"
       inkscapeconnector-curvature="0"
       id="path10"
       d="m 16.080508,6.5827015 c 0,0.00396 0,0.00396 0,0.00791 v 8.1027145 c 0,0.977709 -0.803541,1.78125 -1.781249,1.78125 H 3.6117583 c -0.9777082,0 -1.7812499,-0.803541 -1.7812499,-1.78125 V 4.0058266 c 0,-0.043541 0.00396,-0.087084 0.011875,-0.130625 0.07125,-0.9143749 0.8352083,-1.6506249 1.7693749,-1.6506249 H 9.960925 c 0.328541,0.00396 0.589791,0.273125 0.585834,0.6016666 -0.004,0.3285417 -0.273125,0.5897917 -0.6016675,0.5858333 H 3.6117583 c -0.3364583,0 -0.5937499,0.2572917 -0.5937499,0.59375 0,0.3364584 0.2572916,0.59375 0.5937499,0.59375 h 8.4075007 c 0.30875,0.02375 0.550208,0.2810416 0.54625,0.5977084 -0.004,0.3285416 -0.269167,0.5897916 -0.597709,0.5897916 -0.004,0 -0.004,0 -0.0079,0 H 3.0180084 v 8.9062494 c 0,0.336459 0.2572916,0.59375 0.5937499,0.59375 H 14.299259 c 0.336458,0 0.59375,-0.257291 0.59375,-0.59375 V 6.5708265 c 0.004,-0.3245833 0.273125,-0.5897916 0.601666,-0.5818749 0.324584,0.00396 0.585834,0.2691666 0.585833,0.5937499 z" />
    <path
       style="fill:#fb2715;stroke-width:0.79166663"
       inkscapeconnector-curvature="0"
       id="path12"
       d="m 16.080508,3.80791 c 0,0.5027083 -0.233541,0.9539582 -0.601666,1.2429166 -0.273125,0.21375 -0.613542,0.3404166 -0.981667,0.3404166 -0.585833,0 -1.096458,-0.3166666 -1.369583,-0.7916666 -0.134583,-0.2335416 -0.21375,-0.5027083 -0.21375,-0.7916666 0,-0.8747917 0.708542,-1.5833333 1.583333,-1.5833333 0.874792,0 1.583333,0.7085416 1.583333,1.5833333 z" />
  </g>
</svg>
