<svg
   xmlns="http://www.w3.org/2000/svg"
   width="24"
   height="24"
   viewBox="0 0 18 18"
   fill="none"
   version="1.1"
>
  <g
     id="g833"
     transform="translate(1.875,-1.875)">
    <path
       style="stroke-width:0.79166669"
       inkscapeconnector-curvature="0"
       id="path2"
       d="m 10.885417,12.854167 c 0.546566,0 0.989583,-0.443017 0.989583,-0.989584 0,-0.546535 -0.443017,-0.989583 -0.989583,-0.989583 -0.546567,0 -0.9895837,0.443048 -0.9895837,0.989583 0,0.546567 0.4430167,0.989584 0.9895837,0.989584 z" />
    <path
       style="stroke-width:0.79166669"
       inkscapeconnector-curvature="0"
       id="path4"
       d="m 10.885417,12.854167 c 0.546566,0 0.989583,-0.443017 0.989583,-0.989584 0,-0.546535 -0.443017,-0.989583 -0.989583,-0.989583 -0.546567,0 -0.9895837,0.443048 -0.9895837,0.989583 0,0.546567 0.4430167,0.989584 0.9895837,0.989584 z" />
    <path
       style="stroke-width:0.79166669"
       inkscapeconnector-curvature="0"
       id="path6"
       d="m 10.885417,12.854167 c 0.546566,0 0.989583,-0.443017 0.989583,-0.989584 0,-0.546535 -0.443017,-0.989583 -0.989583,-0.989583 -0.546567,0 -0.9895837,0.443048 -0.9895837,0.989583 0,0.546567 0.4430167,0.989584 0.9895837,0.989584 z" />
    <path
       style="stroke-width:0.79166669"
       inkscapeconnector-curvature="0"
       id="path8"
       d="m 10.18875,6.125095 h -8.4075 v -0.00396 h 8.367917 c 0.01187,0 0.02771,0 0.03958,0.00396 z" />
    <path
       style="stroke-width:0.79166669"
       inkscapeconnector-curvature="0"
       id="path10"
       d="m 14.25,8.108125 c 0,0.00396 0,0.00396 0,0.00792 V 16.21875 C 14.25,17.196458 13.446458,18 12.46875,18 H 1.78125 C 0.80354167,18 0,17.196458 0,16.21875 V 5.53125 C 0,5.4877083 0.00395833,5.4441667 0.011875,5.400625 0.083125,4.48625 0.84708333,3.75 1.78125,3.75 H 8.1304167 C 8.4589583,3.7539583 8.7202083,4.023125 8.71625,4.3516667 8.7122917,4.6802083 8.443125,4.9414583 8.1145833,4.9375 H 1.78125 c -0.3364583,0 -0.59375,0.2572917 -0.59375,0.59375 0,0.3364583 0.2572917,0.59375 0.59375,0.59375 h 8.4075 C 10.4975,6.14875 10.738958,6.4060417 10.735,6.7227083 10.731042,7.05125 10.465833,7.3125 10.137292,7.3125 c -0.004,0 -0.004,0 -0.0079,0 H 1.1875 v 8.90625 c 0,0.336458 0.2572917,0.59375 0.59375,0.59375 h 10.6875 c 0.336458,0 0.59375,-0.257292 0.59375,-0.59375 V 8.09625 C 13.0665,7.7716667 13.335625,7.5064583 13.664167,7.514375 13.98875,7.5183333 14.25,7.7835417 14.25,8.108125 Z" />
    <path
       style="fill:#13cf54;stroke-width:0.79166669"
       inkscapeconnector-curvature="0"
       id="path12"
       d="M 14.25,5.3333333 C 14.25,5.8360417 14.016458,6.2872917 13.648333,6.57625 13.375208,6.79 13.034792,6.9166667 12.666667,6.9166667 12.080833,6.9166667 11.570208,6.6 11.297083,6.125 11.1625,5.8914583 11.083333,5.6222917 11.083333,5.3333333 11.083333,4.4585417 11.791875,3.75 12.666667,3.75 13.541458,3.75 14.25,4.4585417 14.25,5.3333333 Z" />
  </g>
</svg>
