<svg width="48" height="48" viewBox="0 0 48 48" fill="none" xmlns="http://www.w3.org/2000/svg">
<path d="M24.0488 2.00024C23.6621 1.98817 23.2856 2.12603 22.998 2.38501C22.998 2.38501 15.4902 9.00024 6.5 9.00024C6.10219 9.00028 5.72068 9.15833 5.43938 9.43963C5.15809 9.72092 5.00004 10.1024 5 10.5002V22.76C5 29.4381 8.08941 40.4266 23.418 46.8831C23.6022 46.9606 23.8001 47.0006 24 47.0006C24.1999 47.0006 24.3978 46.9606 24.582 46.8831C39.9106 40.4266 43 29.4381 43 22.76V10.5002C43 10.1024 42.8419 9.72092 42.5606 9.43963C42.2793 9.15833 41.8978 9.00028 41.5 9.00024C32.5098 9.00024 25.002 2.38501 25.002 2.38501C24.7395 2.14852 24.4019 2.01226 24.0488 2.00024ZM24 5.42798C26.063 7.08661 32.1113 11.3374 40 11.8752V22.76C40 28.5023 37.7934 37.7659 24 43.8264C10.2066 37.7659 8 28.5023 8 22.76V11.8752C15.8887 11.3374 21.937 7.08661 24 5.42798ZM23.9766 14.9788C23.5791 14.985 23.2003 15.1487 22.9235 15.434C22.6466 15.7192 22.4943 16.1028 22.5 16.5002V26.5002C22.4972 26.699 22.5339 26.8964 22.608 27.0808C22.6822 27.2653 22.7922 27.4331 22.9318 27.5747C23.0713 27.7162 23.2376 27.8287 23.421 27.9054C23.6044 27.9821 23.8012 28.0216 24 28.0216C24.1988 28.0216 24.3956 27.9821 24.579 27.9054C24.7624 27.8287 24.9287 27.7162 25.0682 27.5747C25.2078 27.4331 25.3178 27.2653 25.392 27.0808C25.4661 26.8964 25.5028 26.699 25.5 26.5002V16.5002C25.5029 16.2995 25.4654 16.1002 25.3899 15.9142C25.3143 15.7281 25.2022 15.5592 25.0601 15.4173C24.918 15.2754 24.7489 15.1635 24.5628 15.0881C24.3767 15.0128 24.1773 14.9756 23.9766 14.9788ZM24 31.0002C23.4696 31.0002 22.9609 31.211 22.5858 31.586C22.2107 31.9611 22 32.4698 22 33.0002C22 33.5307 22.2107 34.0394 22.5858 34.4145C22.9609 34.7895 23.4696 35.0002 24 35.0002C24.5304 35.0002 25.0391 34.7895 25.4142 34.4145C25.7893 34.0394 26 33.5307 26 33.0002C26 32.4698 25.7893 31.9611 25.4142 31.586C25.0391 31.211 24.5304 31.0002 24 31.0002Z" fill="#FB2715"/>
</svg>
