<svg width="83.82mm" height="83.82mm" clip-rule="evenodd" fill-rule="evenodd" image-rendering="optimizeQuality" shape-rendering="geometricPrecision" text-rendering="geometricPrecision" version="1.1" viewBox="0 0 8382 8382"
  xmlns="http://www.w3.org/2000/svg">
  <path class="fil0" d="m4191-2c2316 0 4193 1877 4193 4193s-1877 4193-4193 4193-4193-1877-4193-4193 1877-4193 4193-4193z" fill="#794FDD"/>
  <path class="fil1" d="m5563 3252c-99-61-229-61-338 0l-775 469-527 306-775 469c-99 61-229 61-338 0l-616-367c-99-61-169-173-169-296v-724c0-122 60-235 169-296l606-357c99-61 229-61 338 0l606 357c99 61 169 173 169 296v469l527-316v-469c0-122-60-235-169-296l-1123-673c-99-61-229-61-338 0l-1143 673c-109 61-169 173-169 296v1357c0 122 60 235 169 296l1143 673c99 61 229 61 338 0l775-459 527-316 775-459c99-61 229-61 338 0l606 357c99 61 169 173 169 296v724c0 122-60 235-169 296l-606 367c-99 61-229 61-338 0l-606-357c-99-61-169-173-169-296v-469l-527 316v469c0 122 60 235 169 296l1143 673c99 61 229 61 338 0l1143-673c99-61 169-173 169-296v-1357c0-122-60-235-169-296l-1153-684z" fill="white"/>
</svg>
