<svg width="730" height="250" viewBox="0 0 730 250" fill="none" xmlns="http://www.w3.org/2000/svg">
<ellipse cx="133.5" cy="123.5" rx="98.5" ry="97.5" fill="black"/>
<path d="M237.975 124.399C239.23 180.363 192.494 231.04 131.471 231C70.5483 230.94 24.3547 180.283 25.0068 124.198C25.6891 65.0285 72.4848 17.9598 131.912 18C190.758 18.0402 237.975 65.4004 237.975 124.399ZM115.919 214.165C116.481 214.044 117.033 213.923 117.595 213.813C116.832 182.102 113.893 150.291 121.969 119.394C120.575 118.178 119.933 117.314 119.08 116.922C114.685 114.891 110.301 112.831 105.786 111.072C97.8592 107.986 94.799 102.679 96.2237 93.1611C97.9696 94.0054 99.5348 94.8296 101.16 95.5331C106.508 97.8549 111.765 100.468 117.264 102.338C124.558 104.82 125.983 106.71 124.849 114.499C124.076 119.796 123.093 125.083 122.692 130.42C122.321 135.295 126.926 141.959 130.628 142.753C133.839 143.446 138.795 139.295 140.361 133.998C140.993 131.867 140.712 129.385 140.481 127.093C139.959 121.766 139.116 116.479 138.595 111.152C138.143 106.599 140.541 104.207 144.765 102.71C150.725 100.609 156.494 97.9554 162.334 95.5231C163.929 94.8597 165.504 94.1159 167.29 93.3119C168.113 104.056 165.384 108.107 156.274 111.484C151.347 113.313 146.652 115.756 141.213 118.218C149.33 150.341 146.25 182.233 146.722 214.175C149.08 211.491 150.725 208.667 152.18 205.752C153.444 203.209 154.457 200.546 155.631 197.952C161.21 185.61 167.019 173.368 172.257 160.884C173.882 156.995 174.584 152.462 174.635 148.21C174.865 127.274 174.845 106.338 174.675 85.4018C174.635 80.4064 174.514 75.1598 172.999 70.4962C170.29 62.1539 167.862 53.1784 162.855 46.2533C153.845 33.7901 140.08 30.3828 125.24 32.3226C113.391 33.8705 102.916 39.2478 97.5381 50.0324C91.8893 61.3599 88.3074 73.7025 88.3977 86.7586C88.5382 107.363 88.3676 127.958 88.5181 148.562C88.5382 151.849 88.8994 155.397 90.1837 158.352C97.6184 175.529 105.344 192.575 113.04 209.642C113.762 211.25 114.946 212.667 115.919 214.165Z" fill="#FB2715"/>
<path d="M327.455 107.616C325.556 107.616 323.477 107.565 321.218 107.462C318.959 107.359 316.752 107.231 314.596 107.077C312.491 106.923 310.566 106.743 308.821 106.538V100.917C310.669 101.071 312.594 101.225 314.596 101.379C316.649 101.533 318.626 101.661 320.525 101.764C322.476 101.867 324.118 101.918 325.453 101.918C328.174 101.918 330.355 101.815 331.998 101.61C333.641 101.353 335.027 100.891 336.156 100.224C336.926 99.762 337.491 99.146 337.85 98.376C338.209 97.606 338.415 96.7077 338.466 95.681C338.569 94.6543 338.62 93.5507 338.62 92.37C338.62 90.6247 338.569 89.213 338.466 88.135C338.363 87.057 338.081 86.2357 337.619 85.671C337.208 85.055 336.515 84.6187 335.54 84.362C334.565 84.054 333.256 83.823 331.613 83.669L318.446 82.206C315.982 81.898 314.006 81.3847 312.517 80.666C311.028 79.896 309.899 78.9463 309.129 77.817C308.41 76.6363 307.923 75.2503 307.666 73.659C307.409 72.0163 307.281 70.194 307.281 68.192C307.281 64.958 307.692 62.3657 308.513 60.415C309.386 58.4643 310.643 56.9757 312.286 55.949C313.929 54.9223 315.905 54.255 318.215 53.947C320.576 53.5877 323.271 53.408 326.3 53.408C328.251 53.408 330.253 53.4593 332.306 53.562C334.359 53.6647 336.284 53.8187 338.081 54.024C339.929 54.178 341.443 54.3833 342.624 54.64V60.107C341.289 59.9017 339.749 59.722 338.004 59.568C336.259 59.414 334.462 59.3113 332.614 59.26C330.817 59.1573 329.098 59.106 327.455 59.106C324.632 59.106 322.347 59.2343 320.602 59.491C318.857 59.7477 317.471 60.2097 316.444 60.877C315.315 61.5443 314.596 62.494 314.288 63.726C314.031 64.9067 313.903 66.344 313.903 68.038C313.903 70.04 314.031 71.6057 314.288 72.735C314.596 73.813 315.212 74.583 316.136 75.045C317.111 75.4557 318.549 75.7637 320.448 75.969L333.307 77.432C335.155 77.586 336.772 77.8427 338.158 78.202C339.595 78.51 340.827 79.049 341.854 79.819C342.881 80.589 343.651 81.6927 344.164 83.13C344.472 83.8487 344.703 84.6443 344.857 85.517C345.011 86.3897 345.114 87.365 345.165 88.443C345.268 89.4697 345.319 90.6247 345.319 91.908C345.319 94.834 345.037 97.2723 344.472 99.223C343.907 101.122 343.112 102.637 342.085 103.766C341.058 104.895 339.801 105.742 338.312 106.307C336.823 106.872 335.155 107.231 333.307 107.385C331.51 107.539 329.56 107.616 327.455 107.616ZM358.173 107V54.024H381.35C384.738 54.024 387.433 54.4603 389.435 55.333C391.488 56.1543 393.002 57.3093 393.978 58.798C395.004 60.2867 395.697 62.0577 396.057 64.111C396.416 66.113 396.596 68.3203 396.596 70.733C396.596 73.043 396.416 75.2247 396.057 77.278C395.749 79.28 395.081 81.051 394.055 82.591C393.028 84.131 391.488 85.3373 389.435 86.21C387.381 87.0827 384.635 87.519 381.196 87.519H364.795V107H358.173ZM364.795 81.744H379.04C381.555 81.744 383.531 81.5387 384.969 81.128C386.457 80.7173 387.561 80.0757 388.28 79.203C388.998 78.279 389.46 77.124 389.666 75.738C389.871 74.352 389.974 72.6837 389.974 70.733C389.974 68.7823 389.871 67.114 389.666 65.728C389.512 64.342 389.075 63.2127 388.357 62.34C387.689 61.4673 386.611 60.8257 385.123 60.415C383.685 59.953 381.709 59.722 379.194 59.722H364.795V81.744ZM399.626 107L419.646 54.024H427.962L447.905 107H441.052L435.585 92.524H411.792L406.325 107H399.626ZM413.794 86.749H433.583L423.881 60.8H423.496L413.794 86.749ZM457.806 107V54.024H482.138C485.475 54.024 488.119 54.4347 490.069 55.256C492.071 56.026 493.534 57.1553 494.458 58.644C495.434 60.0813 496.075 61.7753 496.383 63.726C496.691 65.6767 496.845 67.7557 496.845 69.963C496.845 71.8623 496.666 73.8387 496.306 75.892C495.998 77.894 495.254 79.7163 494.073 81.359C492.944 83.0017 491.147 84.208 488.683 84.978L497.615 107H490.531L481.753 84.747L483.601 85.671C483.242 85.7737 482.806 85.8507 482.292 85.902C481.779 85.9533 481.086 85.979 480.213 85.979H464.428V107H457.806ZM464.428 80.204H479.289C481.856 80.204 483.858 79.9987 485.295 79.588C486.784 79.1773 487.862 78.5357 488.529 77.663C489.248 76.7903 489.71 75.738 489.915 74.506C490.121 73.2227 490.223 71.7083 490.223 69.963C490.223 68.2177 490.121 66.729 489.915 65.497C489.761 64.2137 489.351 63.1613 488.683 62.34C488.067 61.4673 487.041 60.8257 485.603 60.415C484.217 59.953 482.292 59.722 479.828 59.722H464.428V80.204ZM521.537 107V59.876H504.828V54.024H544.945V59.876H528.159V107H521.537ZM544.076 107L564.096 54.024H572.412L592.355 107H585.502L580.035 92.524H556.242L550.775 107H544.076ZM558.244 86.749H578.033L568.331 60.8H567.946L558.244 86.749ZM602.257 107V54.024H609.033L636.522 94.603H636.83V54.024H643.221V107H636.83L608.956 65.651H608.648V107H602.257ZM284.857 195V142.024H308.034C311.422 142.024 314.117 142.46 316.119 143.333C318.173 144.154 319.687 145.309 320.662 146.798C321.689 148.287 322.382 150.058 322.741 152.111C323.101 154.113 323.28 156.32 323.28 158.733C323.28 161.043 323.101 163.225 322.741 165.278C322.433 167.28 321.766 169.051 320.739 170.591C319.713 172.131 318.173 173.337 316.119 174.21C314.066 175.083 311.32 175.519 307.88 175.519H291.479V195H284.857ZM291.479 169.744H305.724C308.24 169.744 310.216 169.539 311.653 169.128C313.142 168.717 314.246 168.076 314.964 167.203C315.683 166.279 316.145 165.124 316.35 163.738C316.556 162.352 316.658 160.684 316.658 158.733C316.658 156.782 316.556 155.114 316.35 153.728C316.196 152.342 315.76 151.213 315.041 150.34C314.374 149.467 313.296 148.826 311.807 148.415C310.37 147.953 308.394 147.722 305.878 147.722H291.479V169.744ZM335.088 195V142.024H359.42C362.756 142.024 365.4 142.435 367.351 143.256C369.353 144.026 370.816 145.155 371.74 146.644C372.715 148.081 373.357 149.775 373.665 151.726C373.973 153.677 374.127 155.756 374.127 157.963C374.127 159.862 373.947 161.839 373.588 163.892C373.28 165.894 372.535 167.716 371.355 169.359C370.225 171.002 368.429 172.208 365.965 172.978L374.897 195H367.813L359.035 172.747L360.883 173.671C360.523 173.774 360.087 173.851 359.574 173.902C359.06 173.953 358.367 173.979 357.495 173.979H341.71V195H335.088ZM341.71 168.204H356.571C359.137 168.204 361.139 167.999 362.577 167.588C364.065 167.177 365.143 166.536 365.811 165.663C366.529 164.79 366.991 163.738 367.197 162.506C367.402 161.223 367.505 159.708 367.505 157.963C367.505 156.218 367.402 154.729 367.197 153.497C367.043 152.214 366.632 151.161 365.965 150.34C365.349 149.467 364.322 148.826 362.885 148.415C361.499 147.953 359.574 147.722 357.11 147.722H341.71V168.204ZM407.365 195.616C403.258 195.616 399.844 195.411 397.124 195C394.454 194.538 392.324 193.742 390.733 192.613C389.193 191.484 388.063 189.918 387.345 187.916C386.626 185.863 386.164 183.27 385.959 180.139C385.753 176.956 385.651 173.081 385.651 168.512C385.651 163.943 385.753 160.093 385.959 156.962C386.164 153.779 386.626 151.187 387.345 149.185C388.063 147.132 389.193 145.54 390.733 144.411C392.324 143.282 394.454 142.512 397.124 142.101C399.844 141.639 403.258 141.408 407.365 141.408C411.471 141.408 414.859 141.639 417.529 142.101C420.249 142.512 422.38 143.282 423.92 144.411C425.511 145.54 426.666 147.132 427.385 149.185C428.103 151.187 428.565 153.779 428.771 156.962C428.976 160.093 429.079 163.943 429.079 168.512C429.079 173.081 428.976 176.956 428.771 180.139C428.565 183.27 428.103 185.863 427.385 187.916C426.666 189.918 425.511 191.484 423.92 192.613C422.38 193.742 420.249 194.538 417.529 195C414.859 195.411 411.471 195.616 407.365 195.616ZM407.365 189.918C410.188 189.918 412.524 189.841 414.372 189.687C416.22 189.482 417.683 189.045 418.761 188.378C419.839 187.711 420.66 186.633 421.225 185.144C421.789 183.604 422.123 181.499 422.226 178.83C422.38 176.161 422.457 172.721 422.457 168.512C422.457 164.303 422.38 160.863 422.226 158.194C422.123 155.525 421.789 153.446 421.225 151.957C420.66 150.417 419.839 149.313 418.761 148.646C417.683 147.979 416.22 147.568 414.372 147.414C412.524 147.209 410.188 147.106 407.365 147.106C404.541 147.106 402.206 147.209 400.358 147.414C398.561 147.568 397.098 147.979 395.969 148.646C394.891 149.313 394.069 150.417 393.505 151.957C392.991 153.446 392.658 155.525 392.504 158.194C392.35 160.863 392.273 164.303 392.273 168.512C392.273 172.721 392.35 176.161 392.504 178.83C392.658 181.499 392.991 183.604 393.505 185.144C394.069 186.633 394.891 187.711 395.969 188.378C397.098 189.045 398.561 189.482 400.358 189.687C402.206 189.841 404.541 189.918 407.365 189.918ZM454.011 195V147.876H437.302V142.024H477.419V147.876H460.633V195H454.011ZM507.299 195.616C503.193 195.616 499.779 195.411 497.058 195C494.389 194.538 492.259 193.742 490.667 192.613C489.127 191.484 487.998 189.918 487.279 187.916C486.561 185.863 486.099 183.27 485.893 180.139C485.688 176.956 485.585 173.081 485.585 168.512C485.585 163.943 485.688 160.093 485.893 156.962C486.099 153.779 486.561 151.187 487.279 149.185C487.998 147.132 489.127 145.54 490.667 144.411C492.259 143.282 494.389 142.512 497.058 142.101C499.779 141.639 503.193 141.408 507.299 141.408C511.406 141.408 514.794 141.639 517.463 142.101C520.184 142.512 522.314 143.282 523.854 144.411C525.446 145.54 526.601 147.132 527.319 149.185C528.038 151.187 528.5 153.779 528.705 156.962C528.911 160.093 529.013 163.943 529.013 168.512C529.013 173.081 528.911 176.956 528.705 180.139C528.5 183.27 528.038 185.863 527.319 187.916C526.601 189.918 525.446 191.484 523.854 192.613C522.314 193.742 520.184 194.538 517.463 195C514.794 195.411 511.406 195.616 507.299 195.616ZM507.299 189.918C510.123 189.918 512.458 189.841 514.306 189.687C516.154 189.482 517.617 189.045 518.695 188.378C519.773 187.711 520.595 186.633 521.159 185.144C521.724 183.604 522.058 181.499 522.16 178.83C522.314 176.161 522.391 172.721 522.391 168.512C522.391 164.303 522.314 160.863 522.16 158.194C522.058 155.525 521.724 153.446 521.159 151.957C520.595 150.417 519.773 149.313 518.695 148.646C517.617 147.979 516.154 147.568 514.306 147.414C512.458 147.209 510.123 147.106 507.299 147.106C504.476 147.106 502.14 147.209 500.292 147.414C498.496 147.568 497.033 147.979 495.903 148.646C494.825 149.313 494.004 150.417 493.439 151.957C492.926 153.446 492.592 155.525 492.438 158.194C492.284 160.863 492.207 164.303 492.207 168.512C492.207 172.721 492.284 176.161 492.438 178.83C492.592 181.499 492.926 183.604 493.439 185.144C494.004 186.633 494.825 187.711 495.903 188.378C497.033 189.045 498.496 189.482 500.292 189.687C502.14 189.841 504.476 189.918 507.299 189.918ZM562.108 195.616C558.412 195.616 555.306 195.411 552.791 195C550.275 194.538 548.222 193.768 546.631 192.69C545.039 191.561 543.807 189.995 542.935 187.993C542.113 185.94 541.549 183.322 541.241 180.139C540.933 176.956 540.779 173.081 540.779 168.512C540.779 163.943 540.933 160.093 541.241 156.962C541.549 153.779 542.113 151.187 542.935 149.185C543.807 147.132 545.039 145.54 546.631 144.411C548.222 143.282 550.275 142.512 552.791 142.101C555.306 141.639 558.412 141.408 562.108 141.408C563.545 141.408 565.008 141.459 566.497 141.562C568.037 141.665 569.5 141.793 570.886 141.947C572.272 142.101 573.478 142.306 574.505 142.563V147.876C573.324 147.722 572.092 147.594 570.809 147.491C569.577 147.337 568.345 147.234 567.113 147.183C565.881 147.132 564.777 147.106 563.802 147.106C560.824 147.106 558.335 147.234 556.333 147.491C554.331 147.748 552.739 148.261 551.559 149.031C550.378 149.75 549.48 150.905 548.864 152.496C548.299 154.036 547.914 156.115 547.709 158.733C547.503 161.3 547.401 164.559 547.401 168.512C547.401 172.465 547.503 175.75 547.709 178.368C547.914 180.935 548.299 183.014 548.864 184.605C549.48 186.145 550.378 187.3 551.559 188.07C552.739 188.789 554.331 189.276 556.333 189.533C558.335 189.79 560.824 189.918 563.802 189.918C565.547 189.918 567.446 189.841 569.5 189.687C571.553 189.533 573.324 189.353 574.813 189.148V194.615C573.735 194.82 572.451 194.974 570.963 195.077C569.525 195.231 568.037 195.359 566.497 195.462C564.957 195.565 563.494 195.616 562.108 195.616ZM606.783 195.616C602.676 195.616 599.262 195.411 596.542 195C593.872 194.538 591.742 193.742 590.151 192.613C588.611 191.484 587.481 189.918 586.763 187.916C586.044 185.863 585.582 183.27 585.377 180.139C585.171 176.956 585.069 173.081 585.069 168.512C585.069 163.943 585.171 160.093 585.377 156.962C585.582 153.779 586.044 151.187 586.763 149.185C587.481 147.132 588.611 145.54 590.151 144.411C591.742 143.282 593.872 142.512 596.542 142.101C599.262 141.639 602.676 141.408 606.783 141.408C610.889 141.408 614.277 141.639 616.947 142.101C619.667 142.512 621.798 143.282 623.338 144.411C624.929 145.54 626.084 147.132 626.803 149.185C627.521 151.187 627.983 153.779 628.189 156.962C628.394 160.093 628.497 163.943 628.497 168.512C628.497 173.081 628.394 176.956 628.189 180.139C627.983 183.27 627.521 185.863 626.803 187.916C626.084 189.918 624.929 191.484 623.338 192.613C621.798 193.742 619.667 194.538 616.947 195C614.277 195.411 610.889 195.616 606.783 195.616ZM606.783 189.918C609.606 189.918 611.942 189.841 613.79 189.687C615.638 189.482 617.101 189.045 618.179 188.378C619.257 187.711 620.078 186.633 620.643 185.144C621.207 183.604 621.541 181.499 621.644 178.83C621.798 176.161 621.875 172.721 621.875 168.512C621.875 164.303 621.798 160.863 621.644 158.194C621.541 155.525 621.207 153.446 620.643 151.957C620.078 150.417 619.257 149.313 618.179 148.646C617.101 147.979 615.638 147.568 613.79 147.414C611.942 147.209 609.606 147.106 606.783 147.106C603.959 147.106 601.624 147.209 599.776 147.414C597.979 147.568 596.516 147.979 595.387 148.646C594.309 149.313 593.487 150.417 592.923 151.957C592.409 153.446 592.076 155.525 591.922 158.194C591.768 160.863 591.691 164.303 591.691 168.512C591.691 172.721 591.768 176.161 591.922 178.83C592.076 181.499 592.409 183.604 592.923 185.144C593.487 186.633 594.309 187.711 595.387 188.378C596.516 189.045 597.979 189.482 599.776 189.687C601.624 189.841 603.959 189.918 606.783 189.918ZM642.11 195V142.024H648.732V189.148H673.449V195H642.11Z" fill="black"/>
</svg>
