<svg xmlns="http://www.w3.org/2000/svg" version="1.1" id="Layer_1" x="0px" y="0px" width="40px" height="40px" viewBox="0 0 40 40" style="enable-background:new 0 0 40 40;">
   <style type="text/css" id="style2">
	.st0{fill:#0A0001;}
	.st1{fill:#FB2715;}
	.st2{fill:url(#SVGID_1_);}
   </style>
   <circle class="st0" cx="20" cy="20" r="19.950001" id="circle4" style="fill:#0a0001;stroke-width:0.9975" />

   <linearGradient id="SVGID_1_" gradientUnits="userSpaceOnUse" x1="-964.31372" y1="514.70294" x2="-965.5686" y2="513.44171" gradientTransform="matrix(0,-19.5,-19.498034,0,10042.968,-18796.525)">
      <stop offset="0" style="stop-color:#1a68ff;stop-opacity:1" id="stop8" />
      <stop offset="1" style="stop-color:#FB2715" id="stop10" />
   </linearGradient>
   <path class="st2" d="M 39.496705,20 C 39.691684,30.2375 31.210082,39.5 19.998768,39.5 8.8849448,39.5 0.40334227,30.2375 0.50083195,19.902501 0.59832164,9.08 9.1774138,0.5 20.096258,0.5 30.820123,0.5 39.496705,9.1775 39.496705,20 Z M 17.171567,36.38 c 0.09749,0 0.19498,0 0.292469,-0.0975 -0.09749,-5.85 -0.682427,-11.6025 0.779918,-17.2575 -0.292469,-0.195 -0.389959,-0.39 -0.487448,-0.4875 -0.779918,-0.39 -1.559835,-0.779999 -2.437243,-1.072499 C 13.856918,16.88 13.27198,15.905001 13.564449,14.15 c 0.292469,0.195001 0.584938,0.2925 0.877407,0.39 0.974897,0.39 1.949794,0.8775 2.924691,1.2675 1.364855,0.4875 1.559835,0.78 1.364855,2.242501 C 18.633912,19.025 18.438933,20 18.341444,20.975 c -0.09749,0.8775 0.779917,2.145 1.462345,2.2425 0.584938,0.0975 1.462345,-0.585 1.754814,-1.56 0.09749,-0.39 0.09749,-0.8775 0,-1.2675 -0.09749,-0.975 -0.292469,-1.95 -0.389959,-2.924999 -0.09749,-0.877501 0.389959,-1.2675 1.169877,-1.56 C 23.410907,15.515 24.483294,15.0275 25.55568,14.6375 c 0.292469,-0.0975 0.584938,-0.292499 0.877407,-0.39 0.19498,1.950001 -0.389958,2.73 -2.047283,3.315 -0.877407,0.2925 -1.754814,0.78 -2.729711,1.2675 1.462345,5.85 0.877407,11.7 0.974897,17.55 0.389958,-0.4875 0.779917,-0.975 0.974897,-1.56 0.194979,-0.4875 0.389958,-0.975 0.584938,-1.4625 0.974896,-2.2425 2.047283,-4.484999 3.02218,-6.825 0.292469,-0.6825 0.389959,-1.56 0.389959,-2.34 0,-3.8025 0,-7.7025 0,-11.505 0,-0.8775 0,-1.8525 -0.292469,-2.73 C 26.823046,8.3975 26.335598,6.74 25.458191,5.4725 23.800866,3.230001 21.266134,2.5475 18.536423,2.937501 16.684119,3.425 14.734325,4.4 13.759429,6.350001 c -1.072387,2.047499 -1.657325,4.29 -1.657325,6.727499 0,3.8025 0,7.5075 0,11.31 0,0.585 0.09749,1.2675 0.292469,1.755 1.364856,3.12 2.729711,6.24 4.192056,9.36 0.19498,0.39 0.389959,0.6825 0.584938,0.8775 z" id="path13" style="fill:url(#SVGID_1_);fill-opacity:1;stroke-width:0.97494841" inkscapeconnector-curvature="0" />
</svg>