<svg xmlns="http://www.w3.org/2000/svg" version="1.1" id="Layer_1" x="0px" y="0px" width="40px" height="40px" viewBox="0 0 40 40" style="enable-background:new 0 0 40 40;">
   <style type="text/css" id="style2">
	.st0{fill:#0A0001;}
	.st1{fill:#FB2715;}
	.st2{fill:url(#SVGID_1_);}
   </style>
   <circle class="st0" cx="20" cy="20" id="circle4" style="fill:#0a0001;stroke-width:0.9975" r="19.950001" />

   <linearGradient id="SVGID_1_" gradientUnits="userSpaceOnUse" x1="-964.30725" y1="514.66522" x2="-965.51709" y2="513.46521" gradientTransform="matrix(0,-19.5,-19.498034,0,10042.969,-18796.525)">
      <stop offset="0" style="stop-color:#f5bc17;stop-opacity:1" id="stop8" />
      <stop offset="1" style="stop-color:#FB2715" id="stop10" />
   </linearGradient>
   <path class="st2" d="M 39.496705,20 C 39.691684,30.2375 31.210082,39.5 19.998768,39.5 8.884945,39.5 0.40334237,30.2375 0.50083237,19.9025 0.59832237,9.0800002 9.177414,0.4999998 20.096258,0.4999998 30.820123,0.4999998 39.496705,9.1775002 39.496705,20 Z M 17.171567,36.38 c 0.09749,0 0.19498,0 0.292469,-0.0975 -0.09749,-5.85 -0.682427,-11.6025 0.779918,-17.2575 -0.292469,-0.195 -0.389959,-0.39 -0.487448,-0.4875 -0.779918,-0.39 -1.559835,-0.78 -2.437243,-1.0725 -1.462345,-0.585 -2.047283,-1.56 -1.754814,-3.315 0.292469,0.195 0.584938,0.2925 0.877407,0.39 0.974897,0.39 1.949794,0.8775 2.924691,1.2675 1.364855,0.4875 1.559835,0.78 1.364855,2.2425 -0.09749,0.975 -0.292469,1.95 -0.389958,2.925 -0.09749,0.8775 0.779917,2.145 1.462345,2.2425 0.584938,0.0975 1.462345,-0.585 1.754814,-1.56 0.09749,-0.39 0.09749,-0.8775 0,-1.2675 -0.09749,-0.975 -0.292469,-1.95 -0.389959,-2.925 -0.09749,-0.8775 0.389959,-1.2675 1.169877,-1.56 1.072386,-0.39 2.144773,-0.8775 3.217159,-1.2675 0.292469,-0.0975 0.584938,-0.2925 0.877407,-0.39 0.19498,1.95 -0.389958,2.73 -2.047283,3.315 -0.877407,0.2925 -1.754814,0.78 -2.729711,1.2675 1.462345,5.85 0.877407,11.7 0.974897,17.55 0.389958,-0.4875 0.779917,-0.975 0.974897,-1.56 0.194979,-0.4875 0.389958,-0.975 0.584938,-1.4625 0.974896,-2.2425 2.047283,-4.485 3.02218,-6.825 0.292469,-0.6825 0.389959,-1.56 0.389959,-2.34 0,-3.8025 0,-7.7025 0,-11.505 0,-0.8775 0,-1.8525 -0.29247,-2.7299998 -0.487448,-1.56 -0.974896,-3.2175 -1.852303,-4.4850002 C 23.800866,3.2299999 21.266134,2.5474999 18.536423,2.9374999 16.684119,3.4249999 14.734325,4.4 13.759429,6.3500002 12.687042,8.3975002 12.102104,10.64 12.102104,13.0775 c 0,3.8025 0,7.5075 0,11.31 0,0.585 0.09749,1.2675 0.292469,1.755 1.364856,3.12 2.729711,6.24 4.192056,9.36 0.19498,0.39 0.389959,0.6825 0.584938,0.8775 z" id="path13" style="fill:url(#SVGID_1_);fill-opacity:1;stroke-width:0.97494841" />
</svg>