<?xml version="1.0" encoding="UTF-8"?>
<svg version="1.1" viewBox="0 0 2e3 2e3"
  xmlns="http://www.w3.org/2000/svg">
  <path d="m1e3 1975c540.32 0 975-434.68 975-975 0-540.32-434.68-975-975-975-540.32 0-975 434.68-975 975 0 540.32 434.68 975 975 975z" fill="#f0b90b" stroke-width=".975"/>
  <path d="m1429.9 1227.8c0-224.6-134.76-301.6-404.28-333.68-192.52-25.674-231.02-77.006-231.02-166.86 0-89.851 64.177-147.59 192.52-147.59 115.51 0 179.69 38.503 211.77 134.76 6.4223 19.252 25.674 32.081 44.925 32.081h102.66c25.674 0 44.925-19.252 44.925-44.91v-6.4223c-25.674-141.18-141.18-250.27-288.77-263.1v-154.01c0-25.674-19.252-44.925-51.332-51.348h-96.258c-25.674 0-44.925 19.252-51.348 51.348v147.59c-192.52 25.674-314.43 154.01-314.43 314.45 0 211.77 128.34 295.18 397.86 327.28 179.69 32.081 237.44 70.584 237.44 173.26s-89.851 173.26-211.77 173.26c-166.86 0-224.61-70.599-243.86-166.86-6.4069-25.658-25.658-38.503-44.91-38.503h-109.1c-25.658 0-44.91 19.252-44.91 44.925v6.4223c25.658 160.42 128.34 275.93 340.1 308.02v154.01c0 25.658 19.252 44.91 51.332 51.332h96.258c25.674 0 44.925-19.252 51.348-51.332v-154.01c192.52-32.096 320.85-166.86 320.85-340.12z" fill="#000000" stroke-width="1.5401"/>
</svg>
