<svg xmlns="http://www.w3.org/2000/svg" width="32" height="32" fill="none"><circle cx="16" cy="16" r="16" fill="#000"/><path d="M15 9.334A5.674 5.674 0 009.333 15a5.676 5.676 0 005.076 5.636 4.496 4.496 0 003.758 2.03c2.479 0 4.5-2.02 4.5-4.5 0-1.569-.81-2.953-2.032-3.757A5.676 5.676 0 0015 9.334zm0 1a4.656 4.656 0 014.648 4.303.502.502 0 00.008.162c.003.067.01.133.01.201A4.66 4.66 0 0115 19.667c-.086 0-.17-.009-.255-.013A4.655 4.655 0 0110.333 15 4.66 4.66 0 0115 10.334zm5.622 5.343a3.476 3.476 0 011.045 2.49c0 1.939-1.562 3.5-3.5 3.5-.978 0-1.857-.4-2.49-1.044a5.675 5.675 0 004.945-4.946z" fill="#605E68"/></svg>