<svg width="32" height="32" version="1.1"
  xmlns="http://www.w3.org/2000/svg">
  <circle cx="16" cy="16" r="15.875" stroke-width=".99535"/>
  <circle cx="16" cy="16" r="14.25" fill="#a80005" fill-opacity=".97101" stroke-width="1.0671"/>
  <path d="m12.754 31.604c-3.135-0.68-5.704-2.086-7.992-4.37-2.056-2.055-3.22-4.022-4.134-6.984-0.357-1.158-0.374-1.334-0.38-4.117-5e-3 -2.771 0.012-2.971 0.368-4.243 2.192-7.846 9.774-12.735 17.86-11.516 6.131 0.924 11.216 5.46 12.908 11.516 0.356 1.272 0.373 1.472 0.367 4.243-5e-3 2.783-0.022 2.96-0.379 4.117-0.913 2.962-2.078 4.93-4.134 6.983-2.327 2.324-4.904 3.718-8.102 4.383-1.28 0.266-5.134 0.259-6.382-0.012zm5.764-0.259c6.6014-1.1186 11.764-6.3055 12.852-12.912 0.444-2.693 0.043-5.856-1.075-8.488-0.906-2.133-2.935-4.733-4.827-6.186-1.879-1.443-4.451-2.583-6.72-2.978-1.486-0.26-4.01-0.26-5.496 0-2.269 0.395-4.841 1.535-6.72 2.978-1.892 1.453-3.921 4.053-4.827 6.186-1.118 2.632-1.52 5.795-1.075 8.488 1.398 8.49 9.517 14.35 17.888 12.912zm-4.614-0.964c-6.174-0.981-11.128-5.774-12.175-11.776-0.813-4.663 0.683-9.427 4.005-12.749 3.06-3.06 7.053-4.505 11.542-4.177 6.43 0.47 11.872 5.438 12.998 11.868 1.301 7.431-3.338 14.583-10.726 16.532-0.78 0.206-1.58 0.288-3.142 0.321-1.153 0.025-2.28 0.017-2.502-0.019zm4.9-0.377c4.833-1.017 8.69-4.283 10.53-8.916 0.67-1.686 0.908-3.006 0.908-5.023 0-2.977-0.745-5.436-2.428-8.016-0.66-1.012-2.737-3.081-3.766-3.754-5.08-3.318-11.016-3.318-16.096 0-1.03 0.673-3.105 2.742-3.766 3.754-1.035 1.587-1.81 3.416-2.194 5.184-0.313 1.438-0.315 4.217-4e-3 5.645 1.31 6.009 6.134 10.45 12.3 11.323 1.085 0.153 3.313 0.056 4.516-0.197zm-5.272-2.195c-0.41016-0.77486-0.77322-1.619-1.102-2.262-0.4-0.752-1.083-2.25-1.517-3.328l-0.787-1.961-0.053-4.58c-0.063-5.412 0.035-6.481 0.79-8.574 0.47-1.303 0.6-1.523 1.242-2.118 2.219-2.059 5.895-1.99 7.975 0.15 0.473 0.486 0.722 0.906 0.99 1.664 0.832 2.362 0.789 1.964 0.848 7.798l0.054 5.431-0.757 1.925c-0.417 1.058-1.122 2.62-1.566 3.472-0.445 0.85-0.809 1.618-0.81 1.706 0 0.248-0.753 1.321-0.855 1.22-0.05-0.05-0.09-2.128-0.09-4.617 0-3.343-0.054-4.882-0.205-5.894-0.26-1.741-0.481-2.534-0.374-1.338 0.068 0.757 0.039 0.9-0.287 1.392-0.697 1.052-1.411 1.018-2.066-0.1-0.287-0.49-0.328-0.69-0.262-1.29 0.14-1.288-0.15-0.07-0.396 1.657-0.19 1.33-0.22 2.38-0.176 5.941 0.03 2.38 0.014 4.26-0.035 4.181-0.057-0.093-0.107-0.096-0.14-8e-3 -0.027 0.075-0.217-0.135-0.421-0.467zm1.511-13.673c8e-3 -0.359-0.073-0.493-0.43-0.71-0.241-0.147-0.573-0.268-0.737-0.269-0.165 0-0.818-0.274-1.453-0.609-0.635-0.334-1.177-0.608-1.205-0.608-0.134 0 0.328 1.544 0.528 1.765 0.125 0.139 0.601 0.377 1.057 0.53 1.227 0.412 1.902 0.832 1.97 1.225 0.044 0.257 0.081 0.193 0.159-0.274 0.05705-0.34759 0.09411-0.69816 0.111-1.05zm3.84 0.232c0.643-0.244 1.284-0.57 1.424-0.726 0.233-0.258 0.633-1.77 0.442-1.669-1.242 0.653-2.43 1.184-2.645 1.184-0.422 1e-3 -1.157 0.503-1.157 0.79 0 0.14 0.037 0.527 0.083 0.86l0.083 0.606 0.3-0.3c0.165-0.165 0.827-0.5 1.47-0.745z"/>
</svg>
